<?xml version="1.0" standalone="no"?><!DOCTYPE svg PUBLIC "-//W3C//DTD SVG 1.1//EN" "http://www.w3.org/Graphics/SVG/1.1/DTD/svg11.dtd"><svg height="1024" node-id="1" sillyvg="true" template-height="1024" template-width="1024" version="1.1" viewBox="0 0 1024 1024" width="1024" xmlns="http://www.w3.org/2000/svg" xmlns:xlink="http://www.w3.org/1999/xlink"><defs node-id="88"><linearGradient gradientUnits="userSpaceOnUse" id="SVGID_1_" node-id="83" spreadMethod="pad" x1="560.5316" x2="473.3252" y1="567.4478" y2="517.0992"><stop offset="0.2403" stop-color="#dd5543" stop-opacity="0"></stop><stop offset="1" stop-color="#dd5543" stop-opacity="0.6"></stop></linearGradient></defs><g node-id="281"><path d="M 1024.50 512.48 C 1024.50 649.25 970.88 773.58 883.42 865.39 C 869.21 880.40 854.01 894.57 837.98 907.77 C 829.50 914.79 820.83 921.45 811.91 927.89 C 727.74 988.70 624.28 1024.50 512.48 1024.50 C 503.95 1024.50 495.38 1024.32 487.03 1023.83 C 477.83 1023.39 468.73 1022.76 459.71 1021.74 C 395.70 1015.30 335.25 996.91 280.52 969.01 C 256.22 956.66 232.99 942.36 211.18 926.32 C 186.17 908.11 162.90 887.72 141.57 865.38 C 54.16 773.62 0.50 649.33 0.50 512.48 C 0.50 229.70 229.75 0.50 512.48 0.50 C 795.25 0.50 1024.50 229.70 1024.50 512.48 Z" fill="#fd835d" fill-rule="nonzero" group-id="1" node-id="99" stroke="none" target-height="1024" target-width="1024" target-x="0.5" target-y="0.5"></path></g><path d="M 883.41 865.39 C 869.19 880.40 854.00 894.57 837.97 907.77 C 829.49 914.79 820.82 921.45 811.90 927.89 C 757.13 967.47 694.19 996.43 626.09 1011.84 C 589.53 1020.10 551.51 1024.50 512.46 1024.50 C 503.93 1024.50 495.36 1024.32 487.01 1023.83 C 477.82 1023.39 468.71 1022.76 459.69 1021.74 C 439.04 1019.70 418.73 1016.36 398.92 1011.83 C 357.26 1002.46 317.59 987.89 280.50 969.01 C 256.20 956.66 232.97 942.36 211.16 926.32 C 186.15 908.11 162.88 887.72 141.55 865.38 C 196.45 829.62 279.47 802.35 377.29 789.07 C 390.84 787.20 404.65 785.65 418.73 784.36 C 448.94 781.61 480.34 780.14 512.50 780.14 C 541.50 780.14 569.85 781.34 597.30 783.56 C 614.49 784.98 631.33 786.80 647.72 789.07 C 745.53 802.36 828.51 829.63 883.41 865.39 Z" fill="#152140" fill-rule="nonzero" node-id="102" stroke="none" target-height="244.35999" target-width="741.86" target-x="141.55" target-y="780.14"></path><path d="M 647.72 789.08 L 626.09 1011.84 C 589.53 1020.10 551.51 1024.50 512.46 1024.50 C 503.93 1024.50 495.36 1024.32 487.01 1023.83 C 477.82 1023.39 468.71 1022.76 459.69 1021.74 C 439.04 1019.70 418.73 1016.36 398.92 1011.83 L 377.30 789.08 C 390.85 787.21 404.66 785.66 418.74 784.37 C 448.95 781.62 480.35 780.15 512.51 780.15 C 541.51 780.15 569.86 781.35 597.31 783.57 C 614.50 784.99 631.33 786.81 647.72 789.08 Z" fill="#2e416b" fill-rule="nonzero" node-id="104" stroke="none" target-height="244.34998" target-width="270.41998" target-x="377.3" target-y="780.15"></path><path d="M 703.24 536.39 C 709.64 510.57 721.07 476.02 742.38 438.83 C 761.15 406.08 781.89 381.20 799.04 363.47 C 786.58 358.99 774.12 354.51 761.65 350.03 C 776.25 343.41 790.86 336.79 805.46 330.17 C 779.64 301.14 744.78 268.06 699.14 237.87 C 680.35 225.44 662.06 215.04 644.81 206.32 C 654.61 196.84 664.57 186.72 674.60 175.94 C 680.26 169.86 685.71 163.81 690.95 157.83 C 678.24 161.12 657.63 168.18 636.62 184.12 C 618.55 197.83 607.10 212.87 600.40 223.26 C 599.56 214.58 597.98 204.72 595.14 194.05 C 589.79 173.93 581.80 157.86 574.69 146.15 C 577.65 153.82 582.85 170.61 578.19 190.55 C 576.34 198.47 573.39 204.94 570.60 209.83 C 563.94 200.52 550.14 184.28 527.96 177.70 C 527.96 177.70 506.17 171.23 478.30 180.04 C 437.24 193.01 339.12 268.82 219.51 383.92 C 235.09 382.36 250.67 380.80 266.25 379.25 C 253.59 392.88 240.93 406.51 228.28 420.14 C 243.11 422.80 268.11 429.47 292.54 448.18 C 339.69 484.30 348.59 537.61 350.37 550.41 C 468.01 545.74 585.62 541.06 703.24 536.39 Z" fill="#152140" fill-rule="nonzero" node-id="106" stroke="none" target-height="404.25998" target-width="585.95" target-x="219.51" target-y="146.15"></path><path d="M 251.10 395.51 C 242.93 396.36 234.76 397.13 226.60 397.98 C 232.37 392.42 238.15 386.92 243.85 381.50 C 251.32 380.73 258.78 380.02 266.25 379.25 C 261.24 384.66 256.24 390.08 251.10 395.51 Z" fill="#24365e" fill-rule="nonzero" group-id="2" node-id="110" stroke="none" target-height="18.730011" target-width="39.649994" target-x="226.6" target-y="379.25"></path><path d="M 337.93 506.78 C 329.34 491.57 317.16 475.72 299.62 462.27 C 275.18 443.54 250.18 436.85 235.32 434.24 C 238.49 430.86 241.66 427.41 244.83 424.03 C 258.70 428.12 275.74 435.30 292.58 448.19 C 315.61 465.86 329.49 487.63 337.93 506.78 Z" fill="#24365e" fill-rule="nonzero" group-id="2" node-id="112" stroke="none" target-height="82.75" target-width="102.609985" target-x="235.32" target-y="424.03"></path><path d="M 595.13 194.09 C 592.39 183.74 588.93 174.51 585.27 166.34 C 591.40 177.33 597.67 191.34 602.17 208.17 C 603.02 211.34 603.79 214.44 604.35 217.47 C 602.87 219.51 601.53 221.48 600.41 223.25 C 599.57 214.58 598.02 204.72 595.13 194.09 Z" fill="#24365e" fill-rule="nonzero" group-id="2" node-id="114" stroke="none" target-height="56.910004" target-width="19.079956" target-x="585.27" target-y="166.34"></path><path d="M 658.73 213.67 C 654.01 211.06 649.36 208.67 644.79 206.35 C 652.32 199.10 659.93 191.42 667.54 183.39 C 679.51 177.33 690.22 173.95 698.04 171.91 C 692.76 177.90 687.34 183.95 681.70 190.01 C 673.94 198.24 666.33 206.13 658.73 213.67 Z" fill="#24365e" fill-rule="nonzero" group-id="2" node-id="116" stroke="none" target-height="41.759995" target-width="53.25" target-x="644.79" target-y="171.91"></path><path d="M 251.10 395.51 C 258.50 394.81 265.89 394.03 273.29 393.33 C 263.85 403.61 254.35 413.82 244.84 424.04 C 238.57 422.21 232.94 421.01 228.29 420.17 C 235.89 411.92 243.56 403.75 251.10 395.51 Z" fill="#24365e" fill-rule="nonzero" group-id="2" node-id="118" stroke="none" target-height="30.710022" target-width="45.000015" target-x="228.29" target-y="393.33"></path><path d="M 581.75 160.21 C 584.71 167.89 589.92 184.72 585.27 204.65 C 583.44 212.54 580.48 219.02 577.66 223.95 C 570.97 214.58 557.24 198.39 535.05 191.77 C 535.05 191.77 513.22 185.36 485.33 194.16 C 446.24 206.48 355.53 275.71 243.84 381.49 C 235.74 382.27 227.64 383.11 219.55 383.89 C 339.13 268.81 437.24 193.03 478.30 180.07 C 506.19 171.27 528.02 177.68 528.02 177.68 C 550.20 184.30 563.94 200.50 570.63 209.86 C 573.45 204.93 576.41 198.45 578.24 190.56 C 582.89 170.63 577.68 153.80 574.72 146.12 C 578.17 151.82 581.83 158.59 585.28 166.33 C 584.08 164.16 582.88 162.12 581.75 160.21 Z" fill="#24365e" fill-rule="nonzero" group-id="2" node-id="120" stroke="none" target-height="237.77002" target-width="370.37" target-x="219.55" target-y="146.12"></path><path d="M 667.53 183.39 C 659.92 187.19 651.83 191.98 643.65 198.25 C 625.62 211.91 614.14 226.98 607.45 237.34 C 606.89 231.28 605.90 224.59 604.35 217.48 C 611.25 207.76 621.67 195.51 636.61 184.17 C 657.67 168.18 678.23 161.14 690.98 157.83 C 685.70 163.82 680.28 169.87 674.64 175.93 C 672.25 178.45 669.92 180.92 667.53 183.39 Z" fill="#24365e" fill-rule="nonzero" group-id="2" node-id="122" stroke="none" target-height="79.509995" target-width="86.630005" target-x="604.35" target-y="157.83"></path><path d="M 597.60 669.96 L 597.60 777.29 C 597.60 826.76 557.49 866.87 508.02 866.87 L 508.02 866.87 C 458.55 866.87 418.44 826.76 418.44 777.29 L 418.44 669.96 L 597.60 669.96 Z" fill="#ff9f8e" fill-rule="nonzero" group-id="3" node-id="127" stroke="none" target-height="196.90997" target-width="179.15997" target-x="418.44" target-y="669.96"></path><path d="M 597.60 674.34 L 597.60 740.12 C 538.72 757.30 470.48 749.35 418.44 726.39 L 418.44 674.34 L 597.60 674.34 Z" fill="#f5575d" fill-rule="nonzero" group-id="4" node-id="132" stroke="none" target-height="82.95996" target-width="179.15997" target-x="418.44" target-y="674.34"></path><path d="M 348.02 510.87 L 348.40 518.36 L 348.22 525.41 L 347.51 532.06 L 346.25 538.63 L 344.56 544.51 L 342.48 549.78 L 340.52 553.61 L 338.41 556.93 L 336.15 559.78 L 333.75 562.21 L 331.02 564.33 L 328.20 565.90 L 325.26 566.96 L 322.16 567.53 L 319.01 567.53 L 315.93 567.02 L 312.87 565.98 L 309.81 564.39 L 307.01 562.43 L 304.27 560.03 L 301.60 557.15 L 298.99 553.73 L 295.99 548.93 L 293.27 543.44 L 290.84 537.21 L 288.94 530.79 L 287.49 523.89 L 286.52 516.46 L 286.14 508.97 L 286.32 501.92 L 287.03 495.27 L 288.29 488.70 L 289.98 482.82 L 292.06 477.55 L 294.02 473.72 L 296.13 470.40 L 298.39 467.55 L 300.79 465.12 L 303.51 463.00 L 306.34 461.43 L 309.28 460.37 L 312.37 459.80 L 315.52 459.80 L 318.61 460.31 L 321.67 461.35 L 324.73 462.94 L 327.53 464.90 L 330.27 467.30 L 332.94 470.18 L 335.55 473.60 L 338.55 478.40 L 341.27 483.89 L 343.70 490.12 L 345.60 496.54 L 347.05 503.44 L 348.02 510.87 Z" fill="#ff9f8e" fill-rule="nonzero" group-id="5" node-id="137" stroke="none" target-height="107.73004" target-width="62.25998" target-x="286.14" target-y="459.8"></path><path d="M 336.00 541.08 C 335.33 529.44 331.66 517.36 323.45 508.78 C 321.46 506.70 319.42 504.69 316.89 503.02 C 314.44 501.36 311.11 500.31 308.07 501.17 C 301.95 503.06 299.26 509.11 298.13 514.39 C 299.73 509.21 303.27 503.80 308.44 502.89 C 313.64 502.14 317.50 506.93 320.78 511.08 C 327.35 519.59 329.44 530.60 328.96 541.15 C 328.87 543.10 330.38 544.74 332.32 544.83 C 334.27 544.92 335.92 543.41 336.01 541.47 C 336.01 541.35 336.01 541.20 336.00 541.08 Z" fill="#152140" fill-rule="nonzero" node-id="140" stroke="none" target-height="44.609985" target-width="37.880005" target-x="298.13" target-y="500.31"></path><path d="M 716.56 445.72 L 719.66 446.29 L 722.60 447.35 L 725.42 448.92 L 728.14 451.04 L 730.55 453.47 L 732.80 456.32 L 734.91 459.64 L 736.87 463.48 L 738.95 468.74 L 740.64 474.63 L 741.91 481.20 L 742.62 487.85 L 742.80 494.90 L 742.42 502.38 L 741.44 509.82 L 739.99 516.72 L 738.09 523.13 L 735.67 529.37 L 732.95 534.85 L 729.95 539.66 L 727.33 543.07 L 724.66 545.96 L 721.93 548.36 L 719.12 550.31 L 716.06 551.91 L 713.00 552.94 L 709.92 553.45 L 706.77 553.46 L 703.67 552.89 L 700.73 551.83 L 697.91 550.26 L 695.18 548.14 L 692.78 545.71 L 690.52 542.86 L 688.41 539.54 L 686.46 535.70 L 684.37 530.44 L 682.69 524.55 L 681.42 517.98 L 680.71 511.33 L 680.53 504.28 L 680.91 496.79 L 681.89 489.36 L 683.33 482.46 L 685.23 476.05 L 687.66 469.81 L 690.38 464.33 L 693.38 459.52 L 695.99 456.10 L 698.67 453.22 L 701.40 450.82 L 704.20 448.87 L 707.27 447.27 L 710.32 446.24 L 713.41 445.72 L 716.56 445.72 Z" fill="#ff9f8e" fill-rule="nonzero" group-id="6" node-id="144" stroke="none" target-height="107.74002" target-width="62.26996" target-x="680.53" target-y="445.72"></path><path d="M 693.58 527.71 C 693.79 516.05 696.98 503.84 704.86 494.95 C 706.77 492.80 708.73 490.70 711.19 488.93 C 713.57 487.18 716.85 486.00 719.93 486.74 C 726.12 488.39 729.04 494.33 730.38 499.56 C 728.58 494.45 724.83 489.18 719.63 488.47 C 714.40 487.93 710.73 492.86 707.62 497.13 C 701.39 505.89 699.73 516.98 700.62 527.49 C 700.79 529.43 699.35 531.14 697.41 531.30 C 695.47 531.47 693.76 530.03 693.60 528.09 C 693.58 527.98 693.57 527.83 693.58 527.71 Z" fill="#152140" fill-rule="nonzero" node-id="147" stroke="none" target-height="45.46997" target-width="36.809998" target-x="693.57" target-y="486"></path><path d="M 710.07 584.04 C 710.00 586.36 709.79 588.69 709.37 591.22 C 709.37 591.29 709.37 591.29 709.37 591.29 C 709.37 591.50 709.37 591.78 709.30 592.06 C 708.80 595.09 708.24 598.05 707.39 601.07 C 707.04 602.90 706.55 604.73 705.98 606.49 L 703.16 614.73 L 703.16 614.80 C 702.88 615.65 702.52 616.49 702.10 617.34 C 701.19 619.88 700.06 622.34 698.86 624.88 C 698.58 625.44 698.30 626.01 697.95 626.64 L 694.43 633.33 C 693.73 634.67 692.88 636.08 692.04 637.42 C 690.84 639.39 689.57 641.43 688.31 643.41 C 686.90 645.45 685.49 647.49 683.95 649.54 C 682.75 651.23 681.55 652.85 680.22 654.40 C 679.38 655.60 678.46 656.72 677.47 657.78 C 676.27 659.40 674.94 660.95 673.53 662.43 C 672.89 663.20 672.26 663.98 671.49 664.68 C 670.08 666.37 668.53 667.99 666.91 669.61 C 664.94 671.65 662.90 673.62 660.85 675.53 L 655.71 680.25 C 654.80 681.10 653.88 681.87 652.97 682.64 L 647.54 687.08 C 645.50 688.77 643.39 690.46 641.13 692.08 C 639.30 693.42 637.40 694.76 635.49 696.09 C 633.52 697.50 631.48 698.84 629.43 700.17 C 627.74 701.30 625.98 702.35 624.22 703.41 C 621.61 705.03 618.94 706.65 616.19 708.13 C 614.50 709.12 612.74 710.03 610.98 710.88 C 607.25 712.92 603.38 714.82 599.50 716.58 C 597.67 717.42 595.91 718.20 594.08 718.90 C 591.05 720.24 587.95 721.51 584.79 722.63 C 582.68 723.48 580.56 724.18 578.45 724.88 C 576.97 725.37 575.56 725.87 574.08 726.36 C 571.90 727.06 569.64 727.70 567.46 728.33 C 564.64 729.11 561.76 729.88 558.87 730.58 C 556.69 731.07 554.43 731.57 552.18 731.99 C 551.20 732.27 550.21 732.41 549.15 732.62 C 546.97 733.04 544.85 733.39 542.67 733.75 C 540.63 734.10 538.52 734.38 536.47 734.60 C 534.43 734.88 532.38 735.09 530.34 735.23 C 530.34 735.30 530.34 735.30 530.34 735.30 C 526.96 735.58 523.58 735.86 520.13 735.93 C 518.02 736.07 515.90 736.14 513.79 736.14 L 513.44 736.14 C 512.03 736.14 510.55 736.14 509.14 736.07 C 506.89 736.07 504.63 736.00 502.38 735.86 C 499.49 735.79 496.61 735.58 493.72 735.30 C 491.54 735.09 489.35 734.88 487.17 734.60 C 486.11 734.46 485.13 734.32 484.07 734.18 C 481.96 733.90 479.92 733.62 477.87 733.26 C 474.56 732.70 471.32 732.06 468.08 731.36 C 466.11 730.94 464.20 730.51 462.23 730.02 C 459.55 729.39 456.81 728.68 454.13 727.91 C 451.88 727.28 449.63 726.64 447.44 725.87 C 446.10 725.52 444.76 725.10 443.43 724.53 C 441.24 723.90 438.99 723.12 436.88 722.28 C 434.13 721.29 431.38 720.24 428.71 719.11 C 426.53 718.26 424.41 717.35 422.30 716.36 L 419.62 715.09 L 419.55 715.09 C 417.51 714.17 415.46 713.19 413.49 712.20 C 410.11 710.51 406.80 708.82 403.63 706.99 C 401.59 705.86 399.62 704.74 397.72 703.54 C 395.33 702.13 393.07 700.72 390.82 699.17 L 384.97 695.30 C 383.91 694.60 383.00 693.89 382.01 693.19 C 380.11 691.78 378.28 690.37 376.45 688.96 C 374.20 687.27 372.01 685.44 369.90 683.61 C 368.21 682.20 366.45 680.65 364.83 679.17 C 364.05 678.47 363.35 677.83 362.65 677.06 C 361.10 675.72 359.62 674.24 358.21 672.76 C 357.15 671.77 356.17 670.72 355.25 669.66 C 353.84 668.18 352.43 666.63 351.17 665.15 C 349.48 663.18 347.79 661.21 346.31 659.23 C 344.76 657.33 343.35 655.43 342.08 653.53 C 341.09 652.26 340.25 650.92 339.47 649.66 L 339.47 649.59 C 337.99 647.48 336.72 645.36 335.53 643.18 C 335.11 642.55 334.76 641.98 334.40 641.28 C 334.40 641.21 334.40 641.21 334.40 641.21 C 333.06 638.82 331.80 636.28 330.74 633.82 C 330.24 632.90 329.89 631.99 329.54 631.07 C 328.34 628.18 327.29 625.30 326.44 622.34 C 325.74 620.30 325.17 618.33 324.75 616.28 C 324.75 616.21 324.75 616.21 324.75 616.21 C 324.33 614.38 323.97 612.62 323.69 610.79 C 323.41 608.89 323.13 606.99 322.99 605.01 C 322.71 602.05 322.57 599.02 322.49 595.92 L 322.49 595.85 C 322.42 591.34 322.63 586.76 322.91 582.05 C 323.26 577.05 323.76 572.05 324.39 567.12 C 325.66 557.75 327.28 548.81 328.97 541.13 C 328.97 541.06 328.97 541.06 328.97 540.99 C 330.38 534.37 331.79 528.67 332.84 524.58 C 333.69 521.41 334.32 519.16 334.60 518.10 C 335.73 514.16 336.85 510.49 337.98 506.97 C 339.95 500.91 341.92 495.42 343.75 490.35 C 350.37 472.04 355.37 458.10 353.26 437.81 C 350.30 408.79 336.08 398.93 333.05 383.30 C 328.61 360.55 348.19 326.82 432.63 275.05 C 480.31 245.89 541.37 250.54 584.05 286.74 C 599.61 299.98 615.18 313.15 630.81 326.39 C 655.95 347.80 672.71 377.45 678.07 410.06 C 680.32 423.72 682.93 438.79 685.89 454.99 C 686.74 459.64 687.58 464.07 688.36 468.30 C 691.39 484.50 694.13 498.02 696.60 509.57 C 698.01 516.47 699.35 522.67 700.54 528.23 C 701.17 531.05 701.81 533.79 702.37 536.33 C 703.78 542.88 705.05 548.44 706.10 553.30 C 706.10 553.37 706.10 553.37 706.10 553.37 C 707.58 560.06 708.63 565.41 709.34 570.06 L 709.34 570.13 C 710.07 575.31 710.35 579.60 710.07 584.04 Z" fill="#ff9f8e" fill-rule="nonzero" node-id="149" stroke="none" target-height="490.25" target-width="387.92996" target-x="322.42" target-y="245.89"></path><path d="M 592.09 374.22 L 596.25 375.44 L 600.19 377.04 L 603.91 379.04 L 607.45 381.45 L 610.72 384.19 L 613.78 387.25 L 616.61 390.66 L 619.24 394.43 L 622.24 399.74 L 624.79 405.52 L 626.88 411.83 L 628.40 418.31 L 629.38 425.13 L 629.80 432.33 L 629.63 439.55 L 628.84 446.96 L 627.40 454.61 L 625.34 462.11 L 622.80 469.12 L 619.79 475.68 L 616.26 481.97 L 612.39 487.67 L 608.19 492.83 L 603.55 497.59 L 598.72 501.67 L 593.69 505.12 L 589.68 507.36 L 585.64 509.18 L 581.55 510.59 L 577.40 511.62 L 573.17 512.23 L 568.95 512.40 L 564.71 512.12 L 560.43 511.38 L 556.26 510.17 L 552.33 508.56 L 548.60 506.56 L 545.07 504.15 L 541.79 501.42 L 538.74 498.35 L 535.90 494.95 L 533.28 491.18 L 530.27 485.87 L 527.72 480.08 L 525.63 473.78 L 524.12 467.30 L 523.14 460.48 L 522.72 453.28 L 522.89 446.06 L 523.68 438.64 L 525.11 431.00 L 527.17 423.50 L 529.71 416.48 L 532.72 409.92 L 536.26 403.64 L 540.13 397.93 L 544.33 392.77 L 548.97 388.02 L 553.80 383.94 L 558.83 380.48 L 562.84 378.25 L 566.88 376.43 L 570.97 375.01 L 575.11 373.99 L 579.35 373.37 L 583.57 373.21 L 587.81 373.49 L 592.09 374.22 Z" fill="#ffffff" fill-opacity="0.4" fill-rule="nonzero" group-id="7" node-id="153" stroke="#0f0f0f" stroke-linecap="butt" stroke-opacity="0.4" stroke-width="6.000106" target-height="139.19003" target-width="107.08002" target-x="522.72" target-y="373.21"></path><path d="M 579.88 441.76 C 579.88 449.25 573.80 455.33 566.31 455.33 C 558.82 455.33 552.74 449.25 552.74 441.76 C 552.74 434.27 558.82 428.19 566.31 428.19 C 573.80 428.19 579.88 434.27 579.88 441.76 Z" fill="#152140" fill-rule="nonzero" node-id="156" stroke="none" target-height="27.139984" target-width="27.140015" target-x="552.74" target-y="428.19"></path><path d="M 576.24 436.41 C 576.24 438.45 574.59 440.10 572.55 440.10 C 570.51 440.10 568.86 438.45 568.86 436.41 C 568.86 434.37 570.51 432.72 572.55 432.72 C 574.59 432.72 576.24 434.37 576.24 436.41 Z" fill="#ffffff" fill-rule="nonzero" node-id="158" stroke="none" target-height="7.380005" target-width="7.380005" target-x="568.86" target-y="432.72"></path><path d="M 459.44 376.17 L 463.61 377.39 L 467.54 378.99 L 471.27 380.99 L 474.80 383.40 L 478.08 386.14 L 481.13 389.20 L 483.97 392.61 L 486.59 396.38 L 489.60 401.68 L 492.15 407.47 L 494.24 413.78 L 495.75 420.25 L 496.73 427.08 L 497.15 434.28 L 496.98 441.49 L 496.19 448.91 L 494.76 456.56 L 492.70 464.06 L 490.16 471.07 L 487.15 477.63 L 483.61 483.92 L 479.74 489.62 L 475.54 494.78 L 470.90 499.53 L 466.07 503.61 L 461.04 507.07 L 457.03 509.31 L 452.99 511.12 L 448.90 512.54 L 444.76 513.56 L 440.52 514.18 L 436.30 514.35 L 432.06 514.06 L 427.78 513.33 L 423.62 512.12 L 419.68 510.51 L 415.96 508.51 L 412.42 506.10 L 409.15 503.36 L 406.09 500.30 L 403.26 496.90 L 400.63 493.12 L 397.63 487.82 L 395.08 482.03 L 392.99 475.72 L 391.47 469.25 L 390.49 462.43 L 390.07 455.22 L 390.24 448.01 L 391.03 440.59 L 392.47 432.95 L 394.53 425.44 L 397.07 418.43 L 400.08 411.87 L 403.61 405.58 L 407.48 399.88 L 411.68 394.72 L 416.32 389.97 L 421.15 385.89 L 426.18 382.43 L 430.19 380.19 L 434.23 378.38 L 438.32 376.96 L 442.47 375.94 L 446.70 375.32 L 450.92 375.15 L 455.16 375.44 L 459.44 376.17 Z" fill="#ffffff" fill-opacity="0.4" fill-rule="nonzero" group-id="8" node-id="162" stroke="#0f0f0f" stroke-linecap="butt" stroke-opacity="0.4" stroke-width="6.000106" target-height="139.19998" target-width="107.07999" target-x="390.07" target-y="375.15"></path><path d="M 463.42 433.54 C 463.42 441.03 457.34 447.11 449.85 447.11 C 442.36 447.11 436.28 441.03 436.28 433.54 C 436.28 426.05 442.36 419.97 449.85 419.97 C 457.34 419.97 463.42 426.05 463.42 433.54 Z" fill="#152140" fill-rule="nonzero" node-id="165" stroke="none" target-height="27.139984" target-width="27.140015" target-x="436.28" target-y="419.97"></path><path d="M 459.79 428.19 C 459.79 430.23 458.14 431.88 456.10 431.88 C 454.06 431.88 452.41 430.23 452.41 428.19 C 452.41 426.15 454.06 424.50 456.10 424.50 C 458.14 424.50 459.79 426.15 459.79 428.19 Z" fill="#ffffff" fill-rule="nonzero" node-id="167" stroke="none" target-height="7.380005" target-width="7.380005" target-x="452.41" target-y="424.5"></path><path d="M 618.24 693.41 L 611.90 686.65 C 609.29 683.90 601.90 676.58 590.56 669.04 C 574.01 658.12 548.87 646.72 517.31 648.05 C 482.10 649.67 456.53 666.36 442.17 678.83 C 436.96 683.34 433.16 687.35 431.04 689.82 L 424.42 697.28 L 424.84 687.28 C 425.47 672.42 430.26 635.23 460.41 611.92 C 463.09 609.81 465.97 607.91 468.86 606.22 C 469.07 606.08 469.21 606.01 469.42 605.94 C 487.73 595.24 510.34 591.57 534.14 595.45 C 543.08 596.93 551.68 599.39 559.78 602.70 C 561.68 603.47 563.58 604.32 565.41 605.24 C 581.47 612.92 594.99 624.11 603.93 637.64 C 612.73 650.81 617.45 666.52 617.94 684.19 L 618.24 693.41 Z" fill="#dd5543" fill-rule="nonzero" node-id="169" stroke="none" target-height="105.71002" target-width="193.81998" target-x="424.42" target-y="591.57"></path><path d="M 590.56 669.04 C 574.01 658.12 548.87 646.72 517.31 648.05 C 482.10 649.67 456.53 666.36 442.17 678.83 C 443.93 664.88 449.49 656.72 452.45 652.91 C 469.99 630.66 502.53 632.13 530.48 633.47 C 548.44 634.32 561.33 635.09 573.51 644.74 C 582.74 652.07 587.81 661.36 590.56 669.04 Z" fill="#ffffff" fill-rule="nonzero" node-id="171" stroke="none" target-height="48.170044" target-width="148.38998" target-x="442.17" target-y="630.66"></path><path d="M 695.64 404.40 C 691.87 407.52 667.23 387.01 617.94 345.98 C 588.75 321.68 565.03 300.76 548.43 285.81 C 540.07 295.07 531.41 305.37 522.73 316.77 C 512.37 330.37 503.47 343.55 495.86 355.91 C 494.49 348.08 492.39 329.62 501.12 309.18 C 507.01 295.38 515.48 286.21 520.98 281.14 C 479.11 299.68 427.41 328.18 375.52 372.27 C 352.07 392.20 332.15 412.28 315.35 431.27 C 302.58 417.67 292.50 401.29 292.56 382.78 C 292.82 306.58 465.06 202.64 585.82 257.76 C 668.38 295.45 704.32 397.19 695.64 404.40 Z" fill="#152140" fill-rule="nonzero" node-id="173" stroke="none" target-height="228.62999" target-width="411.82" target-x="292.5" target-y="202.64"></path><path d="M 633.68 385.08 C 632.91 385.48 630.90 383.86 624.12 377.95 L 624.14 377.92 C 618.84 373.27 610.65 366.01 597.89 354.97 C 578.76 338.44 567.09 328.75 560.56 323.07 C 555.11 318.30 553.18 316.28 553.46 315.33 C 553.93 313.60 561.44 315.93 571.41 321.16 C 578.19 324.75 586.16 329.71 593.77 335.66 C 604.66 344.19 613.97 354.06 620.86 362.70 C 630.33 374.58 635.29 384.24 633.68 385.08 Z" fill="#152140" fill-rule="nonzero" group-id="9" node-id="177" stroke="none" target-height="71.880005" target-width="82.109985" target-x="553.18" target-y="313.6"></path><path d="M 477.98 310.66 C 476.58 307.35 458.61 309.62 443.87 319.00 C 423.61 331.90 413.65 355.59 416.66 358.03 C 418.11 359.20 422.02 355.03 444.26 337.97 C 471.04 317.44 478.99 313.04 477.98 310.66 Z" fill="#152140" fill-rule="nonzero" group-id="10" node-id="182" stroke="none" target-height="51.850006" target-width="65.34" target-x="413.65" target-y="307.35"></path><path d="M 654.16 385.09 C 657.29 402.56 659.77 415.22 661.46 423.65 C 662.69 429.76 665.28 442.45 660.59 454.61 C 659.36 457.79 657.84 460.42 655.62 460.74 C 651.82 461.30 647.76 454.79 645.98 450.81 C 641.99 441.87 644.00 433.33 646.27 423.06 C 648.12 414.71 650.87 401.92 654.16 385.09 Z" fill="#ffffff" fill-opacity="0.4" fill-rule="nonzero" group-id="11" node-id="187" stroke="none" target-height="76.20999" target-width="23.29004" target-x="641.99" target-y="385.09"></path><path d="M 372.49 351.20 C 375.15 366.03 377.25 376.78 378.69 383.94 C 379.74 389.13 381.94 399.90 377.95 410.23 C 376.91 412.93 375.61 415.16 373.73 415.44 C 370.50 415.91 367.06 410.39 365.55 407.01 C 362.16 399.42 363.87 392.17 365.80 383.45 C 367.36 376.36 369.70 365.50 372.49 351.20 Z" fill="#ffffff" fill-opacity="0.4" fill-rule="nonzero" group-id="12" node-id="192" stroke="none" target-height="64.70999" target-width="19.779999" target-x="362.16" target-y="351.2"></path><path d="M 565.42 605.23 C 553.80 609.17 536.13 611.71 516.33 611.71 C 497.74 611.71 481.04 609.46 469.43 605.93 C 487.74 595.23 510.35 591.56 534.15 595.44 C 543.09 596.92 551.69 599.38 559.79 602.69 C 561.68 603.47 563.59 604.32 565.42 605.23 Z" fill="#ffffff" fill-rule="nonzero" node-id="195" stroke="none" target-height="20.150024" target-width="95.98999" target-x="469.43" target-y="591.56"></path><path d="M 322.51 595.94 C 322.51 595.94 322.44 595.87 322.51 595.87 C 323.36 594.32 324.20 592.77 325.12 591.22 C 330.33 582.35 336.74 574.39 344.06 566.08 C 335.61 569.04 328.43 574.95 322.93 582.07 L 322.51 595.94 Z" fill="#152140" fill-rule="nonzero" node-id="197" stroke="none" target-height="29.859985" target-width="21.619995" target-x="322.44" target-y="566.08"></path><path d="M 347.52 584.11 C 340.20 592.42 333.85 600.38 328.64 609.25 C 327.23 611.50 325.96 613.83 324.77 616.22 C 324.35 614.39 323.99 612.63 323.71 610.80 C 323.43 608.90 323.15 607.00 323.01 605.02 C 328.78 595.73 337.23 587.77 347.52 584.11 Z" fill="#152140" fill-rule="nonzero" node-id="199" stroke="none" target-height="32.109985" target-width="24.50998" target-x="323.01" target-y="584.11"></path><path d="M 350.90 601.65 C 343.58 609.96 337.17 617.92 331.96 626.79 C 331.11 628.20 330.27 629.61 329.56 631.09 C 328.36 628.20 327.31 625.32 326.46 622.36 C 332.23 613.13 340.61 605.24 350.90 601.65 Z" fill="#152140" fill-rule="nonzero" node-id="201" stroke="none" target-height="29.440002" target-width="24.440002" target-x="326.46" target-y="601.65"></path><path d="M 354.42 614.25 C 347.10 622.56 340.69 630.52 335.48 639.39 C 335.13 639.95 334.78 640.59 334.42 641.22 C 333.08 638.83 331.82 636.29 330.76 633.83 C 336.46 625.10 344.56 617.70 354.42 614.25 Z" fill="#152140" fill-rule="nonzero" node-id="203" stroke="none" target-height="26.96997" target-width="23.660004" target-x="330.76" target-y="614.25"></path><path d="M 357.16 626.44 C 350.40 634.12 344.41 641.51 339.48 649.61 C 338.00 647.50 336.73 645.38 335.54 643.20 C 341.04 635.73 348.43 629.53 357.16 626.44 Z" fill="#152140" fill-rule="nonzero" node-id="205" stroke="none" target-height="23.169983" target-width="21.619995" target-x="335.54" target-y="626.44"></path><path d="M 362.23 638.90 C 356.24 645.66 350.89 652.21 346.32 659.25 C 344.77 657.35 343.36 655.45 342.09 653.55 C 347.52 647.00 354.28 641.72 362.23 638.90 Z" fill="#152140" fill-rule="nonzero" node-id="207" stroke="none" target-height="20.349976" target-width="20.140015" target-x="342.09" target-y="638.9"></path><path d="M 367.45 654.61 C 363.01 659.68 358.93 664.61 355.26 669.68 C 353.85 668.20 352.44 666.65 351.18 665.17 C 355.82 660.45 361.32 656.79 367.45 654.61 Z" fill="#152140" fill-rule="nonzero" node-id="209" stroke="none" target-height="15.070007" target-width="16.27002" target-x="351.18" target-y="654.61"></path><path d="M 374.98 661.86 C 370.47 666.93 366.32 671.93 362.66 677.07 C 361.11 675.73 359.63 674.25 358.22 672.77 C 363.01 667.99 368.64 664.11 374.98 661.86 Z" fill="#152140" fill-rule="nonzero" node-id="211" stroke="none" target-height="15.210022" target-width="16.76001" target-x="358.22" target-y="661.86"></path><path d="M 385.19 664.25 C 379.49 670.73 374.34 676.93 369.91 683.62 C 368.22 682.21 366.46 680.66 364.84 679.18 C 370.26 672.57 377.16 667.07 385.19 664.25 Z" fill="#152140" fill-rule="nonzero" node-id="213" stroke="none" target-height="19.369995" target-width="20.350006" target-x="364.84" target-y="664.25"></path><path d="M 399.56 670.24 C 392.87 677.92 386.88 685.17 382.03 693.20 C 380.13 691.79 378.30 690.38 376.47 688.97 C 382.16 680.59 390.12 673.62 399.56 670.24 Z" fill="#152140" fill-rule="nonzero" node-id="215" stroke="none" target-height="22.960022" target-width="23.089996" target-x="376.47" target-y="670.24"></path><path d="M 390.83 699.19 C 395.69 691.16 401.68 683.91 408.37 676.30 C 398.72 679.68 390.76 686.79 384.99 695.32 L 390.83 699.19 Z" fill="#152140" fill-rule="nonzero" node-id="217" stroke="none" target-height="22.890015" target-width="23.380005" target-x="384.99" target-y="676.3"></path><path d="M 419.63 686.44 C 413.57 693.27 408.22 699.89 403.64 707.00 C 401.60 705.87 399.63 704.75 397.73 703.55 C 403.29 695.88 410.83 689.61 419.63 686.44 Z" fill="#152140" fill-rule="nonzero" node-id="219" stroke="none" target-height="20.559998" target-width="21.899994" target-x="397.73" target-y="686.44"></path><path d="M 434.00 697.07 C 428.65 703.13 423.86 708.97 419.63 715.10 L 419.56 715.10 C 417.52 714.18 415.47 713.20 413.50 712.21 C 418.86 705.45 425.90 699.96 434.00 697.07 Z" fill="#152140" fill-rule="nonzero" node-id="221" stroke="none" target-height="18.029968" target-width="20.5" target-x="413.5" target-y="697.07"></path><path d="M 444.21 699.40 C 438.43 706.02 433.15 712.29 428.71 719.12 C 426.53 718.27 424.41 717.36 422.30 716.37 C 427.87 708.76 435.33 702.50 444.21 699.40 Z" fill="#152140" fill-rule="nonzero" node-id="223" stroke="none" target-height="19.71997" target-width="21.910004" target-x="422.3" target-y="699.4"></path><path d="M 458.58 705.45 C 452.94 711.86 447.88 717.99 443.44 724.54 C 441.25 723.91 439.00 723.13 436.89 722.29 C 442.38 714.75 449.77 708.55 458.58 705.45 Z" fill="#152140" fill-rule="nonzero" node-id="225" stroke="none" target-height="19.089966" target-width="21.689972" target-x="436.89" target-y="705.45"></path><path d="M 467.38 711.44 C 462.52 716.93 458.08 722.29 454.14 727.92 C 451.89 727.29 449.64 726.65 447.45 725.88 C 452.73 719.40 459.56 714.19 467.38 711.44 Z" fill="#152140" fill-rule="nonzero" node-id="227" stroke="none" target-height="16.47998" target-width="19.929993" target-x="447.45" target-y="711.44"></path><path d="M 474.98 715.67 C 472.45 721.02 470.05 726.16 468.08 731.38 C 466.11 730.96 464.20 730.53 462.23 730.04 C 465.41 724.40 469.70 719.40 474.98 715.67 Z" fill="#152140" fill-rule="nonzero" node-id="229" stroke="none" target-height="15.710022" target-width="12.75" target-x="462.23" target-y="715.67"></path><path d="M 489.49 716.09 C 487.38 722.29 485.48 728.27 484.07 734.19 C 481.96 733.91 479.92 733.63 477.87 733.27 C 480.48 726.72 484.28 720.74 489.49 716.09 Z" fill="#152140" fill-rule="nonzero" node-id="231" stroke="none" target-height="18.099976" target-width="11.619995" target-x="477.87" target-y="716.09"></path><path d="M 499.85 714.33 C 497.38 721.51 495.27 728.42 493.72 735.32 C 491.54 735.11 489.35 734.90 487.17 734.62 C 489.63 726.86 493.86 719.68 499.85 714.33 Z" fill="#152140" fill-rule="nonzero" node-id="233" stroke="none" target-height="20.98999" target-width="12.679993" target-x="487.17" target-y="714.33"></path><path d="M 515.48 714.47 C 512.95 721.94 510.69 728.98 509.14 736.09 C 506.89 736.09 504.63 736.02 502.38 735.88 C 504.91 727.71 509.21 720.10 515.48 714.47 Z" fill="#152140" fill-rule="nonzero" node-id="235" stroke="none" target-height="21.620056" target-width="13.099976" target-x="502.38" target-y="714.47"></path><path d="M 525.83 716.65 C 523.58 723.27 521.60 729.61 520.13 735.95 C 518.02 736.09 515.90 736.16 513.79 736.16 L 513.44 736.16 C 515.90 728.69 520.06 721.86 525.83 716.65 Z" fill="#152140" fill-rule="nonzero" node-id="237" stroke="none" target-height="19.509949" target-width="12.390015" target-x="513.44" target-y="716.65"></path><path d="M 538.30 717.57 C 537.45 723.42 536.82 729.05 536.47 734.61 C 534.43 734.89 532.38 735.10 530.34 735.24 C 531.75 728.84 534.35 722.78 538.30 717.57 Z" fill="#152140" fill-rule="nonzero" node-id="239" stroke="none" target-height="17.669983" target-width="7.959961" target-x="530.34" target-y="717.57"></path><path d="M 550.48 711.86 C 549.63 719.11 549.21 725.95 549.14 732.64 C 546.96 733.06 544.84 733.41 542.66 733.77 C 543.44 725.88 545.97 718.20 550.48 711.86 Z" fill="#152140" fill-rule="nonzero" node-id="241" stroke="none" target-height="21.910034" target-width="7.8200073" target-x="542.66" target-y="711.86"></path><path d="M 560.20 707.85 C 559.36 715.74 558.79 723.20 558.86 730.60 C 556.68 731.09 554.42 731.59 552.17 732.01 C 552.73 723.41 555.27 714.82 560.20 707.85 Z" fill="#152140" fill-rule="nonzero" node-id="243" stroke="none" target-height="24.160034" target-width="8.030029" target-x="552.17" target-y="707.85"></path><path d="M 575.49 704.54 C 574.64 712.14 574.08 719.26 574.08 726.37 C 571.90 727.07 569.64 727.71 567.46 728.34 C 568.02 719.82 570.55 711.44 575.49 704.54 Z" fill="#152140" fill-rule="nonzero" node-id="245" stroke="none" target-height="23.800049" target-width="8.029968" target-x="567.46" target-y="704.54"></path><path d="M 586.12 704.40 C 585.42 710.74 584.92 716.72 584.78 722.64 C 582.67 723.49 580.55 724.19 578.44 724.89 C 579.36 717.50 581.82 710.38 586.12 704.40 Z" fill="#152140" fill-rule="nonzero" node-id="247" stroke="none" target-height="20.48999" target-width="7.6799927" target-x="578.44" target-y="704.4"></path><path d="M 599.50 716.58 C 597.67 717.42 595.91 718.20 594.08 718.90 C 594.36 712.98 595.70 707.14 598.31 701.79 C 598.58 706.93 598.93 711.79 599.50 716.58 Z" fill="#152140" fill-rule="nonzero" node-id="249" stroke="none" target-height="17.110046" target-width="5.419983" target-x="594.08" target-y="701.79"></path><path d="M 710.07 584.04 C 707.96 580.45 705.77 577.07 703.31 573.76 C 697.32 565.31 690.21 558.06 682.18 550.38 C 693.02 553.20 702.39 560.59 709.01 569.61 C 709.15 569.75 709.22 569.96 709.36 570.10 L 709.36 570.17 C 710.07 575.31 710.35 579.60 710.07 584.04 Z" fill="#152140" fill-rule="nonzero" node-id="251" stroke="none" target-height="33.659973" target-width="28.169983" target-x="682.18" target-y="550.38"></path><path d="M 709.36 591.22 C 709.43 591.22 709.36 591.29 709.36 591.29 C 709.36 591.50 709.36 591.78 709.29 592.06 C 708.79 595.09 708.23 598.05 707.38 601.07 C 705.55 597.97 703.58 594.94 701.47 591.98 C 695.48 583.60 688.37 576.28 680.34 568.67 C 691.19 571.42 700.48 578.81 707.17 587.83 C 707.95 588.97 708.73 590.10 709.36 591.22 Z" fill="#152140" fill-rule="nonzero" node-id="253" stroke="none" target-height="32.400024" target-width="29.089966" target-x="680.34" target-y="568.67"></path><path d="M 703.17 614.82 L 703.17 614.75 C 702.04 613.06 700.92 611.37 699.72 609.75 C 693.73 601.37 686.62 594.04 678.59 586.44 C 689.44 589.19 698.80 596.58 705.42 605.67 C 705.63 605.95 705.84 606.23 705.98 606.52 L 703.17 614.82 Z" fill="#152140" fill-rule="nonzero" node-id="255" stroke="none" target-height="28.380005" target-width="27.389954" target-x="678.59" target-y="586.44"></path><path d="M 702.11 617.35 C 701.20 619.89 700.07 622.35 698.87 624.89 C 698.38 624.11 697.89 623.41 697.32 622.64 C 691.33 614.26 684.29 606.94 676.19 599.33 C 686.54 601.93 695.63 608.83 702.11 617.35 Z" fill="#152140" fill-rule="nonzero" node-id="257" stroke="none" target-height="25.559998" target-width="25.919983" target-x="676.19" target-y="599.33"></path><path d="M 697.95 626.65 C 691.68 619.61 683.65 614.04 674.57 611.72 C 682.04 618.83 688.73 625.66 694.43 633.34 L 697.95 626.65 Z" fill="#152140" fill-rule="nonzero" node-id="259" stroke="none" target-height="21.620056" target-width="23.380005" target-x="674.57" target-y="611.72"></path><path d="M 692.04 637.42 C 690.84 639.39 689.57 641.43 688.31 643.41 C 683.17 636.86 677.25 630.80 670.70 624.61 C 678.80 626.65 686.12 631.37 692.04 637.42 Z" fill="#152140" fill-rule="nonzero" node-id="261" stroke="none" target-height="18.799988" target-width="21.339966" target-x="670.7" target-y="624.61"></path><path d="M 683.94 649.54 C 682.74 651.23 681.54 652.85 680.21 654.40 C 676.20 649.75 671.76 645.24 666.90 640.67 C 673.16 642.28 678.94 645.38 683.94 649.54 Z" fill="#152140" fill-rule="nonzero" node-id="263" stroke="none" target-height="13.7300415" target-width="17.039978" target-x="666.9" target-y="640.67"></path><path d="M 677.46 657.78 C 676.26 659.40 674.93 660.95 673.52 662.43 C 669.43 657.71 664.93 653.20 660.07 648.63 C 666.48 650.24 672.39 653.48 677.46 657.78 Z" fill="#152140" fill-rule="nonzero" node-id="265" stroke="none" target-height="13.799988" target-width="17.390015" target-x="660.07" target-y="648.63"></path><path d="M 671.48 664.68 C 670.07 666.37 668.52 667.99 666.90 669.61 C 661.90 663.48 656.27 657.71 650.07 651.86 C 658.24 653.90 665.49 658.62 671.48 664.68 Z" fill="#152140" fill-rule="nonzero" node-id="267" stroke="none" target-height="17.75" target-width="21.409973" target-x="650.07" target-y="651.86"></path><path d="M 660.84 675.52 C 654.50 667.77 646.05 661.65 636.33 659.18 C 643.65 666.08 650.13 672.77 655.70 680.24 L 660.84 675.52 Z" fill="#152140" fill-rule="nonzero" node-id="269" stroke="none" target-height="21.059998" target-width="24.51001" target-x="636.33" target-y="659.18"></path><path d="M 652.95 682.64 C 646.54 674.75 637.95 668.41 628.09 665.95 C 635.48 672.85 641.96 679.54 647.53 687.08 L 652.95 682.64 Z" fill="#152140" fill-rule="nonzero" node-id="271" stroke="none" target-height="21.130005" target-width="24.859985" target-x="628.09" target-y="665.95"></path><path d="M 641.12 692.07 C 639.29 693.41 637.39 694.75 635.48 696.08 C 630.34 689.46 624.42 683.40 617.80 677.13 C 626.82 679.47 634.85 685.03 641.12 692.07 Z" fill="#152140" fill-rule="nonzero" node-id="273" stroke="none" target-height="18.950012" target-width="23.320007" target-x="617.8" target-y="677.13"></path><path d="M 629.43 700.17 C 627.74 701.30 625.98 702.35 624.22 703.41 C 620.84 698.20 617.04 693.13 612.88 687.85 C 612.95 687.92 613.09 687.92 613.16 687.99 C 614.92 688.69 616.54 689.61 618.16 690.60 C 622.39 693.13 626.19 696.44 629.43 700.17 Z" fill="#152140" fill-rule="nonzero" node-id="275" stroke="none" target-height="15.559998" target-width="16.549988" target-x="612.88" target-y="687.85"></path><path d="M 616.19 708.13 C 614.50 709.12 612.74 710.03 610.98 710.88 C 607.95 706.37 604.64 702.01 601.05 697.43 C 606.82 699.82 611.90 703.55 616.19 708.13 Z" fill="#152140" fill-rule="nonzero" node-id="277" stroke="none" target-height="13.450012" target-width="15.140015" target-x="601.05" target-y="697.43"></path><path d="M 522.46 587.68 L 511.76 585.61 C 484.92 580.43 467.37 554.47 472.55 527.64 L 474.29 518.62 C 477.34 502.85 492.59 492.53 508.36 495.58 L 519.56 497.74 C 548.75 503.38 567.84 531.62 562.19 560.81 L 562.19 560.81 C 558.64 579.21 540.85 591.24 522.46 587.68 Z" fill="url(#SVGID_1_)" fill-rule="nonzero" node-id="279" stroke="none" target-height="98.70999" target-width="100.47003" target-x="467.37" target-y="492.53"></path></svg>