<?xml version="1.0" standalone="no"?><!DOCTYPE svg PUBLIC "-//W3C//DTD SVG 1.1//EN" "http://www.w3.org/Graphics/SVG/1.1/DTD/svg11.dtd"><svg height="1024" node-id="1" sillyvg="true" template-height="1024" template-width="1024" version="1.1" viewBox="0 0 1024 1024" width="1024" xmlns="http://www.w3.org/2000/svg" xmlns:xlink="http://www.w3.org/1999/xlink"><defs node-id="63"><linearGradient gradientUnits="userSpaceOnUse" id="SVGID_1_" node-id="58" spreadMethod="pad" x1="552.4491" x2="465.2427" y1="1444.765" y2="1394.4164"><stop offset="0.2403" stop-color="#dd5543" stop-opacity="0"></stop><stop offset="1" stop-color="#dd5543" stop-opacity="0.6"></stop></linearGradient></defs><g node-id="220"><path d="M 1024.50 512.50 C 1024.50 671.64 951.85 813.93 837.96 907.79 C 829.49 914.80 820.85 921.45 811.92 927.91 C 727.71 988.72 624.29 1024.50 512.49 1024.50 C 503.93 1024.50 495.38 1024.32 487.00 1023.86 C 477.81 1023.40 468.70 1022.77 459.69 1021.77 C 395.69 1015.31 335.24 996.92 280.52 969.06 C 256.21 956.68 233.00 942.39 211.15 926.36 C 83.43 833.32 0.50 682.65 0.50 512.50 C 0.50 229.73 229.73 0.50 512.50 0.50 C 795.26 0.50 1024.50 229.73 1024.50 512.50 Z" fill="#9ba9de" fill-rule="nonzero" group-id="1" node-id="74" stroke="none" target-height="1024" target-width="1024" target-x="0.5" target-y="0.5"></path></g><g node-id="221"><g node-id="243"><path d="M 351.21 465.17 L 351.63 472.64 L 351.57 479.79 L 351.04 486.64 L 350.04 493.44 L 348.64 499.77 L 346.86 505.65 L 344.62 511.38 L 342.07 516.48 L 339.25 521.04 L 335.97 525.25 L 332.49 528.76 L 328.79 531.62 L 325.77 533.40 L 322.65 534.76 L 319.42 535.70 L 316.06 536.24 L 312.65 536.31 L 309.30 535.97 L 305.99 535.20 L 302.70 533.99 L 298.55 531.84 L 294.49 529.02 L 290.50 525.47 L 286.90 521.50 L 283.48 516.93 L 280.24 511.71 L 277.43 506.24 L 274.92 500.27 L 272.71 493.76 L 270.95 487.12 L 269.60 480.10 L 268.67 472.68 L 268.25 465.21 L 268.31 458.06 L 268.84 451.21 L 269.84 444.41 L 271.24 438.09 L 273.02 432.20 L 275.26 426.48 L 277.80 421.37 L 280.63 416.81 L 283.91 412.60 L 287.39 409.09 L 291.09 406.23 L 294.11 404.45 L 297.23 403.09 L 300.46 402.15 L 303.82 401.61 L 307.23 401.54 L 310.58 401.88 L 313.88 402.65 L 317.18 403.86 L 321.33 406.01 L 325.39 408.83 L 329.38 412.38 L 332.98 416.35 L 336.40 420.92 L 339.63 426.14 L 342.44 431.62 L 344.96 437.58 L 347.17 444.09 L 348.93 450.73 L 350.28 457.75 L 351.21 465.17 Z" fill="#ff9f8e" fill-rule="nonzero" group-id="2,24" node-id="81" stroke="none" target-height="134.76999" target-width="83.380005" target-x="268.25" target-y="401.54"></path></g></g><path d="M 339.27 486.14 C 337.34 474.64 332.37 463.04 323.27 455.41 C 321.06 453.56 318.82 451.78 316.12 450.40 C 313.51 449.02 310.08 448.34 307.16 449.52 C 301.28 452.07 299.27 458.38 298.73 463.75 C 299.76 458.43 302.68 452.66 307.72 451.19 C 312.81 449.88 317.17 454.21 320.88 457.98 C 328.34 465.72 331.63 476.44 332.29 486.97 C 332.41 488.91 334.09 490.39 336.03 490.27 C 337.97 490.15 339.45 488.47 339.33 486.53 C 339.31 486.41 339.29 486.26 339.27 486.14 Z" fill="#152140" fill-rule="nonzero" node-id="85" stroke="none" target-height="42.05002" target-width="40.72" target-x="298.73" target-y="448.34"></path><path d="M 731.76 409.58 L 735.53 410.28 L 739.12 411.57 L 742.55 413.48 L 745.88 416.06 L 748.80 419.02 L 751.55 422.50 L 754.12 426.54 L 756.51 431.21 L 758.45 435.96 L 760.13 441.11 L 761.53 446.72 L 762.64 452.80 L 763.35 458.84 L 763.70 465.14 L 763.68 471.72 L 763.26 478.62 L 762.43 485.47 L 761.26 491.95 L 759.78 498.09 L 758.00 503.89 L 755.81 509.68 L 753.42 514.94 L 750.84 519.71 L 748.07 524.03 L 744.89 528.19 L 741.63 531.70 L 738.30 534.62 L 734.88 537.01 L 731.15 538.95 L 727.43 540.21 L 723.67 540.84 L 719.83 540.84 L 716.06 540.15 L 712.47 538.85 L 709.04 536.94 L 705.72 534.36 L 702.79 531.40 L 700.04 527.92 L 697.47 523.88 L 695.09 519.21 L 693.14 514.47 L 691.46 509.31 L 690.06 503.71 L 688.95 497.62 L 688.24 491.59 L 687.89 485.29 L 687.92 478.70 L 688.33 471.81 L 689.17 464.95 L 690.33 458.47 L 691.81 452.33 L 693.60 446.53 L 695.78 440.74 L 698.17 435.48 L 700.75 430.71 L 703.52 426.40 L 706.71 422.23 L 709.96 418.72 L 713.30 415.80 L 716.71 413.41 L 720.44 411.47 L 724.17 410.21 L 727.92 409.58 L 731.76 409.58 Z" fill="#ff9f8e" fill-rule="nonzero" group-id="3,25" node-id="91" stroke="none" target-height="131.26004" target-width="75.81" target-x="687.89" target-y="409.58"></path><path d="M 705.53 491.75 C 707.46 480.25 712.43 468.65 721.53 461.02 C 723.74 459.17 725.98 457.39 728.68 456.01 C 731.29 454.63 734.72 453.95 737.64 455.13 C 743.52 457.68 745.53 463.99 746.07 469.36 C 745.04 464.04 742.12 458.27 737.08 456.80 C 731.99 455.49 727.63 459.82 723.92 463.59 C 716.46 471.33 713.17 482.05 712.51 492.58 C 712.39 494.52 710.71 496.00 708.77 495.88 C 706.83 495.76 705.35 494.08 705.47 492.14 C 705.50 492.01 705.51 491.86 705.53 491.75 Z" fill="#152140" fill-rule="nonzero" node-id="95" stroke="none" target-height="42.049988" target-width="40.72003" target-x="705.35" target-y="453.95"></path><path d="M 444.77 689.06 L 613.10 689.06 L 613.10 874.05 L 444.77 874.05 Z" fill="#ff9f8e" fill-rule="nonzero" group-id="4" node-id="99" stroke="none" target-height="184.98999" target-width="168.32999" target-x="444.77" target-y="689.06"></path><path d="M 339.50 430.17 C 333.32 406.38 323.32 372.08 307.57 331.64 C 294.36 297.75 290.27 293.33 291.26 281.36 C 295.46 230.83 378.03 192.80 440.75 183.51 C 474.49 178.51 502.60 181.81 519.57 184.87 C 519.19 179.08 517.47 165.69 507.34 154.29 C 504.16 150.71 500.81 148.07 497.82 146.14 C 503.80 145.32 527.80 142.72 550.14 158.37 C 564.76 168.61 571.72 181.79 574.60 188.27 C 576.32 177.99 577.26 164.37 574.60 148.86 C 573.71 143.67 572.52 138.91 571.20 134.59 C 575.93 137.41 583.90 143.06 590.23 152.94 C 600.17 168.45 599.54 184.19 599.06 189.63 C 604.62 183.29 616.11 171.91 634.39 164.49 C 650.92 157.78 665.57 157.34 673.80 157.70 C 671.16 158.00 655.83 159.99 646.62 173.33 C 642.08 179.90 640.87 186.55 640.51 190.32 C 648.56 188.81 660.17 187.63 673.81 189.64 C 695.33 192.81 710.73 202.26 718.66 207.99 C 708.47 210.03 698.28 212.07 688.08 214.11 C 696.46 216.14 709.13 220.10 722.73 228.38 C 728.19 231.70 766.17 254.80 762.82 277.98 C 761.61 286.33 755.78 289.63 749.23 297.01 C 719.74 330.23 742.58 371.01 719.33 415.24 C 714.10 425.20 704.31 439.54 684.68 453.29 C 569.62 445.57 454.56 437.87 339.50 430.17 Z" fill="#152140" fill-rule="nonzero" group-id="5" node-id="104" stroke="none" target-height="318.7" target-width="475.9" target-x="290.27" target-y="134.59"></path><path d="M 613.10 689.06 L 613.10 740.95 C 565.94 762.16 498.76 766.62 444.77 744.50 L 444.77 689.06 L 613.10 689.06 Z" fill="#f5575d" fill-rule="nonzero" group-id="6" node-id="109" stroke="none" target-height="77.56" target-width="168.32999" target-x="444.77" target-y="689.06"></path><path d="M 500.88 233.40 C 429.53 245.09 372.74 299.13 353.44 368.80 C 335.18 434.70 325.25 515.12 343.60 600.45 C 357.92 667.03 379.77 691.56 391.16 702.38 C 453.31 761.33 567.00 755.80 626.27 717.33 C 709.32 663.42 738.45 510.48 676.62 336.14 C 652.21 267.31 583.85 223.40 511.33 231.93 C 510.69 232.01 510.05 232.08 509.40 232.17 C 506.52 232.53 503.68 232.94 500.88 233.40 Z" fill="#ff9f8e" fill-rule="nonzero" group-id="7" node-id="114" stroke="none" target-height="537.93005" target-width="413.2" target-x="325.25" target-y="223.4"></path><path d="M 607.09 314.24 L 612.17 315.72 L 616.97 317.68 L 621.51 320.11 L 625.81 323.05 L 629.81 326.39 L 633.53 330.12 L 636.99 334.27 L 640.19 338.87 L 642.99 343.67 L 645.47 348.79 L 647.65 354.25 L 649.51 360.08 L 650.95 365.96 L 652.03 372.08 L 652.74 378.44 L 653.06 385.07 L 652.97 391.64 L 652.47 398.35 L 651.53 405.21 L 650.14 412.22 L 648.31 419.14 L 646.15 425.71 L 643.67 431.96 L 640.86 437.91 L 637.67 443.73 L 634.24 449.14 L 630.59 454.16 L 626.72 458.82 L 622.49 463.24 L 618.14 467.20 L 613.66 470.71 L 609.04 473.80 L 604.16 476.53 L 599.23 478.74 L 594.25 480.47 L 589.19 481.71 L 584.03 482.47 L 578.89 482.67 L 573.72 482.33 L 568.50 481.43 L 563.42 479.95 L 558.63 477.99 L 554.09 475.55 L 549.78 472.62 L 545.79 469.28 L 542.06 465.55 L 538.61 461.40 L 535.41 456.80 L 532.61 452.00 L 530.12 446.88 L 527.95 441.42 L 526.09 435.59 L 524.65 429.71 L 523.57 423.59 L 522.86 417.23 L 522.54 410.60 L 522.62 404.03 L 523.13 397.32 L 524.07 390.46 L 525.46 383.45 L 527.28 376.53 L 529.44 369.96 L 531.93 363.70 L 534.73 357.76 L 537.93 351.94 L 541.35 346.53 L 545.00 341.51 L 548.88 336.85 L 553.10 332.43 L 557.45 328.47 L 561.93 324.96 L 566.55 321.87 L 571.44 319.14 L 576.37 316.93 L 581.35 315.20 L 586.40 313.95 L 591.56 313.20 L 596.71 313.00 L 601.88 313.34 L 607.09 314.24 Z" fill="#ffffff" fill-opacity="0.4" fill-rule="nonzero" group-id="8,26" node-id="121" stroke="#0f0f0f" stroke-linecap="butt" stroke-opacity="0.4" stroke-width="6.000106" target-height="169.67001" target-width="130.52002" target-x="522.54" target-y="313"></path><path d="M 473.53 319.50 L 478.50 322.23 L 483.06 325.38 L 487.25 328.98 L 491.08 333.03 L 494.50 337.42 L 497.54 342.17 L 500.21 347.27 L 502.50 352.78 L 504.33 358.41 L 505.77 364.30 L 506.80 370.46 L 507.41 376.93 L 507.58 383.36 L 507.32 389.94 L 506.61 396.69 L 505.44 403.63 L 503.85 410.41 L 501.80 417.24 L 499.26 424.11 L 496.21 431.05 L 492.73 437.78 L 488.97 444.07 L 484.96 449.96 L 480.67 455.45 L 476.01 460.72 L 471.20 465.51 L 466.25 469.85 L 461.14 473.76 L 455.72 477.35 L 450.28 480.42 L 444.79 483.00 L 439.26 485.11 L 433.54 486.78 L 427.89 487.92 L 422.29 488.53 L 416.72 488.63 L 411.16 488.20 L 405.74 487.20 L 400.41 485.62 L 395.17 483.47 L 390.20 480.74 L 385.63 477.59 L 381.44 474.00 L 377.61 469.94 L 374.20 465.55 L 371.16 460.81 L 368.49 455.70 L 366.19 450.19 L 364.36 444.56 L 362.93 438.67 L 361.90 432.51 L 361.28 426.04 L 361.11 419.61 L 361.38 413.03 L 362.09 406.28 L 363.26 399.34 L 364.84 392.56 L 366.90 385.73 L 369.44 378.86 L 372.49 371.92 L 375.97 365.20 L 379.72 358.90 L 383.74 353.01 L 388.02 347.52 L 392.68 342.25 L 397.49 337.46 L 402.45 333.12 L 407.56 329.21 L 412.98 325.62 L 418.42 322.55 L 423.90 319.97 L 429.43 317.86 L 435.16 316.19 L 440.81 315.05 L 446.41 314.44 L 451.98 314.34 L 457.53 314.77 L 462.96 315.78 L 468.28 317.35 L 473.53 319.50 Z" fill="#ffffff" fill-opacity="0.4" fill-rule="nonzero" group-id="9,27" node-id="129" stroke="#0f0f0f" stroke-linecap="butt" stroke-opacity="0.4" stroke-width="6.000236" target-height="174.29001" target-width="146.47" target-x="361.11" target-y="314.34"></path><path d="M 542.19 634.65 C 541.58 644.17 540.35 653.20 538.50 661.31 C 533.22 685.09 523.32 701.37 513.00 700.75 C 502.92 700.07 495.18 683.61 492.66 660.26 C 491.62 651.54 491.37 641.83 491.99 631.63 C 494.20 594.34 507.23 564.72 521.11 565.58 C 535.00 566.39 544.40 597.36 542.19 634.65 Z" fill="#ffffff" fill-rule="nonzero" group-id="10" node-id="135" stroke="none" target-height="136.65002" target-width="53.03003" target-x="491.37" target-y="564.72"></path><path d="M 472.00 418.35 C 472.00 439.15 455.13 456.02 434.33 456.02 C 413.53 456.02 396.66 439.15 396.66 418.35 C 396.66 397.55 413.53 380.68 434.33 380.68 C 455.13 380.68 472.00 397.55 472.00 418.35 Z" fill="#152140" fill-rule="nonzero" group-id="11" node-id="140" stroke="none" target-height="75.34" target-width="75.34" target-x="396.66" target-y="380.68"></path><path d="M 450.81 431.43 C 450.81 440.53 443.43 447.91 434.33 447.91 C 425.23 447.91 417.85 440.53 417.85 431.43 C 417.85 422.33 425.23 414.95 434.33 414.95 C 443.43 414.95 450.81 422.33 450.81 431.43 Z" fill="#ffffff" fill-rule="nonzero" group-id="12" node-id="145" stroke="none" target-height="32.95999" target-width="32.95999" target-x="417.85" target-y="414.95"></path><path d="M 461.91 403.51 C 461.91 409.18 457.32 413.77 451.65 413.77 C 445.98 413.77 441.39 409.18 441.39 403.51 C 441.39 397.84 445.98 393.25 451.65 393.25 C 457.32 393.25 461.91 397.84 461.91 403.51 Z" fill="#ffffff" fill-rule="nonzero" group-id="13" node-id="150" stroke="none" target-height="20.519989" target-width="20.519989" target-x="441.39" target-y="393.25"></path><path d="M 625.47 418.35 C 625.47 439.15 608.60 456.02 587.80 456.02 C 567.00 456.02 550.13 439.15 550.13 418.35 C 550.13 397.55 567.00 380.68 587.80 380.68 C 608.60 380.68 625.47 397.55 625.47 418.35 Z" fill="#152140" fill-rule="nonzero" group-id="14,28" node-id="157" stroke="none" target-height="75.34" target-width="75.339966" target-x="550.13" target-y="380.68"></path><path d="M 604.28 431.43 C 604.28 440.53 596.90 447.91 587.80 447.91 C 578.70 447.91 571.32 440.53 571.32 431.43 C 571.32 422.33 578.70 414.95 587.80 414.95 C 596.90 414.95 604.28 422.33 604.28 431.43 Z" fill="#ffffff" fill-rule="nonzero" group-id="14,29" node-id="162" stroke="none" target-height="32.95999" target-width="32.960022" target-x="571.32" target-y="414.95"></path><path d="M 615.39 403.51 C 615.39 409.18 610.80 413.77 605.13 413.77 C 599.46 413.77 594.87 409.18 594.87 403.51 C 594.87 397.84 599.46 393.25 605.13 393.25 C 610.80 393.25 615.39 397.84 615.39 403.51 Z" fill="#ffffff" fill-rule="nonzero" group-id="14,30" node-id="167" stroke="none" target-height="20.519989" target-width="20.52002" target-x="594.87" target-y="393.25"></path><path d="M 538.50 661.31 C 533.22 685.09 523.32 701.37 513.00 700.75 C 502.92 700.07 495.18 683.61 492.66 660.26 C 499.36 657.62 506.67 656.14 514.35 656.14 C 522.96 656.15 531.13 658.00 538.50 661.31 Z" fill="#dd5543" fill-rule="nonzero" group-id="15" node-id="173" stroke="none" target-height="45.22998" target-width="45.839996" target-x="492.66" target-y="656.14"></path><path d="M 701.57 368.50 C 684.75 357.57 665.81 342.99 647.21 323.65 C 640.13 316.29 633.82 308.99 628.18 301.91 C 628.86 310.73 630.53 321.44 634.30 333.17 C 636.16 338.95 638.26 344.17 640.41 348.80 C 634.43 343.11 623.11 330.76 617.31 311.43 C 608.93 283.53 617.75 260.04 620.71 252.99 C 615.31 262.88 605.86 277.21 590.13 290.36 C 565.82 310.69 540.17 316.80 527.62 318.90 C 534.50 310.75 542.39 302.26 551.40 293.76 C 573.19 273.21 595.13 258.60 613.91 248.23 C 585.09 256.20 553.25 266.74 519.46 280.85 C 493.77 291.57 470.43 302.89 449.47 314.15 C 453.17 307.41 459.15 298.40 468.50 289.69 C 482.48 276.67 497.17 270.71 505.87 267.95 C 481.26 272.27 447.19 281.27 410.74 301.25 C 388.63 313.36 370.84 326.67 357.06 338.62 C 348.91 320.95 340.75 303.29 332.60 285.62 C 358.37 276.29 393.89 263.85 436.56 250.29 C 589.43 201.69 613.92 208.51 626.82 214.28 C 686.37 240.86 698.58 334.04 701.57 368.50 Z" fill="#152140" fill-rule="nonzero" group-id="16" node-id="178" stroke="none" target-height="166.81" target-width="368.97" target-x="332.6" target-y="201.69"></path><path d="M 451.60 315.79 C 452.41 313.61 443.33 306.55 432.60 304.27 C 417.85 301.13 403.03 307.69 403.32 310.19 C 403.46 311.39 407.04 311.21 424.50 313.30 C 445.52 315.82 451.02 317.36 451.60 315.79 Z" fill="#152140" fill-rule="nonzero" group-id="17" node-id="183" stroke="none" target-height="16.22998" target-width="49.380005" target-x="403.03" target-y="301.13"></path><path d="M 564.89 316.06 C 563.63 314.11 570.99 305.26 580.98 300.73 C 594.71 294.50 610.60 297.73 610.85 300.23 C 610.97 301.43 607.43 302.03 590.83 307.81 C 570.84 314.78 565.80 317.47 564.89 316.06 Z" fill="#152140" fill-rule="nonzero" group-id="18" node-id="188" stroke="none" target-height="22.970001" target-width="47.339966" target-x="563.63" target-y="294.5"></path><path d="M 657.85 830.24 C 651.28 851.25 628.67 859.78 622.09 880.79 C 561.68 917.21 492.12 917.44 447.70 882.30 C 421.71 861.73 410.70 834.02 405.90 817.31 C 408.30 815.04 410.65 812.78 413.05 810.51 C 413.76 809.84 414.47 809.18 415.18 808.51 C 416.11 807.62 417.05 806.73 417.98 805.84 C 427.04 797.22 436.15 788.61 445.21 779.99 C 460.58 799.93 485.81 826.72 523.83 846.53 C 535.47 852.57 546.71 857.15 557.10 860.61 C 561.67 859.86 585.84 855.41 601.43 832.89 C 613.29 815.74 613.29 798.07 613.02 792.07 C 618.08 796.60 627.68 804.68 637.01 812.46 C 645.28 819.44 653.36 826.24 657.85 830.24 Z" fill="#fcffff" fill-rule="nonzero" group-id="19" node-id="193" stroke="none" target-height="137.45001" target-width="251.94998" target-x="405.9" target-y="779.99"></path><path d="M 641.77 817.80 C 636.53 834.55 631.33 851.29 626.09 868.04 C 602.37 884.48 568.75 894.74 531.43 894.74 C 488.21 894.74 449.92 880.97 426.20 859.74 C 415.01 844.28 409.10 828.38 405.90 817.32 C 408.26 815.10 410.61 812.83 412.96 810.57 C 413.01 810.57 413.01 810.57 413.05 810.53 C 413.76 809.86 414.47 809.20 415.18 808.53 C 416.11 807.64 417.05 806.75 417.98 805.86 C 423.27 813.32 432.95 826.83 444.77 837.22 C 452.41 844.06 461.69 850.68 472.62 856.63 C 479.33 860.18 496.74 869.56 518.68 874.00 C 532.80 877.02 548.71 877.91 564.92 874.00 C 571.94 872.36 579.14 869.74 586.15 866.00 C 597.34 859.96 606.14 852.14 613.07 844.15 C 623.46 832.02 629.37 819.36 632.48 811.55 C 633.41 811.73 634.44 811.99 635.46 812.17 C 637.55 814.02 639.68 815.93 641.77 817.80 Z" fill="#fcffff" fill-rule="nonzero" group-id="20" node-id="198" stroke="none" target-height="88.880005" target-width="235.87003" target-x="405.9" target-y="805.86"></path><path d="M 417.98 805.85 C 418.15 806.10 418.53 806.64 419.00 807.32 C 430.03 822.98 439.72 832.34 441.88 834.51 C 442.86 835.49 443.83 836.38 444.77 837.22 C 452.41 844.06 461.69 850.68 472.62 856.63 C 479.33 860.18 496.74 869.56 518.68 874.00 C 532.80 877.02 548.71 877.91 564.92 874.00 C 571.94 872.36 579.14 869.74 586.15 866.00 C 597.34 859.96 606.14 852.14 613.07 844.15 C 623.46 832.02 629.37 819.36 632.48 811.55 C 633.46 811.73 634.48 811.99 635.55 812.17 C 636.04 812.26 636.53 812.39 637.02 812.48 C 644.26 814.03 652.30 816.03 661.01 818.70 C 691.79 827.94 730.39 844.77 766.24 876.09 C 789.78 896.75 804.53 916.96 810.57 925.80 C 811.01 926.56 811.55 927.18 811.90 927.89 C 727.73 988.74 624.27 1024.50 512.47 1024.50 C 503.94 1024.50 495.37 1024.32 487.02 1023.88 C 477.83 1023.39 468.72 1022.77 459.70 1021.75 C 395.69 1015.31 335.24 996.92 280.51 969.07 C 256.21 956.68 232.98 942.37 211.17 926.38 C 221.08 909.99 233.82 894.75 250.13 882.14 C 259.77 874.63 268.52 869.66 279.71 863.35 C 309.43 846.47 349.67 827.73 401.24 813.64 C 401.91 813.46 402.62 813.28 403.28 813.11 C 406.48 812.27 409.72 811.38 412.96 810.58 C 412.98 810.58 412.99 810.58 413.00 810.58 C 413.02 810.57 413.03 810.56 413.05 810.54 C 414.69 808.96 416.34 807.40 417.98 805.85 Z" fill="#005097" fill-rule="nonzero" group-id="21" node-id="203" stroke="none" target-height="218.65002" target-width="600.73004" target-x="211.17" target-y="805.85"></path><path d="M 747.63 967.47 C 749.94 941.93 748.74 913.50 741.06 883.47 C 738.08 871.79 734.17 860.28 729.47 849.09 L 728.76 848.69 L 722.85 845.18 C 728.67 857.93 733.29 871.08 736.75 884.54 C 744.57 915.14 745.55 944.02 742.88 969.87 L 742.88 969.91 L 747.63 967.47 Z" fill="#1e66b1" fill-rule="nonzero" group-id="22" node-id="208" stroke="none" target-height="124.72998" target-width="27.090027" target-x="722.85" target-y="845.18"></path><path d="M 360.25 1001.45 C 367.67 968.27 370.33 927.58 359.05 883.47 C 354.70 866.46 348.48 849.89 340.48 834.08 L 336.35 835.77 C 344.26 851.41 350.43 867.75 354.74 884.54 C 365.76 927.72 363.22 967.56 355.94 1000.12 L 355.94 1000.16 L 360.25 1001.45 Z" fill="#1e66b1" fill-rule="nonzero" group-id="23" node-id="213" stroke="none" target-height="167.37" target-width="33.97998" target-x="336.35" target-y="834.08"></path><path d="M 661.00 818.69 C 657.84 837.75 645.19 854.89 626.08 868.04 C 602.36 884.48 568.74 894.74 531.42 894.74 C 488.20 894.74 449.91 880.97 426.19 859.74 C 415.40 844.86 406.78 824.47 403.27 813.10 C 406.47 812.26 409.71 811.37 412.95 810.57 C 413.00 810.57 413.00 810.57 413.04 810.53 C 413.93 810.26 414.55 809.42 415.17 808.53 C 416.10 807.64 417.04 806.75 417.97 805.86 C 418.10 806.04 418.46 806.53 418.99 807.33 C 422.32 811.82 432.63 825.54 441.87 834.52 C 442.85 835.50 443.82 836.39 444.76 837.23 C 452.40 844.07 461.68 850.69 472.61 856.64 C 479.32 860.19 496.73 869.57 518.67 874.01 C 532.79 877.03 548.70 877.92 564.91 874.01 C 571.93 872.37 579.13 869.75 586.14 866.01 C 597.33 859.97 606.13 852.15 613.06 844.16 C 623.45 832.03 630.34 816.58 633.45 808.76 C 634.38 808.94 635.23 810.54 636.25 810.71 C 643.85 812.29 651.72 815.84 661.00 818.69 Z" fill="#034481" fill-rule="nonzero" node-id="216" stroke="none" target-height="88.880005" target-width="257.73" target-x="403.27" target-y="805.86"></path><path d="M 514.38 551.07 L 503.68 549.00 C 476.84 543.82 459.29 517.86 464.47 491.03 L 466.21 482.01 C 469.26 466.24 484.51 455.92 500.28 458.97 L 511.48 461.13 C 540.67 466.77 559.76 495.01 554.11 524.20 L 554.11 524.20 C 550.56 542.60 532.77 554.62 514.38 551.07 Z" fill="url(#SVGID_1_)" fill-rule="nonzero" node-id="218" stroke="none" target-height="98.69998" target-width="100.47" target-x="459.29" target-y="455.92"></path></svg>