<?xml version="1.0" standalone="no"?><!DOCTYPE svg PUBLIC "-//W3C//DTD SVG 1.1//EN" "http://www.w3.org/Graphics/SVG/1.1/DTD/svg11.dtd"><svg height="1024" node-id="1" sillyvg="true" template-height="1024" template-width="1024" version="1.1" viewBox="0 0 1024 1024" width="1024" xmlns="http://www.w3.org/2000/svg" xmlns:xlink="http://www.w3.org/1999/xlink"><defs node-id="94"><linearGradient gradientUnits="userSpaceOnUse" id="SVGID_1_" node-id="89" spreadMethod="pad" x1="566.5719" x2="479.3661" y1="565.7487" y2="515.4003"><stop offset="0.2403" stop-color="#dd5543" stop-opacity="0"></stop><stop offset="1" stop-color="#dd5543" stop-opacity="0.6"></stop></linearGradient></defs><g node-id="298"><path d="M 1024.50 512.47 C 1024.50 649.23 970.88 773.56 883.42 865.38 C 869.21 880.39 854.01 894.56 837.98 907.76 C 829.50 914.78 820.83 921.44 811.91 927.88 C 727.74 988.69 624.28 1024.49 512.48 1024.49 C 503.95 1024.49 495.38 1024.31 487.03 1023.82 C 477.83 1023.38 468.73 1022.75 459.71 1021.73 C 395.70 1015.29 335.25 996.90 280.52 969.00 C 256.22 956.65 232.99 942.35 211.18 926.31 C 186.17 908.10 162.90 887.71 141.57 865.37 C 54.16 773.60 0.50 649.32 0.50 512.47 C 0.50 229.70 229.75 0.50 512.48 0.50 C 795.25 0.50 1024.50 229.70 1024.50 512.47 Z" fill="#fed685" fill-rule="nonzero" group-id="1" node-id="105" stroke="none" target-height="1023.99" target-width="1024" target-x="0.5" target-y="0.5"></path></g><g node-id="299"><path d="M 512.95 705.01 C 412.60 705.01 330.96 654.84 330.96 593.17 C 330.96 531.50 412.60 481.32 512.95 481.32 C 613.31 481.32 694.95 531.49 694.95 593.17 C 694.94 654.83 613.30 705.01 512.95 705.01 Z M 512.95 492.53 C 418.78 492.53 342.17 537.67 342.17 593.17 C 342.17 648.66 418.78 693.80 512.95 693.80 C 607.12 693.80 683.74 648.66 683.74 593.17 C 683.73 537.67 607.12 492.53 512.95 492.53 Z" fill="#ff9f8e" fill-rule="nonzero" group-id="2" node-id="110" stroke="none" target-height="223.69" target-width="363.99002" target-x="330.96" target-y="481.32"></path></g><path d="M 707.06 536.38 C 713.46 510.56 724.89 476.01 746.20 438.82 C 764.97 406.07 785.71 381.19 802.86 363.46 C 790.40 358.98 777.94 354.50 765.47 350.02 C 780.07 343.40 794.68 336.78 809.28 330.16 C 783.46 301.14 748.60 268.06 702.96 237.86 C 684.17 225.43 665.88 215.03 648.63 206.32 C 658.43 196.84 668.39 186.72 678.42 175.94 C 684.08 169.86 689.53 163.81 694.77 157.83 C 682.06 161.12 661.45 168.18 640.44 184.12 C 622.37 197.83 610.92 212.87 604.22 223.26 C 603.38 214.58 601.80 204.72 598.96 194.05 C 593.61 173.93 585.62 157.86 578.51 146.15 C 581.47 153.82 586.67 170.61 582.01 190.55 C 580.16 198.47 577.21 204.93 574.42 209.83 C 567.76 200.52 553.96 184.28 531.78 177.70 C 531.78 177.70 509.99 171.23 482.12 180.04 C 441.06 193.01 342.94 268.82 223.33 383.91 C 238.91 382.35 254.49 380.79 270.07 379.24 C 257.41 392.87 244.75 406.50 232.10 420.13 C 246.93 422.79 271.93 429.46 296.36 448.17 C 343.51 484.29 352.41 537.60 354.19 550.40 C 471.83 545.72 589.45 541.05 707.06 536.38 Z" fill="#152140" fill-rule="nonzero" node-id="113" stroke="none" target-height="404.25003" target-width="585.95" target-x="223.33" target-y="146.15"></path><path d="M 254.93 395.50 C 246.76 396.35 238.59 397.12 230.43 397.97 C 236.20 392.41 241.98 386.91 247.68 381.49 C 255.15 380.72 262.61 380.01 270.08 379.24 C 265.07 384.65 260.07 390.08 254.93 395.50 Z" fill="#24365e" fill-rule="nonzero" group-id="3" node-id="117" stroke="none" target-height="18.730011" target-width="39.649994" target-x="230.43" target-y="379.24"></path><path d="M 341.76 506.77 C 333.17 491.56 320.99 475.71 303.45 462.26 C 279.01 443.53 254.01 436.84 239.15 434.23 C 242.32 430.85 245.49 427.40 248.66 424.02 C 262.53 428.11 279.57 435.29 296.41 448.18 C 319.44 465.85 333.31 487.62 341.76 506.77 Z" fill="#24365e" fill-rule="nonzero" group-id="3" node-id="119" stroke="none" target-height="82.75" target-width="102.610016" target-x="239.15" target-y="424.02"></path><path d="M 598.96 194.09 C 596.22 183.74 592.76 174.51 589.10 166.34 C 595.23 177.33 601.50 191.34 606.00 208.17 C 606.85 211.34 607.62 214.44 608.18 217.47 C 606.70 219.51 605.36 221.48 604.24 223.25 C 603.40 214.58 601.85 204.72 598.96 194.09 Z" fill="#24365e" fill-rule="nonzero" group-id="3" node-id="121" stroke="none" target-height="56.910004" target-width="19.080017" target-x="589.1" target-y="166.34"></path><path d="M 662.55 213.66 C 657.83 211.05 653.18 208.66 648.61 206.34 C 656.14 199.09 663.75 191.41 671.36 183.38 C 683.33 177.32 694.04 173.94 701.86 171.90 C 696.58 177.89 691.16 183.94 685.52 190.00 C 677.76 198.24 670.16 206.13 662.55 213.66 Z" fill="#24365e" fill-rule="nonzero" group-id="3" node-id="123" stroke="none" target-height="41.76001" target-width="53.25" target-x="648.61" target-y="171.9"></path><path d="M 254.93 395.50 C 262.33 394.80 269.72 394.02 277.12 393.32 C 267.68 403.60 258.18 413.81 248.67 424.03 C 242.40 422.20 236.77 421.00 232.12 420.16 C 239.72 411.91 247.39 403.74 254.93 395.50 Z" fill="#24365e" fill-rule="nonzero" group-id="3" node-id="125" stroke="none" target-height="30.709991" target-width="45" target-x="232.12" target-y="393.32"></path><path d="M 585.58 160.21 C 588.54 167.89 593.75 184.72 589.10 204.65 C 587.27 212.54 584.31 219.02 581.49 223.95 C 574.80 214.58 561.07 198.39 538.88 191.77 C 538.88 191.77 517.05 185.36 489.16 194.16 C 450.07 206.48 359.36 275.71 247.67 381.49 C 239.57 382.27 231.47 383.11 223.38 383.89 C 342.96 268.82 441.06 193.04 482.12 180.08 C 510.01 171.28 531.84 177.69 531.84 177.69 C 554.02 184.31 567.76 200.51 574.45 209.87 C 577.27 204.94 580.23 198.46 582.06 190.57 C 586.71 170.64 581.50 153.81 578.54 146.13 C 581.99 151.83 585.65 158.60 589.10 166.34 C 587.90 164.15 586.71 162.11 585.58 160.21 Z" fill="#24365e" fill-rule="nonzero" group-id="3" node-id="127" stroke="none" target-height="237.76001" target-width="370.37" target-x="223.38" target-y="146.13"></path><path d="M 671.36 183.38 C 663.75 187.18 655.66 191.97 647.48 198.24 C 629.45 211.90 617.97 226.97 611.28 237.33 C 610.72 231.27 609.73 224.58 608.18 217.47 C 615.08 207.75 625.50 195.50 640.44 184.16 C 661.50 168.17 682.06 161.13 694.81 157.82 C 689.53 163.81 684.11 169.86 678.47 175.92 C 676.08 178.45 673.75 180.92 671.36 183.38 Z" fill="#24365e" fill-rule="nonzero" group-id="3" node-id="129" stroke="none" target-height="79.509995" target-width="86.630005" target-x="608.18" target-y="157.82"></path><path d="M 624.51 866.84 L 400.49 866.84 L 416.74 724.20 L 422.68 672.13 L 422.91 669.95 L 602.09 669.95 L 602.32 672.13 L 609.88 738.21 Z" fill="#ff9f8e" fill-rule="nonzero" group-id="4" node-id="134" stroke="none" target-height="196.89001" target-width="224.02002" target-x="400.49" target-y="669.95"></path><path d="M 609.88 738.21 C 546.32 754.97 472.84 746.95 416.74 724.20 L 422.68 672.13 L 602.32 672.13 L 609.88 738.21 Z" fill="#f5575d" fill-rule="nonzero" group-id="5" node-id="139" stroke="none" target-height="82.839966" target-width="193.14001" target-x="416.74" target-y="672.13"></path><path d="M 351.85 510.86 L 352.23 518.35 L 352.05 525.40 L 351.34 532.05 L 350.08 538.62 L 348.39 544.50 L 346.31 549.77 L 344.35 553.60 L 342.24 556.92 L 339.98 559.77 L 337.58 562.20 L 334.85 564.32 L 332.03 565.89 L 329.09 566.95 L 325.99 567.52 L 322.84 567.52 L 319.76 567.01 L 316.70 565.97 L 313.64 564.38 L 310.84 562.42 L 308.10 560.02 L 305.43 557.14 L 302.81 553.72 L 299.82 548.92 L 297.09 543.43 L 294.67 537.20 L 292.77 530.79 L 291.32 523.88 L 290.34 516.45 L 289.96 508.96 L 290.15 501.91 L 290.86 495.26 L 292.12 488.69 L 293.81 482.81 L 295.89 477.54 L 297.85 473.71 L 299.96 470.39 L 302.21 467.54 L 304.62 465.11 L 307.34 462.99 L 310.16 461.42 L 313.10 460.36 L 316.20 459.79 L 319.35 459.79 L 322.44 460.30 L 325.49 461.34 L 328.56 462.93 L 331.36 464.89 L 334.09 467.29 L 336.77 470.17 L 339.38 473.59 L 342.38 478.39 L 345.10 483.88 L 347.53 490.11 L 349.43 496.53 L 350.88 503.43 L 351.85 510.86 Z" fill="#ff9f8e" fill-rule="nonzero" group-id="6" node-id="144" stroke="none" target-height="107.73001" target-width="62.27002" target-x="289.96" target-y="459.79"></path><path d="M 339.83 541.07 C 339.16 529.43 335.49 517.36 327.28 508.78 C 325.29 506.70 323.25 504.69 320.72 503.02 C 318.27 501.36 314.94 500.31 311.90 501.17 C 305.78 503.06 303.09 509.11 301.96 514.39 C 303.56 509.21 307.10 503.80 312.27 502.89 C 317.47 502.14 321.33 506.93 324.61 511.08 C 331.18 519.59 333.27 530.60 332.79 541.14 C 332.70 543.09 334.21 544.73 336.15 544.82 C 338.10 544.91 339.75 543.40 339.84 541.46 C 339.84 541.34 339.84 541.19 339.83 541.07 Z" fill="#152140" fill-rule="nonzero" node-id="147" stroke="none" target-height="44.599976" target-width="37.880005" target-x="301.96" target-y="500.31"></path><path d="M 720.38 445.72 L 723.48 446.29 L 726.42 447.35 L 729.24 448.91 L 731.97 451.04 L 734.37 453.47 L 736.63 456.32 L 738.74 459.64 L 740.70 463.47 L 742.78 468.74 L 744.47 474.62 L 745.73 481.19 L 746.44 487.84 L 746.62 494.89 L 746.24 502.38 L 745.27 509.81 L 743.82 516.71 L 741.92 523.13 L 739.49 529.36 L 736.77 534.85 L 733.77 539.65 L 731.16 543.07 L 728.48 545.95 L 725.75 548.35 L 722.95 550.31 L 719.88 551.90 L 716.83 552.94 L 713.74 553.45 L 710.59 553.45 L 707.49 552.88 L 704.55 551.82 L 701.73 550.25 L 699.01 548.13 L 696.60 545.70 L 694.35 542.85 L 692.24 539.53 L 690.28 535.70 L 688.20 530.43 L 686.51 524.55 L 685.25 517.98 L 684.53 511.33 L 684.35 504.28 L 684.73 496.79 L 685.71 489.36 L 687.16 482.45 L 689.06 476.04 L 691.48 469.81 L 694.21 464.32 L 697.20 459.52 L 699.82 456.10 L 702.49 453.22 L 705.23 450.82 L 708.03 448.86 L 711.09 447.27 L 714.15 446.23 L 717.23 445.72 L 720.38 445.72 Z" fill="#ff9f8e" fill-rule="nonzero" group-id="7" node-id="151" stroke="none" target-height="107.73001" target-width="62.27002" target-x="684.35" target-y="445.72"></path><path d="M 697.40 527.70 C 697.61 516.04 700.80 503.83 708.68 494.94 C 710.59 492.79 712.55 490.69 715.01 488.93 C 717.39 487.18 720.67 486.00 723.75 486.74 C 729.94 488.39 732.86 494.33 734.20 499.56 C 732.40 494.45 728.65 489.18 723.45 488.47 C 718.22 487.93 714.55 492.86 711.44 497.13 C 705.21 505.89 703.55 516.97 704.44 527.49 C 704.61 529.43 703.17 531.14 701.23 531.30 C 699.29 531.46 697.58 530.03 697.42 528.09 C 697.40 527.97 697.40 527.82 697.40 527.70 Z" fill="#152140" fill-rule="nonzero" node-id="154" stroke="none" target-height="45.460022" target-width="36.799988" target-x="697.4" target-y="486"></path><path d="M 713.90 584.03 C 713.83 586.35 713.62 588.68 713.20 591.21 C 713.20 591.28 713.20 591.28 713.20 591.28 C 713.20 591.49 713.20 591.77 713.13 592.05 C 712.63 595.08 712.07 598.04 711.22 601.06 C 710.87 602.89 710.38 604.72 709.81 606.48 L 706.99 614.72 L 706.99 614.79 C 706.71 615.64 706.35 616.48 705.93 617.33 C 705.02 619.87 703.89 622.33 702.69 624.87 C 702.41 625.43 702.13 626.00 701.78 626.63 L 698.26 633.32 C 697.56 634.66 696.71 636.07 695.87 637.41 C 694.67 639.38 693.40 641.42 692.14 643.40 C 690.73 645.44 689.32 647.48 687.78 649.53 C 686.58 651.22 685.38 652.84 684.05 654.39 C 683.21 655.59 682.29 656.71 681.30 657.77 C 680.10 659.39 678.77 660.94 677.36 662.42 C 676.72 663.19 676.09 663.97 675.32 664.67 C 673.91 666.36 672.36 667.98 670.74 669.60 C 668.77 671.64 666.73 673.61 664.68 675.52 L 659.54 680.24 C 658.63 681.09 657.71 681.86 656.80 682.63 L 651.37 687.07 C 649.33 688.76 647.22 690.45 644.96 692.07 C 643.13 693.41 641.23 694.75 639.32 696.08 C 637.35 697.49 635.31 698.83 633.26 700.16 C 631.57 701.29 629.81 702.34 628.05 703.40 C 625.44 705.02 622.77 706.64 620.02 708.12 C 618.33 709.11 616.57 710.02 614.81 710.87 C 611.08 712.91 607.21 714.81 603.33 716.57 C 601.50 717.41 599.74 718.19 597.91 718.89 C 594.88 720.23 591.78 721.50 588.62 722.62 C 586.51 723.47 584.39 724.17 582.28 724.87 C 580.80 725.36 579.39 725.86 577.91 726.35 C 575.73 727.05 573.47 727.69 571.29 728.32 C 568.47 729.10 565.59 729.87 562.70 730.57 C 560.52 731.06 558.26 731.56 556.01 731.98 C 555.03 732.26 554.04 732.40 552.98 732.61 C 550.80 733.03 548.68 733.38 546.50 733.74 C 544.46 734.09 542.35 734.37 540.30 734.59 C 538.26 734.87 536.21 735.08 534.17 735.22 C 534.17 735.29 534.17 735.29 534.17 735.29 C 530.79 735.57 527.41 735.85 523.96 735.92 C 521.85 736.06 519.73 736.13 517.62 736.13 L 517.27 736.13 C 515.86 736.13 514.38 736.13 512.97 736.06 C 510.72 736.06 508.46 735.99 506.21 735.85 C 503.32 735.78 500.44 735.57 497.55 735.29 C 495.37 735.08 493.18 734.87 491.00 734.59 C 489.94 734.45 488.96 734.31 487.90 734.17 C 485.79 733.89 483.75 733.61 481.70 733.25 C 478.39 732.69 475.15 732.05 471.91 731.35 C 469.94 730.93 468.03 730.50 466.06 730.01 C 463.38 729.38 460.64 728.67 457.96 727.90 C 455.71 727.27 453.46 726.63 451.27 725.86 C 449.93 725.51 448.59 725.09 447.26 724.52 C 445.07 723.89 442.82 723.11 440.71 722.27 C 437.96 721.28 435.21 720.23 432.54 719.10 C 430.36 718.25 428.24 717.34 426.13 716.35 L 423.45 715.08 L 423.38 715.08 C 421.34 714.16 419.29 713.18 417.32 712.19 C 413.94 710.50 410.63 708.81 407.46 706.98 C 405.42 705.85 403.45 704.73 401.55 703.53 C 399.16 702.12 396.90 700.71 394.65 699.16 L 388.80 695.29 C 387.74 694.59 386.83 693.88 385.84 693.18 C 383.94 691.77 382.11 690.36 380.28 688.95 C 378.03 687.26 375.84 685.43 373.73 683.60 C 372.04 682.19 370.28 680.64 368.66 679.16 C 367.88 678.46 367.18 677.82 366.48 677.05 C 364.93 675.71 363.45 674.23 362.04 672.76 C 360.98 671.77 360.00 670.72 359.08 669.66 C 357.67 668.18 356.26 666.63 355.00 665.15 C 353.31 663.18 351.62 661.21 350.14 659.23 C 348.59 657.33 347.18 655.43 345.91 653.53 C 344.92 652.26 344.08 650.92 343.30 649.66 L 343.30 649.59 C 341.82 647.48 340.55 645.36 339.36 643.18 C 338.94 642.55 338.59 641.98 338.23 641.28 C 338.23 641.21 338.23 641.21 338.23 641.21 C 336.89 638.82 335.63 636.28 334.57 633.82 C 334.07 632.90 333.72 631.99 333.37 631.07 C 332.17 628.18 331.12 625.30 330.27 622.34 C 329.57 620.30 329.00 618.33 328.58 616.28 C 328.58 616.21 328.58 616.21 328.58 616.21 C 328.16 614.38 327.80 612.62 327.52 610.79 C 327.24 608.89 326.96 606.99 326.82 605.01 C 326.54 602.05 326.40 599.02 326.32 595.92 L 326.32 595.85 C 326.25 591.34 326.46 586.76 326.74 582.05 C 327.09 577.05 327.59 572.05 328.22 567.12 C 329.49 557.75 331.11 548.81 332.80 541.13 C 332.80 541.06 332.80 541.06 332.80 540.99 C 334.21 534.37 335.62 528.67 336.67 524.58 C 337.52 521.41 338.15 519.16 338.43 518.10 C 339.56 514.16 340.68 510.49 341.81 506.97 C 343.78 500.91 345.75 495.42 347.58 490.35 C 354.20 472.04 359.20 458.10 357.09 437.81 C 354.13 408.80 339.91 398.94 336.88 383.30 C 332.44 360.55 352.02 326.82 436.46 275.06 C 484.14 245.90 545.20 250.55 587.88 286.75 C 603.44 299.99 619.01 313.16 634.64 326.40 C 659.78 347.81 676.54 377.46 681.90 410.06 C 684.15 423.72 686.76 438.79 689.72 454.99 C 690.57 459.64 691.41 464.07 692.19 468.30 C 695.22 484.50 697.96 498.02 700.43 509.57 C 701.84 516.47 703.18 522.67 704.37 528.23 C 705.00 531.05 705.64 533.79 706.20 536.33 C 707.61 542.88 708.88 548.44 709.93 553.30 C 709.93 553.37 709.93 553.37 709.93 553.37 C 711.41 560.06 712.46 565.41 713.17 570.06 L 713.17 570.13 C 713.90 575.29 714.18 579.59 713.90 584.03 Z" fill="#ff9f8e" fill-rule="nonzero" node-id="156" stroke="none" target-height="490.23" target-width="387.93" target-x="326.25" target-y="245.9"></path><path d="M 699.47 404.39 C 695.70 407.51 671.06 387.00 621.77 345.97 C 592.58 321.67 568.86 300.75 552.26 285.80 C 543.90 295.06 535.24 305.36 526.56 316.76 C 516.20 330.36 507.30 343.54 499.69 355.90 C 498.32 348.07 496.22 329.61 504.95 309.17 C 510.84 295.37 519.31 286.20 524.81 281.13 C 482.94 299.67 431.24 328.16 379.35 372.26 C 355.90 392.19 335.98 412.27 319.18 431.26 C 306.41 417.67 296.33 401.28 296.39 382.77 C 296.65 306.57 468.89 202.64 589.65 257.76 C 672.20 295.45 708.15 397.19 699.47 404.39 Z" fill="#152140" fill-rule="nonzero" node-id="158" stroke="none" target-height="228.62001" target-width="411.82004" target-x="296.33" target-y="202.64"></path><path d="M 637.50 385.07 C 636.73 385.47 634.72 383.85 627.94 377.94 L 627.96 377.91 C 622.66 373.26 614.47 366.00 601.71 354.96 C 582.58 338.43 570.91 328.74 564.38 323.06 C 558.93 318.29 557.00 316.27 557.28 315.32 C 557.75 313.59 565.26 315.92 575.23 321.15 C 582.01 324.74 589.98 329.70 597.59 335.65 C 608.48 344.18 617.79 354.05 624.68 362.69 C 634.16 374.57 639.12 384.23 637.50 385.07 Z" fill="#152140" fill-rule="nonzero" group-id="8" node-id="162" stroke="none" target-height="71.880005" target-width="82.119995" target-x="557" target-y="313.59"></path><path d="M 481.81 310.66 C 480.41 307.35 462.44 309.62 447.70 319.00 C 427.44 331.90 417.48 355.59 420.49 358.03 C 421.94 359.20 425.85 355.03 448.09 337.97 C 474.87 317.44 482.82 313.04 481.81 310.66 Z" fill="#152140" fill-rule="nonzero" group-id="9" node-id="167" stroke="none" target-height="51.850006" target-width="65.34" target-x="417.48" target-y="307.35"></path><path d="M 326.34 595.93 C 326.34 595.93 326.27 595.86 326.34 595.86 C 327.19 594.31 328.03 592.76 328.95 591.21 C 334.16 582.34 340.57 574.38 347.89 566.07 C 339.44 569.03 332.26 574.94 326.76 582.06 L 326.34 595.93 Z" fill="#152140" fill-rule="nonzero" node-id="170" stroke="none" target-height="29.859985" target-width="21.620026" target-x="326.27" target-y="566.07"></path><path d="M 351.34 584.10 C 344.02 592.41 337.67 600.37 332.46 609.24 C 331.05 611.49 329.78 613.82 328.59 616.21 C 328.17 614.38 327.81 612.62 327.53 610.79 C 327.25 608.89 326.97 606.99 326.83 605.01 C 332.61 595.72 341.06 587.76 351.34 584.10 Z" fill="#152140" fill-rule="nonzero" node-id="172" stroke="none" target-height="32.110046" target-width="24.51001" target-x="326.83" target-y="584.1"></path><path d="M 354.72 601.63 C 347.40 609.94 340.99 617.90 335.78 626.77 C 334.93 628.18 334.09 629.59 333.38 631.07 C 332.18 628.18 331.13 625.30 330.28 622.34 C 336.06 613.11 344.44 605.22 354.72 601.63 Z" fill="#152140" fill-rule="nonzero" node-id="174" stroke="none" target-height="29.440002" target-width="24.440002" target-x="330.28" target-y="601.63"></path><path d="M 358.24 614.24 C 350.92 622.55 344.51 630.51 339.30 639.38 C 338.95 639.94 338.60 640.58 338.24 641.21 C 336.90 638.82 335.64 636.28 334.58 633.82 C 340.28 625.08 348.38 617.69 358.24 614.24 Z" fill="#152140" fill-rule="nonzero" node-id="176" stroke="none" target-height="26.970032" target-width="23.660004" target-x="334.58" target-y="614.24"></path><path d="M 360.99 626.42 C 354.23 634.10 348.24 641.49 343.31 649.59 C 341.83 647.48 340.56 645.36 339.37 643.18 C 344.86 635.72 352.26 629.52 360.99 626.42 Z" fill="#152140" fill-rule="nonzero" node-id="178" stroke="none" target-height="23.170044" target-width="21.619995" target-x="339.37" target-y="626.42"></path><path d="M 366.06 638.89 C 360.07 645.65 354.72 652.20 350.15 659.24 C 348.60 657.34 347.19 655.44 345.92 653.54 C 351.34 646.99 358.10 641.70 366.06 638.89 Z" fill="#152140" fill-rule="nonzero" node-id="180" stroke="none" target-height="20.349976" target-width="20.139984" target-x="345.92" target-y="638.89"></path><path d="M 371.27 654.59 C 366.83 659.66 362.75 664.59 359.08 669.66 C 357.67 668.18 356.26 666.63 355.00 665.15 C 359.65 660.44 365.15 656.78 371.27 654.59 Z" fill="#152140" fill-rule="nonzero" node-id="182" stroke="none" target-height="15.069946" target-width="16.269989" target-x="355" target-y="654.59"></path><path d="M 378.81 661.85 C 374.30 666.92 370.15 671.92 366.49 677.06 C 364.94 675.72 363.46 674.24 362.05 672.77 C 366.83 667.97 372.47 664.10 378.81 661.85 Z" fill="#152140" fill-rule="nonzero" node-id="184" stroke="none" target-height="15.210022" target-width="16.76001" target-x="362.05" target-y="661.85"></path><path d="M 389.02 664.24 C 383.32 670.72 378.17 676.92 373.74 683.61 C 372.05 682.20 370.29 680.65 368.67 679.17 C 374.09 672.55 380.99 667.06 389.02 664.24 Z" fill="#152140" fill-rule="nonzero" node-id="186" stroke="none" target-height="19.369995" target-width="20.349976" target-x="368.67" target-y="664.24"></path><path d="M 403.38 670.23 C 396.69 677.91 390.70 685.16 385.85 693.19 C 383.95 691.78 382.12 690.37 380.29 688.96 C 385.99 680.58 393.95 673.61 403.38 670.23 Z" fill="#152140" fill-rule="nonzero" node-id="188" stroke="none" target-height="22.960022" target-width="23.089996" target-x="380.29" target-y="670.23"></path><path d="M 394.65 699.17 C 399.51 691.14 405.50 683.89 412.19 676.28 C 402.54 679.66 394.58 686.77 388.81 695.29 L 394.65 699.17 Z" fill="#152140" fill-rule="nonzero" node-id="190" stroke="none" target-height="22.889954" target-width="23.380005" target-x="388.81" target-y="676.28"></path><path d="M 423.46 686.42 C 417.40 693.25 412.05 699.87 407.47 706.98 C 405.43 705.85 403.46 704.73 401.56 703.53 C 407.12 695.86 414.65 689.59 423.46 686.42 Z" fill="#152140" fill-rule="nonzero" node-id="192" stroke="none" target-height="20.559998" target-width="21.899994" target-x="401.56" target-y="686.42"></path><path d="M 437.82 697.06 C 432.47 703.12 427.68 708.96 423.45 715.09 L 423.38 715.09 C 421.34 714.17 419.29 713.19 417.32 712.20 C 422.68 705.44 429.73 699.95 437.82 697.06 Z" fill="#152140" fill-rule="nonzero" node-id="194" stroke="none" target-height="18.03003" target-width="20.5" target-x="417.32" target-y="697.06"></path><path d="M 448.04 699.38 C 442.26 706.00 436.98 712.27 432.54 719.10 C 430.36 718.25 428.24 717.34 426.13 716.35 C 431.70 708.75 439.16 702.48 448.04 699.38 Z" fill="#152140" fill-rule="nonzero" node-id="196" stroke="none" target-height="19.71997" target-width="21.910004" target-x="426.13" target-y="699.38"></path><path d="M 462.40 705.44 C 456.76 711.85 451.70 717.98 447.26 724.52 C 445.07 723.89 442.82 723.11 440.71 722.27 C 446.20 714.74 453.60 708.54 462.40 705.44 Z" fill="#152140" fill-rule="nonzero" node-id="198" stroke="none" target-height="19.080017" target-width="21.690002" target-x="440.71" target-y="705.44"></path><path d="M 471.21 711.43 C 466.35 716.92 461.91 722.27 457.97 727.91 C 455.72 727.28 453.47 726.64 451.28 725.87 C 456.56 719.38 463.39 714.17 471.21 711.43 Z" fill="#152140" fill-rule="nonzero" node-id="200" stroke="none" target-height="16.47998" target-width="19.929993" target-x="451.28" target-y="711.43"></path><path d="M 478.81 715.65 C 476.28 721.00 473.88 726.14 471.91 731.36 C 469.94 730.94 468.03 730.51 466.06 730.02 C 469.23 724.38 473.53 719.38 478.81 715.65 Z" fill="#152140" fill-rule="nonzero" node-id="202" stroke="none" target-height="15.709961" target-width="12.75" target-x="466.06" target-y="715.65"></path><path d="M 493.32 716.07 C 491.21 722.27 489.31 728.25 487.90 734.17 C 485.79 733.89 483.75 733.61 481.70 733.25 C 484.31 726.71 488.11 720.72 493.32 716.07 Z" fill="#152140" fill-rule="nonzero" node-id="204" stroke="none" target-height="18.099976" target-width="11.619995" target-x="481.7" target-y="716.07"></path><path d="M 503.67 714.31 C 501.20 721.49 499.09 728.39 497.54 735.30 C 495.36 735.09 493.17 734.88 490.99 734.60 C 493.46 726.85 497.69 719.66 503.67 714.31 Z" fill="#152140" fill-rule="nonzero" node-id="206" stroke="none" target-height="20.98999" target-width="12.680023" target-x="490.99" target-y="714.31"></path><path d="M 519.31 714.45 C 516.78 721.92 514.52 728.96 512.97 736.07 C 510.72 736.07 508.46 736.00 506.21 735.86 C 508.74 727.69 513.04 720.09 519.31 714.45 Z" fill="#152140" fill-rule="nonzero" node-id="208" stroke="none" target-height="21.619995" target-width="13.100006" target-x="506.21" target-y="714.45"></path><path d="M 529.66 716.64 C 527.41 723.26 525.43 729.60 523.96 735.94 C 521.85 736.08 519.73 736.15 517.62 736.15 L 517.27 736.15 C 519.73 728.68 523.89 721.85 529.66 716.64 Z" fill="#152140" fill-rule="nonzero" node-id="210" stroke="none" target-height="19.51001" target-width="12.389954" target-x="517.27" target-y="716.64"></path><path d="M 542.13 717.55 C 541.28 723.40 540.65 729.03 540.30 734.59 C 538.26 734.87 536.21 735.08 534.17 735.22 C 535.57 728.82 538.18 722.76 542.13 717.55 Z" fill="#152140" fill-rule="nonzero" node-id="212" stroke="none" target-height="17.669983" target-width="7.960022" target-x="534.17" target-y="717.55"></path><path d="M 554.31 711.85 C 553.46 719.10 553.04 725.93 552.97 732.63 C 550.79 733.05 548.67 733.40 546.49 733.76 C 547.27 725.86 549.80 718.19 554.31 711.85 Z" fill="#152140" fill-rule="nonzero" node-id="214" stroke="none" target-height="21.910034" target-width="7.8200073" target-x="546.49" target-y="711.85"></path><path d="M 564.03 707.83 C 563.19 715.72 562.62 723.18 562.69 730.58 C 560.51 731.07 558.25 731.57 556.00 731.99 C 556.56 723.40 559.10 714.81 564.03 707.83 Z" fill="#152140" fill-rule="nonzero" node-id="216" stroke="none" target-height="24.159973" target-width="8.030029" target-x="556" target-y="707.83"></path><path d="M 579.31 704.52 C 578.46 712.12 577.90 719.24 577.90 726.35 C 575.72 727.05 573.46 727.69 571.28 728.32 C 571.84 719.81 574.38 711.43 579.31 704.52 Z" fill="#152140" fill-rule="nonzero" node-id="218" stroke="none" target-height="23.799988" target-width="8.029968" target-x="571.28" target-y="704.52"></path><path d="M 589.95 704.38 C 589.25 710.72 588.75 716.70 588.61 722.62 C 586.50 723.47 584.38 724.17 582.27 724.87 C 583.18 717.48 585.65 710.37 589.95 704.38 Z" fill="#152140" fill-rule="nonzero" node-id="220" stroke="none" target-height="20.48999" target-width="7.6799927" target-x="582.27" target-y="704.38"></path><path d="M 603.33 716.57 C 601.50 717.41 599.74 718.19 597.91 718.89 C 598.19 712.97 599.53 707.13 602.14 701.78 C 602.41 706.92 602.76 711.78 603.33 716.57 Z" fill="#152140" fill-rule="nonzero" node-id="222" stroke="none" target-height="17.109985" target-width="5.420044" target-x="597.91" target-y="701.78"></path><path d="M 713.90 584.03 C 711.79 580.44 709.61 577.06 707.14 573.75 C 701.15 565.30 694.04 558.05 686.01 550.37 C 696.85 553.19 706.22 560.58 712.84 569.60 C 712.98 569.74 713.05 569.95 713.19 570.09 L 713.19 570.16 C 713.90 575.29 714.18 579.59 713.90 584.03 Z" fill="#152140" fill-rule="nonzero" node-id="224" stroke="none" target-height="33.660034" target-width="28.169983" target-x="686.01" target-y="550.37"></path><path d="M 713.19 591.21 C 713.26 591.21 713.19 591.28 713.19 591.28 C 713.19 591.49 713.19 591.77 713.12 592.05 C 712.62 595.08 712.06 598.04 711.21 601.06 C 709.38 597.96 707.41 594.93 705.30 591.97 C 699.31 583.59 692.20 576.27 684.17 568.66 C 695.02 571.41 704.31 578.80 711.00 587.82 C 711.78 588.96 712.56 590.08 713.19 591.21 Z" fill="#152140" fill-rule="nonzero" node-id="226" stroke="none" target-height="32.400024" target-width="29.090027" target-x="684.17" target-y="568.66"></path><path d="M 706.99 614.80 L 706.99 614.73 C 705.86 613.04 704.74 611.35 703.54 609.73 C 697.55 601.35 690.44 594.03 682.41 586.42 C 693.26 589.17 702.62 596.56 709.24 605.65 C 709.45 605.93 709.66 606.21 709.80 606.50 L 706.99 614.80 Z" fill="#152140" fill-rule="nonzero" node-id="228" stroke="none" target-height="28.380005" target-width="27.390015" target-x="682.41" target-y="586.42"></path><path d="M 705.93 617.34 C 705.02 619.88 703.89 622.34 702.69 624.88 C 702.20 624.10 701.71 623.40 701.14 622.63 C 695.15 614.25 688.11 606.93 680.01 599.32 C 690.37 601.91 699.46 608.82 705.93 617.34 Z" fill="#152140" fill-rule="nonzero" node-id="230" stroke="none" target-height="25.559998" target-width="25.919983" target-x="680.01" target-y="599.32"></path><path d="M 701.78 626.63 C 695.51 619.59 687.48 614.02 678.40 611.70 C 685.87 618.81 692.56 625.64 698.26 633.32 L 701.78 626.63 Z" fill="#152140" fill-rule="nonzero" node-id="232" stroke="none" target-height="21.619995" target-width="23.380005" target-x="678.4" target-y="611.7"></path><path d="M 695.87 637.41 C 694.67 639.38 693.40 641.42 692.14 643.40 C 687.00 636.85 681.08 630.79 674.53 624.60 C 682.63 626.63 689.95 631.35 695.87 637.41 Z" fill="#152140" fill-rule="nonzero" node-id="234" stroke="none" target-height="18.800049" target-width="21.339966" target-x="674.53" target-y="624.6"></path><path d="M 687.77 649.52 C 686.57 651.21 685.37 652.83 684.04 654.38 C 680.03 649.73 675.59 645.22 670.73 640.65 C 676.99 642.27 682.76 645.37 687.77 649.52 Z" fill="#152140" fill-rule="nonzero" node-id="236" stroke="none" target-height="13.72998" target-width="17.04004" target-x="670.73" target-y="640.65"></path><path d="M 681.29 657.76 C 680.09 659.38 678.76 660.93 677.35 662.41 C 673.26 657.69 668.76 653.18 663.90 648.61 C 670.30 650.23 676.22 653.47 681.29 657.76 Z" fill="#152140" fill-rule="nonzero" node-id="238" stroke="none" target-height="13.799988" target-width="17.389954" target-x="663.9" target-y="648.61"></path><path d="M 675.30 664.66 C 673.89 666.35 672.34 667.97 670.72 669.59 C 665.72 663.46 660.09 657.69 653.89 651.84 C 662.06 653.89 669.32 658.61 675.30 664.66 Z" fill="#152140" fill-rule="nonzero" node-id="240" stroke="none" target-height="17.75" target-width="21.409973" target-x="653.89" target-y="651.84"></path><path d="M 664.67 675.51 C 658.33 667.76 649.88 661.64 640.16 659.17 C 647.48 666.07 653.96 672.76 659.53 680.23 L 664.67 675.51 Z" fill="#152140" fill-rule="nonzero" node-id="242" stroke="none" target-height="21.059998" target-width="24.51001" target-x="640.16" target-y="659.17"></path><path d="M 656.78 682.62 C 650.37 674.73 641.78 668.39 631.92 665.93 C 639.31 672.83 645.79 679.52 651.36 687.06 L 656.78 682.62 Z" fill="#152140" fill-rule="nonzero" node-id="244" stroke="none" target-height="21.130005" target-width="24.860046" target-x="631.92" target-y="665.93"></path><path d="M 644.95 692.06 C 643.12 693.40 641.22 694.74 639.31 696.07 C 634.17 689.45 628.25 683.39 621.63 677.13 C 630.65 679.45 638.68 685.02 644.95 692.06 Z" fill="#152140" fill-rule="nonzero" node-id="246" stroke="none" target-height="18.940002" target-width="23.320007" target-x="621.63" target-y="677.13"></path><path d="M 633.26 700.16 C 631.57 701.29 629.81 702.34 628.05 703.40 C 624.67 698.19 620.87 693.12 616.71 687.84 C 616.78 687.91 616.92 687.91 616.99 687.98 C 618.75 688.68 620.37 689.60 621.99 690.59 C 626.21 693.11 630.02 696.42 633.26 700.16 Z" fill="#152140" fill-rule="nonzero" node-id="248" stroke="none" target-height="15.559998" target-width="16.549988" target-x="616.71" target-y="687.84"></path><path d="M 620.02 708.12 C 618.33 709.11 616.57 710.02 614.81 710.87 C 611.78 706.36 608.47 702.00 604.88 697.42 C 610.65 699.80 615.72 703.54 620.02 708.12 Z" fill="#152140" fill-rule="nonzero" node-id="250" stroke="none" target-height="13.450012" target-width="15.140015" target-x="604.88" target-y="697.42"></path><path d="M 453.50 374.37 L 457.41 375.54 L 461.10 377.12 L 464.58 379.13 L 467.89 381.59 L 470.91 384.36 L 473.72 387.50 L 476.34 391.02 L 478.75 394.94 L 481.45 400.42 L 483.73 406.45 L 485.56 413.06 L 486.83 419.82 L 487.59 426.97 L 487.81 434.57 L 487.47 442.15 L 486.53 449.98 L 484.97 458.07 L 482.83 466.03 L 480.24 473.47 L 477.22 480.44 L 473.70 487.17 L 469.88 493.27 L 465.78 498.79 L 461.23 503.93 L 456.54 508.35 L 451.71 512.09 L 447.82 514.56 L 443.93 516.58 L 440.03 518.16 L 436.10 519.33 L 432.05 520.09 L 428.03 520.37 L 424.03 520.18 L 420.00 519.52 L 416.09 518.35 L 412.41 516.76 L 408.92 514.75 L 405.61 512.30 L 402.59 509.52 L 399.78 506.39 L 397.17 502.87 L 394.75 498.94 L 392.05 493.46 L 389.77 487.44 L 387.94 480.82 L 386.67 474.06 L 385.91 466.91 L 385.69 459.32 L 386.04 451.73 L 386.97 443.90 L 388.53 435.81 L 390.68 427.86 L 393.26 420.41 L 396.28 413.44 L 399.81 406.71 L 403.62 400.61 L 407.73 395.10 L 412.27 389.95 L 416.96 385.54 L 421.79 381.80 L 425.68 379.32 L 429.57 377.31 L 433.48 375.72 L 437.41 374.55 L 441.45 373.79 L 445.47 373.51 L 449.48 373.70 L 453.50 374.37 Z" fill="#ffffff" fill-opacity="0.4" fill-rule="nonzero" group-id="10" node-id="254" stroke="#0f0f0f" stroke-linecap="butt" stroke-opacity="0.4" stroke-width="6.000106" target-height="146.85999" target-width="102.119995" target-x="385.69" target-y="373.51"></path><path d="M 467.24 415.26 C 467.24 422.09 461.70 427.63 454.87 427.63 C 448.04 427.63 442.50 422.09 442.50 415.26 C 442.50 408.43 448.04 402.89 454.87 402.89 C 461.70 402.89 467.24 408.43 467.24 415.26 Z" fill="#152140" fill-rule="nonzero" node-id="257" stroke="none" target-height="24.73999" target-width="24.73999" target-x="442.5" target-y="402.89"></path><path d="M 463.94 410.39 C 463.94 412.25 462.43 413.76 460.57 413.76 C 458.71 413.76 457.20 412.25 457.20 410.39 C 457.20 408.53 458.71 407.02 460.57 407.02 C 462.43 407.02 463.94 408.53 463.94 410.39 Z" fill="#ffffff" fill-rule="nonzero" node-id="259" stroke="none" target-height="6.7400208" target-width="6.73999" target-x="457.2" target-y="407.02"></path><path d="M 635.53 418.74 L 638.71 425.13 L 641.47 431.46 L 643.82 437.72 L 645.76 443.93 L 647.39 450.31 L 648.61 456.50 L 649.44 462.50 L 649.89 468.34 L 649.98 474.28 L 649.69 479.91 L 649.04 485.24 L 648.05 490.31 L 646.64 495.35 L 644.88 499.98 L 642.79 504.24 L 640.38 508.16 L 637.55 511.82 L 634.39 515.04 L 630.89 517.83 L 627.02 520.23 L 622.88 522.10 L 618.60 523.45 L 614.18 524.28 L 609.56 524.59 L 604.96 524.41 L 600.26 523.77 L 595.44 522.65 L 590.46 521.01 L 585.70 519.01 L 580.91 516.58 L 576.08 513.68 L 571.20 510.29 L 566.60 506.66 L 562.08 502.62 L 557.62 498.16 L 553.23 493.26 L 549.16 488.18 L 545.27 482.74 L 541.55 476.93 L 538.02 470.72 L 534.84 464.33 L 532.08 458.00 L 529.73 451.74 L 527.79 445.53 L 526.16 439.15 L 524.94 432.97 L 524.11 426.96 L 523.66 421.12 L 523.57 415.18 L 523.86 409.55 L 524.51 404.22 L 525.50 399.15 L 526.91 394.11 L 528.67 389.48 L 530.76 385.22 L 533.17 381.30 L 536.00 377.64 L 539.16 374.43 L 542.66 371.63 L 546.53 369.23 L 550.67 367.36 L 554.95 366.01 L 559.37 365.18 L 563.99 364.87 L 568.59 365.05 L 573.29 365.69 L 578.11 366.82 L 583.09 368.45 L 587.85 370.45 L 592.64 372.88 L 597.47 375.78 L 602.35 379.17 L 606.95 382.80 L 611.47 386.84 L 615.93 391.30 L 620.32 396.20 L 624.39 401.28 L 628.28 406.72 L 632.00 412.53 L 635.53 418.74 Z" fill="#ffffff" fill-opacity="0.4" fill-rule="nonzero" group-id="11" node-id="263" stroke="#0f0f0f" stroke-linecap="butt" stroke-opacity="0.4" stroke-width="5.9997177" target-height="159.72003" target-width="126.40997" target-x="523.57" target-y="364.87"></path><path d="M 611.55 402.89 C 611.55 409.72 606.01 415.26 599.18 415.26 C 592.35 415.26 586.81 409.72 586.81 402.89 C 586.81 396.06 592.35 390.52 599.18 390.52 C 606.01 390.52 611.55 396.06 611.55 402.89 Z" fill="#152140" fill-rule="nonzero" node-id="266" stroke="none" target-height="24.74002" target-width="24.73999" target-x="586.81" target-y="390.52"></path><path d="M 608.24 398.01 C 608.24 399.87 606.73 401.38 604.87 401.38 C 603.01 401.38 601.50 399.87 601.50 398.01 C 601.50 396.15 603.01 394.64 604.87 394.64 C 606.73 394.64 608.24 396.15 608.24 398.01 Z" fill="#ffffff" fill-rule="nonzero" node-id="268" stroke="none" target-height="6.73999" target-width="6.73999" target-x="601.5" target-y="394.64"></path><path d="M 612.71 646.78 C 611.20 647.62 609.63 648.24 607.95 648.57 C 599.77 650.42 590.18 646.61 581.61 643.19 L 580.77 642.91 C 568.83 638.15 556.61 633.61 543.95 629.23 C 541.04 628.22 538.06 627.21 535.04 626.20 C 528.09 623.85 521.03 621.55 513.74 619.31 C 545.69 602.10 585.65 599.75 607.96 606.53 C 608.07 606.59 608.24 606.59 608.35 606.64 C 616.25 609.05 621.69 612.64 623.65 616.73 C 627.95 625.59 622.18 641.34 612.71 646.78 Z" fill="#dd5543" fill-rule="nonzero" node-id="270" stroke="none" target-height="50.669983" target-width="114.21002" target-x="513.74" target-y="599.75"></path><path d="M 608.05 608.44 L 608.05 609.34 C 608.05 618.64 600.48 626.21 591.18 626.21 L 516.86 626.21 C 513.67 625.20 510.42 624.19 507.16 623.18 C 507.11 623.24 507.05 623.24 506.99 623.29 C 505.37 622.17 503.97 620.82 502.84 619.25 C 503.68 618.75 504.47 618.24 505.31 617.74 C 506.26 617.12 507.27 616.51 508.22 616.00 C 540.22 597.56 581.19 594.20 605.86 600.14 C 606.92 602.05 607.66 604.23 607.93 606.53 C 608.00 607.15 608.05 607.82 608.05 608.44 Z" fill="#ffffff" fill-rule="nonzero" group-id="12" node-id="274" stroke="none" target-height="32.01001" target-width="105.20999" target-x="502.84" target-y="594.2"></path><path d="M 608.05 646.10 L 608.05 647.00 C 608.05 647.50 608.05 648.06 607.94 648.57 C 607.77 650.70 607.21 652.72 606.26 654.51 C 597.23 655.46 587.65 651.65 579.52 648.40 L 578.73 648.12 C 561.92 641.45 544.60 635.23 526.16 629.23 L 591.18 629.23 C 600.49 629.23 608.05 636.80 608.05 646.10 Z" fill="#ffffff" fill-rule="nonzero" group-id="13" node-id="279" stroke="none" target-height="26.230042" target-width="81.890015" target-x="526.16" target-y="629.23"></path><path d="M 628.68 614.27 C 625.99 608.72 619.54 604.24 610.02 601.27 C 608.73 600.88 607.33 600.48 605.87 600.15 C 581.21 594.21 540.24 597.57 508.23 616.01 C 507.28 616.51 506.27 617.13 505.32 617.75 C 504.48 618.25 503.69 618.76 502.85 619.26 C 501.17 620.32 499.49 621.45 497.69 622.57 C 485.97 630.08 472.75 638.66 451.45 644.43 C 442.31 646.95 433.12 648.52 423.20 649.36 C 421.69 649.47 420.51 650.87 420.68 652.39 C 420.79 653.85 422.03 654.97 423.43 654.97 L 423.71 654.97 C 433.91 654.07 443.50 652.45 452.91 649.87 C 475.05 643.82 489.29 634.63 500.72 627.28 C 502.91 625.88 504.98 624.53 507.00 623.30 C 507.06 623.24 507.11 623.24 507.17 623.19 C 510.42 624.20 513.67 625.21 516.87 626.22 C 520.01 627.23 523.09 628.24 526.17 629.25 C 544.61 635.25 561.93 641.47 578.74 648.14 L 579.53 648.42 C 587.66 651.67 597.24 655.48 606.27 654.53 C 609.41 654.25 612.49 653.35 615.46 651.67 C 627.62 644.70 634.29 625.87 628.68 614.27 Z M 612.71 646.78 C 611.20 647.62 609.63 648.24 607.95 648.57 C 599.77 650.42 590.18 646.61 581.61 643.19 L 580.77 642.91 C 568.83 638.15 556.61 633.61 543.95 629.23 C 541.04 628.22 538.06 627.21 535.04 626.20 C 528.09 623.85 521.03 621.55 513.74 619.31 C 545.69 602.10 585.65 599.75 607.96 606.53 C 608.07 606.59 608.24 606.59 608.35 606.64 C 616.25 609.05 621.69 612.64 623.65 616.73 C 627.95 625.59 622.18 641.34 612.71 646.78 Z" fill="#152140" fill-rule="nonzero" group-id="14" node-id="284" stroke="none" target-height="61.26996" target-width="213.77997" target-x="420.51" target-y="594.21"></path><path d="M 883.40 865.38 C 869.22 880.40 854.03 894.58 838.00 907.75 C 829.48 914.76 820.85 921.43 811.88 927.87 C 777.97 952.42 740.87 972.82 701.35 988.57 C 677.14 998.15 651.97 1006.00 626.08 1011.83 C 589.54 1020.07 551.54 1024.50 512.47 1024.50 C 503.95 1024.50 495.38 1024.28 487.02 1023.83 C 477.83 1023.38 468.69 1022.77 459.73 1021.76 C 439.05 1019.69 418.76 1016.38 398.92 1011.84 C 373.03 1006.01 347.86 998.16 323.65 988.52 C 308.97 982.69 294.56 976.19 280.55 969.02 C 256.23 956.63 233.02 942.34 211.16 926.31 C 186.16 908.09 162.90 887.69 141.60 865.39 C 189.13 834.40 257.85 809.79 338.95 795.11 C 342.76 794.44 346.57 793.76 350.44 793.09 C 362.38 814.16 385.86 832.15 416.41 844.48 C 443.76 855.52 476.89 861.97 512.47 861.97 C 548.12 861.97 581.24 855.52 608.59 844.48 C 639.13 832.15 662.62 814.16 674.56 793.09 C 678.43 793.76 682.24 794.43 686.05 795.11 C 767.21 809.78 835.87 834.39 883.40 865.38 Z" fill="#799b51" fill-rule="nonzero" node-id="287" stroke="none" target-height="231.40997" target-width="741.80005" target-x="141.6" target-y="793.09"></path><path d="M 701.35 988.57 C 677.14 998.15 651.97 1006.00 626.08 1011.83 C 589.54 1020.07 551.54 1024.50 512.47 1024.50 C 503.95 1024.50 495.38 1024.28 487.02 1023.83 C 477.83 1023.38 468.69 1022.77 459.73 1021.76 C 439.05 1019.69 418.76 1016.38 398.92 1011.84 C 373.03 1006.01 347.86 998.16 323.65 988.52 C 329.65 983.48 335.59 977.98 341.30 972.27 C 378.13 935.45 402.50 893.02 411.92 854.46 C 412.82 851.10 413.49 847.79 414.11 844.48 L 416.41 844.48 C 443.76 855.52 476.89 861.97 512.47 861.97 C 548.12 861.97 581.24 855.52 608.59 844.48 L 610.72 844.48 C 611.34 847.79 612.06 851.15 612.96 854.51 C 622.49 893.07 646.81 935.39 683.69 972.26 C 689.42 977.98 695.35 983.47 701.35 988.57 Z" fill="#94b46c" fill-rule="nonzero" node-id="289" stroke="none" target-height="180.02002" target-width="377.69998" target-x="323.65" target-y="844.48"></path><path d="M 674.56 793.08 C 662.62 814.15 639.14 832.14 608.59 844.47 C 581.24 855.51 548.11 861.96 512.47 861.96 C 476.88 861.96 443.76 855.51 416.41 844.47 C 385.86 832.14 362.38 814.15 350.44 793.08 C 346.57 793.75 342.76 794.42 338.95 795.10 C 351.62 819.59 377.73 840.50 411.92 854.45 C 440.73 866.28 475.31 873.17 512.47 873.17 C 549.63 873.17 584.21 866.27 612.97 854.51 C 647.21 840.55 673.39 819.65 686.06 795.10 C 682.24 794.43 678.43 793.75 674.56 793.08 Z" fill="#e0f2c7" fill-rule="nonzero" group-id="15" node-id="293" stroke="none" target-height="80.089966" target-width="347.11" target-x="338.95" target-y="793.08"></path><path d="M 528.50 585.98 L 517.80 583.91 C 490.96 578.73 473.41 552.77 478.59 525.94 L 480.33 516.92 C 483.38 501.15 498.63 490.83 514.40 493.88 L 525.60 496.04 C 554.79 501.68 573.88 529.92 568.23 559.11 L 568.23 559.11 C 564.68 577.51 546.89 589.54 528.50 585.98 Z" fill="url(#SVGID_1_)" fill-rule="nonzero" node-id="296" stroke="none" target-height="98.70999" target-width="100.47" target-x="473.41" target-y="490.83"></path></svg>