<?xml version="1.0" standalone="no"?><!DOCTYPE svg PUBLIC "-//W3C//DTD SVG 1.1//EN" "http://www.w3.org/Graphics/SVG/1.1/DTD/svg11.dtd"><svg height="1024" node-id="1" sillyvg="true" template-height="1024" template-width="1024" version="1.1" viewBox="0 0 1024 1024" width="1024" xmlns="http://www.w3.org/2000/svg" xmlns:xlink="http://www.w3.org/1999/xlink"><defs node-id="46"><linearGradient gradientUnits="userSpaceOnUse" id="SVGID_1_" node-id="24" spreadMethod="pad" x1="530.4201" x2="530.4201" y1="778.8854" y2="602.9269"><stop offset="0" stop-color="#e9705e" stop-opacity="0.8"></stop><stop offset="0.6685" stop-color="#ff9f8e" stop-opacity="0"></stop></linearGradient><linearGradient gradientUnits="userSpaceOnUse" id="SVGID_2_" node-id="41" spreadMethod="pad" x1="544.3674" x2="457.1609" y1="591.3853" y2="541.0367"><stop offset="0.2403" stop-color="#dd5543" stop-opacity="0"></stop><stop offset="1" stop-color="#dd5543" stop-opacity="0.6"></stop></linearGradient></defs><g node-id="155"><path d="M 1024.50 512.44 C 1024.50 649.20 970.92 773.57 883.48 865.38 C 878.99 870.09 874.45 874.74 869.80 879.17 C 859.60 889.20 849.01 898.73 838.02 907.75 C 832.70 912.12 827.32 916.33 821.94 920.47 C 821.10 921.09 820.31 921.65 819.59 922.26 C 818.80 922.88 817.96 923.44 817.23 924.00 C 815.44 925.29 813.64 926.58 811.91 927.87 C 790.39 943.51 767.52 957.46 743.48 969.51 C 741.63 970.52 739.78 971.42 737.88 972.31 C 687.83 996.97 633.01 1013.62 575.28 1020.62 C 574.78 1020.68 574.22 1020.73 573.71 1020.79 C 558.41 1022.64 542.88 1023.82 527.25 1024.26 C 526.30 1024.32 525.23 1024.32 524.22 1024.32 C 523.16 1024.38 522.09 1024.38 521.14 1024.38 C 519.29 1024.44 517.44 1024.49 515.64 1024.44 C 515.42 1024.50 515.19 1024.50 514.97 1024.50 L 509.37 1024.50 C 508.19 1024.50 506.90 1024.50 505.61 1024.44 C 502.36 1024.44 499.00 1024.33 495.80 1024.22 C 494.74 1024.22 493.62 1024.16 492.55 1024.11 C 491.59 1024.05 490.53 1024.00 489.52 1023.94 C 488.96 1023.94 488.40 1023.94 487.84 1023.89 C 487.56 1023.89 487.28 1023.83 487.06 1023.83 C 477.81 1023.38 468.73 1022.76 459.71 1021.76 C 398.28 1015.60 340.16 998.39 287.14 972.27 C 285.29 971.43 283.38 970.48 281.54 969.52 C 281.20 969.35 280.87 969.18 280.58 969.02 C 256.20 956.69 233.00 942.34 211.25 926.31 C 210.13 925.53 209.12 924.74 208.00 923.90 C 207.16 923.34 206.37 922.78 205.65 922.16 C 204.81 921.60 204.13 920.98 203.29 920.37 C 184.96 906.58 167.70 891.56 151.45 875.36 C 148.14 872.11 144.84 868.75 141.64 865.38 C 54.19 773.63 0.50 649.31 0.50 512.44 C 0.50 229.68 229.74 0.50 512.50 0.50 C 795.32 0.50 1024.50 229.68 1024.50 512.44 Z" fill="#ffe32e" fill-rule="nonzero" group-id="1" node-id="63" stroke="none" target-height="1024" target-width="1024" target-x="0.5" target-y="0.5"></path></g><path d="M 659.79 945.30 C 645.78 936.72 623.42 925.51 593.93 920.64 C 582.38 918.74 559.57 915.20 530.88 921.43 C 501.68 927.82 480.89 941.16 469.51 949.73 C 410.60 907.58 380.73 855.23 394.35 820.43 C 396.93 813.87 401.75 806.14 411.28 798.63 C 412.40 784.56 412.68 768.53 411.28 750.93 C 411.17 749.81 411.11 748.69 411.00 747.57 C 409.66 732.44 407.25 718.54 404.28 705.93 C 404.22 705.48 404.11 705.09 404.00 704.64 L 404.00 704.58 C 400.69 690.63 396.66 678.29 392.74 667.70 C 471.66 659.63 550.57 651.56 629.49 643.49 C 625.57 654.98 620.80 670.00 615.98 687.88 C 614.18 694.55 612.39 701.56 610.65 709.01 C 610.48 709.80 610.26 710.58 610.09 711.36 C 602.13 745.66 600.73 763.32 601.23 772.96 C 601.45 778.06 602.24 780.92 602.80 782.88 C 611.32 811.18 637.04 828.28 656.16 837.41 C 657.33 873.34 658.56 909.32 659.79 945.30 Z" fill="#ff9f8e" fill-rule="nonzero" node-id="66" stroke="none" target-height="306.24" target-width="279.05997" target-x="380.73" target-y="643.49"></path><path d="M 615.97 687.87 C 614.17 694.54 612.38 701.55 610.64 709.00 C 610.47 709.79 610.25 710.57 610.08 711.35 C 602.12 745.65 600.72 763.31 601.22 772.95 C 593.71 775.58 588.50 777.04 586.76 777.54 C 567.87 782.75 542.65 789.70 509.86 786.84 C 472.03 783.53 438.40 768.46 410.99 747.55 C 409.65 732.42 407.24 718.52 404.27 705.91 C 474.84 699.93 545.40 693.93 615.97 687.87 Z" fill="#f5575d" fill-rule="nonzero" node-id="68" stroke="none" target-height="101.83002" target-width="211.69998" target-x="404.27" target-y="687.87"></path><path d="M 278.94 485.98 L 283.03 486.81 L 286.88 488.18 L 290.54 490.11 L 294.03 492.63 L 297.18 495.54 L 300.10 498.90 L 302.79 502.74 L 305.26 507.12 L 307.30 511.63 L 309.03 516.48 L 310.46 521.72 L 311.55 527.36 L 312.23 532.98 L 312.52 538.83 L 312.40 544.91 L 311.87 551.25 L 310.87 557.53 L 309.53 563.47 L 307.86 569.07 L 305.85 574.37 L 303.44 579.59 L 300.81 584.33 L 297.96 588.63 L 294.90 592.52 L 291.46 596.18 L 287.92 599.27 L 284.29 601.83 L 280.54 603.91 L 276.54 605.52 L 272.53 606.51 L 268.46 606.93 L 264.30 606.75 L 260.21 605.93 L 256.36 604.55 L 252.70 602.63 L 249.21 600.11 L 246.06 597.20 L 243.15 593.84 L 240.45 589.99 L 237.99 585.61 L 235.94 581.11 L 234.21 576.25 L 232.78 571.02 L 231.69 565.37 L 231.01 559.75 L 230.72 553.91 L 230.84 547.83 L 231.38 541.49 L 232.37 535.20 L 233.71 529.27 L 235.39 523.66 L 237.39 518.36 L 239.80 513.15 L 242.44 508.41 L 245.28 504.11 L 248.34 500.22 L 251.79 496.56 L 255.32 493.46 L 258.96 490.90 L 262.70 488.83 L 266.70 487.22 L 270.72 486.22 L 274.78 485.81 L 278.94 485.98 Z" fill="#ff9f8e" fill-rule="nonzero" group-id="2" node-id="72" stroke="none" target-height="121.119995" target-width="81.79999" target-x="230.72" target-y="485.81"></path><path d="M 300.35 565.25 C 295.71 551.86 287.42 538.96 274.97 531.65 C 271.95 529.88 268.90 528.20 265.39 527.09 C 261.98 525.96 257.74 525.84 254.47 527.85 C 247.94 532.09 246.80 540.05 247.23 546.60 C 247.39 540.02 249.73 532.51 255.47 529.74 C 261.30 527.14 267.40 531.46 272.61 535.23 C 283.11 543.00 289.21 555.18 292.14 567.67 C 292.68 569.97 294.99 571.40 297.29 570.86 C 299.59 570.32 301.03 568.01 300.49 565.71 C 300.45 565.56 300.40 565.38 300.35 565.25 Z" fill="#152140" fill-rule="nonzero" node-id="75" stroke="none" target-height="45.559998" target-width="54.229996" target-x="246.8" target-y="525.84"></path><path d="M 824.13 539.87 C 824.13 575.86 802.01 605.04 774.73 605.04 C 747.45 605.04 725.33 575.86 725.33 539.87 C 725.33 503.88 747.45 474.70 774.73 474.70 C 802.01 474.70 824.13 503.88 824.13 539.87 Z" fill="#ff9f8e" fill-rule="nonzero" node-id="77" stroke="none" target-height="130.33997" target-width="98.79999" target-x="725.33" target-y="474.7"></path><path d="M 738.65 562.30 C 742.38 547.58 750.06 533.06 762.68 524.13 C 765.74 521.97 768.85 519.90 772.49 518.39 C 776.03 516.87 780.54 516.36 784.22 518.21 C 791.58 522.14 793.52 530.54 793.65 537.57 C 792.88 530.56 789.70 522.76 783.32 520.32 C 776.86 518.08 770.74 523.24 765.53 527.73 C 755.03 536.98 749.62 550.54 747.64 564.14 C 747.27 566.65 744.94 568.38 742.43 568.02 C 739.92 567.65 738.18 565.32 738.55 562.81 C 738.58 562.64 738.61 562.45 738.65 562.30 Z" fill="#152140" fill-rule="nonzero" node-id="79" stroke="none" target-height="52.02002" target-width="55.47003" target-x="738.18" target-y="516.36"></path><path d="M 728.91 483.64 C 735.26 477.73 749.10 463.20 754.94 439.94 C 758.77 424.68 757.67 411.62 756.34 403.68 C 757.72 403.50 762.08 402.76 765.64 399.03 C 770.48 393.96 769.92 387.46 769.82 386.48 C 770.60 386.54 779.09 387.10 781.91 382.30 C 785.31 376.50 777.72 367.55 776.80 366.49 C 768.12 356.49 757.82 359.65 744.72 352.08 C 739.15 348.86 731.93 343.04 725.66 331.62 C 739.89 332.48 751.91 332.40 760.99 332.09 C 780.10 331.42 787.19 329.67 789.81 324.65 C 791.35 321.69 790.95 318.35 790.28 315.82 C 786.88 317.16 781.77 318.90 775.40 320.00 C 749.11 324.55 731.11 313.07 714.03 309.31 C 698.62 305.91 675.98 307.02 644.29 326.98 C 645.77 322.03 648.72 314.75 654.98 308.38 C 663.42 299.81 674.53 296.29 701.01 293.97 C 716.22 292.64 736.97 291.66 761.92 293.04 C 756.89 290.56 749.79 287.43 741.00 284.67 C 728.64 280.80 710.61 275.15 688.93 278.63 C 671.69 281.39 658.22 288.95 648.95 295.83 C 653.61 288.96 660.87 280.19 671.73 272.58 C 698.32 253.96 727.30 255.76 736.82 256.77 C 732.52 253.88 727.42 251.21 721.48 249.33 C 692.73 240.23 666.01 256.40 659.65 260.49 C 665.78 252.11 675.05 242.19 688.48 234.46 C 697.08 229.50 714.30 219.57 736.36 222.84 C 749.16 224.73 758.58 230.32 763.79 234.00 C 761.08 226.38 757.19 221.68 753.56 218.66 C 731.75 200.51 686.16 215.47 660.11 240.05 C 648.77 250.75 642.13 262.32 638.26 270.73 C 637.79 252.94 632.31 242.15 628.50 236.33 C 601.18 194.59 520.32 195.31 473.22 210.76 C 458.83 215.48 444.36 219.96 429.98 224.71 C 394.56 236.40 387.55 239.36 376.52 236.80 C 357.40 232.36 343.93 215.45 339.79 219.13 C 337.47 221.20 340.93 227.22 338.39 228.89 C 335.78 230.61 328.45 226.66 325.37 220.52 C 322.09 213.98 324.88 207.47 323.51 207.04 C 321.94 206.55 316.49 214.62 314.68 223.78 C 313.74 228.55 312.19 241.68 323.98 259.11 C 319.21 262.07 315.85 261.79 314.22 261.43 C 305.65 259.55 301.03 245.90 302.13 235.39 C 303.15 225.63 309.00 219.72 308.18 219.12 C 307.08 218.32 295.16 227.95 290.05 241.44 C 281.62 263.66 295.34 286.55 298.88 292.12 C 291.90 295.15 287.58 293.59 286.33 293.05 C 278.26 289.59 273.74 275.88 278.89 260.04 C 273.95 267.87 268.17 279.92 270.99 292.59 C 276.50 317.39 310.14 322.63 309.12 339.08 C 308.44 349.96 292.94 360.57 280.29 359.07 C 263.53 357.08 256.01 334.31 254.72 321.41 C 253.59 310.10 256.72 300.90 258.90 295.84 C 255.09 299.40 249.79 305.34 246.35 313.97 C 238.57 333.45 243.21 359.22 257.51 369.76 C 277.03 384.14 312.73 368.77 312.84 369.29 C 312.93 369.75 284.60 373.12 262.63 391.61 C 259.35 394.37 251.11 401.76 252.87 405.56 C 255.31 410.81 275.41 405.94 276.12 408.82 C 276.75 411.37 260.99 415.44 261.24 420.91 C 261.42 424.68 269.02 424.90 274.72 431.14 C 281.26 438.30 280.06 447.66 280.77 454.39 C 281.83 464.49 288.21 478.41 312.38 494.37 C 451.20 490.77 590.05 487.20 728.91 483.64 Z" fill="#152140" fill-rule="nonzero" node-id="81" stroke="none" target-height="299.78" target-width="552.77997" target-x="238.57" target-y="194.59"></path><path d="M 362.56 326.03 C 344.98 345.78 335.41 380.69 317.00 449.70 C 299.44 515.51 290.70 548.94 292.82 575.23 C 293.45 583.09 299.34 646.01 343.03 696.11 C 423.51 788.41 596.66 796.38 686.14 712.85 C 728.41 673.39 740.72 624.03 745.65 603.13 C 776.93 470.51 692.52 350.59 648.98 299.37 C 634.55 282.39 614.63 271.09 592.64 267.44 C 558.83 261.84 515.36 260.04 467.63 272.11 C 435.03 280.35 393.98 290.73 362.56 326.03 Z" fill="#ff9f8e" fill-rule="nonzero" node-id="83" stroke="none" target-height="536.33997" target-width="486.22998" target-x="290.7" target-y="260.04"></path><path d="M 465.82 429.03 L 469.55 430.12 L 473.06 431.55 L 476.39 433.34 L 479.55 435.49 L 483.41 438.82 L 486.92 442.67 L 490.09 447.09 L 492.77 451.83 L 495.05 457.01 L 496.92 462.64 L 498.27 468.43 L 499.15 474.53 L 499.53 480.96 L 499.37 487.41 L 498.67 494.04 L 497.38 500.87 L 495.54 507.58 L 493.27 513.85 L 490.58 519.71 L 487.42 525.33 L 483.96 530.43 L 480.21 535.04 L 476.06 539.28 L 471.75 542.93 L 467.25 546.02 L 462.47 548.60 L 457.63 550.53 L 452.70 551.82 L 448.92 552.38 L 445.14 552.52 L 441.35 552.27 L 437.53 551.61 L 433.80 550.53 L 430.29 549.10 L 426.96 547.31 L 423.80 545.16 L 419.94 541.83 L 416.43 537.98 L 413.26 533.56 L 410.58 528.81 L 408.30 523.64 L 406.43 518.01 L 405.08 512.22 L 404.20 506.12 L 403.82 499.68 L 403.98 493.24 L 404.68 486.61 L 405.97 479.77 L 407.81 473.07 L 410.08 466.80 L 412.77 460.94 L 415.93 455.32 L 419.39 450.22 L 423.14 445.61 L 427.29 441.36 L 431.60 437.72 L 436.10 434.63 L 440.88 432.05 L 445.72 430.12 L 450.65 428.82 L 454.43 428.27 L 458.21 428.13 L 462.00 428.38 L 465.82 429.03 Z" fill="#ffffff" fill-opacity="0.4" fill-rule="nonzero" group-id="3" node-id="87" stroke="#0f0f0f" stroke-linecap="butt" stroke-opacity="0.4" stroke-width="6.000106" target-height="124.390015" target-width="95.70999" target-x="403.82" target-y="428.13"></path><path d="M 475.59 494.23 C 475.59 504.36 467.38 512.57 457.25 512.57 C 447.12 512.57 438.91 504.36 438.91 494.23 C 438.91 484.10 447.12 475.89 457.25 475.89 C 467.38 475.89 475.59 484.10 475.59 494.23 Z" fill="#152140" fill-rule="nonzero" node-id="90" stroke="none" target-height="36.679993" target-width="36.679993" target-x="438.91" target-y="475.89"></path><path d="M 470.67 487.00 C 470.67 489.76 468.44 491.99 465.68 491.99 C 462.92 491.99 460.69 489.76 460.69 487.00 C 460.69 484.24 462.92 482.01 465.68 482.01 C 468.44 482.01 470.67 484.24 470.67 487.00 Z" fill="#ffffff" fill-rule="nonzero" node-id="92" stroke="none" target-height="9.97998" target-width="9.980011" target-x="460.69" target-y="482.01"></path><path d="M 612.00 415.77 L 615.98 417.98 L 619.63 420.54 L 622.98 423.45 L 626.03 426.74 L 628.74 430.31 L 631.15 434.16 L 633.26 438.32 L 635.07 442.80 L 636.50 447.38 L 637.60 452.16 L 638.38 457.18 L 638.82 462.45 L 638.86 469.45 L 638.26 476.69 L 637.01 484.19 L 635.68 489.72 L 633.96 495.27 L 631.86 500.88 L 629.35 506.53 L 626.48 512.02 L 623.41 517.15 L 620.12 521.95 L 616.63 526.43 L 611.53 532.08 L 606.24 537.05 L 600.73 541.38 L 596.34 544.31 L 591.92 546.82 L 587.49 548.93 L 583.02 550.66 L 578.38 552.04 L 573.82 552.97 L 569.31 553.48 L 564.82 553.58 L 560.35 553.24 L 555.98 552.43 L 551.71 551.17 L 547.50 549.42 L 543.52 547.21 L 539.87 544.66 L 536.53 541.74 L 533.47 538.45 L 530.76 534.88 L 528.35 531.03 L 526.24 526.88 L 524.43 522.39 L 523.01 517.82 L 521.90 513.03 L 521.12 508.01 L 520.68 502.75 L 520.64 495.74 L 521.24 488.51 L 522.49 481.01 L 523.82 475.48 L 525.54 469.92 L 527.64 464.32 L 530.15 458.66 L 533.02 453.18 L 536.09 448.05 L 539.38 443.25 L 542.88 438.76 L 547.97 433.12 L 553.26 428.15 L 558.77 423.82 L 563.17 420.88 L 567.58 418.37 L 572.01 416.26 L 576.49 414.53 L 581.12 413.16 L 585.68 412.22 L 590.19 411.71 L 594.68 411.61 L 599.15 411.96 L 603.52 412.76 L 607.79 414.03 L 612.00 415.77 Z" fill="#ffffff" fill-opacity="0.4" fill-rule="nonzero" group-id="4" node-id="96" stroke="#0f0f0f" stroke-linecap="butt" stroke-opacity="0.4" stroke-width="5.9998727" target-height="141.97003" target-width="118.21997" target-x="520.64" target-y="411.61"></path><path d="M 589.37 470.11 L 592.88 471.28 L 595.96 472.94 L 598.66 475.10 L 600.97 477.70 L 602.76 480.59 L 604.08 483.81 L 604.82 487.21 L 604.96 490.72 L 604.46 494.40 L 603.29 497.93 L 601.63 501.03 L 599.47 503.75 L 596.88 506.07 L 594.00 507.88 L 590.79 509.21 L 587.41 509.97 L 583.92 510.11 L 580.25 509.62 L 576.75 508.45 L 573.67 506.80 L 570.96 504.63 L 568.66 502.03 L 566.86 499.14 L 565.55 495.92 L 564.80 492.53 L 564.67 489.01 L 565.17 485.33 L 566.34 481.80 L 567.99 478.71 L 570.15 475.98 L 572.75 473.66 L 575.63 471.85 L 578.83 470.52 L 582.22 469.76 L 585.71 469.62 L 589.37 470.11 Z" fill="#152140" fill-rule="nonzero" group-id="5" node-id="101" stroke="none" target-height="40.48999" target-width="40.29004" target-x="564.67" target-y="469.62"></path><path d="M 596.89 478.79 L 598.29 479.33 L 599.42 480.15 L 600.31 481.24 L 600.90 482.53 L 601.13 483.90 L 601.00 485.41 L 600.45 486.82 L 599.65 487.95 L 598.55 488.85 L 597.27 489.44 L 595.91 489.68 L 594.41 489.55 L 593.00 489.01 L 591.88 488.20 L 590.99 487.10 L 590.40 485.82 L 590.17 484.45 L 590.30 482.94 L 590.84 481.52 L 591.65 480.39 L 592.74 479.50 L 594.02 478.90 L 595.39 478.66 L 596.89 478.79 Z" fill="#ffffff" fill-rule="nonzero" group-id="6" node-id="106" stroke="none" target-height="11.019989" target-width="10.960022" target-x="590.17" target-y="478.66"></path><path d="M 558.76 407.64 C 559.99 408.78 572.63 392.88 590.99 389.82 C 598.41 388.58 604.24 389.86 605.40 390.13 C 610.73 391.36 614.72 393.60 617.18 395.24 C 616.12 393.15 614.34 390.21 611.45 387.34 C 605.33 381.27 597.30 378.57 591.30 378.35 C 570.48 377.60 557.26 406.25 558.76 407.64 Z" fill="#152140" fill-rule="nonzero" node-id="109" stroke="none" target-height="31.179993" target-width="59.919983" target-x="557.26" target-y="377.6"></path><path d="M 481.27 407.18 C 480.78 399.89 471.21 392.43 462.36 391.22 C 451.99 389.80 440.84 396.74 434.46 408.58 C 444.07 400.86 450.53 400.25 454.76 401.30 C 458.00 402.10 462.14 404.43 470.10 408.89 C 474.57 411.40 477.74 413.41 479.71 412.14 C 481.52 410.97 481.30 407.70 481.27 407.18 Z" fill="#152140" fill-rule="nonzero" node-id="111" stroke="none" target-height="23.610016" target-width="47.059998" target-x="434.46" target-y="389.8"></path><path d="M 638.45 531.43 L 638.84 533.03 L 638.70 534.84 L 637.95 536.96 L 636.81 538.95 L 635.15 541.13 L 632.86 543.54 L 628.99 546.86 L 624.02 550.35 L 618.55 553.54 L 612.26 556.59 L 605.76 559.16 L 599.72 561.03 L 593.79 562.34 L 588.72 562.95 L 585.40 563.00 L 582.67 562.75 L 580.43 562.25 L 578.36 561.37 L 576.94 560.25 L 576.02 558.88 L 575.63 557.28 L 575.77 555.47 L 576.52 553.35 L 577.66 551.37 L 579.32 549.18 L 581.61 546.78 L 585.48 543.45 L 590.45 539.96 L 595.92 536.77 L 602.21 533.72 L 608.71 531.15 L 614.75 529.28 L 620.68 527.97 L 625.75 527.37 L 629.07 527.31 L 631.80 527.56 L 634.04 528.06 L 636.10 528.94 L 637.53 530.06 L 638.45 531.43 Z" fill="#ff8777" fill-rule="nonzero" group-id="7" node-id="115" stroke="none" target-height="35.690002" target-width="63.210022" target-x="575.63" target-y="527.31"></path><path d="M 424.95 540.69 L 428.57 543.76 L 431.66 546.75 L 434.26 549.67 L 436.62 552.80 L 438.28 555.55 L 439.36 557.96 L 439.89 559.91 L 439.99 561.48 L 439.74 562.76 L 439.17 563.82 L 438.27 564.62 L 437.08 565.16 L 435.54 565.43 L 433.52 565.37 L 430.92 564.88 L 427.86 563.90 L 424.27 562.33 L 420.83 560.48 L 417.20 558.17 L 413.38 555.36 L 409.76 552.29 L 406.67 549.30 L 404.07 546.38 L 401.71 543.25 L 400.05 540.50 L 398.97 538.09 L 398.44 536.14 L 398.34 534.57 L 398.59 533.29 L 399.16 532.23 L 400.06 531.43 L 401.25 530.89 L 402.79 530.62 L 404.81 530.69 L 407.41 531.17 L 410.47 532.15 L 414.07 533.72 L 417.50 535.58 L 421.13 537.88 L 424.95 540.69 Z" fill="#ff8777" fill-rule="nonzero" group-id="8" node-id="120" stroke="none" target-height="34.809998" target-width="41.649994" target-x="398.34" target-y="530.62"></path><path d="M 624.25 690.91 C 624.25 739.50 582.24 778.89 530.42 778.89 C 478.60 778.89 436.59 739.50 436.59 690.91 C 436.59 642.32 478.60 602.93 530.42 602.93 C 582.24 602.93 624.25 642.32 624.25 690.91 Z" fill="url(#SVGID_1_)" fill-rule="nonzero" node-id="123" stroke="none" target-height="175.96002" target-width="187.66" target-x="436.59" target-y="602.93"></path><path d="M 511.04 665.43 C 509.69 665.43 508.33 665.40 506.95 665.35 C 477.14 664.15 455.12 650.04 444.66 641.73 C 443.44 640.77 443.24 639.00 444.21 637.79 C 445.17 636.57 446.94 636.37 448.15 637.34 C 458.08 645.22 478.97 658.62 507.19 659.74 C 555.46 661.84 586.36 627.04 592.09 620.08 C 593.08 618.88 594.84 618.71 596.03 619.70 C 597.23 620.69 597.40 622.45 596.41 623.64 C 590.53 630.78 559.47 665.43 511.04 665.43 Z" fill="#152140" fill-rule="nonzero" group-id="9" node-id="127" stroke="none" target-height="46.71997" target-width="154.16003" target-x="443.24" target-y="618.71"></path><path d="M 602.02 622.81 L 586.45 622.81 C 584.90 622.81 583.65 621.56 583.65 620.01 C 583.65 618.46 584.90 617.21 586.45 617.21 L 602.02 617.21 C 603.57 617.21 604.82 618.46 604.82 620.01 C 604.82 621.56 603.56 622.81 602.02 622.81 Z" fill="#152140" fill-rule="nonzero" group-id="10" node-id="132" stroke="none" target-height="5.5999756" target-width="21.169983" target-x="583.65" target-y="617.21"></path><path d="M 498.28 683.14 C 501.88 684.16 510.80 686.17 521.29 682.91 C 529.60 680.33 535.04 675.65 537.68 673.03 C 537.74 674.97 537.60 678.24 536.05 681.75 C 531.65 691.71 517.86 699.08 507.69 694.30 C 502.12 691.68 499.44 686.25 498.28 683.14 Z" fill="#152140" fill-rule="nonzero" node-id="135" stroke="none" target-height="26.049988" target-width="39.45999" target-x="498.28" target-y="673.03"></path><path d="M 707.64 390.19 C 700.34 376.12 692.00 366.45 685.99 360.44 C 678.53 352.97 657.17 331.54 642.24 337.19 C 637.26 339.07 634.86 343.24 630.26 342.30 C 625.17 341.26 623.41 335.18 619.67 329.75 C 615.79 324.11 608.65 317.54 594.34 313.48 C 596.06 314.16 604.79 317.82 608.62 327.43 C 610.83 332.98 610.39 337.98 610.00 340.45 C 602.56 333.43 591.92 325.11 577.76 318.60 C 543.94 303.04 512.11 307.89 499.00 310.70 C 506.90 310.66 519.27 311.62 533.08 317.21 C 542.42 320.99 549.62 325.76 554.73 329.76 C 549.01 328.70 540.39 327.18 529.86 325.58 C 506.41 322.02 494.69 320.24 481.04 320.47 C 471.67 320.62 457.82 321.73 440.97 326.51 C 449.33 323.79 469.36 318.68 489.33 327.90 C 493.19 329.68 496.55 331.77 499.46 333.94 C 471.13 327.88 450.00 330.68 435.90 334.41 C 427.73 336.57 412.38 343.32 382.01 356.73 C 351.47 370.22 341.17 375.38 329.50 371.14 C 317.79 366.89 311.25 355.54 307.85 347.89 C 309.26 337.53 312.72 321.96 322.59 306.51 C 356.34 253.67 432.63 249.99 476.43 247.93 C 543.77 244.77 599.40 262.52 636.55 279.08 C 648.41 287.58 666.22 302.54 681.65 326.04 C 698.27 351.36 704.82 375.45 707.64 390.19 Z" fill="#152140" fill-rule="nonzero" node-id="137" stroke="none" target-height="145.42" target-width="399.79" target-x="307.85" target-y="244.77"></path><path d="M 869.81 879.17 C 859.61 889.20 849.02 898.73 838.03 907.75 C 832.71 912.12 827.33 916.33 821.95 920.47 C 821.11 921.09 820.32 921.65 819.60 922.26 C 818.81 922.88 817.97 923.44 817.24 924.00 C 815.45 925.29 813.65 926.58 811.92 927.87 C 790.40 943.51 767.53 957.46 743.49 969.51 C 741.64 970.52 739.79 971.42 737.89 972.31 C 687.84 996.97 633.02 1013.62 575.29 1020.62 C 574.79 1020.68 574.23 1020.73 573.72 1020.79 C 558.42 1022.64 542.89 1023.82 527.26 1024.26 C 526.31 1024.32 525.24 1024.32 524.23 1024.32 C 523.17 1024.38 522.10 1024.38 521.15 1024.38 C 519.30 1024.44 517.45 1024.49 515.65 1024.44 C 515.43 1024.50 515.20 1024.50 514.98 1024.50 L 509.38 1024.50 C 508.20 1024.50 506.91 1024.50 505.62 1024.44 C 502.37 1024.44 499.01 1024.33 495.81 1024.22 C 494.75 1024.22 493.63 1024.16 492.56 1024.11 C 491.60 1024.05 490.54 1024.00 489.53 1023.94 C 488.97 1023.94 488.41 1023.94 487.85 1023.89 C 487.57 1023.89 487.29 1023.83 487.07 1023.83 C 477.82 1023.38 468.74 1022.76 459.72 1021.76 C 398.29 1015.60 340.17 998.39 287.15 972.27 C 285.30 971.43 283.39 970.48 281.55 969.52 C 281.21 969.35 280.88 969.18 280.59 969.02 C 256.21 956.69 233.01 942.34 211.26 926.31 C 210.14 925.53 209.13 924.74 208.01 923.90 C 207.17 923.34 206.38 922.78 205.66 922.16 C 204.82 921.60 204.14 920.98 203.30 920.37 C 184.97 906.58 167.71 891.56 151.46 875.36 C 219.56 850.70 306.32 844.25 369.10 843.36 L 371.51 843.36 C 378.46 843.25 385.07 843.25 391.35 843.25 C 425.26 843.42 448.46 844.99 451.60 845.27 C 456.25 845.21 460.96 845.10 465.61 845.05 C 471.49 844.99 477.38 844.88 483.26 844.83 L 483.32 844.83 C 509.44 844.38 535.61 843.99 561.67 843.65 C 561.67 843.65 561.67 843.65 561.73 843.65 C 567.90 843.54 574.12 843.43 580.28 843.37 C 600.12 843.03 619.91 842.75 639.69 842.47 C 645.35 843.09 650.90 843.70 656.39 844.38 C 661.66 845.00 666.81 845.61 671.92 846.23 C 672.81 846.34 673.71 846.45 674.55 846.57 C 754.96 856.47 820.15 868.46 869.81 879.17 Z" fill="#003f74" fill-rule="nonzero" node-id="139" stroke="none" target-height="182.03003" target-width="718.35" target-x="151.46" target-y="842.47"></path><path d="M 573.71 1020.80 C 558.41 1022.65 542.88 1023.83 527.25 1024.27 C 526.30 1024.33 525.23 1024.33 524.22 1024.33 C 523.16 1024.39 522.09 1024.39 521.14 1024.39 C 519.29 1024.45 517.44 1024.50 515.64 1024.45 C 515.42 1024.51 515.19 1024.51 514.97 1024.51 L 509.37 1024.51 C 508.19 1024.51 506.90 1024.51 505.61 1024.45 C 502.36 1024.45 499.00 1024.34 495.80 1024.23 C 494.74 1024.23 493.62 1024.17 492.55 1024.12 C 491.59 1024.06 490.53 1024.01 489.52 1023.95 C 488.96 1023.95 488.40 1023.95 487.84 1023.90 L 490.08 959.00 L 490.19 956.76 L 490.58 945.27 L 490.58 945.05 L 490.92 936.14 L 490.97 933.79 L 491.19 927.23 L 567.14 927.23 L 568.03 940.40 L 568.37 945.22 L 568.48 947.07 L 569.21 957.05 L 570.05 968.82 L 573.71 1020.80 Z" fill="#041a33" fill-rule="nonzero" node-id="141" stroke="none" target-height="97.28003" target-width="85.870026" target-x="487.84" target-y="927.23"></path><path d="M 582.98 927.20 C 582.98 942.98 559.78 955.77 531.16 955.77 C 502.54 955.77 479.34 942.98 479.34 927.20 C 479.34 911.42 502.54 898.63 531.16 898.63 C 559.78 898.63 582.98 911.42 582.98 927.20 Z" fill="#041a33" fill-rule="nonzero" node-id="143" stroke="none" target-height="57.140015" target-width="103.639984" target-x="479.34" target-y="898.63"></path><path d="M 676.11 848.23 C 675.89 847.95 675.72 847.73 675.49 847.56 C 656.49 827.10 659.24 830.13 640.29 809.73 C 640.29 809.67 640.24 809.62 640.18 809.56 C 640.07 809.39 639.90 809.22 639.73 809.06 C 639.17 808.61 638.50 808.33 637.71 808.33 C 637.26 808.33 636.87 808.44 636.48 808.55 C 592.54 835.73 548.65 862.86 504.71 890.10 C 496.92 894.92 496.58 906.19 504.15 911.45 C 529.09 928.88 554.09 946.37 579.03 963.86 C 584.75 967.84 592.60 966.49 596.68 960.89 C 623.02 924.68 649.37 888.42 675.71 852.21 C 675.82 852.04 675.93 851.87 676.05 851.71 C 676.39 851.21 676.61 850.65 676.61 849.97 C 676.61 849.29 676.44 848.73 676.11 848.23 Z" fill="#032b47" fill-rule="nonzero" node-id="145" stroke="none" target-height="159.51001" target-width="180.03" target-x="496.58" target-y="808.33"></path><path d="M 538.34 890.10 C 494.62 862.97 450.79 835.96 407.08 808.89 C 406.91 808.78 406.74 808.67 406.57 808.55 C 406.18 808.44 405.79 808.33 405.34 808.33 C 404.50 808.33 403.71 808.67 403.15 809.17 C 403.09 809.23 403.09 809.28 403.04 809.34 C 383.76 830.08 386.67 826.99 367.67 847.51 C 367.45 847.68 367.28 847.90 367.05 848.13 C 367.00 848.13 367.00 848.19 367.00 848.24 C 366.66 848.74 366.44 849.30 366.44 849.98 C 366.44 850.65 366.66 851.21 367.00 851.72 C 367.11 851.89 367.22 852.06 367.33 852.22 C 393.62 888.43 420.02 924.69 446.30 960.90 C 450.39 966.50 458.29 967.85 464.01 963.87 C 488.95 946.38 513.95 928.89 538.89 911.46 C 546.46 906.18 546.13 894.92 538.34 890.10 Z" fill="#032b47" fill-rule="nonzero" node-id="147" stroke="none" target-height="159.51996" target-width="180.02002" target-x="366.44" target-y="808.33"></path><path d="M 676.11 837.02 C 675.89 836.74 675.72 836.52 675.49 836.35 C 656.49 815.89 659.24 818.92 640.29 798.52 C 640.29 798.46 640.24 798.41 640.18 798.35 C 640.07 798.18 639.90 798.01 639.73 797.85 C 639.17 797.40 638.50 797.12 637.71 797.12 C 637.26 797.12 636.87 797.23 636.48 797.34 C 592.54 824.52 548.65 851.65 504.71 878.89 C 496.92 883.71 496.58 894.98 504.15 900.24 C 529.09 917.67 554.09 935.16 579.03 952.65 C 584.75 956.63 592.60 955.28 596.68 949.68 C 623.02 913.47 649.37 877.21 675.71 841.00 C 675.82 840.83 675.93 840.66 676.05 840.50 C 676.39 840.00 676.61 839.44 676.61 838.76 C 676.61 838.08 676.44 837.52 676.11 837.02 Z" fill="#003f74" fill-rule="nonzero" node-id="149" stroke="none" target-height="159.51001" target-width="180.03" target-x="496.58" target-y="797.12"></path><path d="M 538.34 878.89 C 494.62 851.76 450.79 824.75 407.08 797.68 C 406.91 797.57 406.74 797.46 406.57 797.34 C 406.18 797.23 405.79 797.12 405.34 797.12 C 404.50 797.12 403.71 797.46 403.15 797.96 C 403.09 798.02 403.09 798.07 403.04 798.13 C 383.76 818.87 386.67 815.78 367.67 836.30 C 367.45 836.47 367.28 836.69 367.05 836.92 C 367.00 836.92 367.00 836.98 367.00 837.03 C 366.66 837.53 366.44 838.09 366.44 838.77 C 366.44 839.44 366.66 840.00 367.00 840.51 C 367.11 840.68 367.22 840.85 367.33 841.01 C 393.62 877.22 420.02 913.48 446.30 949.69 C 450.39 955.29 458.29 956.64 464.01 952.66 C 488.95 935.17 513.95 917.68 538.89 900.25 C 546.46 894.97 546.13 883.71 538.34 878.89 Z" fill="#003f74" fill-rule="nonzero" node-id="151" stroke="none" target-height="159.52002" target-width="180.02002" target-x="366.44" target-y="797.12"></path><path d="M 506.30 624.03 L 495.60 621.96 C 468.76 616.78 451.21 590.82 456.39 563.99 L 458.13 554.97 C 461.18 539.20 476.43 528.88 492.20 531.93 L 503.40 534.09 C 532.59 539.73 551.68 567.97 546.03 597.16 L 546.03 597.16 C 542.48 615.55 524.69 627.58 506.30 624.03 Z" fill="url(#SVGID_2_)" fill-rule="nonzero" node-id="153" stroke="none" target-height="98.70001" target-width="100.47" target-x="451.21" target-y="528.88"></path></svg>