<svg height="1024" width="1024" xmlns="http://www.w3.org/2000/svg"><defs><linearGradient gradientUnits="userSpaceOnUse" id="a" spreadMethod="pad" x1="566.572" x2="479.366" y1="565.749" y2="515.4"><stop offset=".24" stop-color="#dd5543" stop-opacity="0"/><stop offset="1" stop-color="#dd5543" stop-opacity=".6"/></linearGradient></defs><path d="M1024.5 512.47c0 136.76-53.62 261.09-141.08 352.91a502.217 502.217 0 0 1-45.44 42.38c-8.48 7.02-17.15 13.68-26.07 20.12-84.17 60.81-187.63 96.61-299.43 96.61-8.53 0-17.1-.18-25.45-.67-9.2-.44-18.3-1.07-27.32-2.09-64.01-6.44-124.46-24.83-179.19-52.73-24.3-12.35-47.53-26.65-69.34-42.69a516.83 516.83 0 0 1-69.61-60.94C54.16 773.6.5 649.32.5 512.47.5 229.7 229.75.5 512.48.5c282.77 0 512.02 229.2 512.02 511.97z" fill="#fed685"/><path d="M512.95 705.01c-100.35 0-181.99-50.17-181.99-111.84s81.64-111.85 181.99-111.85c100.36 0 182 50.17 182 111.85-.01 61.66-81.65 111.84-182 111.84zm0-212.48c-94.17 0-170.78 45.14-170.78 100.64 0 55.49 76.61 100.63 170.78 100.63s170.79-45.14 170.79-100.63c-.01-55.5-76.62-100.64-170.79-100.64z" fill="#ff9f8e"/><path d="M707.06 536.38c6.4-25.82 17.83-60.37 39.14-97.56a380.658 380.658 0 0 1 56.66-75.36c-12.46-4.48-24.92-8.96-37.39-13.44 14.6-6.62 29.21-13.24 43.81-19.86-25.82-29.02-60.68-62.1-106.32-92.3a537.932 537.932 0 0 0-54.33-31.54c9.8-9.48 19.76-19.6 29.79-30.38 5.66-6.08 11.11-12.13 16.35-18.11-12.71 3.29-33.32 10.35-54.33 26.29-18.07 13.71-29.52 28.75-36.22 39.14-.84-8.68-2.42-18.54-5.26-29.21-5.35-20.12-13.34-36.19-20.45-47.9 2.96 7.67 8.16 24.46 3.5 44.4-1.85 7.92-4.8 14.38-7.59 19.28-6.66-9.31-20.46-25.55-42.64-32.13 0 0-21.79-6.47-49.66 2.34-41.06 12.97-139.18 88.78-258.79 203.87 15.58-1.56 31.16-3.12 46.74-4.67-12.66 13.63-25.32 27.26-37.97 40.89 14.83 2.66 39.83 9.33 64.26 28.04 47.15 36.12 56.05 89.43 57.83 102.23 117.64-4.68 235.26-9.35 352.87-14.02z" fill="#152140"/><path d="M254.93 395.5c-8.17.85-16.34 1.62-24.5 2.47 5.77-5.56 11.55-11.06 17.25-16.48 7.47-.77 14.93-1.48 22.4-2.25-5.01 5.41-10.01 10.84-15.15 16.26zM341.76 506.77c-8.59-15.21-20.77-31.06-38.31-44.51-24.44-18.73-49.44-25.42-64.3-28.03 3.17-3.38 6.34-6.83 9.51-10.21 13.87 4.09 30.91 11.27 47.75 24.16 23.03 17.67 36.9 39.44 45.35 58.59zM598.96 194.09c-2.74-10.35-6.2-19.58-9.86-27.75 6.13 10.99 12.4 25 16.9 41.83.85 3.17 1.62 6.27 2.18 9.3-1.48 2.04-2.82 4.01-3.94 5.78-.84-8.67-2.39-18.53-5.28-29.16zM662.55 213.66c-4.72-2.61-9.37-5-13.94-7.32 7.53-7.25 15.14-14.93 22.75-22.96 11.97-6.06 22.68-9.44 30.5-11.48-5.28 5.99-10.7 12.04-16.34 18.1-7.76 8.24-15.36 16.13-22.97 23.66z" fill="#24365e"/><path d="M254.93 395.5c7.4-.7 14.79-1.48 22.19-2.18-9.44 10.28-18.94 20.49-28.45 30.71-6.27-1.83-11.9-3.03-16.55-3.87 7.6-8.25 15.27-16.42 22.81-24.66zM585.58 160.21c2.96 7.68 8.17 24.51 3.52 44.44-1.83 7.89-4.79 14.37-7.61 19.3-6.69-9.37-20.42-25.56-42.61-32.18 0 0-21.83-6.41-49.72 2.39-39.09 12.32-129.8 81.55-241.49 187.33-8.1.78-16.2 1.62-24.29 2.4 119.58-115.07 217.68-190.85 258.74-203.81 27.89-8.8 49.72-2.39 49.72-2.39 22.18 6.62 35.92 22.82 42.61 32.18 2.82-4.93 5.78-11.41 7.61-19.3 4.65-19.93-.56-36.76-3.52-44.44 3.45 5.7 7.11 12.47 10.56 20.21-1.2-2.19-2.39-4.23-3.52-6.13zM671.36 183.38c-7.61 3.8-15.7 8.59-23.88 14.86-18.03 13.66-29.51 28.73-36.2 39.09-.56-6.06-1.55-12.75-3.1-19.86 6.9-9.72 17.32-21.97 32.26-33.31 21.06-15.99 41.62-23.03 54.37-26.34-5.28 5.99-10.7 12.04-16.34 18.1-2.39 2.53-4.72 5-7.11 7.46z" fill="#24365e"/><path d="M624.51 866.84H400.49l16.25-142.64 5.94-52.07.23-2.18h179.18l.23 2.18 7.56 66.08z" fill="#ff9f8e"/><path d="M609.88 738.21c-63.56 16.76-137.04 8.74-193.14-14.01l5.94-52.07h179.64l7.56 66.08z" fill="#f5575d"/><path d="m351.85 510.86.38 7.49-.18 7.05-.71 6.65-1.26 6.57-1.69 5.88-2.08 5.27-1.96 3.83-2.11 3.32-2.26 2.85-2.4 2.43-2.73 2.12-2.82 1.57-2.94 1.06-3.1.57h-3.15l-3.08-.51-3.06-1.04-3.06-1.59-2.8-1.96-2.74-2.4-2.67-2.88-2.62-3.42-2.99-4.8-2.73-5.49-2.42-6.23-1.9-6.41-1.45-6.91-.98-7.43-.38-7.49.19-7.05.71-6.65 1.26-6.57 1.69-5.88 2.08-5.27 1.96-3.83 2.11-3.32 2.25-2.85 2.41-2.43 2.72-2.12 2.82-1.57 2.94-1.06 3.1-.57h3.15l3.09.51 3.05 1.04 3.07 1.59 2.8 1.96 2.73 2.4 2.68 2.88 2.61 3.42 3 4.8 2.72 5.49 2.43 6.23 1.9 6.42 1.45 6.9.97 7.43z" fill="#ff9f8e"/><path d="M339.83 541.07c-.67-11.64-4.34-23.71-12.55-32.29-1.99-2.08-4.03-4.09-6.56-5.76-2.45-1.66-5.78-2.71-8.82-1.85-6.12 1.89-8.81 7.94-9.94 13.22 1.6-5.18 5.14-10.59 10.31-11.5 5.2-.75 9.06 4.04 12.34 8.19 6.57 8.51 8.66 19.52 8.18 30.06a3.523 3.523 0 0 0 3.36 3.68c1.95.09 3.6-1.42 3.69-3.36 0-.12 0-.27-.01-.39z" fill="#152140"/><path d="m720.38 445.72 3.1.57 2.94 1.06 2.82 1.56 2.73 2.13 2.4 2.43 2.26 2.85 2.11 3.32 1.96 3.83 2.08 5.27 1.69 5.88 1.26 6.57.71 6.65.18 7.05-.38 7.49-.97 7.43-1.45 6.9-1.9 6.42-2.43 6.23-2.72 5.49-3 4.8-2.61 3.42-2.68 2.88-2.73 2.4-2.8 1.96-3.07 1.59-3.05 1.04-3.09.51h-3.15l-3.1-.57-2.94-1.06-2.82-1.57-2.72-2.12-2.41-2.43-2.25-2.85-2.11-3.32-1.96-3.83-2.08-5.27-1.69-5.88-1.26-6.57-.72-6.65-.18-7.05.38-7.49.98-7.43 1.45-6.91 1.9-6.41 2.42-6.23 2.73-5.49 2.99-4.8 2.62-3.42 2.67-2.88 2.74-2.4 2.8-1.96 3.06-1.59 3.06-1.04 3.08-.51h3.15z" fill="#ff9f8e"/><path d="M697.4 527.7c.21-11.66 3.4-23.87 11.28-32.76 1.91-2.15 3.87-4.25 6.33-6.01 2.38-1.75 5.66-2.93 8.74-2.19 6.19 1.65 9.11 7.59 10.45 12.82-1.8-5.11-5.55-10.38-10.75-11.09-5.23-.54-8.9 4.39-12.01 8.66-6.23 8.76-7.89 19.84-7 30.36a3.515 3.515 0 0 1-3.21 3.81c-1.94.16-3.65-1.27-3.81-3.21-.02-.12-.02-.27-.02-.39z" fill="#152140"/><path d="M713.9 584.03c-.07 2.32-.28 4.65-.7 7.18v.07c0 .21 0 .49-.07.77-.5 3.03-1.06 5.99-1.91 9.01-.35 1.83-.84 3.66-1.41 5.42l-2.82 8.24v.07c-.28.85-.64 1.69-1.06 2.54-.91 2.54-2.04 5-3.24 7.54-.28.56-.56 1.13-.91 1.76l-3.52 6.69c-.7 1.34-1.55 2.75-2.39 4.09-1.2 1.97-2.47 4.01-3.73 5.99-1.41 2.04-2.82 4.08-4.36 6.13-1.2 1.69-2.4 3.31-3.73 4.86-.84 1.2-1.76 2.32-2.75 3.38-1.2 1.62-2.53 3.17-3.94 4.65-.64.77-1.27 1.55-2.04 2.25-1.41 1.69-2.96 3.31-4.58 4.93-1.97 2.04-4.01 4.01-6.06 5.92l-5.14 4.72c-.91.85-1.83 1.62-2.74 2.39l-5.43 4.44c-2.04 1.69-4.15 3.38-6.41 5-1.83 1.34-3.73 2.68-5.64 4.01-1.97 1.41-4.01 2.75-6.06 4.08-1.69 1.13-3.45 2.18-5.21 3.24-2.61 1.62-5.28 3.24-8.03 4.72-1.69.99-3.45 1.9-5.21 2.75-3.73 2.04-7.6 3.94-11.48 5.7-1.83.84-3.59 1.62-5.42 2.32-3.03 1.34-6.13 2.61-9.29 3.73-2.11.85-4.23 1.55-6.34 2.25-1.48.49-2.89.99-4.37 1.48-2.18.7-4.44 1.34-6.62 1.97-2.82.78-5.7 1.55-8.59 2.25-2.18.49-4.44.99-6.69 1.41-.98.28-1.97.42-3.03.63-2.18.42-4.3.77-6.48 1.13-2.04.35-4.15.63-6.2.85-2.04.28-4.09.49-6.13.63v.07c-3.38.28-6.76.56-10.21.63-2.11.14-4.23.21-6.34.21h-.35c-1.41 0-2.89 0-4.3-.07-2.25 0-4.51-.07-6.76-.21-2.89-.07-5.77-.28-8.66-.56-2.18-.21-4.37-.42-6.55-.7-1.06-.14-2.04-.28-3.1-.42-2.11-.28-4.15-.56-6.2-.92-3.31-.56-6.55-1.2-9.79-1.9-1.97-.42-3.88-.85-5.85-1.34-2.68-.63-5.42-1.34-8.1-2.11-2.25-.63-4.5-1.27-6.69-2.04-1.34-.35-2.68-.77-4.01-1.34-2.19-.63-4.44-1.41-6.55-2.25-2.75-.99-5.5-2.04-8.17-3.17-2.18-.85-4.3-1.76-6.41-2.75l-2.68-1.27h-.07c-2.04-.92-4.09-1.9-6.06-2.89-3.38-1.69-6.69-3.38-9.86-5.21-2.04-1.13-4.01-2.25-5.91-3.45-2.39-1.41-4.65-2.82-6.9-4.37l-5.85-3.87c-1.06-.7-1.97-1.41-2.96-2.11-1.9-1.41-3.73-2.82-5.56-4.23-2.25-1.69-4.44-3.52-6.55-5.35-1.69-1.41-3.45-2.96-5.07-4.44-.78-.7-1.48-1.34-2.18-2.11-1.55-1.34-3.03-2.82-4.44-4.29-1.06-.99-2.04-2.04-2.96-3.1-1.41-1.48-2.82-3.03-4.08-4.51-1.69-1.97-3.38-3.94-4.86-5.92a74.71 74.71 0 0 1-4.23-5.7c-.99-1.27-1.83-2.61-2.61-3.87v-.07c-1.48-2.11-2.75-4.23-3.94-6.41-.42-.63-.77-1.2-1.13-1.9v-.07c-1.34-2.39-2.6-4.93-3.66-7.39-.5-.92-.85-1.83-1.2-2.75-1.2-2.89-2.25-5.77-3.1-8.73-.7-2.04-1.27-4.01-1.69-6.06v-.07a74.02 74.02 0 0 1-1.06-5.42c-.28-1.9-.56-3.8-.7-5.78-.28-2.96-.42-5.99-.5-9.09v-.07c-.07-4.51.14-9.09.42-13.8.35-5 .85-10 1.48-14.93 1.27-9.37 2.89-18.31 4.58-25.99v-.14c1.41-6.62 2.82-12.32 3.87-16.41.85-3.17 1.48-5.42 1.76-6.48 1.13-3.94 2.25-7.61 3.38-11.13 1.97-6.06 3.94-11.55 5.77-16.62 6.62-18.31 11.62-32.25 9.51-52.54-2.96-29.01-17.18-38.87-20.21-54.51-4.44-22.75 15.14-56.48 99.58-108.24 47.68-29.16 108.74-24.51 151.42 11.69 15.56 13.24 31.13 26.41 46.76 39.65a139.68 139.68 0 0 1 47.26 83.66c2.25 13.66 4.86 28.73 7.82 44.93.85 4.65 1.69 9.08 2.47 13.31 3.03 16.2 5.77 29.72 8.24 41.27 1.41 6.9 2.75 13.1 3.94 18.66.63 2.82 1.27 5.56 1.83 8.1 1.41 6.55 2.68 12.11 3.73 16.97v.07c1.48 6.69 2.53 12.04 3.24 16.69v.07c.73 5.16 1.01 9.46.73 13.9z" fill="#ff9f8e"/><path d="M699.47 404.39c-3.77 3.12-28.41-17.39-77.7-58.42-29.19-24.3-52.91-45.22-69.51-60.17a481.214 481.214 0 0 0-52.57 70.1c-1.37-7.83-3.47-26.29 5.26-46.73 5.89-13.8 14.36-22.97 19.86-28.04-41.87 18.54-93.57 47.03-145.46 91.13a593.434 593.434 0 0 0-60.17 59c-12.77-13.59-22.85-29.98-22.79-48.49.26-76.2 172.5-180.13 293.26-125.01 82.55 37.69 118.5 139.43 109.82 146.63z" fill="#152140"/><path d="M637.5 385.07c-.77.4-2.78-1.22-9.56-7.13l.02-.03c-5.3-4.65-13.49-11.91-26.25-22.95-19.13-16.53-30.8-26.22-37.33-31.9-5.45-4.77-7.38-6.79-7.1-7.74.47-1.73 7.98.6 17.95 5.83 6.78 3.59 14.75 8.55 22.36 14.5 10.89 8.53 20.2 18.4 27.09 27.04 9.48 11.88 14.44 21.54 12.82 22.38zM481.81 310.66c-1.4-3.31-19.37-1.04-34.11 8.34-20.26 12.9-30.22 36.59-27.21 39.03 1.45 1.17 5.36-3 27.6-20.06 26.78-20.53 34.73-24.93 33.72-27.31zM326.34 595.93s-.07-.07 0-.07c.85-1.55 1.69-3.1 2.61-4.65 5.21-8.87 11.62-16.83 18.94-25.14-8.45 2.96-15.63 8.87-21.13 15.99l-.42 13.87zM351.34 584.1c-7.32 8.31-13.67 16.27-18.88 25.14-1.41 2.25-2.68 4.58-3.87 6.97a74.02 74.02 0 0 1-1.06-5.42c-.28-1.9-.56-3.8-.7-5.78 5.78-9.29 14.23-17.25 24.51-20.91zM354.72 601.63c-7.32 8.31-13.73 16.27-18.94 25.14-.85 1.41-1.69 2.82-2.4 4.3-1.2-2.89-2.25-5.77-3.1-8.73 5.78-9.23 14.16-17.12 24.44-20.71zM358.24 614.24c-7.32 8.31-13.73 16.27-18.94 25.14-.35.56-.7 1.2-1.06 1.83-1.34-2.39-2.6-4.93-3.66-7.39 5.7-8.74 13.8-16.13 23.66-19.58zM360.99 626.42c-6.76 7.68-12.75 15.07-17.68 23.17-1.48-2.11-2.75-4.23-3.94-6.41 5.49-7.46 12.89-13.66 21.62-16.76zM366.06 638.89c-5.99 6.76-11.34 13.31-15.91 20.35a74.71 74.71 0 0 1-4.23-5.7c5.42-6.55 12.18-11.84 20.14-14.65zM371.27 654.59c-4.44 5.07-8.52 10-12.19 15.07-1.41-1.48-2.82-3.03-4.08-4.51 4.65-4.71 10.15-8.37 16.27-10.56zM378.81 661.85c-4.51 5.07-8.66 10.07-12.32 15.21-1.55-1.34-3.03-2.82-4.44-4.29 4.78-4.8 10.42-8.67 16.76-10.92zM389.02 664.24c-5.7 6.48-10.85 12.68-15.28 19.37-1.69-1.41-3.45-2.96-5.07-4.44 5.42-6.62 12.32-12.11 20.35-14.93zM403.38 670.23c-6.69 7.68-12.68 14.93-17.53 22.96-1.9-1.41-3.73-2.82-5.56-4.23 5.7-8.38 13.66-15.35 23.09-18.73zM394.65 699.17c4.86-8.03 10.85-15.28 17.54-22.89-9.65 3.38-17.61 10.49-23.38 19.01l5.84 3.88zM423.46 686.42c-6.06 6.83-11.41 13.45-15.99 20.56-2.04-1.13-4.01-2.25-5.91-3.45 5.56-7.67 13.09-13.94 21.9-17.11zM437.82 697.06c-5.35 6.06-10.14 11.9-14.37 18.03h-.07c-2.04-.92-4.09-1.9-6.06-2.89 5.36-6.76 12.41-12.25 20.5-15.14zM448.04 699.38c-5.78 6.62-11.06 12.89-15.5 19.72-2.18-.85-4.3-1.76-6.41-2.75 5.57-7.6 13.03-13.87 21.91-16.97zM462.4 705.44c-5.64 6.41-10.7 12.54-15.14 19.08-2.19-.63-4.44-1.41-6.55-2.25 5.49-7.53 12.89-13.73 21.69-16.83zM471.21 711.43c-4.86 5.49-9.3 10.84-13.24 16.48-2.25-.63-4.5-1.27-6.69-2.04 5.28-6.49 12.11-11.7 19.93-14.44zM478.81 715.65c-2.53 5.35-4.93 10.49-6.9 15.71-1.97-.42-3.88-.85-5.85-1.34 3.17-5.64 7.47-10.64 12.75-14.37zM493.32 716.07c-2.11 6.2-4.01 12.18-5.42 18.1-2.11-.28-4.15-.56-6.2-.92 2.61-6.54 6.41-12.53 11.62-17.18zM503.67 714.31c-2.47 7.18-4.58 14.08-6.13 20.99-2.18-.21-4.37-.42-6.55-.7 2.47-7.75 6.7-14.94 12.68-20.29zM519.31 714.45c-2.53 7.47-4.79 14.51-6.34 21.62-2.25 0-4.51-.07-6.76-.21 2.53-8.17 6.83-15.77 13.1-21.41zM529.66 716.64c-2.25 6.62-4.23 12.96-5.7 19.3-2.11.14-4.23.21-6.34.21h-.35c2.46-7.47 6.62-14.3 12.39-19.51zM542.13 717.55c-.85 5.85-1.48 11.48-1.83 17.04-2.04.28-4.09.49-6.13.63 1.4-6.4 4.01-12.46 7.96-17.67zM554.31 711.85a194.58 194.58 0 0 0-1.34 20.78c-2.18.42-4.3.77-6.48 1.13.78-7.9 3.31-15.57 7.82-21.91zM564.03 707.83c-.84 7.89-1.41 15.35-1.34 22.75-2.18.49-4.44.99-6.69 1.41.56-8.59 3.1-17.18 8.03-24.16zM579.31 704.52c-.85 7.6-1.41 14.72-1.41 21.83-2.18.7-4.44 1.34-6.62 1.97.56-8.51 3.1-16.89 8.03-23.8zM589.95 704.38c-.7 6.34-1.2 12.32-1.34 18.24-2.11.85-4.23 1.55-6.34 2.25.91-7.39 3.38-14.5 7.68-20.49zM603.33 716.57c-1.83.84-3.59 1.62-5.42 2.32.28-5.92 1.62-11.76 4.23-17.11.27 5.14.62 10 1.19 14.79zM713.9 584.03c-2.11-3.59-4.29-6.97-6.76-10.28-5.99-8.45-13.1-15.7-21.13-23.38 10.84 2.82 20.21 10.21 26.83 19.23.14.14.21.35.35.49v.07c.71 5.13.99 9.43.71 13.87zM713.19 591.21c.07 0 0 .07 0 .07 0 .21 0 .49-.07.77-.5 3.03-1.06 5.99-1.91 9.01-1.83-3.1-3.8-6.13-5.91-9.09-5.99-8.38-13.1-15.7-21.13-23.31 10.85 2.75 20.14 10.14 26.83 19.16.78 1.14 1.56 2.26 2.19 3.39zM706.99 614.8v-.07c-1.13-1.69-2.25-3.38-3.45-5-5.99-8.38-13.1-15.7-21.13-23.31 10.85 2.75 20.21 10.14 26.83 19.23.21.28.42.56.56.85l-2.81 8.3zM705.93 617.34c-.91 2.54-2.04 5-3.24 7.54-.49-.78-.98-1.48-1.55-2.25-5.99-8.38-13.03-15.7-21.13-23.31 10.36 2.59 19.45 9.5 25.92 18.02zM701.78 626.63c-6.27-7.04-14.3-12.61-23.38-14.93 7.47 7.11 14.16 13.94 19.86 21.62l3.52-6.69zM695.87 637.41c-1.2 1.97-2.47 4.01-3.73 5.99-5.14-6.55-11.06-12.61-17.61-18.8 8.1 2.03 15.42 6.75 21.34 12.81zM687.77 649.52c-1.2 1.69-2.4 3.31-3.73 4.86-4.01-4.65-8.45-9.16-13.31-13.73 6.26 1.62 12.03 4.72 17.04 8.87zM681.29 657.76c-1.2 1.62-2.53 3.17-3.94 4.65-4.09-4.72-8.59-9.23-13.45-13.8 6.4 1.62 12.32 4.86 17.39 9.15zM675.3 664.66c-1.41 1.69-2.96 3.31-4.58 4.93-5-6.13-10.63-11.9-16.83-17.75 8.17 2.05 15.43 6.77 21.41 12.82zM664.67 675.51c-6.34-7.75-14.79-13.87-24.51-16.34 7.32 6.9 13.8 13.59 19.37 21.06l5.14-4.72zM656.78 682.62c-6.41-7.89-15-14.23-24.86-16.69 7.39 6.9 13.87 13.59 19.44 21.13l5.42-4.44zM644.95 692.06c-1.83 1.34-3.73 2.68-5.64 4.01-5.14-6.62-11.06-12.68-17.68-18.94 9.02 2.32 17.05 7.89 23.32 14.93zM633.26 700.16c-1.69 1.13-3.45 2.18-5.21 3.24-3.38-5.21-7.18-10.28-11.34-15.56.07.07.21.07.28.14 1.76.7 3.38 1.62 5 2.61 4.22 2.52 8.03 5.83 11.27 9.57zM620.02 708.12c-1.69.99-3.45 1.9-5.21 2.75-3.03-4.51-6.34-8.87-9.93-13.45 5.77 2.38 10.84 6.12 15.14 10.7z" fill="#152140"/><path d="m453.5 374.37 3.91 1.17 3.69 1.58 3.48 2.01 3.31 2.46 3.02 2.77 2.81 3.14 2.62 3.52 2.41 3.92 2.7 5.48 2.28 6.03 1.83 6.61 1.27 6.76.76 7.15.22 7.6-.34 7.58-.94 7.83-1.56 8.09-2.14 7.96-2.59 7.44-3.02 6.97-3.52 6.73-3.82 6.1-4.1 5.52-4.55 5.14-4.69 4.42-4.83 3.74-3.89 2.47-3.89 2.02-3.9 1.58-3.93 1.17-4.05.76-4.02.28-4-.19-4.03-.66-3.91-1.17-3.68-1.59-3.49-2.01-3.31-2.45-3.02-2.78-2.81-3.13-2.61-3.52-2.42-3.93-2.7-5.48-2.28-6.02-1.83-6.62-1.27-6.76-.76-7.15-.22-7.59.35-7.59.93-7.83 1.56-8.09 2.15-7.95 2.58-7.45 3.02-6.97 3.53-6.73 3.81-6.1 4.11-5.51 4.54-5.15 4.69-4.41 4.83-3.74 3.89-2.48 3.89-2.01 3.91-1.59 3.93-1.17 4.04-.76 4.02-.28 4.01.19 4.02.67z" fill="#fff" fill-opacity=".4" stroke="#0f0f0f" stroke-opacity=".4" stroke-width="6"/><path d="M467.24 415.26c0 6.83-5.54 12.37-12.37 12.37-6.83 0-12.37-5.54-12.37-12.37 0-6.83 5.54-12.37 12.37-12.37 6.83 0 12.37 5.54 12.37 12.37z" fill="#152140"/><path d="M463.94 410.39c0 1.86-1.51 3.37-3.37 3.37s-3.37-1.51-3.37-3.37 1.51-3.37 3.37-3.37 3.37 1.51 3.37 3.37z" fill="#fff"/><path d="m635.53 418.74 3.18 6.39 2.76 6.33 2.35 6.26 1.94 6.21 1.63 6.38 1.22 6.19.83 6 .45 5.84.09 5.94-.29 5.63-.65 5.33-.99 5.07-1.41 5.04-1.76 4.63-2.09 4.26-2.41 3.92-2.83 3.66-3.16 3.22-3.5 2.79-3.87 2.4-4.14 1.87-4.28 1.35-4.42.83-4.62.31-4.6-.18-4.7-.64-4.82-1.12-4.98-1.64-4.76-2-4.79-2.43-4.83-2.9-4.88-3.39-4.6-3.63-4.52-4.04-4.46-4.46-4.39-4.9-4.07-5.08-3.89-5.44-3.72-5.81-3.53-6.21-3.18-6.39-2.76-6.33-2.35-6.26-1.94-6.21-1.63-6.38-1.22-6.18-.83-6.01-.45-5.84-.09-5.94.29-5.63.65-5.33.99-5.07 1.41-5.04 1.76-4.63 2.09-4.26 2.41-3.92 2.83-3.66 3.16-3.21 3.5-2.8 3.87-2.4 4.14-1.87 4.28-1.35 4.42-.83 4.62-.31 4.6.18 4.7.64 4.82 1.13 4.98 1.63 4.76 2 4.79 2.43 4.83 2.9 4.88 3.39 4.6 3.63 4.52 4.04 4.46 4.46 4.39 4.9 4.07 5.08 3.89 5.44 3.72 5.81 3.53 6.21z" fill="#fff" fill-opacity=".4" stroke="#0f0f0f" stroke-opacity=".4" stroke-width="6"/><path d="M611.55 402.89c0 6.83-5.54 12.37-12.37 12.37-6.83 0-12.37-5.54-12.37-12.37 0-6.83 5.54-12.37 12.37-12.37 6.83 0 12.37 5.54 12.37 12.37z" fill="#152140"/><path d="M608.24 398.01c0 1.86-1.51 3.37-3.37 3.37s-3.37-1.51-3.37-3.37 1.51-3.37 3.37-3.37 3.37 1.51 3.37 3.37z" fill="#fff"/><path d="M612.71 646.78c-1.51.84-3.08 1.46-4.76 1.79-8.18 1.85-17.77-1.96-26.34-5.38l-.84-.28c-11.94-4.76-24.16-9.3-36.82-13.68-2.91-1.01-5.89-2.02-8.91-3.03-6.95-2.35-14.01-4.65-21.3-6.89 31.95-17.21 71.91-19.56 94.22-12.78.11.06.28.06.39.11 7.9 2.41 13.34 6 15.3 10.09 4.3 8.86-1.47 24.61-10.94 30.05z" fill="#dd5543"/><path d="M608.05 608.44v.9c0 9.3-7.57 16.87-16.87 16.87h-74.32c-3.19-1.01-6.44-2.02-9.7-3.03-.05.06-.11.06-.17.11a16.957 16.957 0 0 1-4.15-4.04c.84-.5 1.63-1.01 2.47-1.51a40.6 40.6 0 0 1 2.91-1.74c32-18.44 72.97-21.8 97.64-15.86 1.06 1.91 1.8 4.09 2.07 6.39.07.62.12 1.29.12 1.91zM608.05 646.1v.9c0 .5 0 1.06-.11 1.57-.17 2.13-.73 4.15-1.68 5.94-9.03.95-18.61-2.86-26.74-6.11l-.79-.28c-16.81-6.67-34.13-12.89-52.57-18.89h65.02c9.31 0 16.87 7.57 16.87 16.87z" fill="#fff"/><path d="M628.68 614.27c-2.69-5.55-9.14-10.03-18.66-13a60.23 60.23 0 0 0-4.15-1.12c-24.66-5.94-65.63-2.58-97.64 15.86-.95.5-1.96 1.12-2.91 1.74-.84.5-1.63 1.01-2.47 1.51-1.68 1.06-3.36 2.19-5.16 3.31-11.72 7.51-24.94 16.09-46.24 21.86-9.14 2.52-18.33 4.09-28.25 4.93-1.51.11-2.69 1.51-2.52 3.03.11 1.46 1.35 2.58 2.75 2.58h.28c10.2-.9 19.79-2.52 29.2-5.1 22.14-6.05 36.38-15.24 47.81-22.59 2.19-1.4 4.26-2.75 6.28-3.98.06-.06.11-.06.17-.11 3.25 1.01 6.5 2.02 9.7 3.03 3.14 1.01 6.22 2.02 9.3 3.03 18.44 6 35.76 12.22 52.57 18.89l.79.28c8.13 3.25 17.71 7.06 26.74 6.11a22.51 22.51 0 0 0 9.19-2.86c12.16-6.97 18.83-25.8 13.22-37.4zm-15.97 32.51c-1.51.84-3.08 1.46-4.76 1.79-8.18 1.85-17.77-1.96-26.34-5.38l-.84-.28c-11.94-4.76-24.16-9.3-36.82-13.68-2.91-1.01-5.89-2.02-8.91-3.03-6.95-2.35-14.01-4.65-21.3-6.89 31.95-17.21 71.91-19.56 94.22-12.78.11.06.28.06.39.11 7.9 2.41 13.34 6 15.3 10.09 4.3 8.86-1.47 24.61-10.94 30.05z" fill="#152140"/><path d="M883.4 865.38a492.11 492.11 0 0 1-45.4 42.37c-8.52 7.01-17.15 13.68-26.12 20.12-33.91 24.55-71.01 44.95-110.53 60.7-24.21 9.58-49.38 17.43-75.27 23.26-36.54 8.24-74.54 12.67-113.61 12.67-8.52 0-17.09-.22-25.45-.67-9.19-.45-18.33-1.06-27.29-2.07-20.68-2.07-40.97-5.38-60.81-9.92a501.138 501.138 0 0 1-75.27-23.32c-14.68-5.83-29.09-12.33-43.1-19.5a505.007 505.007 0 0 1-69.39-42.71c-25-18.22-48.26-38.62-69.56-60.92 47.53-30.99 116.25-55.6 197.35-70.28 3.81-.67 7.62-1.35 11.49-2.02 11.94 21.07 35.42 39.06 65.97 51.39 27.35 11.04 60.48 17.49 96.06 17.49 35.65 0 68.77-6.45 96.12-17.49 30.54-12.33 54.03-30.32 65.97-51.39 3.87.67 7.68 1.34 11.49 2.02 81.16 14.67 149.82 39.28 197.35 70.27z" fill="#799b51"/><path d="M701.35 988.57c-24.21 9.58-49.38 17.43-75.27 23.26-36.54 8.24-74.54 12.67-113.61 12.67-8.52 0-17.09-.22-25.45-.67-9.19-.45-18.33-1.06-27.29-2.07-20.68-2.07-40.97-5.38-60.81-9.92a501.138 501.138 0 0 1-75.27-23.32c6-5.04 11.94-10.54 17.65-16.25 36.83-36.82 61.2-79.25 70.62-117.81.9-3.36 1.57-6.67 2.19-9.98h2.3c27.35 11.04 60.48 17.49 96.06 17.49 35.65 0 68.77-6.45 96.12-17.49h2.13c.62 3.31 1.34 6.67 2.24 10.03 9.53 38.56 33.85 80.88 70.73 117.75 5.73 5.72 11.66 11.21 17.66 16.31z" fill="#94b46c"/><path d="M674.56 793.08c-11.94 21.07-35.42 39.06-65.97 51.39-27.35 11.04-60.48 17.49-96.12 17.49-35.59 0-68.71-6.45-96.06-17.49-30.55-12.33-54.03-30.32-65.97-51.39-3.87.67-7.68 1.34-11.49 2.02 12.67 24.49 38.78 45.4 72.97 59.35 28.81 11.83 63.39 18.72 100.55 18.72s71.74-6.9 100.5-18.66c34.24-13.96 60.42-34.86 73.09-59.41-3.82-.67-7.63-1.35-11.5-2.02z" fill="#e0f2c7"/><path d="m528.5 585.98-10.7-2.07c-26.84-5.18-44.39-31.14-39.21-57.97l1.74-9.02c3.05-15.77 18.3-26.09 34.07-23.04l11.2 2.16c29.19 5.64 48.28 33.88 42.63 63.07-3.55 18.4-21.34 30.43-39.73 26.87z" fill="url(#a)"/></svg>