<?xml version="1.0" standalone="no"?><!DOCTYPE svg PUBLIC "-//W3C//DTD SVG 1.1//EN" "http://www.w3.org/Graphics/SVG/1.1/DTD/svg11.dtd"><svg height="1024" node-id="1" sillyvg="true" template-height="1024" template-width="1024" version="1.1" viewBox="0 0 1024 1024" width="1024" xmlns="http://www.w3.org/2000/svg" xmlns:xlink="http://www.w3.org/1999/xlink"><defs node-id="57"><linearGradient gradientUnits="userSpaceOnUse" id="SVGID_1_" node-id="14" spreadMethod="pad" x1="530.4201" x2="530.4201" y1="778.8854" y2="602.9269"><stop offset="0" stop-color="#e9705e" stop-opacity="0.8"></stop><stop offset="0.6685" stop-color="#ff9f8e" stop-opacity="0"></stop></linearGradient><linearGradient gradientUnits="userSpaceOnUse" id="SVGID_2_" node-id="52" spreadMethod="pad" x1="568.5554" x2="481.3489" y1="570.0708" y2="519.7222"><stop offset="0.2403" stop-color="#dd5543" stop-opacity="0"></stop><stop offset="1" stop-color="#dd5543" stop-opacity="0.6"></stop></linearGradient></defs><g node-id="185"><path d="M 1024.50 512.44 C 1024.50 637.31 979.83 751.88 905.40 840.77 C 898.39 849.23 891.05 857.42 883.49 865.38 C 877.55 871.66 871.49 877.77 865.22 883.60 C 856.48 892.06 847.40 900.08 838.04 907.76 C 832.72 912.13 827.34 916.34 821.96 920.48 C 821.12 921.10 820.33 921.66 819.61 922.27 C 818.82 922.89 817.98 923.45 817.25 924.01 C 815.46 925.30 813.66 926.59 811.93 927.88 C 790.41 943.52 767.54 957.47 743.50 969.52 C 741.65 970.53 739.80 971.43 737.90 972.32 C 731.17 975.63 724.39 978.77 717.50 981.74 C 659.04 1007.41 594.76 1022.37 527.27 1024.28 C 526.32 1024.34 525.25 1024.34 524.24 1024.34 C 523.18 1024.40 522.11 1024.40 521.16 1024.40 C 519.31 1024.46 517.46 1024.51 515.66 1024.46 C 515.44 1024.52 515.21 1024.52 514.99 1024.52 L 509.39 1024.52 C 508.21 1024.52 506.92 1024.52 505.63 1024.46 C 502.38 1024.46 499.02 1024.35 495.82 1024.24 C 494.76 1024.24 493.64 1024.18 492.57 1024.13 C 491.61 1024.07 490.55 1024.02 489.54 1023.96 C 488.70 1023.96 487.86 1023.91 487.07 1023.85 C 477.82 1023.40 468.74 1022.78 459.72 1021.78 C 408.83 1016.68 360.18 1003.96 314.83 984.90 C 305.47 980.98 296.22 976.77 287.15 972.29 C 285.30 971.45 283.39 970.50 281.55 969.54 C 281.21 969.37 280.88 969.20 280.59 969.04 C 256.21 956.71 233.01 942.36 211.26 926.33 C 210.14 925.55 209.13 924.76 208.01 923.92 C 207.17 923.36 206.38 922.80 205.66 922.18 C 204.82 921.62 204.14 921.00 203.30 920.39 C 190.75 910.92 178.70 900.89 167.09 890.29 C 158.29 882.33 149.83 874.04 141.64 865.40 C 133.63 856.99 125.95 848.36 118.55 839.39 C 44.83 750.82 0.50 636.82 0.50 512.44 C 0.50 229.68 229.74 0.50 512.50 0.50 C 795.32 0.50 1024.50 229.68 1024.50 512.44 Z" fill="#756eff" fill-rule="nonzero" group-id="1" node-id="74" stroke="none" target-height="1024.02" target-width="1024" target-x="0.5" target-y="0.5"></path></g><path d="M 659.79 945.30 C 645.78 936.72 623.42 925.51 593.93 920.64 C 582.38 918.74 559.57 915.20 530.88 921.43 C 501.68 927.82 480.89 941.16 469.51 949.73 C 410.60 907.58 380.73 855.23 394.35 820.43 C 396.93 813.87 401.75 806.14 411.28 798.63 C 412.40 784.56 412.68 768.53 411.28 750.93 C 411.22 750.20 411.17 749.42 411.06 748.69 C 409.77 733.11 407.30 718.82 404.28 705.87 C 404.17 705.48 404.11 705.03 404.00 704.64 L 404.00 704.58 C 400.69 690.63 396.66 678.29 392.74 667.70 C 471.66 659.63 550.57 651.56 629.49 643.49 C 625.68 654.64 621.03 669.16 616.38 686.42 C 614.48 693.48 612.57 701.05 610.66 709.01 C 610.49 709.80 610.27 710.58 610.10 711.36 C 603.54 739.55 601.47 756.48 601.19 766.96 C 600.97 776.04 602.08 780.30 602.82 782.88 C 611.34 811.18 637.06 828.28 656.18 837.41 C 657.33 873.34 658.56 909.32 659.79 945.30 Z" fill="#ff9f8e" fill-rule="nonzero" node-id="77" stroke="none" target-height="306.24" target-width="279.05997" target-x="380.73" target-y="643.49"></path><path d="M 616.36 686.42 C 614.46 693.48 612.55 701.05 610.64 709.01 C 610.47 709.80 610.25 710.58 610.08 711.36 C 603.52 739.55 601.45 756.48 601.17 766.96 C 586.60 773.52 575.95 776.77 573.37 777.55 C 555.77 782.76 532.29 789.71 501.80 786.85 C 467.16 783.60 436.33 769.03 411.06 748.68 C 409.77 733.10 407.30 718.81 404.28 705.86 C 475.00 699.42 545.68 692.92 616.36 686.42 Z" fill="#f5575d" fill-rule="nonzero" node-id="79" stroke="none" target-height="103.29004" target-width="212.07999" target-x="404.28" target-y="686.42"></path><path d="M 278.94 485.98 L 283.03 486.81 L 286.88 488.18 L 290.54 490.11 L 294.03 492.63 L 297.18 495.54 L 300.10 498.90 L 302.79 502.74 L 305.26 507.12 L 307.30 511.63 L 309.03 516.48 L 310.46 521.72 L 311.55 527.36 L 312.23 532.98 L 312.52 538.83 L 312.40 544.91 L 311.87 551.25 L 310.87 557.53 L 309.53 563.47 L 307.86 569.07 L 305.85 574.37 L 303.44 579.59 L 300.81 584.33 L 297.96 588.63 L 294.90 592.52 L 291.46 596.18 L 287.92 599.27 L 284.29 601.83 L 280.54 603.91 L 276.54 605.52 L 272.53 606.51 L 268.46 606.93 L 264.30 606.75 L 260.21 605.93 L 256.36 604.55 L 252.70 602.63 L 249.21 600.11 L 246.06 597.20 L 243.15 593.84 L 240.45 589.99 L 237.99 585.61 L 235.94 581.11 L 234.21 576.25 L 232.78 571.02 L 231.69 565.37 L 231.01 559.75 L 230.72 553.91 L 230.84 547.83 L 231.38 541.49 L 232.37 535.20 L 233.71 529.27 L 235.39 523.66 L 237.39 518.36 L 239.80 513.15 L 242.44 508.41 L 245.28 504.11 L 248.34 500.22 L 251.79 496.56 L 255.32 493.46 L 258.96 490.90 L 262.70 488.83 L 266.70 487.22 L 270.72 486.22 L 274.78 485.81 L 278.94 485.98 Z" fill="#ff9f8e" fill-rule="nonzero" group-id="2" node-id="83" stroke="none" target-height="121.119995" target-width="81.79999" target-x="230.72" target-y="485.81"></path><path d="M 300.35 565.25 C 295.71 551.86 287.42 538.96 274.97 531.65 C 271.95 529.88 268.90 528.20 265.39 527.09 C 261.98 525.96 257.74 525.84 254.47 527.85 C 247.94 532.09 246.80 540.05 247.23 546.60 C 247.39 540.02 249.73 532.51 255.47 529.74 C 261.30 527.14 267.40 531.46 272.61 535.23 C 283.11 543.00 289.21 555.18 292.14 567.67 C 292.68 569.97 294.99 571.40 297.29 570.86 C 299.59 570.32 301.03 568.01 300.49 565.71 C 300.45 565.56 300.40 565.38 300.35 565.25 Z" fill="#152140" fill-rule="nonzero" node-id="86" stroke="none" target-height="45.559998" target-width="54.229996" target-x="246.8" target-y="525.84"></path><path d="M 824.13 539.87 C 824.13 575.86 802.01 605.04 774.73 605.04 C 747.45 605.04 725.33 575.86 725.33 539.87 C 725.33 503.88 747.45 474.70 774.73 474.70 C 802.01 474.70 824.13 503.88 824.13 539.87 Z" fill="#ff9f8e" fill-rule="nonzero" node-id="88" stroke="none" target-height="130.33997" target-width="98.79999" target-x="725.33" target-y="474.7"></path><path d="M 738.65 562.30 C 742.38 547.58 750.06 533.06 762.68 524.13 C 765.74 521.97 768.85 519.90 772.49 518.39 C 776.03 516.87 780.54 516.36 784.22 518.21 C 791.58 522.14 793.52 530.54 793.65 537.57 C 792.88 530.56 789.70 522.76 783.32 520.32 C 776.86 518.08 770.74 523.24 765.53 527.73 C 755.03 536.98 749.62 550.54 747.64 564.14 C 747.27 566.65 744.94 568.38 742.43 568.02 C 739.92 567.65 738.18 565.32 738.55 562.81 C 738.58 562.64 738.61 562.45 738.65 562.30 Z" fill="#152140" fill-rule="nonzero" node-id="90" stroke="none" target-height="52.02002" target-width="55.47003" target-x="738.18" target-y="516.36"></path><path d="M 728.91 483.64 C 735.26 477.73 749.10 463.20 754.94 439.94 C 758.77 424.68 757.67 411.62 756.34 403.68 C 757.72 403.50 762.08 402.76 765.64 399.03 C 770.48 393.96 769.92 387.46 769.82 386.48 C 770.60 386.54 779.09 387.10 781.91 382.30 C 785.31 376.50 777.72 367.55 776.80 366.49 C 768.12 356.49 757.82 359.65 744.72 352.08 C 739.15 348.86 731.93 343.04 725.66 331.62 C 739.89 332.48 751.91 332.40 760.99 332.09 C 780.10 331.42 787.19 329.67 789.81 324.65 C 791.35 321.69 790.95 318.35 790.28 315.82 C 786.88 317.16 781.77 318.90 775.40 320.00 C 749.11 324.55 731.11 313.07 714.03 309.31 C 698.62 305.91 675.98 307.02 644.29 326.98 C 645.77 322.03 648.72 314.75 654.98 308.38 C 663.42 299.81 674.53 296.29 701.01 293.97 C 716.22 292.64 736.97 291.66 761.92 293.04 C 756.89 290.56 749.79 287.43 741.00 284.67 C 728.64 280.80 710.61 275.15 688.93 278.63 C 671.69 281.39 658.22 288.95 648.95 295.83 C 653.61 288.96 660.87 280.19 671.73 272.58 C 698.32 253.96 727.30 255.76 736.82 256.77 C 732.52 253.88 727.42 251.21 721.48 249.33 C 692.73 240.23 666.01 256.40 659.65 260.49 C 665.78 252.11 675.05 242.19 688.48 234.46 C 697.08 229.50 714.30 219.57 736.36 222.84 C 749.16 224.73 758.58 230.32 763.79 234.00 C 761.08 226.38 757.19 221.68 753.56 218.66 C 731.75 200.51 686.16 215.47 660.11 240.05 C 648.77 250.75 642.13 262.32 638.26 270.73 C 637.79 252.94 632.31 242.15 628.50 236.33 C 601.18 194.59 520.32 195.31 473.22 210.76 C 458.83 215.48 444.36 219.96 429.98 224.71 C 394.56 236.40 387.55 239.36 376.52 236.80 C 357.40 232.36 343.93 215.45 339.79 219.13 C 337.47 221.20 340.93 227.22 338.39 228.89 C 335.78 230.61 328.45 226.66 325.37 220.52 C 322.09 213.98 324.88 207.47 323.51 207.04 C 321.94 206.55 316.49 214.62 314.68 223.78 C 313.74 228.55 312.19 241.68 323.98 259.11 C 319.21 262.07 315.85 261.79 314.22 261.43 C 305.65 259.55 301.03 245.90 302.13 235.39 C 303.15 225.63 309.00 219.72 308.18 219.12 C 307.08 218.32 295.16 227.95 290.05 241.44 C 281.62 263.66 295.34 286.55 298.88 292.12 C 291.90 295.15 287.58 293.59 286.33 293.05 C 278.26 289.59 273.74 275.88 278.89 260.04 C 273.95 267.87 268.17 279.92 270.99 292.59 C 276.50 317.39 310.14 322.63 309.12 339.08 C 308.44 349.96 292.94 360.57 280.29 359.07 C 263.53 357.08 256.01 334.31 254.72 321.41 C 253.59 310.10 256.72 300.90 258.90 295.84 C 255.09 299.40 249.79 305.34 246.35 313.97 C 238.57 333.45 243.21 359.22 257.51 369.76 C 277.03 384.14 312.73 368.77 312.84 369.29 C 312.93 369.75 284.60 373.12 262.63 391.61 C 259.35 394.37 251.11 401.76 252.87 405.56 C 255.31 410.81 275.41 405.94 276.12 408.82 C 276.75 411.37 260.99 415.44 261.24 420.91 C 261.42 424.68 269.02 424.90 274.72 431.14 C 281.26 438.30 280.06 447.66 280.77 454.39 C 281.83 464.49 288.21 478.41 312.38 494.37 C 451.20 490.77 590.05 487.20 728.91 483.64 Z" fill="#152140" fill-rule="nonzero" node-id="92" stroke="none" target-height="299.78" target-width="552.77997" target-x="238.57" target-y="194.59"></path><path d="M 362.56 326.03 C 344.98 345.78 335.41 380.69 317.00 449.70 C 299.44 515.51 290.70 548.94 292.82 575.23 C 293.45 583.09 299.34 646.01 343.03 696.11 C 423.51 788.41 596.66 796.38 686.14 712.85 C 728.41 673.39 740.72 624.03 745.65 603.13 C 776.93 470.51 692.52 350.59 648.98 299.37 C 634.55 282.39 614.63 271.09 592.64 267.44 C 558.83 261.84 515.36 260.04 467.63 272.11 C 435.03 280.35 393.98 290.73 362.56 326.03 Z" fill="#ff9f8e" fill-rule="nonzero" node-id="94" stroke="none" target-height="536.33997" target-width="486.22998" target-x="290.7" target-y="260.04"></path><path d="M 624.25 690.91 C 624.25 739.50 582.24 778.89 530.42 778.89 C 478.60 778.89 436.59 739.50 436.59 690.91 C 436.59 642.32 478.60 602.93 530.42 602.93 C 582.24 602.93 624.25 642.32 624.25 690.91 Z" fill="url(#SVGID_1_)" fill-rule="nonzero" node-id="96" stroke="none" target-height="175.96002" target-width="187.66" target-x="436.59" target-y="602.93"></path><path d="M 707.64 390.19 C 700.34 376.12 692.00 366.45 685.99 360.44 C 678.53 352.97 657.17 331.54 642.24 337.19 C 637.26 339.07 634.86 343.24 630.26 342.30 C 625.17 341.26 623.41 335.18 619.67 329.75 C 615.79 324.11 608.65 317.54 594.34 313.48 C 596.06 314.16 604.79 317.82 608.62 327.43 C 610.83 332.98 610.39 337.98 610.00 340.45 C 602.56 333.43 591.92 325.11 577.76 318.60 C 543.94 303.04 512.11 307.89 499.00 310.70 C 506.90 310.66 519.27 311.62 533.08 317.21 C 542.42 320.99 549.62 325.76 554.73 329.76 C 549.01 328.70 540.39 327.18 529.86 325.58 C 506.41 322.02 494.69 320.24 481.04 320.47 C 471.67 320.62 457.82 321.73 440.97 326.51 C 449.33 323.79 469.36 318.68 489.33 327.90 C 493.19 329.68 496.55 331.77 499.46 333.94 C 471.13 327.88 450.00 330.68 435.90 334.41 C 427.73 336.57 412.38 343.32 382.01 356.73 C 351.47 370.22 341.17 375.38 329.50 371.14 C 317.79 366.89 311.25 355.54 307.85 347.89 C 309.26 337.53 312.72 321.96 322.59 306.51 C 356.34 253.67 432.63 249.99 476.43 247.93 C 543.77 244.77 599.40 262.52 636.55 279.08 C 648.41 287.58 666.22 302.54 681.65 326.04 C 698.27 351.36 704.82 375.45 707.64 390.19 Z" fill="#152140" fill-rule="nonzero" node-id="98" stroke="none" target-height="145.42" target-width="399.79" target-x="307.85" target-y="244.77"></path><path d="M 905.40 840.77 C 898.39 849.23 891.05 857.42 883.49 865.38 C 877.55 871.66 871.49 877.77 865.22 883.60 C 856.48 892.06 847.40 900.08 838.04 907.76 C 832.72 912.13 827.34 916.34 821.96 920.48 C 821.12 921.10 820.33 921.66 819.61 922.27 C 818.82 922.89 817.98 923.45 817.25 924.01 C 815.46 925.30 813.66 926.59 811.93 927.88 C 790.41 943.52 767.54 957.47 743.50 969.52 C 741.65 970.53 739.80 971.43 737.90 972.32 C 731.17 975.63 724.39 978.77 717.50 981.74 C 659.04 1007.41 594.76 1022.37 527.27 1024.28 C 526.32 1024.34 525.25 1024.34 524.24 1024.34 C 523.18 1024.40 522.11 1024.40 521.16 1024.40 C 519.31 1024.46 517.46 1024.51 515.66 1024.46 C 515.44 1024.52 515.21 1024.52 514.99 1024.52 L 509.39 1024.52 C 508.21 1024.52 506.92 1024.52 505.63 1024.46 C 502.38 1024.46 499.02 1024.35 495.82 1024.24 C 494.76 1024.24 493.64 1024.18 492.57 1024.13 C 491.61 1024.07 490.55 1024.02 489.54 1023.96 C 488.70 1023.96 487.86 1023.91 487.07 1023.85 C 477.82 1023.40 468.74 1022.78 459.72 1021.78 C 408.83 1016.68 360.18 1003.96 314.83 984.90 C 305.47 980.98 296.22 976.77 287.15 972.29 C 285.30 971.45 283.39 970.50 281.55 969.54 C 281.21 969.37 280.88 969.20 280.59 969.04 C 256.21 956.71 233.01 942.36 211.26 926.33 C 210.14 925.55 209.13 924.76 208.01 923.92 C 207.17 923.36 206.38 922.80 205.66 922.18 C 204.82 921.62 204.14 921.00 203.30 920.39 C 190.75 910.92 178.70 900.89 167.09 890.29 C 158.29 882.33 149.83 874.04 141.64 865.40 C 133.63 856.99 125.95 848.36 118.55 839.39 C 133.29 830.20 149.38 822.86 167.09 817.08 C 206.94 803.91 255.14 798.30 314.83 795.89 C 344.20 794.66 376.32 794.21 411.63 794.04 L 412.30 794.04 C 412.08 795.39 411.85 796.79 411.85 798.19 C 411.85 826.61 457.75 849.64 514.36 849.64 C 558.64 849.64 596.25 835.52 610.54 815.79 C 612.50 813.10 614.97 810.91 617.77 809.46 C 620.57 808.00 623.71 807.33 627.02 807.55 C 649.61 809.23 677.97 810.97 714.57 812.71 C 715.58 812.77 716.53 812.82 717.48 812.82 C 780.98 815.85 828.29 817.02 865.22 825.82 C 880.18 829.34 893.46 834.10 905.40 840.77 Z" fill="#f5b316" fill-rule="nonzero" node-id="100" stroke="none" target-height="230.48004" target-width="786.85004" target-x="118.55" target-y="794.04"></path><path d="M 314.82 795.88 L 314.82 984.88 C 305.46 980.96 296.21 976.75 287.14 972.27 C 285.29 971.43 283.38 970.48 281.54 969.52 C 281.20 969.35 280.87 969.18 280.58 969.02 C 256.20 956.69 233.00 942.34 211.25 926.31 C 210.13 925.53 209.12 924.74 208.00 923.90 C 207.16 923.34 206.37 922.78 205.65 922.16 C 204.81 921.60 204.13 920.98 203.29 920.37 C 190.74 910.90 178.69 900.87 167.08 890.27 L 167.08 817.07 C 206.92 803.90 255.13 798.29 314.82 795.88 Z" fill="#005589" fill-rule="nonzero" node-id="102" stroke="none" target-height="189" target-width="147.74" target-x="167.08" target-y="795.88"></path><path d="M 865.21 825.81 L 865.21 883.60 C 856.47 892.06 847.39 900.08 838.03 907.76 C 832.71 912.13 827.33 916.34 821.95 920.48 C 821.11 921.10 820.32 921.66 819.60 922.27 C 818.81 922.89 817.97 923.45 817.24 924.01 C 815.45 925.30 813.65 926.59 811.92 927.88 C 790.40 943.52 767.53 957.47 743.49 969.52 C 741.64 970.53 739.79 971.43 737.89 972.32 C 731.16 975.63 724.38 978.77 717.49 981.74 L 717.49 812.81 C 780.97 815.83 828.28 817.01 865.21 825.81 Z" fill="#005589" fill-rule="nonzero" node-id="104" stroke="none" target-height="168.93" target-width="147.72003" target-x="717.49" target-y="812.81"></path><path d="M 510.20 479.66 C 497.09 518.33 461.77 541.26 431.28 530.94 C 400.84 520.57 386.78 480.83 399.95 442.16 C 408.30 417.61 425.56 399.39 444.90 392.05 C 452.13 389.25 459.58 388.01 466.98 388.57 C 469.16 389.75 471.35 391.04 473.59 392.38 C 478.64 395.52 483.68 398.99 488.55 402.75 C 494.44 407.35 499.82 412.22 504.47 417.04 C 504.52 417.04 504.52 417.10 504.52 417.10 C 506.65 419.23 508.61 421.36 510.35 423.38 C 512.42 428.82 513.83 434.65 514.55 440.81 C 516.03 453.09 514.69 466.43 510.20 479.66 Z" fill="#ffffff" fill-opacity="0.4" fill-rule="nonzero" group-id="3" node-id="108" stroke="none" target-height="153.25" target-width="129.25003" target-x="386.78" target-y="388.01"></path><path d="M 517.66 442.78 C 517.21 438.13 516.43 433.59 515.25 429.22 C 514.13 427.82 512.95 426.36 511.66 424.85 C 511.27 424.40 510.82 423.90 510.37 423.39 C 508.63 421.37 506.67 419.24 504.54 417.11 C 505.94 419.74 507.18 422.60 508.24 425.57 C 509.70 429.77 510.82 434.14 511.49 438.68 C 513.45 451.52 512.11 465.30 507.57 478.70 C 494.96 515.86 461.11 538.11 432.19 528.25 C 418.29 523.54 407.53 512.16 401.92 496.25 C 396.21 480.05 396.43 461.16 402.59 443.06 C 408.76 424.96 420.08 409.82 434.43 400.52 C 438.80 397.66 443.23 395.48 447.77 394.02 C 453.10 392.11 458.42 391.22 463.74 391.22 C 467.05 391.22 470.35 391.61 473.60 392.40 C 471.36 391.05 469.17 389.77 466.99 388.59 C 465.25 387.58 463.46 386.63 461.72 385.68 C 455.16 385.90 448.60 387.42 442.10 390.16 C 438.51 391.67 434.92 393.58 431.39 395.82 C 415.92 405.85 403.81 421.99 397.26 441.27 C 390.70 460.55 390.48 480.73 396.64 498.10 C 402.86 515.70 414.86 528.31 430.38 533.58 C 435.59 535.37 440.92 536.21 446.30 536.21 C 473.71 536.21 501.51 514.07 512.88 480.55 C 517.15 468.00 518.72 455.05 517.66 442.78 Z" fill="#0f0f0f" fill-opacity="0.4" fill-rule="nonzero" group-id="3" node-id="110" stroke="none" target-height="152.43" target-width="128.23996" target-x="390.48" target-y="385.68"></path><path d="M 471.86 534.35 L 471.97 535.81 L 471.73 537.31 L 471.09 538.90 L 469.99 540.63 L 468.20 542.66 L 465.77 544.79 L 462.56 547.04 L 459.19 549.00 L 455.27 550.94 L 450.74 552.84 L 446.13 554.48 L 441.12 555.97 L 435.69 557.30 L 430.20 558.35 L 425.03 559.07 L 420.15 559.49 L 415.24 559.65 L 410.87 559.51 L 406.99 559.13 L 403.14 558.42 L 400.04 557.49 L 397.57 556.39 L 395.85 555.27 L 394.61 554.09 L 393.76 552.82 L 393.26 551.46 L 393.15 550.00 L 393.40 548.50 L 394.03 546.91 L 395.13 545.18 L 396.92 543.15 L 399.35 541.02 L 402.56 538.77 L 405.93 536.81 L 409.85 534.87 L 414.38 532.97 L 418.99 531.33 L 424.00 529.84 L 429.43 528.51 L 434.92 527.46 L 440.09 526.74 L 444.97 526.31 L 449.88 526.16 L 454.25 526.30 L 458.14 526.68 L 461.99 527.39 L 465.09 528.32 L 467.55 529.42 L 469.27 530.54 L 470.51 531.72 L 471.36 532.99 L 471.86 534.35 Z" fill="#ff8777" fill-rule="nonzero" group-id="4" node-id="115" stroke="none" target-height="33.49005" target-width="78.82001" target-x="393.15" target-y="526.16"></path><path d="M 522.87 444.63 C 522.09 445.08 520.57 444.57 517.66 442.78 C 516.76 442.22 515.75 441.60 514.58 440.82 C 513.69 440.20 512.68 439.53 511.55 438.75 C 511.55 438.75 511.50 438.75 511.50 438.69 C 502.93 432.81 488.18 422.04 463.24 404.72 C 457.41 400.63 452.25 397.10 447.77 394.02 C 446.76 393.35 445.81 392.73 444.91 392.06 C 443.95 391.44 443.00 390.77 442.11 390.15 C 436.45 386.34 432.02 383.31 428.60 380.96 L 428.54 381.01 C 419.63 374.85 417.16 373.00 417.50 371.87 C 418.17 369.63 431.46 372.15 448.55 379.44 C 452.75 381.23 457.18 383.31 461.72 385.66 C 463.46 386.61 465.25 387.57 466.99 388.57 C 469.17 389.75 471.36 391.04 473.60 392.38 C 478.65 395.52 483.69 398.99 488.56 402.75 C 494.45 407.35 499.83 412.22 504.48 417.04 C 504.53 417.04 504.53 417.10 504.53 417.10 C 506.66 419.23 508.62 421.36 510.36 423.38 C 510.81 423.88 511.26 424.39 511.65 424.84 C 512.94 426.35 514.12 427.81 515.24 429.21 C 521.58 437.40 524.66 443.62 522.87 444.63 Z" fill="#152140" fill-rule="nonzero" group-id="5" node-id="120" stroke="none" target-height="75.44998" target-width="107.49997" target-x="417.16" target-y="369.63"></path><path d="M 470.41 459.26 C 470.41 466.36 464.66 472.11 457.56 472.11 C 450.46 472.11 444.71 466.36 444.71 459.26 C 444.71 452.16 450.46 446.41 457.56 446.41 C 464.66 446.41 470.41 452.16 470.41 459.26 Z" fill="#152140" fill-rule="nonzero" group-id="6,12" node-id="127" stroke="none" target-height="25.699982" target-width="25.700012" target-x="444.71" target-y="446.41"></path><path d="M 455.15 454.20 C 455.15 456.13 453.58 457.70 451.65 457.70 C 449.72 457.70 448.15 456.13 448.15 454.20 C 448.15 452.27 449.72 450.70 451.65 450.70 C 453.58 450.70 455.15 452.27 455.15 454.20 Z" fill="#ffffff" fill-rule="nonzero" group-id="6,13" node-id="132" stroke="none" target-height="7" target-width="7" target-x="448.15" target-y="450.7"></path><path d="M 635.47 477.47 C 624.48 516.82 595.00 542.99 569.61 535.87 C 544.22 528.81 532.51 491.14 543.49 451.85 C 544.44 448.49 545.51 445.18 546.74 441.99 C 548.81 436.50 551.22 431.34 553.97 426.58 C 555.48 425.80 557.00 425.01 558.62 424.28 C 564.39 421.53 570.73 418.84 577.45 416.66 C 593.25 411.50 609.51 409.04 622.96 408.25 C 623.74 408.19 624.59 408.14 625.37 408.14 C 626.55 408.08 627.67 408.03 628.73 407.97 C 630.86 411.00 632.71 414.42 634.17 418.17 C 640.68 434.03 641.58 455.50 635.47 477.47 Z" fill="#ffffff" fill-opacity="0.4" fill-rule="nonzero" group-id="7" node-id="138" stroke="none" target-height="135.01999" target-width="109.07001" target-x="532.51" target-y="407.97"></path><path d="M 638.72 422.54 C 638.16 420.80 637.60 419.12 636.93 417.50 C 635.53 414.02 633.96 410.83 632.11 407.91 C 631.05 407.91 629.92 407.97 628.75 407.97 C 627.69 408.03 626.56 408.08 625.39 408.14 C 627.80 411.22 629.82 414.87 631.50 418.90 C 632.17 420.58 632.79 422.32 633.35 424.17 C 638.17 439.58 637.95 458.19 632.79 476.74 C 622.25 514.52 594.23 539.85 570.35 533.18 C 546.47 526.51 535.66 490.36 546.19 452.58 C 547.31 448.60 548.60 444.73 550.11 441.03 C 552.52 434.98 555.38 429.37 558.63 424.27 C 557.01 425.00 555.49 425.78 553.98 426.57 C 552.41 427.35 550.90 428.20 549.49 428.98 C 547.19 433.35 545.17 438.00 543.38 442.88 C 542.43 445.52 541.59 448.26 540.80 451.06 C 529.42 491.81 541.98 531.10 568.82 538.55 C 571.85 539.39 574.93 539.84 578.01 539.84 C 590.23 539.84 602.73 533.51 613.43 522.58 C 624.19 511.71 633.10 496.29 638.15 478.24 C 643.60 458.69 643.82 438.91 638.72 422.54 Z" fill="#0f0f0f" fill-opacity="0.4" fill-rule="nonzero" group-id="7" node-id="140" stroke="none" target-height="131.93997" target-width="114.400024" target-x="529.42" target-y="407.91"></path><path d="M 598.36 535.06 L 603.79 536.39 L 608.80 537.88 L 613.42 539.52 L 617.95 541.42 L 621.87 543.36 L 625.24 545.32 L 628.44 547.57 L 630.88 549.70 L 632.66 551.73 L 633.76 553.46 L 634.40 555.05 L 634.64 556.55 L 634.53 558.01 L 634.03 559.37 L 633.18 560.64 L 631.94 561.82 L 630.22 562.94 L 627.76 564.04 L 624.66 564.97 L 620.81 565.68 L 616.93 566.06 L 612.56 566.20 L 607.64 566.05 L 602.77 565.62 L 597.59 564.90 L 592.10 563.85 L 586.67 562.52 L 581.66 561.03 L 577.05 559.39 L 572.52 557.49 L 568.60 555.55 L 565.23 553.59 L 562.02 551.34 L 559.59 549.21 L 557.80 547.18 L 556.70 545.45 L 556.07 543.86 L 555.82 542.36 L 555.93 540.90 L 556.44 539.54 L 557.28 538.27 L 558.52 537.09 L 560.24 535.97 L 562.71 534.87 L 565.81 533.94 L 569.66 533.23 L 573.54 532.85 L 577.91 532.71 L 582.82 532.87 L 587.70 533.29 L 592.87 534.01 L 598.36 535.06 Z" fill="#ff8777" fill-rule="nonzero" group-id="8" node-id="145" stroke="none" target-height="33.48999" target-width="78.82001" target-x="555.82" target-y="532.71"></path><path d="M 654.75 411.61 C 654.69 412.73 651.78 413.63 641.30 416.43 L 641.25 416.37 C 639.96 416.71 638.50 417.10 636.93 417.49 C 636.09 417.71 635.14 417.94 634.19 418.16 C 633.29 418.44 632.45 418.66 631.50 418.89 C 623.82 420.91 613.79 423.54 600.67 427.07 C 576.74 433.51 560.65 438.11 550.12 441.02 C 548.89 441.41 547.77 441.69 546.76 441.97 C 545.64 442.31 544.63 442.53 543.68 442.81 C 543.57 442.81 543.46 442.87 543.40 442.87 C 535.16 445.00 531.91 445.56 531.01 444.50 C 529.50 442.71 536.56 436.37 548.27 429.65 C 548.66 429.43 549.05 429.20 549.50 428.98 C 550.90 428.20 552.41 427.35 553.99 426.57 C 555.50 425.79 557.02 425.00 558.64 424.27 C 564.41 421.52 570.75 418.83 577.47 416.65 C 593.27 411.49 609.53 409.03 622.98 408.24 C 623.76 408.18 624.61 408.13 625.39 408.13 C 626.57 408.07 627.69 408.02 628.75 407.96 C 629.93 407.96 631.05 407.90 632.11 407.90 C 645.73 407.86 654.86 409.60 654.75 411.61 Z" fill="#152140" fill-rule="nonzero" group-id="9" node-id="150" stroke="none" target-height="37.700012" target-width="125.359985" target-x="529.5" target-y="407.86"></path><path d="M 602.21 470.89 C 602.21 477.99 596.46 483.74 589.36 483.74 C 582.26 483.74 576.51 477.99 576.51 470.89 C 576.51 463.79 582.26 458.04 589.36 458.04 C 596.46 458.04 602.21 463.79 602.21 470.89 Z" fill="#152140" fill-rule="nonzero" group-id="10,14" node-id="157" stroke="none" target-height="25.699982" target-width="25.700012" target-x="576.51" target-y="458.04"></path><path d="M 598.78 465.83 C 598.78 467.76 597.21 469.33 595.28 469.33 C 593.35 469.33 591.78 467.76 591.78 465.83 C 591.78 463.90 593.35 462.33 595.28 462.33 C 597.21 462.33 598.78 463.90 598.78 465.83 Z" fill="#ffffff" fill-rule="nonzero" group-id="10,15" node-id="162" stroke="none" target-height="7" target-width="7" target-x="591.78" target-y="462.33"></path><path d="M 545.32 601.75 C 567.92 611.21 583.50 629.74 585.99 650.51 C 588.68 672.98 575.21 689.67 572.52 693.09 C 553.53 716.75 518.90 723.25 492.42 712.67 C 489.73 711.62 457.92 698.41 453.72 670.55 C 451.55 656.09 457.66 643.94 462.59 634.21 C 467.39 624.75 473.23 617.32 478.75 611.67" fill="#dd5543" fill-rule="nonzero" node-id="166" stroke="none" target-height="121.5" target-width="137.13" target-x="451.55" target-y="601.75"></path><path d="M 450.09 700.14 C 445.07 711.46 443.30 720.69 442.64 727.21 C 442.33 730.29 442.09 734.50 440.28 740.11 C 438.19 746.57 436.02 753.30 430.29 755.01 C 425.82 756.35 420.19 754.32 417.39 750.47 C 413.57 745.21 416.11 738.04 417.75 733.39 C 424.03 715.62 440.73 705.04 450.09 700.14 Z" fill="#ffffff" fill-rule="nonzero" node-id="168" stroke="none" target-height="56.20996" target-width="36.51999" target-x="413.57" target-y="700.14"></path><path d="M 595.01 683.80 C 601.53 689.20 605.43 694.30 607.82 698.09 C 608.95 699.88 610.38 702.38 613.20 705.26 C 616.45 708.57 619.83 712.03 623.86 711.33 C 627.00 710.78 629.83 707.83 630.37 704.62 C 631.10 700.24 627.36 696.62 624.94 694.28 C 615.68 685.32 602.23 683.94 595.01 683.80 Z" fill="#ffffff" fill-rule="nonzero" node-id="170" stroke="none" target-height="28.230042" target-width="36.089966" target-x="595.01" target-y="683.8"></path><path d="M 519.94 603.84 C 517.59 604.06 515.59 605.68 514.98 607.95 C 513.87 612.07 512.87 616.46 512.05 621.10 C 508.68 640.16 509.45 657.03 511.32 670.16 C 512.97 658.48 514.95 646.35 517.32 633.82 C 519.30 623.34 521.44 613.22 523.68 603.48 L 519.94 603.84 Z" fill="#ffffff" fill-rule="nonzero" node-id="172" stroke="none" target-height="66.67999" target-width="15" target-x="508.68" target-y="603.48"></path><path d="M 672.61 939.71 L 613.75 939.71 C 613.19 939.71 612.73 939.26 612.73 938.69 L 612.73 927.70 C 612.73 927.14 613.18 926.68 613.75 926.68 L 672.61 926.68 C 673.17 926.68 673.63 927.13 673.63 927.70 L 673.63 938.69 C 673.63 939.25 673.17 939.71 672.61 939.71 Z" fill="#005589" fill-rule="nonzero" node-id="174" stroke="none" target-height="13.030029" target-width="60.900024" target-x="612.73" target-y="926.68"></path><path d="M 672.61 973.34 L 613.75 973.34 C 613.19 973.34 612.73 972.89 612.73 972.32 L 612.73 961.33 C 612.73 960.77 613.18 960.31 613.75 960.31 L 672.61 960.31 C 673.17 960.31 673.63 960.76 673.63 961.33 L 673.63 972.32 C 673.63 972.88 673.17 973.34 672.61 973.34 Z" fill="#005589" fill-rule="nonzero" node-id="176" stroke="none" target-height="13.030029" target-width="60.900024" target-x="612.73" target-y="960.31"></path><path d="M 441.07 629.78 C 440.07 629.78 439.09 629.24 438.59 628.29 C 437.87 626.92 438.39 625.22 439.76 624.50 C 465.93 610.69 494.05 602.66 523.31 600.62 C 546.77 599.02 570.23 601.32 593.05 607.53 C 594.54 607.94 595.42 609.48 595.01 610.97 C 594.60 612.46 593.10 613.36 591.57 612.93 C 569.36 606.88 546.53 604.62 523.70 606.20 C 495.21 608.18 467.85 616.00 442.37 629.44 C 441.96 629.68 441.51 629.78 441.07 629.78 Z" fill="#dd5543" fill-rule="nonzero" group-id="11" node-id="180" stroke="none" target-height="30.76001" target-width="157.54999" target-x="437.87" target-y="599.02"></path><path d="M 530.49 602.71 L 519.79 600.64 C 492.95 595.46 475.40 569.50 480.58 542.67 L 482.32 533.65 C 485.37 517.88 500.62 507.56 516.39 510.61 L 527.59 512.77 C 556.78 518.41 575.87 546.65 570.22 575.84 L 570.22 575.84 C 566.67 594.24 548.88 606.27 530.49 602.71 Z" fill="url(#SVGID_2_)" fill-rule="nonzero" node-id="183" stroke="none" target-height="98.71002" target-width="100.47" target-x="475.4" target-y="507.56"></path></svg>