<?xml version="1.0" standalone="no"?><!DOCTYPE svg PUBLIC "-//W3C//DTD SVG 1.1//EN" "http://www.w3.org/Graphics/SVG/1.1/DTD/svg11.dtd"><svg height="1024" node-id="1" sillyvg="true" template-height="1024" template-width="1024" version="1.1" viewBox="0 0 1024 1024" width="1024" xmlns="http://www.w3.org/2000/svg" xmlns:xlink="http://www.w3.org/1999/xlink"><defs node-id="44"><linearGradient gradientUnits="userSpaceOnUse" id="SVGID_1_" node-id="22" spreadMethod="pad" x1="486.8728" x2="486.8728" y1="771.6721" y2="622.063"><stop offset="0" stop-color="#e9705e" stop-opacity="0.8"></stop><stop offset="0.6685" stop-color="#ff9f8e" stop-opacity="0"></stop></linearGradient><linearGradient gradientUnits="userSpaceOnUse" id="SVGID_2_" node-id="39" spreadMethod="pad" x1="511.5203" x2="424.3139" y1="589.2309" y2="538.8823"><stop offset="0.2403" stop-color="#dd5543" stop-opacity="0"></stop><stop offset="1" stop-color="#dd5543" stop-opacity="0.6"></stop></linearGradient></defs><g node-id="170"><path d="M 1024.50 512.50 C 1024.50 649.26 970.86 773.57 883.42 865.38 C 870.81 878.66 857.47 891.33 843.46 903.10 C 841.67 904.73 839.82 906.24 837.97 907.75 C 834.94 910.27 831.92 912.68 828.89 915.09 C 823.34 919.46 817.68 923.72 811.91 927.87 C 727.73 988.68 624.26 1024.50 512.45 1024.50 C 503.93 1024.50 495.35 1024.33 487.00 1023.83 C 484.87 1023.72 482.68 1023.61 480.55 1023.44 C 473.54 1023.05 466.60 1022.54 459.70 1021.76 C 455.16 1021.31 450.62 1020.75 446.14 1020.19 C 445.02 1020.08 443.90 1019.91 442.78 1019.74 C 434.60 1018.68 426.53 1017.39 418.57 1015.87 C 369.69 1006.90 323.34 990.87 280.52 969.01 C 256.20 956.68 232.99 942.39 211.19 926.36 C 210.63 925.97 210.07 925.52 209.51 925.13 C 205.81 922.44 202.22 919.69 198.64 916.89 C 178.35 901.20 159.29 883.93 141.58 865.38 C 54.14 773.63 0.50 649.37 0.50 512.50 C 0.50 229.74 229.74 0.50 512.45 0.50 C 795.21 0.50 1024.50 229.74 1024.50 512.50 Z" fill="#9ba9de" fill-rule="nonzero" group-id="1" node-id="61" stroke="none" target-height="1024" target-width="1024" target-x="0.5" target-y="0.5"></path></g><path d="M 828.89 915.09 C 823.34 919.46 817.68 923.72 811.91 927.87 C 727.73 988.68 624.26 1024.50 512.45 1024.50 C 505.67 1024.50 498.83 1024.39 492.10 1024.11 C 490.42 1024.00 488.68 1023.94 487.00 1023.83 C 486.78 1023.83 486.49 1023.83 486.27 1023.77 C 484.37 1023.71 482.46 1023.60 480.55 1023.43 C 473.54 1023.04 466.60 1022.53 459.70 1021.75 C 455.16 1021.30 450.62 1020.74 446.14 1020.18 C 445.02 1020.07 443.90 1019.90 442.78 1019.73 C 434.60 1018.67 426.53 1017.38 418.57 1015.86 C 369.69 1006.89 323.34 990.86 280.52 969.00 C 256.20 956.67 232.99 942.38 211.19 926.35 C 210.63 925.96 210.07 925.51 209.51 925.12 C 236.19 906.96 262.87 888.69 289.55 870.47 C 290.34 870.02 291.18 869.57 291.96 869.18 C 336.46 844.80 380.91 820.42 425.47 796.09 C 429.96 796.31 434.38 796.54 438.75 796.76 C 512.57 800.35 576.57 803.49 647.92 807.02 C 662.49 807.69 677.40 808.42 692.76 809.21 C 723.75 830.34 755.76 853.99 788.21 880.50 C 792.86 884.31 797.51 888.12 802.16 892.05 C 811.29 899.74 820.20 907.42 828.89 915.09 Z" fill="#274e88" fill-rule="nonzero" node-id="64" stroke="none" target-height="228.40997" target-width="619.38" target-x="209.51" target-y="796.09"></path><path d="M 291.21 863.47 C 291.51 858.23 294.56 853.95 296.89 850.68 C 307.60 835.65 326.66 833.65 331.71 833.27 C 333.93 829.49 340.55 819.41 353.74 813.38 C 368.15 806.79 381.24 809.24 385.36 810.18 C 391.39 799.13 402.74 782.40 422.66 771.81 C 433.16 766.23 442.21 764.39 447.88 763.28 C 539.57 745.40 560.12 760.15 601.71 744.10 C 609.49 741.09 625.87 733.97 639.72 740.90 C 645.50 743.79 645.63 746.53 657.13 755.47 C 670.67 766.00 674.96 765.67 680.58 771.81 C 685.48 777.17 690.66 786.63 690.17 804.49 C 692.42 801.54 702.89 788.45 717.88 788.15 C 736.50 787.78 756.36 807.25 758.38 836.11 C 761.09 836.13 776.25 836.49 788.22 848.90 C 800.16 861.27 800.02 876.37 799.94 879.10 C 770.55 882.30 727.63 889.51 678.44 907.88 C 656.95 915.90 660.54 916.24 635.45 926.00 C 570.32 951.34 510.93 974.44 469.54 951.93 C 461.15 947.37 453.69 941.04 436.86 934.52 C 416.59 926.68 402.70 926.29 389.25 924.22 C 341.03 916.77 289.90 886.24 291.21 863.47 Z" fill="#1467a8" fill-rule="nonzero" node-id="66" stroke="none" target-height="240.47003" target-width="510.25998" target-x="289.9" target-y="733.97"></path><path d="M 650.43 802.38 C 636.42 828.33 610.19 868.46 564.51 903.27 C 538.73 922.89 513.68 935.50 493.44 943.74 C 488.79 932.81 481.61 919.30 470.68 905.40 C 464.46 897.44 458.07 890.88 452.24 885.50 C 427.47 866.16 418.50 835.34 428.76 811.57 C 436.72 793.24 453.65 784.95 460.99 782.03 C 462.05 781.58 462.95 781.25 463.57 781.02 L 456.96 759.55 L 436.62 693.64 L 604.26 633.22 C 602.30 646.45 600.34 667.35 603.47 692.52 C 605.15 706.59 608.40 722.00 614.12 738.09 C 614.18 738.20 614.18 738.31 614.23 738.43 C 624.54 767.30 639.17 788.59 650.43 802.38 Z" fill="#ff9f8e" fill-rule="nonzero" node-id="68" stroke="none" target-height="310.52002" target-width="231.93" target-x="418.5" target-y="633.22"></path><path d="M 614.11 687.99 L 614.11 739.11 C 595.45 750.10 571.46 760.74 539.79 776.21 C 523.98 783.94 508.51 790.50 491.70 790.45 L 491.25 790.45 C 489.62 790.45 487.94 790.34 486.32 790.23 C 485.42 790.12 484.47 790.01 483.57 789.89 C 482.62 789.72 481.72 789.61 480.71 789.44 C 478.41 788.99 476.11 788.49 473.87 787.76 C 469.22 786.36 465.01 784.40 460.98 782.04 C 462.04 781.59 462.94 781.26 463.56 781.03 L 456.95 759.56 C 458.30 756.59 459.36 754.46 459.92 753.45 C 507.79 733.16 555.59 712.87 603.46 692.52 C 607.00 691.01 610.58 689.50 614.11 687.99 Z" fill="#f5575d" fill-rule="nonzero" node-id="70" stroke="none" target-height="102.51001" target-width="157.15997" target-x="456.95" target-y="687.99"></path><path d="M 637.98 246.12 C 634.29 248.33 645.24 264.97 652.86 310.28 C 656.17 329.95 657.45 346.75 657.97 359.10 C 659.11 352.20 661.15 344.31 664.94 343.76 C 672.01 342.73 680.93 367.77 682.14 371.19 C 686.15 382.46 690.57 399.93 689.58 423.26 C 698.30 416.82 709.07 406.65 714.68 391.65 C 738.39 328.30 647.11 240.65 637.98 246.12 Z" fill="#ffffff" fill-opacity="0.05" fill-rule="nonzero" group-id="2" node-id="74" stroke="none" target-height="182.61002" target-width="104.10004" target-x="634.29" target-y="240.65"></path><path d="M 584.05 212.18 C 575.95 211.99 567.93 213.25 554.76 217.76 C 544.88 221.14 531.45 226.58 516.17 235.43 C 517.10 231.87 518.03 228.30 518.96 224.74 C 499.74 227.49 475.10 233.52 449.22 247.06 C 440.96 251.38 433.53 255.96 426.90 260.54 C 428.48 256.24 431.60 248.58 437.13 240.08 C 473.29 184.52 569.39 159.18 615.19 196.84 C 621.88 202.34 630.29 211.48 636.58 227.06 C 620.86 219.51 607.61 215.91 598.45 214.04 C 590.82 212.48 586.59 212.24 584.05 212.18 Z" fill="#ffffff" fill-opacity="0.05" fill-rule="nonzero" group-id="3" node-id="79" stroke="none" target-height="101.360016" target-width="209.68002" target-x="426.9" target-y="159.18"></path><path d="M 684.57 640.12 C 690.27 628.99 703.33 607.21 728.82 589.84 C 749.73 575.58 769.96 570.45 781.78 568.39 C 780.95 565.95 779.40 562.63 776.42 559.68 C 767.62 550.95 754.49 553.34 752.96 553.65 C 763.10 551.01 780.86 544.72 795.86 528.84 C 800.38 524.05 803.88 519.22 806.59 514.76 C 802.12 512.53 797.65 510.29 793.18 508.06 C 802.63 484.36 828.60 410.27 801.90 323.03 C 784.79 267.14 753.45 229.98 734.86 211.07 C 738.95 208.94 745.19 205.05 750.95 198.33 C 755.40 193.14 758.07 188.02 759.66 184.25 C 753.29 182.78 745.86 181.52 737.54 180.90 C 726.49 180.08 716.73 180.60 708.71 181.57 C 710.33 179.23 716.32 169.97 714.74 157.44 C 712.70 141.25 699.71 133.02 697.98 131.96 C 656.15 131.62 595.89 135.74 527.02 156.77 C 457.46 178.01 404.77 208.67 370.15 232.53 C 383.78 231.86 397.41 231.19 411.05 230.52 C 397.58 236.11 377.84 246.18 358.09 264.04 C 336.51 283.56 324.02 304.16 317.19 317.67 C 324.62 309.85 333.07 301.93 342.66 294.21 C 384.29 260.72 428.48 246.44 459.98 239.91 C 440.66 244.60 407.76 255.52 376.85 282.82 C 362.52 295.47 352.12 308.55 344.67 319.69 C 353.05 316.40 365.54 311.15 380.20 303.60 C 402.94 291.88 416.12 282.22 417.07 283.49 C 418.23 285.04 400.24 301.39 381.54 316.34 C 346.85 344.07 325.69 354.18 327.91 361.26 C 328.80 364.10 333.64 367.10 352.72 366.62 C 346.55 368.15 337.18 371.53 333.95 379.36 C 331.12 386.21 334.30 393.35 335.96 397.46 C 340.41 408.44 345.02 424.85 346.02 449.08 C 458.87 512.74 571.72 576.43 684.57 640.12 Z" fill="#152140" fill-rule="nonzero" node-id="82" stroke="none" target-height="508.5" target-width="511.40997" target-x="317.19" target-y="131.62"></path><path d="M 693.28 581.80 C 689.16 617.38 685.82 645.75 665.82 675.63 C 642.67 710.12 607.33 723.15 539.74 756.07 C 518.22 766.62 497.31 775.23 473.36 770.19 C 453.72 766.07 441.60 754.73 423.11 736.67 C 323.16 638.90 315.94 615.80 313.82 601.92 C 310.79 582.22 312.73 564.64 314.49 546.94 C 321.46 476.99 355.41 417.53 355.41 417.53 C 400.39 320.61 413.60 287.08 420.15 272.66 C 422.70 271.27 425.24 269.93 427.79 268.60 C 454.28 254.72 479.50 243.81 502.35 235.08 C 493.07 238.96 480.89 245.57 469.56 257.02 C 462.04 264.60 456.95 272.30 453.44 278.60 C 468.29 267.45 487.69 254.72 511.81 243.44 C 537.15 231.50 560.43 224.53 579.16 220.28 C 587.58 220.83 600.19 222.83 611.83 230.83 C 621.89 237.74 638.93 254.29 646.57 339.45 C 648.69 363.27 650.45 396.43 648.57 436.50 C 654.33 425.89 661.48 409.59 664.63 388.74 C 666.69 375.22 666.51 363.40 665.66 354.07 C 667.84 360.74 669.84 367.77 671.66 375.16 C 674.87 388.13 677.12 400.56 678.51 412.26 C 677.36 414.20 676.27 415.96 675.18 417.53 C 677.12 423.41 678.94 429.17 680.58 434.87 C 680.94 436.20 681.31 437.60 681.67 438.93 C 698.74 501.18 696.80 551.61 693.28 581.80 Z" fill="#ff9f8e" fill-rule="nonzero" node-id="84" stroke="none" target-height="554.94995" target-width="387.94998" target-x="310.79" target-y="220.28"></path><path d="M 439.61 365.53 L 444.05 367.99 L 448.12 370.84 L 451.84 374.08 L 455.25 377.75 L 458.27 381.73 L 460.96 386.02 L 463.31 390.65 L 465.32 395.64 L 466.91 400.74 L 468.14 406.07 L 469.01 411.66 L 469.50 417.53 L 469.60 423.36 L 469.30 429.33 L 468.60 435.46 L 467.48 441.75 L 466.00 447.91 L 464.09 454.11 L 461.74 460.35 L 458.95 466.65 L 455.75 472.76 L 452.33 478.48 L 448.67 483.83 L 444.77 488.82 L 440.54 493.61 L 436.18 497.97 L 431.69 501.92 L 427.06 505.47 L 422.16 508.74 L 417.25 511.54 L 412.31 513.89 L 407.32 515.82 L 402.16 517.35 L 397.08 518.39 L 392.05 518.96 L 387.05 519.07 L 382.07 518.68 L 377.20 517.79 L 372.44 516.37 L 367.76 514.43 L 363.32 511.97 L 359.25 509.12 L 355.52 505.87 L 352.12 502.21 L 349.10 498.23 L 346.41 493.94 L 344.06 489.31 L 342.05 484.32 L 340.46 479.22 L 339.23 473.89 L 338.36 468.30 L 337.87 462.43 L 337.77 456.60 L 338.07 450.63 L 338.77 444.50 L 339.88 438.20 L 341.37 432.05 L 343.28 425.85 L 345.62 419.61 L 348.42 413.31 L 351.61 407.20 L 355.04 401.48 L 358.70 396.13 L 362.60 391.14 L 366.83 386.35 L 371.19 381.99 L 375.68 378.04 L 380.30 374.49 L 385.20 371.22 L 390.12 368.42 L 395.06 366.07 L 400.04 364.14 L 405.20 362.61 L 410.29 361.57 L 415.32 361.00 L 420.31 360.89 L 425.30 361.28 L 430.16 362.17 L 434.93 363.58 L 439.61 365.53 Z" fill="#ffffff" fill-opacity="0.4" fill-rule="nonzero" group-id="4" node-id="88" stroke="#0f0f0f" stroke-linecap="butt" stroke-opacity="0.4" stroke-width="5.9998727" target-height="158.18" target-width="131.83002" target-x="337.77" target-y="360.89"></path><path d="M 414.41 426.08 L 417.38 427.00 L 420.08 428.23 L 422.53 429.77 L 424.76 431.63 L 426.74 433.77 L 428.39 436.09 L 429.74 438.61 L 430.79 441.34 L 431.47 444.16 L 431.78 447.05 L 431.70 450.03 L 431.21 453.13 L 430.29 456.13 L 429.06 458.84 L 427.52 461.31 L 425.66 463.55 L 423.52 465.54 L 421.21 467.21 L 418.71 468.57 L 415.99 469.63 L 413.17 470.32 L 410.29 470.64 L 407.33 470.56 L 404.25 470.08 L 401.27 469.16 L 398.57 467.93 L 396.12 466.39 L 393.90 464.53 L 391.92 462.39 L 390.26 460.07 L 388.91 457.55 L 387.87 454.82 L 387.18 452.00 L 386.88 449.11 L 386.96 446.13 L 387.44 443.03 L 388.36 440.03 L 389.60 437.32 L 391.14 434.85 L 392.99 432.61 L 395.13 430.62 L 397.44 428.95 L 399.95 427.59 L 402.67 426.53 L 405.48 425.83 L 408.36 425.52 L 411.33 425.60 L 414.41 426.08 Z" fill="#152140" fill-rule="nonzero" group-id="5" node-id="93" stroke="none" target-height="45.120026" target-width="44.899994" target-x="386.88" target-y="425.52"></path><path d="M 422.77 435.75 L 424.33 436.35 L 425.58 437.25 L 426.57 438.47 L 427.23 439.90 L 427.49 441.43 L 427.34 443.11 L 426.73 444.69 L 425.83 445.95 L 424.62 446.95 L 423.19 447.61 L 421.67 447.87 L 420.00 447.73 L 418.44 447.13 L 417.19 446.23 L 416.20 445.00 L 415.54 443.57 L 415.29 442.05 L 415.43 440.37 L 416.04 438.79 L 416.94 437.53 L 418.15 436.53 L 419.58 435.87 L 421.10 435.60 L 422.77 435.75 Z" fill="#ffffff" fill-rule="nonzero" group-id="6" node-id="98" stroke="none" target-height="12.269989" target-width="12.199982" target-x="415.29" target-y="435.6"></path><path d="M 597.84 389.57 L 602.28 392.03 L 606.35 394.88 L 610.08 398.13 L 613.48 401.79 L 616.50 405.77 L 619.19 410.06 L 621.54 414.69 L 623.55 419.68 L 625.14 424.78 L 626.37 430.11 L 627.24 435.70 L 627.73 441.57 L 627.83 447.40 L 627.53 453.37 L 626.83 459.50 L 625.72 465.80 L 624.23 471.95 L 622.32 478.15 L 619.98 484.39 L 617.18 490.69 L 613.99 496.80 L 610.56 502.52 L 606.90 507.87 L 603.00 512.86 L 598.77 517.65 L 594.41 522.01 L 589.92 525.96 L 585.30 529.51 L 580.40 532.78 L 575.48 535.58 L 570.54 537.93 L 565.56 539.86 L 560.40 541.39 L 555.31 542.43 L 550.28 543.00 L 545.29 543.11 L 540.30 542.72 L 535.44 541.83 L 530.67 540.42 L 525.99 538.47 L 521.55 536.01 L 517.48 533.16 L 513.76 529.92 L 510.35 526.25 L 507.33 522.27 L 504.64 517.98 L 502.29 513.35 L 500.28 508.36 L 498.69 503.26 L 497.46 497.93 L 496.59 492.34 L 496.10 486.47 L 496.00 480.64 L 496.30 474.67 L 497.00 468.54 L 498.12 462.25 L 499.60 456.09 L 501.51 449.90 L 503.86 443.65 L 506.65 437.35 L 509.84 431.24 L 513.27 425.52 L 516.93 420.18 L 520.83 415.18 L 525.06 410.39 L 529.42 406.03 L 533.91 402.08 L 538.54 398.53 L 543.44 395.26 L 548.35 392.46 L 553.29 390.11 L 558.28 388.18 L 563.44 386.65 L 568.52 385.61 L 573.55 385.04 L 578.55 384.94 L 583.53 385.32 L 588.40 386.21 L 593.16 387.63 L 597.84 389.57 Z" fill="#ffffff" fill-opacity="0.4" fill-rule="nonzero" group-id="7" node-id="103" stroke="#0f0f0f" stroke-linecap="butt" stroke-opacity="0.4" stroke-width="5.9998727" target-height="158.16998" target-width="131.83002" target-x="496" target-y="384.94"></path><path d="M 572.64 450.12 L 575.62 451.04 L 578.32 452.27 L 580.77 453.81 L 582.99 455.67 L 584.97 457.81 L 586.63 460.13 L 587.98 462.65 L 589.02 465.38 L 589.71 468.20 L 590.01 471.09 L 589.93 474.07 L 589.45 477.17 L 588.52 480.17 L 587.29 482.88 L 585.75 485.35 L 583.90 487.59 L 581.76 489.58 L 579.45 491.25 L 576.94 492.61 L 574.22 493.67 L 571.41 494.36 L 568.53 494.68 L 565.56 494.60 L 562.48 494.12 L 559.51 493.20 L 556.81 491.97 L 554.36 490.43 L 552.13 488.57 L 550.15 486.43 L 548.50 484.11 L 547.15 481.59 L 546.10 478.86 L 545.41 476.04 L 545.11 473.15 L 545.19 470.16 L 545.68 467.07 L 546.60 464.07 L 547.83 461.36 L 549.37 458.89 L 551.23 456.65 L 553.37 454.66 L 555.68 452.99 L 558.18 451.63 L 560.90 450.57 L 563.72 449.87 L 566.60 449.56 L 569.56 449.64 L 572.64 450.12 Z" fill="#152140" fill-rule="nonzero" group-id="8" node-id="108" stroke="none" target-height="45.119995" target-width="44.900024" target-x="545.11" target-y="449.56"></path><path d="M 581.00 459.79 L 582.57 460.39 L 583.82 461.29 L 584.81 462.51 L 585.46 463.94 L 585.72 465.47 L 585.57 467.15 L 584.97 468.73 L 584.07 469.99 L 582.85 470.99 L 581.43 471.65 L 579.91 471.91 L 578.24 471.77 L 576.68 471.17 L 575.42 470.27 L 574.43 469.04 L 573.78 467.61 L 573.52 466.08 L 573.67 464.40 L 574.27 462.83 L 575.17 461.57 L 576.39 460.57 L 577.81 459.90 L 579.34 459.64 L 581.00 459.79 Z" fill="#ffffff" fill-rule="nonzero" group-id="9" node-id="113" stroke="none" target-height="12.269989" target-width="12.199951" target-x="573.52" target-y="459.64"></path><path d="M 555.70 343.88 C 556.56 345.47 574.99 333.51 594.88 336.67 C 602.92 337.95 608.46 341.26 609.55 341.94 C 614.60 345.03 617.92 348.70 619.87 351.23 C 619.50 348.72 618.69 345.09 616.70 341.16 C 612.51 332.83 605.20 327.30 599.12 325.02 C 578.04 317.10 554.65 341.94 555.70 343.88 Z" fill="#152140" fill-rule="nonzero" node-id="116" stroke="none" target-height="34.130005" target-width="65.21997" target-x="554.65" target-y="317.1"></path><path d="M 434.61 344.39 C 434.08 336.51 423.73 328.43 414.16 327.13 C 402.95 325.60 390.88 333.10 383.99 345.90 C 394.38 337.55 401.37 336.89 405.95 338.02 C 409.46 338.89 413.94 341.40 422.54 346.23 C 427.38 348.95 430.81 351.12 432.93 349.75 C 434.89 348.50 434.65 344.95 434.61 344.39 Z" fill="#152140" fill-rule="nonzero" node-id="118" stroke="none" target-height="25.519989" target-width="50.900024" target-x="383.99" target-y="325.6"></path><path d="M 555.82 696.87 C 555.82 738.18 524.95 771.67 486.87 771.67 C 448.79 771.67 417.92 738.18 417.92 696.87 C 417.92 655.56 448.79 622.07 486.87 622.07 C 524.95 622.07 555.82 655.56 555.82 696.87 Z" fill="url(#SVGID_1_)" fill-opacity="0.6" fill-rule="nonzero" group-id="10" node-id="122" stroke="none" target-height="149.59998" target-width="137.9" target-x="417.92" target-y="622.07"></path><path d="M 624.36 534.86 L 624.26 536.64 L 623.56 538.47 L 622.13 540.43 L 620.33 542.14 L 617.93 543.88 L 614.81 545.67 L 611.57 547.18 L 607.83 548.62 L 603.54 549.98 L 596.88 551.59 L 589.42 552.80 L 581.89 553.45 L 575.04 553.51 L 570.55 553.25 L 566.57 552.76 L 563.05 552.08 L 559.60 551.11 L 556.85 550.01 L 554.68 548.79 L 552.82 547.24 L 551.69 545.64 L 551.16 543.93 L 551.26 542.15 L 551.96 540.32 L 553.39 538.36 L 555.19 536.65 L 557.59 534.91 L 560.70 533.12 L 563.95 531.61 L 567.69 530.17 L 571.98 528.81 L 578.64 527.20 L 586.10 525.99 L 593.63 525.34 L 600.47 525.28 L 604.97 525.55 L 608.95 526.03 L 612.46 526.71 L 615.92 527.68 L 618.67 528.78 L 620.84 530.00 L 622.70 531.55 L 623.83 533.15 L 624.36 534.86 Z" fill="#ff8777" fill-rule="nonzero" group-id="11" node-id="127" stroke="none" target-height="28.22998" target-width="73.20001" target-x="551.16" target-y="525.28"></path><path d="M 369.73 513.70 L 374.82 514.31 L 379.39 515.18 L 383.47 516.26 L 387.47 517.68 L 390.60 519.17 L 393.01 520.71 L 394.65 522.15 L 395.67 523.51 L 396.20 524.82 L 396.33 526.11 L 395.99 527.37 L 395.24 528.56 L 394.00 529.73 L 392.14 530.87 L 389.51 531.98 L 386.17 532.91 L 381.98 533.64 L 377.78 534.01 L 373.13 534.09 L 368.01 533.83 L 362.91 533.21 L 358.35 532.35 L 354.26 531.27 L 350.26 529.84 L 347.13 528.35 L 344.72 526.81 L 343.08 525.37 L 342.06 524.01 L 341.53 522.71 L 341.41 521.42 L 341.75 520.16 L 342.50 518.97 L 343.73 517.80 L 345.59 516.66 L 348.23 515.55 L 351.57 514.61 L 355.75 513.89 L 359.96 513.51 L 364.60 513.44 L 369.73 513.70 Z" fill="#ff8777" fill-rule="nonzero" group-id="12" node-id="132" stroke="none" target-height="20.650024" target-width="54.919983" target-x="341.41" target-y="513.44"></path><path d="M 679.26 430.93 C 677.16 423.78 675.52 418.67 675.16 417.54 C 672.01 407.59 668.36 389.51 665.64 354.05 C 666.49 363.39 666.67 375.26 664.63 388.74 C 661.48 409.62 654.32 425.87 648.54 436.51 C 650.40 396.45 648.65 363.26 646.53 339.47 C 638.93 254.28 621.87 237.74 611.84 230.86 C 600.16 222.86 587.59 220.82 579.16 220.30 C 560.42 224.53 537.13 231.52 511.78 243.43 C 487.70 254.75 468.27 267.44 453.45 278.63 C 456.91 272.33 462.03 264.62 469.54 257.01 C 484.20 242.16 500.32 235.44 509.77 232.37 C 484.92 241.46 457.20 253.22 427.81 268.57 C 397.37 284.47 371.07 301.11 348.87 316.84 C 353.88 306.93 360.14 296.90 367.98 287.18 C 416.21 227.30 492.58 217.82 520.33 215.78 C 506.09 212.98 493.10 212.29 481.61 212.76 C 391.84 216.45 332.40 293.75 317.20 314.83 C 321.57 304.08 328.61 289.32 339.82 273.60 C 408.50 177.34 556.13 153.90 655.08 191.14 C 677.54 199.59 733.49 220.65 743.07 264.55 C 744.92 273.01 744.61 280.35 744.08 285.16 C 743.94 289.05 743.96 295.07 745.09 302.26 C 749.17 328.40 763.72 344.22 771.91 356.56 C 781.16 370.50 791.04 393.19 790.68 430.31 C 789.98 430.49 739.17 443.34 738.46 443.51 C 737.76 443.69 686.94 456.54 686.23 456.71 C 684.74 450.68 682.43 441.74 679.26 430.93 Z" fill="#152140" fill-rule="nonzero" node-id="135" stroke="none" target-height="302.81" target-width="473.83997" target-x="317.2" target-y="153.9"></path><path d="M 737.35 429.31 L 741.34 431.00 L 744.98 433.20 L 748.30 435.94 L 751.34 439.23 L 753.94 442.86 L 756.21 446.89 L 758.15 451.37 L 759.75 456.35 L 760.89 461.37 L 761.64 466.69 L 762.00 472.32 L 761.93 478.30 L 761.45 484.17 L 760.52 490.18 L 759.13 496.36 L 757.26 502.71 L 754.93 508.90 L 752.32 514.67 L 749.44 520.03 L 746.29 525.01 L 742.74 529.82 L 739.07 534.10 L 735.27 537.89 L 731.33 541.22 L 727.06 544.23 L 722.81 546.64 L 718.57 548.49 L 714.31 549.82 L 709.90 550.62 L 705.60 550.80 L 701.37 550.37 L 697.17 549.32 L 693.18 547.63 L 689.54 545.42 L 686.21 542.69 L 683.18 539.39 L 680.58 535.77 L 678.31 531.74 L 676.37 527.25 L 674.77 522.28 L 673.63 517.25 L 672.87 511.94 L 672.52 506.31 L 672.58 500.33 L 673.06 494.46 L 673.99 488.44 L 675.38 482.27 L 677.26 475.92 L 679.58 469.72 L 682.19 463.96 L 685.07 458.60 L 688.22 453.62 L 691.77 448.80 L 695.45 444.52 L 699.25 440.74 L 703.18 437.41 L 707.45 434.40 L 711.70 431.99 L 715.95 430.14 L 720.20 428.81 L 724.61 428.00 L 728.91 427.83 L 733.14 428.26 L 737.35 429.31 Z" fill="#ff9f8e" fill-rule="nonzero" group-id="13" node-id="139" stroke="none" target-height="122.97" target-width="89.47998" target-x="672.52" target-y="427.83"></path><path d="M 739.83 486.21 C 739.10 479.42 736.01 471.84 729.83 469.42 C 723.59 467.24 717.59 472.27 712.55 476.57 C 702.31 485.54 697.03 498.69 695.09 511.91 C 695.03 512.45 694.85 512.94 694.60 513.43 C 694.11 507.07 693.45 500.46 692.60 493.61 C 696.72 485.55 702.36 478.33 709.75 473.12 C 712.72 471.00 715.75 469.00 719.33 467.54 C 722.72 466.09 727.15 465.60 730.73 467.42 C 737.83 471.24 739.71 479.36 739.83 486.21 Z" fill="#152140" fill-rule="nonzero" node-id="142" stroke="none" target-height="47.829987" target-width="47.23004" target-x="692.6" target-y="465.6"></path><path d="M 494.79 955.56 C 494.74 955.67 494.74 955.78 494.68 955.90 C 494.29 957.02 493.95 958.09 493.67 959.21 C 491.20 967.22 489.63 975.46 488.91 983.76 C 487.73 997.10 488.80 1010.78 492.10 1024.12 C 490.42 1024.01 488.68 1023.95 487.00 1023.84 C 486.78 1023.84 486.49 1023.84 486.27 1023.78 C 483.13 1010.38 482.12 996.65 483.30 983.26 C 484.20 973.23 486.27 963.36 489.47 953.78 L 489.64 953.84 L 493.00 954.96 L 494.79 955.56 Z" fill="#ffffff" fill-rule="nonzero" group-id="14" node-id="146" stroke="none" target-height="70.339966" target-width="12.670013" target-x="482.12" target-y="953.78"></path><path d="M 504.99 940.88 L 488.18 951.53 L 489.64 953.83 L 493.23 959.49 L 493.68 959.21 L 510.05 948.90 L 504.99 940.88 Z M 493.89 956.40 L 493.00 954.94 L 491.26 952.19 L 504.32 943.95 L 506.95 948.15 L 494.68 955.88 L 493.89 956.40 Z" fill="#ffffff" fill-rule="nonzero" group-id="15" node-id="151" stroke="none" target-height="18.609985" target-width="21.869995" target-x="488.18" target-y="940.88"></path><path d="M 556.39 688.10 C 542.83 690.12 522.65 692.36 498.10 691.91 C 475.68 691.46 421.43 690.45 417.62 674.14 C 415.94 666.85 424.40 657.33 435.05 650.43 C 439.20 647.68 443.68 645.33 448.00 643.70 C 471.04 635.12 499.23 642.30 526.07 661.19 C 536.49 668.43 546.74 677.51 556.39 688.10 Z" fill="#dd5543" fill-rule="nonzero" node-id="154" stroke="none" target-height="57.23999" target-width="140.45001" target-x="415.94" target-y="635.12"></path><path d="M 526.06 661.20 C 524.10 661.93 521.97 662.21 519.73 662.04 L 444.96 655.65 C 440.92 655.31 437.39 653.35 435.04 650.44 C 439.19 647.69 443.67 645.34 447.99 643.71 C 471.02 635.13 499.22 642.31 526.06 661.20 Z" fill="#ffffff" fill-rule="nonzero" node-id="156" stroke="none" target-height="27.080017" target-width="91.01999" target-x="435.04" target-y="635.13"></path><path d="M 637.98 246.12 C 634.29 248.33 645.24 264.97 652.86 310.28 C 656.17 329.95 657.45 346.75 657.97 359.10 C 659.11 352.20 661.15 344.31 664.94 343.76 C 672.01 342.73 680.93 367.77 682.14 371.19 C 686.15 382.46 690.57 399.93 689.58 423.26 C 698.30 416.82 709.07 406.65 714.68 391.65 C 738.39 328.30 647.11 240.65 637.98 246.12 Z" fill="#ffffff" fill-opacity="0.05" fill-rule="nonzero" group-id="16" node-id="160" stroke="none" target-height="182.61002" target-width="104.10004" target-x="634.29" target-y="240.65"></path><path d="M 584.05 212.18 C 575.95 211.99 567.93 213.25 554.76 217.76 C 544.88 221.14 531.45 226.58 516.17 235.43 C 517.10 231.87 518.03 228.30 518.96 224.74 C 499.74 227.49 475.10 233.52 449.22 247.06 C 440.96 251.38 433.53 255.96 426.90 260.54 C 428.48 256.24 431.60 248.58 437.13 240.08 C 473.29 184.52 569.39 159.18 615.19 196.84 C 621.88 202.34 630.29 211.48 636.58 227.06 C 620.86 219.51 607.61 215.91 598.45 214.04 C 590.82 212.48 586.59 212.24 584.05 212.18 Z" fill="#ffffff" fill-opacity="0.05" fill-rule="nonzero" group-id="17" node-id="165" stroke="none" target-height="101.360016" target-width="209.68002" target-x="426.9" target-y="159.18"></path><path d="M 473.45 609.47 L 462.75 607.40 C 435.91 602.22 418.36 576.26 423.54 549.43 L 425.28 540.41 C 428.33 524.64 443.58 514.32 459.35 517.37 L 470.55 519.53 C 499.74 525.17 518.83 553.41 513.18 582.60 L 513.18 582.60 C 509.63 600.99 491.84 613.02 473.45 609.47 Z" fill="url(#SVGID_2_)" fill-rule="nonzero" node-id="168" stroke="none" target-height="98.70001" target-width="100.47003" target-x="418.36" target-y="514.32"></path></svg>