<svg height="1024" width="1024" xmlns="http://www.w3.org/2000/svg"><defs><linearGradient gradientUnits="userSpaceOnUse" id="a" spreadMethod="pad" x1="530.42" x2="530.42" y1="778.885" y2="602.927"><stop offset="0" stop-color="#e9705e" stop-opacity=".8"/><stop offset=".668" stop-color="#ff9f8e" stop-opacity="0"/></linearGradient><linearGradient gradientUnits="userSpaceOnUse" id="b" spreadMethod="pad" x1="544.367" x2="457.161" y1="591.385" y2="541.037"><stop offset=".24" stop-color="#dd5543" stop-opacity="0"/><stop offset="1" stop-color="#dd5543" stop-opacity=".6"/></linearGradient></defs><path d="M1024.5 512.44c0 136.76-53.58 261.13-141.02 352.94-4.49 4.71-9.03 9.36-13.68 13.79a476.245 476.245 0 0 1-31.78 28.58c-5.32 4.37-10.7 8.58-16.08 12.72-.84.62-1.63 1.18-2.35 1.79-.79.62-1.63 1.18-2.36 1.74-1.79 1.29-3.59 2.58-5.32 3.87a489.497 489.497 0 0 1-68.43 41.64c-1.85 1.01-3.7 1.91-5.6 2.8-50.05 24.66-104.87 41.31-162.6 48.31-.5.06-1.06.11-1.57.17-15.3 1.85-30.83 3.03-46.46 3.47-.95.06-2.02.06-3.03.06-1.06.06-2.13.06-3.08.06-1.85.06-3.7.11-5.5.06-.22.06-.45.06-.67.06h-5.6c-1.18 0-2.47 0-3.76-.06-3.25 0-6.61-.11-9.81-.22-1.06 0-2.18-.06-3.25-.11-.96-.06-2.02-.11-3.03-.17-.56 0-1.12 0-1.68-.05-.28 0-.56-.06-.78-.06-9.25-.45-18.33-1.07-27.35-2.07-61.43-6.16-119.55-23.37-172.57-49.49-1.85-.84-3.76-1.79-5.6-2.75-.34-.17-.67-.34-.96-.5-24.38-12.33-47.58-26.68-69.33-42.71-1.12-.78-2.13-1.57-3.25-2.41-.84-.56-1.63-1.12-2.35-1.74-.84-.56-1.52-1.18-2.36-1.79-18.33-13.79-35.59-28.81-51.84-45.01-3.31-3.25-6.61-6.61-9.81-9.98C54.19 773.63.5 649.31.5 512.44.5 229.68 229.74.5 512.5.5c282.82 0 512 229.18 512 511.94z" fill="#ffe32e"/><path d="M659.79 945.3c-14.01-8.58-36.37-19.79-65.86-24.66-11.55-1.9-34.36-5.44-63.05.79-29.2 6.39-49.99 19.73-61.37 28.3-58.91-42.15-88.78-94.5-75.16-129.3 2.58-6.56 7.4-14.29 16.93-21.8 1.12-14.07 1.4-30.1 0-47.7-.11-1.12-.17-2.24-.28-3.36a294.85 294.85 0 0 0-6.72-41.64c-.06-.45-.17-.84-.28-1.29v-.06c-3.31-13.95-7.34-26.29-11.26-36.88l236.75-24.21c-3.92 11.49-8.69 26.51-13.51 44.39a635.47 635.47 0 0 0-5.33 21.13c-.17.79-.39 1.57-.56 2.35-7.96 34.3-9.36 51.96-8.86 61.6.22 5.1 1.01 7.96 1.57 9.92 8.52 28.3 34.24 45.4 53.36 54.53 1.17 35.93 2.4 71.91 3.63 107.89z" fill="#ff9f8e"/><path d="M615.97 687.87a635.47 635.47 0 0 0-5.33 21.13c-.17.79-.39 1.57-.56 2.35-7.96 34.3-9.36 51.96-8.86 61.6-7.51 2.63-12.72 4.09-14.46 4.59-18.89 5.21-44.11 12.16-76.9 9.3-37.83-3.31-71.46-18.38-98.87-39.29a294.85 294.85 0 0 0-6.72-41.64c70.57-5.98 141.13-11.98 211.7-18.04z" fill="#f5575d"/><path d="m278.94 485.98 4.09.83 3.85 1.37 3.66 1.93 3.49 2.52 3.15 2.91 2.92 3.36 2.69 3.84 2.47 4.38 2.04 4.51 1.73 4.85 1.43 5.24 1.09 5.64.68 5.62.29 5.85-.12 6.08-.53 6.34-1 6.28-1.34 5.94-1.67 5.6-2.01 5.3-2.41 5.22-2.63 4.74-2.85 4.3-3.06 3.89-3.44 3.66-3.54 3.09-3.63 2.56-3.75 2.08-4 1.61-4.01.99-4.07.42-4.16-.18-4.09-.82-3.85-1.38-3.66-1.92-3.49-2.52-3.15-2.91-2.91-3.36-2.7-3.85-2.46-4.38-2.05-4.5-1.73-4.86-1.43-5.23-1.09-5.65-.68-5.62-.29-5.84.12-6.08.54-6.34.99-6.29 1.34-5.93 1.68-5.61 2-5.3 2.41-5.21 2.64-4.74 2.84-4.3 3.06-3.89 3.45-3.66 3.53-3.1 3.64-2.56 3.74-2.07 4-1.61 4.02-1 4.06-.41 4.16.17z" fill="#ff9f8e"/><path d="M300.35 565.25c-4.64-13.39-12.93-26.29-25.38-33.6-3.02-1.77-6.07-3.45-9.58-4.56-3.41-1.13-7.65-1.25-10.92.76-6.53 4.24-7.67 12.2-7.24 18.75.16-6.58 2.5-14.09 8.24-16.86 5.83-2.6 11.93 1.72 17.14 5.49 10.5 7.77 16.6 19.95 19.53 32.44a4.288 4.288 0 0 0 8.35-1.96c-.04-.15-.09-.33-.14-.46z" fill="#152140"/><path d="M824.13 539.87c0 35.99-22.12 65.17-49.4 65.17-27.28 0-49.4-29.18-49.4-65.17s22.12-65.17 49.4-65.17c27.28 0 49.4 29.18 49.4 65.17z" fill="#ff9f8e"/><path d="M738.65 562.3c3.73-14.72 11.41-29.24 24.03-38.17 3.06-2.16 6.17-4.23 9.81-5.74 3.54-1.52 8.05-2.03 11.73-.18 7.36 3.93 9.3 12.33 9.43 19.36-.77-7.01-3.95-14.81-10.33-17.25-6.46-2.24-12.58 2.92-17.79 7.41-10.5 9.25-15.91 22.81-17.89 36.41a4.6 4.6 0 0 1-5.21 3.88 4.593 4.593 0 0 1-3.88-5.21c.03-.17.06-.36.1-.51zM728.91 483.64c6.35-5.91 20.19-20.44 26.03-43.7 3.83-15.26 2.73-28.32 1.4-36.26 1.38-.18 5.74-.92 9.3-4.65 4.84-5.07 4.28-11.57 4.18-12.55.78.06 9.27.62 12.09-4.18 3.4-5.8-4.19-14.75-5.11-15.81-8.68-10-18.98-6.84-32.08-14.41-5.57-3.22-12.79-9.04-19.06-20.46 14.23.86 26.25.78 35.33.47 19.11-.67 26.2-2.42 28.82-7.44 1.54-2.96 1.14-6.3.47-8.83-3.4 1.34-8.51 3.08-14.88 4.18-26.29 4.55-44.29-6.93-61.37-10.69-15.41-3.4-38.05-2.29-69.74 17.67 1.48-4.95 4.43-12.23 10.69-18.6 8.44-8.57 19.55-12.09 46.03-14.41 15.21-1.33 35.96-2.31 60.91-.93-5.03-2.48-12.13-5.61-20.92-8.37-12.36-3.87-30.39-9.52-52.07-6.04-17.24 2.76-30.71 10.32-39.98 17.2 4.66-6.87 11.92-15.64 22.78-23.25 26.59-18.62 55.57-16.82 65.09-15.81-4.3-2.89-9.4-5.56-15.34-7.44-28.75-9.1-55.47 7.07-61.83 11.16 6.13-8.38 15.4-18.3 28.83-26.03 8.6-4.96 25.82-14.89 47.88-11.62 12.8 1.89 22.22 7.48 27.43 11.16-2.71-7.62-6.6-12.32-10.23-15.34-21.81-18.15-67.4-3.19-93.45 21.39-11.34 10.7-17.98 22.27-21.85 30.68-.47-17.79-5.95-28.58-9.76-34.4-27.32-41.74-108.18-41.02-155.28-25.57-14.39 4.72-28.86 9.2-43.24 13.95-35.42 11.69-42.43 14.65-53.46 12.09-19.12-4.44-32.59-21.35-36.73-17.67-2.32 2.07 1.14 8.09-1.4 9.76-2.61 1.72-9.94-2.23-13.02-8.37-3.28-6.54-.49-13.05-1.86-13.48-1.57-.49-7.02 7.58-8.83 16.74-.94 4.77-2.49 17.9 9.3 35.33-4.77 2.96-8.13 2.68-9.76 2.32-8.57-1.88-13.19-15.53-12.09-26.04 1.02-9.76 6.87-15.67 6.05-16.27-1.1-.8-13.02 8.83-18.13 22.32-8.43 22.22 5.29 45.11 8.83 50.68-6.98 3.03-11.3 1.47-12.55.93-8.07-3.46-12.59-17.17-7.44-33.01-4.94 7.83-10.72 19.88-7.9 32.55 5.51 24.8 39.15 30.04 38.13 46.49-.68 10.88-16.18 21.49-28.83 19.99-16.76-1.99-24.28-24.76-25.57-37.66-1.13-11.31 2-20.51 4.18-25.57-3.81 3.56-9.11 9.5-12.55 18.13-7.78 19.48-3.14 45.25 11.16 55.79 19.52 14.38 55.22-.99 55.33-.47.09.46-28.24 3.83-50.21 22.32-3.28 2.76-11.52 10.15-9.76 13.95 2.44 5.25 22.54.38 23.25 3.26.63 2.55-15.13 6.62-14.88 12.09.18 3.77 7.78 3.99 13.48 10.23 6.54 7.16 5.34 16.52 6.05 23.25 1.06 10.1 7.44 24.02 31.61 39.98 138.82-3.6 277.67-7.17 416.53-10.73z" fill="#152140"/><path d="M362.56 326.03c-17.58 19.75-27.15 54.66-45.56 123.67-17.56 65.81-26.3 99.24-24.18 125.53.63 7.86 6.52 70.78 50.21 120.88 80.48 92.3 253.63 100.27 343.11 16.74 42.27-39.46 54.58-88.82 59.51-109.72 31.28-132.62-53.13-252.54-96.67-303.76a94.093 94.093 0 0 0-56.34-31.93c-33.81-5.6-77.28-7.4-125.01 4.67-32.6 8.24-73.65 18.62-105.07 53.92z" fill="#ff9f8e"/><path d="m465.82 429.03 3.73 1.09 3.51 1.43 3.33 1.79 3.16 2.15 3.86 3.33 3.51 3.85 3.17 4.42 2.68 4.74 2.28 5.18 1.87 5.63 1.35 5.79.88 6.1.38 6.43-.16 6.45-.7 6.63-1.29 6.83-1.84 6.71-2.27 6.27-2.69 5.86-3.16 5.62-3.46 5.1-3.75 4.61-4.15 4.24-4.31 3.65-4.5 3.09-4.78 2.58-4.84 1.93-4.93 1.29-3.78.56-3.78.14-3.79-.25-3.82-.66-3.73-1.08-3.51-1.43-3.33-1.79-3.16-2.15-3.86-3.33-3.51-3.85-3.17-4.42-2.68-4.75-2.28-5.17-1.87-5.63-1.35-5.79-.88-6.1-.38-6.44.16-6.44.7-6.63 1.29-6.84 1.84-6.7 2.27-6.27 2.69-5.86 3.16-5.62 3.46-5.1 3.75-4.61 4.15-4.25 4.31-3.64 4.5-3.09 4.78-2.58 4.84-1.93 4.93-1.3 3.78-.55 3.78-.14 3.79.25 3.82.65z" fill="#fff" fill-opacity=".4" stroke="#0f0f0f" stroke-opacity=".4" stroke-width="6"/><path d="M475.59 494.23c0 10.13-8.21 18.34-18.34 18.34-10.13 0-18.34-8.21-18.34-18.34 0-10.13 8.21-18.34 18.34-18.34 10.13 0 18.34 8.21 18.34 18.34z" fill="#152140"/><path d="M470.67 487c0 2.76-2.23 4.99-4.99 4.99-2.76 0-4.99-2.23-4.99-4.99 0-2.76 2.23-4.99 4.99-4.99 2.76 0 4.99 2.23 4.99 4.99z" fill="#fff"/><path d="m612 415.77 3.98 2.21 3.65 2.56 3.35 2.91 3.05 3.29 2.71 3.57 2.41 3.85 2.11 4.16 1.81 4.48 1.43 4.58 1.1 4.78.78 5.02.44 5.27.04 7-.6 7.24-1.25 7.5-1.33 5.53-1.72 5.55-2.1 5.61-2.51 5.65-2.87 5.49-3.07 5.13-3.29 4.8-3.49 4.48-5.1 5.65-5.29 4.97-5.51 4.33-4.39 2.93-4.42 2.51-4.43 2.11-4.47 1.73-4.64 1.38-4.56.93-4.51.51-4.49.1-4.47-.34-4.37-.81-4.27-1.26-4.21-1.75-3.98-2.21-3.65-2.55-3.34-2.92-3.06-3.29-2.71-3.57-2.41-3.85-2.11-4.15-1.81-4.49-1.42-4.57-1.11-4.79-.78-5.02-.44-5.26-.04-7.01.6-7.23 1.25-7.5 1.33-5.53 1.72-5.56 2.1-5.6 2.51-5.66 2.87-5.48 3.07-5.13 3.29-4.8 3.5-4.49 5.09-5.64 5.29-4.97 5.51-4.33 4.4-2.94 4.41-2.51 4.43-2.11 4.48-1.73 4.63-1.37 4.56-.94 4.51-.51 4.49-.1 4.47.35 4.37.8 4.27 1.27 4.21 1.74z" fill="#fff" fill-opacity=".4" stroke="#0f0f0f" stroke-opacity=".4" stroke-width="6"/><path d="m589.37 470.11 3.51 1.17 3.08 1.66 2.7 2.16 2.31 2.6 1.79 2.89 1.32 3.22.74 3.4.14 3.51-.5 3.68-1.17 3.53-1.66 3.1-2.16 2.72-2.59 2.32-2.88 1.81-3.21 1.33-3.38.76-3.49.14-3.67-.49-3.5-1.17-3.08-1.65-2.71-2.17-2.3-2.6-1.8-2.89-1.31-3.22-.75-3.39-.13-3.52.5-3.68 1.17-3.53 1.65-3.09 2.16-2.73 2.6-2.32 2.88-1.81 3.2-1.33 3.39-.76 3.49-.14 3.66.49z" fill="#152140"/><path d="m596.89 478.79 1.4.54 1.13.82.89 1.09.59 1.29.23 1.37-.13 1.51-.55 1.41-.8 1.13-1.1.9-1.28.59-1.36.24-1.5-.13-1.41-.54-1.12-.81-.89-1.1-.59-1.28-.23-1.37.13-1.51.54-1.42.81-1.13 1.09-.89 1.28-.6 1.37-.24 1.5.13z" fill="#fff"/><path d="M558.76 407.64c1.23 1.14 13.87-14.76 32.23-17.82 7.42-1.24 13.25.04 14.41.31 5.33 1.23 9.32 3.47 11.78 5.11a30.687 30.687 0 0 0-5.73-7.9c-6.12-6.07-14.15-8.77-20.15-8.99-20.82-.75-34.04 27.9-32.54 29.29zM481.27 407.18c-.49-7.29-10.06-14.75-18.91-15.96-10.37-1.42-21.52 5.52-27.9 17.36 9.61-7.72 16.07-8.33 20.3-7.28 3.24.8 7.38 3.13 15.34 7.59 4.47 2.51 7.64 4.52 9.61 3.25 1.81-1.17 1.59-4.44 1.56-4.96z" fill="#152140"/><path d="m638.45 531.43.39 1.6-.14 1.81-.75 2.12-1.14 1.99-1.66 2.18-2.29 2.41-3.87 3.32-4.97 3.49-5.47 3.19-6.29 3.05-6.5 2.57-6.04 1.87-5.93 1.31-5.07.61-3.32.05-2.73-.25-2.24-.5-2.07-.88-1.42-1.12-.92-1.37-.39-1.6.14-1.81.75-2.12 1.14-1.98 1.66-2.19 2.29-2.4 3.87-3.33 4.97-3.49 5.47-3.19 6.29-3.05 6.5-2.57 6.04-1.87 5.93-1.31 5.07-.6 3.32-.06 2.73.25 2.24.5 2.06.88 1.43 1.12.92 1.37zM424.95 540.69l3.62 3.07 3.09 2.99 2.6 2.92 2.36 3.13 1.66 2.75 1.08 2.41.53 1.95.1 1.57-.25 1.28-.57 1.06-.9.8-1.19.54-1.54.27-2.02-.06-2.6-.49-3.06-.98-3.59-1.57-3.44-1.85-3.63-2.31-3.82-2.81-3.62-3.07-3.09-2.99-2.6-2.92-2.36-3.13-1.66-2.75-1.08-2.41-.53-1.95-.1-1.57.25-1.28.57-1.06.9-.8 1.19-.54 1.54-.27 2.02.07 2.6.48 3.06.98 3.6 1.57 3.43 1.86 3.63 2.3 3.82 2.81z" fill="#ff8777"/><path d="M624.25 690.91c0 48.59-42.01 87.98-93.83 87.98s-93.83-39.39-93.83-87.98 42.01-87.98 93.83-87.98 93.83 39.39 93.83 87.98z" fill="url(#a)"/><path d="M511.04 665.43c-1.35 0-2.71-.03-4.09-.08-29.81-1.2-51.83-15.31-62.29-23.62a2.791 2.791 0 0 1-.45-3.94 2.791 2.791 0 0 1 3.94-.45c9.93 7.88 30.82 21.28 59.04 22.4 48.27 2.1 79.17-32.7 84.9-39.66.99-1.2 2.75-1.37 3.94-.38 1.2.99 1.37 2.75.38 3.94-5.88 7.14-36.94 41.79-85.37 41.79z" fill="#152140"/><path d="M602.02 622.81h-15.57c-1.55 0-2.8-1.25-2.8-2.8 0-1.55 1.25-2.8 2.8-2.8h15.57c1.55 0 2.8 1.25 2.8 2.8 0 1.55-1.26 2.8-2.8 2.8zM498.28 683.14c3.6 1.02 12.52 3.03 23.01-.23 8.31-2.58 13.75-7.26 16.39-9.88.06 1.94-.08 5.21-1.63 8.72-4.4 9.96-18.19 17.33-28.36 12.55-5.57-2.62-8.25-8.05-9.41-11.16zM707.64 390.19c-7.3-14.07-15.64-23.74-21.65-29.75-7.46-7.47-28.82-28.9-43.75-23.25-4.98 1.88-7.38 6.05-11.98 5.11-5.09-1.04-6.85-7.12-10.59-12.55-3.88-5.64-11.02-12.21-25.33-16.27 1.72.68 10.45 4.34 14.28 13.95 2.21 5.55 1.77 10.55 1.38 13.02-7.44-7.02-18.08-15.34-32.24-21.85-33.82-15.56-65.65-10.71-78.76-7.9 7.9-.04 20.27.92 34.08 6.51a89.719 89.719 0 0 1 21.65 12.55c-5.72-1.06-14.34-2.58-24.87-4.18-23.45-3.56-35.17-5.34-48.82-5.11-9.37.15-23.22 1.26-40.07 6.04 8.36-2.72 28.39-7.83 48.36 1.39a56.51 56.51 0 0 1 10.13 6.04c-28.33-6.06-49.46-3.26-63.56.47-8.17 2.16-23.52 8.91-53.89 22.32-30.54 13.49-40.84 18.65-52.51 14.41-11.71-4.25-18.25-15.6-21.65-23.25 1.41-10.36 4.87-25.93 14.74-41.38 33.75-52.84 110.04-56.52 153.84-58.58 67.34-3.16 122.97 14.59 160.12 31.15 11.86 8.5 29.67 23.46 45.1 46.96 16.62 25.32 23.17 49.41 25.99 64.15z" fill="#152140"/><path d="M869.81 879.17a476.245 476.245 0 0 1-31.78 28.58c-5.32 4.37-10.7 8.58-16.08 12.72-.84.62-1.63 1.18-2.35 1.79-.79.62-1.63 1.18-2.36 1.74-1.79 1.29-3.59 2.58-5.32 3.87a489.497 489.497 0 0 1-68.43 41.64c-1.85 1.01-3.7 1.91-5.6 2.8-50.05 24.66-104.87 41.31-162.6 48.31-.5.06-1.06.11-1.57.17-15.3 1.85-30.83 3.03-46.46 3.47-.95.06-2.02.06-3.03.06-1.06.06-2.13.06-3.08.06-1.85.06-3.7.11-5.5.06-.22.06-.45.06-.67.06h-5.6c-1.18 0-2.47 0-3.76-.06-3.25 0-6.61-.11-9.81-.22-1.06 0-2.18-.06-3.25-.11-.96-.06-2.02-.11-3.03-.17-.56 0-1.12 0-1.68-.05-.28 0-.56-.06-.78-.06-9.25-.45-18.33-1.07-27.35-2.07-61.43-6.16-119.55-23.37-172.57-49.49-1.85-.84-3.76-1.79-5.6-2.75-.34-.17-.67-.34-.96-.5-24.38-12.33-47.58-26.68-69.33-42.71-1.12-.78-2.13-1.57-3.25-2.41-.84-.56-1.63-1.12-2.35-1.74-.84-.56-1.52-1.18-2.36-1.79-18.33-13.79-35.59-28.81-51.84-45.01 68.1-24.66 154.86-31.11 217.64-32h2.41c6.95-.11 13.56-.11 19.84-.11 33.91.17 57.11 1.74 60.25 2.02 4.65-.06 9.36-.17 14.01-.22 5.88-.06 11.77-.17 17.65-.22h.06c26.12-.45 52.29-.84 78.35-1.18h.06c6.17-.11 12.39-.22 18.55-.28 19.84-.34 39.63-.62 59.41-.9 5.66.62 11.21 1.23 16.7 1.91 5.27.62 10.42 1.23 15.53 1.85.89.11 1.79.22 2.63.34 80.41 9.9 145.6 21.89 195.26 32.6z" fill="#003f74"/><path d="M573.71 1020.8c-15.3 1.85-30.83 3.03-46.46 3.47-.95.06-2.02.06-3.03.06-1.06.06-2.13.06-3.08.06-1.85.06-3.7.11-5.5.06-.22.06-.45.06-.67.06h-5.6c-1.18 0-2.47 0-3.76-.06-3.25 0-6.61-.11-9.81-.22-1.06 0-2.18-.06-3.25-.11-.96-.06-2.02-.11-3.03-.17-.56 0-1.12 0-1.68-.05l2.24-64.9.11-2.24.39-11.49v-.22l.34-8.91.05-2.35.22-6.56h75.95l.89 13.17.34 4.82.11 1.85.73 9.98.84 11.77 3.66 51.98z" fill="#041a33"/><path d="M582.98 927.2c0 15.78-23.2 28.57-51.82 28.57s-51.82-12.79-51.82-28.57c0-15.78 23.2-28.57 51.82-28.57s51.82 12.79 51.82 28.57z" fill="#041a33"/><path d="M676.11 848.23c-.22-.28-.39-.5-.62-.67-19-20.46-16.25-17.43-35.2-37.83 0-.06-.05-.11-.11-.17-.11-.17-.28-.34-.45-.5-.56-.45-1.23-.73-2.02-.73-.45 0-.84.11-1.23.22-43.94 27.18-87.83 54.31-131.77 81.55-7.79 4.82-8.13 16.09-.56 21.35 24.94 17.43 49.94 34.92 74.88 52.41 5.72 3.98 13.57 2.63 17.65-2.97 26.34-36.21 52.69-72.47 79.03-108.68.11-.17.22-.34.34-.5.34-.5.56-1.06.56-1.74 0-.68-.17-1.24-.5-1.74z" fill="#032b47"/><path d="M538.34 890.1c-43.72-27.13-87.55-54.14-131.26-81.21-.17-.11-.34-.22-.51-.34-.39-.11-.78-.22-1.23-.22-.84 0-1.63.34-2.19.84-.06.06-.06.11-.11.17-19.28 20.74-16.37 17.65-35.37 38.17-.22.17-.39.39-.62.62-.05 0-.05.06-.05.11-.34.5-.56 1.06-.56 1.74 0 .67.22 1.23.56 1.74.11.17.22.34.33.5 26.29 36.21 52.69 72.47 78.97 108.68 4.09 5.6 11.99 6.95 17.71 2.97 24.94-17.49 49.94-34.98 74.88-52.41 7.57-5.28 7.24-16.54-.55-21.36z" fill="#032b47"/><path d="M676.11 837.02c-.22-.28-.39-.5-.62-.67-19-20.46-16.25-17.43-35.2-37.83 0-.06-.05-.11-.11-.17-.11-.17-.28-.34-.45-.5-.56-.45-1.23-.73-2.02-.73-.45 0-.84.11-1.23.22-43.94 27.18-87.83 54.31-131.77 81.55-7.79 4.82-8.13 16.09-.56 21.35 24.94 17.43 49.94 34.92 74.88 52.41 5.72 3.98 13.57 2.63 17.65-2.97 26.34-36.21 52.69-72.47 79.03-108.68.11-.17.22-.34.34-.5.34-.5.56-1.06.56-1.74 0-.68-.17-1.24-.5-1.74z" fill="#003f74"/><path d="M538.34 878.89c-43.72-27.13-87.55-54.14-131.26-81.21-.17-.11-.34-.22-.51-.34-.39-.11-.78-.22-1.23-.22-.84 0-1.63.34-2.19.84-.06.06-.06.11-.11.17-19.28 20.74-16.37 17.65-35.37 38.17-.22.17-.39.39-.62.62-.05 0-.05.06-.05.11-.34.5-.56 1.06-.56 1.74 0 .67.22 1.23.56 1.74.11.17.22.34.33.5 26.29 36.21 52.69 72.47 78.97 108.68 4.09 5.6 11.99 6.95 17.71 2.97 24.94-17.49 49.94-34.98 74.88-52.41 7.57-5.28 7.24-16.54-.55-21.36z" fill="#003f74"/><path d="m506.3 624.03-10.7-2.07c-26.84-5.18-44.39-31.14-39.21-57.97l1.74-9.02c3.05-15.77 18.3-26.09 34.07-23.04l11.2 2.16c29.19 5.64 48.28 33.88 42.63 63.07-3.55 18.39-21.34 30.42-39.73 26.87z" fill="url(#b)"/></svg>