<svg height="1024" width="1024" xmlns="http://www.w3.org/2000/svg"><defs><linearGradient gradientUnits="userSpaceOnUse" id="a" spreadMethod="pad" x1="486.873" x2="486.873" y1="771.672" y2="622.063"><stop offset="0" stop-color="#e9705e" stop-opacity=".8"/><stop offset=".668" stop-color="#ff9f8e" stop-opacity="0"/></linearGradient><linearGradient gradientUnits="userSpaceOnUse" id="b" spreadMethod="pad" x1="511.52" x2="424.314" y1="589.231" y2="538.882"><stop offset=".24" stop-color="#dd5543" stop-opacity="0"/><stop offset="1" stop-color="#dd5543" stop-opacity=".6"/></linearGradient></defs><path d="M1024.5 512.5c0 136.76-53.64 261.07-141.08 352.88-12.61 13.28-25.95 25.95-39.96 37.72-1.79 1.63-3.64 3.14-5.49 4.65-3.03 2.52-6.05 4.93-9.08 7.34-5.55 4.37-11.21 8.63-16.98 12.78-84.18 60.81-187.65 96.63-299.46 96.63-8.52 0-17.1-.17-25.45-.67-2.13-.11-4.32-.22-6.45-.39-7.01-.39-13.95-.9-20.85-1.68-4.54-.45-9.08-1.01-13.56-1.57-1.12-.11-2.24-.28-3.36-.45-8.18-1.06-16.25-2.35-24.21-3.87-48.88-8.97-95.23-25-138.05-46.86a494.719 494.719 0 0 1-69.33-42.65c-.56-.39-1.12-.84-1.68-1.23-3.7-2.69-7.29-5.44-10.87-8.24-20.29-15.69-39.35-32.96-57.06-51.51C54.14 773.63.5 649.37.5 512.5.5 229.74 229.74.5 512.45.5c282.76 0 512.05 229.24 512.05 512z" fill="#9ba9de"/><path d="M828.89 915.09c-5.55 4.37-11.21 8.63-16.98 12.78-84.18 60.81-187.65 96.63-299.46 96.63-6.78 0-13.62-.11-20.35-.39-1.68-.11-3.42-.17-5.1-.28-.22 0-.51 0-.73-.06-1.9-.06-3.81-.17-5.72-.34-7.01-.39-13.95-.9-20.85-1.68-4.54-.45-9.08-1.01-13.56-1.57-1.12-.11-2.24-.28-3.36-.45-8.18-1.06-16.25-2.35-24.21-3.87-48.88-8.97-95.23-25-138.05-46.86a494.719 494.719 0 0 1-69.33-42.65c-.56-.39-1.12-.84-1.68-1.23 26.68-18.16 53.36-36.43 80.04-54.65.79-.45 1.63-.9 2.41-1.29 44.5-24.38 88.95-48.76 133.51-73.09 4.49.22 8.91.45 13.28.67 73.82 3.59 137.82 6.73 209.17 10.26 14.57.67 29.48 1.4 44.84 2.19 30.99 21.13 63 44.78 95.45 71.29 4.65 3.81 9.3 7.62 13.95 11.55 9.13 7.69 18.04 15.37 26.73 23.04z" fill="#274e88"/><path d="M291.21 863.47c.3-5.24 3.35-9.52 5.68-12.79 10.71-15.03 29.77-17.03 34.82-17.41 2.22-3.78 8.84-13.86 22.03-19.89 14.41-6.59 27.5-4.14 31.62-3.2 6.03-11.05 17.38-27.78 37.3-38.37 10.5-5.58 19.55-7.42 25.22-8.53 91.69-17.88 112.24-3.13 153.83-19.18 7.78-3.01 24.16-10.13 38.01-3.2 5.78 2.89 5.91 5.63 17.41 14.57 13.54 10.53 17.83 10.2 23.45 16.34 4.9 5.36 10.08 14.82 9.59 32.68 2.25-2.95 12.72-16.04 27.71-16.34 18.62-.37 38.48 19.1 40.5 47.96 2.71.02 17.87.38 29.84 12.79 11.94 12.37 11.8 27.47 11.72 30.2-29.39 3.2-72.31 10.41-121.5 28.78-21.49 8.02-17.9 8.36-42.99 18.12-65.13 25.34-124.52 48.44-165.91 25.93-8.39-4.56-15.85-10.89-32.68-17.41-20.27-7.84-34.16-8.23-47.61-10.3-48.22-7.45-99.35-37.98-98.04-60.75z" fill="#1467a8"/><path d="M650.43 802.38c-14.01 25.95-40.24 66.08-85.92 100.89-25.78 19.62-50.83 32.23-71.07 40.47-4.65-10.93-11.83-24.44-22.76-38.34-6.22-7.96-12.61-14.52-18.44-19.9-24.77-19.34-33.74-50.16-23.48-73.93 7.96-18.33 24.89-26.62 32.23-29.54 1.06-.45 1.96-.78 2.58-1.01l-6.61-21.47-20.34-65.91 167.64-60.42c-1.96 13.23-3.92 34.13-.79 59.3 1.68 14.07 4.93 29.48 10.65 45.57.06.11.06.22.11.34 10.31 28.87 24.94 50.16 36.2 63.95z" fill="#ff9f8e"/><path d="M614.11 687.99v51.12c-18.66 10.99-42.65 21.63-74.32 37.1-15.81 7.73-31.28 14.29-48.09 14.24h-.45c-1.63 0-3.31-.11-4.93-.22-.9-.11-1.85-.22-2.75-.34-.95-.17-1.85-.28-2.86-.45-2.3-.45-4.6-.95-6.84-1.68-4.65-1.4-8.86-3.36-12.89-5.72 1.06-.45 1.96-.78 2.58-1.01l-6.61-21.47c1.35-2.97 2.41-5.1 2.97-6.11 47.87-20.29 95.67-40.58 143.54-60.93 3.54-1.51 7.12-3.02 10.65-4.53z" fill="#f5575d"/><path d="M637.98 246.12c-3.69 2.21 7.26 18.85 14.88 64.16 3.31 19.67 4.59 36.47 5.11 48.82 1.14-6.9 3.18-14.79 6.97-15.34 7.07-1.03 15.99 24.01 17.2 27.43 4.01 11.27 8.43 28.74 7.44 52.07 8.72-6.44 19.49-16.61 25.1-31.61 23.71-63.35-67.57-151-76.7-145.53zM584.05 212.18c-8.1-.19-16.12 1.07-29.29 5.58-9.88 3.38-23.31 8.82-38.59 17.67l2.79-10.69c-19.22 2.75-43.86 8.78-69.74 22.32-8.26 4.32-15.69 8.9-22.32 13.48 1.58-4.3 4.7-11.96 10.23-20.46 36.16-55.56 132.26-80.9 178.06-43.24 6.69 5.5 15.1 14.64 21.39 30.22-15.72-7.55-28.97-11.15-38.13-13.02-7.63-1.56-11.86-1.8-14.4-1.86z" fill="#fff" fill-opacity=".05"/><path d="M684.57 640.12c5.7-11.13 18.76-32.91 44.25-50.28 20.91-14.26 41.14-19.39 52.96-21.45-.83-2.44-2.38-5.76-5.36-8.71-8.8-8.73-21.93-6.34-23.46-6.03 10.14-2.64 27.9-8.93 42.9-24.81 4.52-4.79 8.02-9.62 10.73-14.08-4.47-2.23-8.94-4.47-13.41-6.7 9.45-23.7 35.42-97.79 8.72-185.03-17.11-55.89-48.45-93.05-67.04-111.96 4.09-2.13 10.33-6.02 16.09-12.74a53.726 53.726 0 0 0 8.71-14.08c-6.37-1.47-13.8-2.73-22.12-3.35-11.05-.82-20.81-.3-28.83.67 1.62-2.34 7.61-11.6 6.03-24.13-2.04-16.19-15.03-24.42-16.76-25.48a569.855 569.855 0 0 0-170.96 24.81 569.85 569.85 0 0 0-156.87 75.76l40.9-2.01a184.418 184.418 0 0 0-52.96 33.52c-21.58 19.52-34.07 40.12-40.9 53.63a260.07 260.07 0 0 1 25.47-23.46c41.63-33.49 85.82-47.77 117.32-54.3-19.32 4.69-52.22 15.61-83.13 42.91-14.33 12.65-24.73 25.73-32.18 36.87a385.23 385.23 0 0 0 35.53-16.09c22.74-11.72 35.92-21.38 36.87-20.11 1.16 1.55-16.83 17.9-35.53 32.85-34.69 27.73-55.85 37.84-53.63 44.92.89 2.84 5.73 5.84 24.81 5.36-6.17 1.53-15.54 4.91-18.77 12.74-2.83 6.85.35 13.99 2.01 18.1 4.45 10.98 9.06 27.39 10.06 51.62 112.85 63.66 225.7 127.35 338.55 191.04z" fill="#152140"/><path d="M693.28 581.8c-4.12 35.58-7.46 63.95-27.46 93.83-23.15 34.49-58.49 47.52-126.08 80.44-21.52 10.55-42.43 19.16-66.38 14.12-19.64-4.12-31.76-15.46-50.25-33.52-99.95-97.77-107.17-120.87-109.29-134.75-3.03-19.7-1.09-37.28.67-54.98 6.97-69.95 40.92-129.41 40.92-129.41 44.98-96.92 58.19-130.45 64.74-144.87 2.55-1.39 5.09-2.73 7.64-4.06 26.49-13.88 51.71-24.79 74.56-33.52-9.28 3.88-21.46 10.49-32.79 21.94-7.52 7.58-12.61 15.28-16.12 21.58 14.85-11.15 34.25-23.88 58.37-35.16 25.34-11.94 48.62-18.91 67.35-23.16 8.42.55 21.03 2.55 32.67 10.55 10.06 6.91 27.1 23.46 34.74 108.62 2.12 23.82 3.88 56.98 2 97.05 5.76-10.61 12.91-26.91 16.06-47.76 2.06-13.52 1.88-25.34 1.03-34.67 2.18 6.67 4.18 13.7 6 21.09 3.21 12.97 5.46 25.4 6.85 37.1-1.15 1.94-2.24 3.7-3.33 5.27 1.94 5.88 3.76 11.64 5.4 17.34.36 1.33.73 2.73 1.09 4.06 17.07 62.25 15.13 112.68 11.61 142.87z" fill="#ff9f8e"/><path d="m439.61 365.53 4.44 2.46 4.07 2.85 3.72 3.24 3.41 3.67 3.02 3.98 2.69 4.29 2.35 4.63 2.01 4.99 1.59 5.1 1.23 5.33.87 5.59.49 5.87.1 5.83-.3 5.97-.7 6.13-1.12 6.29-1.48 6.16-1.91 6.2-2.35 6.24-2.79 6.3-3.2 6.11-3.42 5.72-3.66 5.35-3.9 4.99-4.23 4.79-4.36 4.36-4.49 3.95-4.63 3.55-4.9 3.27-4.91 2.8-4.94 2.35-4.99 1.93-5.16 1.53-5.08 1.04-5.03.57-5 .11-4.98-.39-4.87-.89-4.76-1.42-4.68-1.94-4.44-2.46-4.07-2.85-3.73-3.25-3.4-3.66-3.02-3.98-2.69-4.29-2.35-4.63-2.01-4.99-1.59-5.1-1.23-5.33-.87-5.59-.49-5.87-.1-5.83.3-5.97.7-6.13 1.11-6.3 1.49-6.15 1.91-6.2 2.34-6.24 2.8-6.3 3.19-6.11 3.43-5.72 3.66-5.35 3.9-4.99 4.23-4.79 4.36-4.36 4.49-3.95 4.62-3.55 4.9-3.27 4.92-2.8 4.94-2.35 4.98-1.93 5.16-1.53 5.09-1.04 5.03-.57 4.99-.11 4.99.39 4.86.89 4.77 1.41 4.68 1.95z" fill="#fff" fill-opacity=".4" stroke="#0f0f0f" stroke-opacity=".4" stroke-width="6"/><path d="m414.41 426.08 2.97.92 2.7 1.23 2.45 1.54 2.23 1.86 1.98 2.14 1.65 2.32 1.35 2.52 1.05 2.73.68 2.82.31 2.89-.08 2.98-.49 3.1-.92 3-1.23 2.71-1.54 2.47-1.86 2.24-2.14 1.99-2.31 1.67-2.5 1.36-2.72 1.06-2.82.69-2.88.32-2.96-.08-3.08-.48-2.98-.92-2.7-1.23-2.45-1.54-2.22-1.86-1.98-2.14-1.66-2.32-1.35-2.52-1.04-2.73-.69-2.82-.3-2.89.08-2.98.48-3.1.92-3 1.24-2.71 1.54-2.47 1.85-2.24 2.14-1.99 2.31-1.67 2.51-1.36 2.72-1.06 2.81-.7 2.88-.31 2.97.08 3.08.48z" fill="#152140"/><path d="m422.77 435.75 1.56.6 1.25.9.99 1.22.66 1.43.26 1.53-.15 1.68-.61 1.58-.9 1.26-1.21 1-1.43.66-1.52.26-1.67-.14-1.56-.6-1.25-.9-.99-1.23-.66-1.43-.25-1.52.14-1.68.61-1.58.9-1.26 1.21-1 1.43-.66 1.52-.27 1.67.15z" fill="#fff"/><path d="m597.84 389.57 4.44 2.46 4.07 2.85 3.73 3.25 3.4 3.66 3.02 3.98 2.69 4.29 2.35 4.63 2.01 4.99 1.59 5.1 1.23 5.33.87 5.59.49 5.87.1 5.83-.3 5.97-.7 6.13-1.11 6.3-1.49 6.15-1.91 6.2-2.34 6.24-2.8 6.3-3.19 6.11-3.43 5.72-3.66 5.35-3.9 4.99-4.23 4.79-4.36 4.36-4.49 3.95-4.62 3.55-4.9 3.27-4.92 2.8-4.94 2.35-4.98 1.93-5.16 1.53-5.09 1.04-5.03.57-4.99.11-4.99-.39-4.86-.89-4.77-1.41-4.68-1.95-4.44-2.46-4.07-2.85-3.72-3.24-3.41-3.67-3.02-3.98-2.69-4.29-2.35-4.63-2.01-4.99-1.59-5.1-1.23-5.33-.87-5.59-.49-5.87-.1-5.83.3-5.97.7-6.13 1.12-6.29 1.48-6.16 1.91-6.19 2.35-6.25 2.79-6.3 3.19-6.11 3.43-5.72 3.66-5.34 3.9-5 4.23-4.79 4.36-4.36 4.49-3.95 4.63-3.55 4.9-3.27 4.91-2.8 4.94-2.35 4.99-1.93 5.16-1.53 5.08-1.04 5.03-.57 5-.1 4.98.38 4.87.89 4.76 1.42 4.68 1.94z" fill="#fff" fill-opacity=".4" stroke="#0f0f0f" stroke-opacity=".4" stroke-width="6"/><path d="m572.64 450.12 2.98.92 2.7 1.23 2.45 1.54 2.22 1.86 1.98 2.14 1.66 2.32 1.35 2.52 1.04 2.73.69 2.82.3 2.89-.08 2.98-.48 3.1-.93 3-1.23 2.71-1.54 2.47-1.85 2.24-2.14 1.99-2.31 1.67-2.51 1.36-2.72 1.06-2.81.69-2.88.32-2.97-.08-3.08-.48-2.97-.92-2.7-1.23-2.45-1.54-2.23-1.86-1.98-2.14-1.65-2.32-1.35-2.52-1.05-2.73-.69-2.82-.3-2.89.08-2.99.49-3.09.92-3 1.23-2.71 1.54-2.47 1.86-2.24 2.14-1.99 2.31-1.67 2.5-1.36 2.72-1.06 2.82-.7 2.88-.31 2.96.08 3.08.48z" fill="#152140"/><path d="m581 459.79 1.57.6 1.25.9.99 1.22.65 1.43.26 1.53-.15 1.68-.6 1.58-.9 1.26-1.22 1-1.42.66-1.52.26-1.67-.14-1.56-.6-1.26-.9-.99-1.23-.65-1.43-.26-1.53.15-1.68.6-1.57.9-1.26 1.22-1 1.42-.67 1.53-.26 1.66.15z" fill="#fff"/><path d="M555.7 343.88c.86 1.59 19.29-10.37 39.18-7.21 8.04 1.28 13.58 4.59 14.67 5.27a38.28 38.28 0 0 1 10.32 9.29c-.37-2.51-1.18-6.14-3.17-10.07-4.19-8.33-11.5-13.86-17.58-16.14-21.08-7.92-44.47 16.92-43.42 18.86zM434.61 344.39c-.53-7.88-10.88-15.96-20.45-17.26-11.21-1.53-23.28 5.97-30.17 18.77 10.39-8.35 17.38-9.01 21.96-7.88 3.51.87 7.99 3.38 16.59 8.21 4.84 2.72 8.27 4.89 10.39 3.52 1.96-1.25 1.72-4.8 1.68-5.36z" fill="#152140"/><path d="M555.82 696.87c0 41.31-30.87 74.8-68.95 74.8s-68.95-33.49-68.95-74.8c0-41.31 30.87-74.8 68.95-74.8s68.95 33.49 68.95 74.8z" fill="url(#a)" fill-opacity=".6"/><path d="m624.36 534.86-.1 1.78-.7 1.83-1.43 1.96-1.8 1.71-2.4 1.74-3.12 1.79-3.24 1.51-3.74 1.44-4.29 1.36-6.66 1.61-7.46 1.21-7.53.65-6.85.06-4.49-.26-3.98-.49-3.52-.68-3.45-.97-2.75-1.1-2.17-1.22-1.86-1.55-1.13-1.6-.53-1.71.1-1.78.7-1.83 1.43-1.96 1.8-1.71 2.4-1.74 3.11-1.79 3.25-1.51 3.74-1.44 4.29-1.36 6.66-1.61 7.46-1.21 7.53-.65 6.84-.06 4.5.27 3.98.48 3.51.68 3.46.97 2.75 1.1 2.17 1.22 1.86 1.55 1.13 1.6.53 1.71zM369.73 513.7l5.09.61 4.57.87 4.08 1.08 4 1.42 3.13 1.49 2.41 1.54 1.64 1.44 1.02 1.36.53 1.31.13 1.29-.34 1.26-.75 1.19-1.24 1.17-1.86 1.14-2.63 1.11-3.34.93-4.19.73-4.2.37-4.65.08-5.12-.26-5.1-.62-4.56-.86-4.09-1.08-4-1.43-3.13-1.49-2.41-1.54-1.64-1.44-1.02-1.36-.53-1.3-.12-1.29.34-1.26.75-1.19 1.23-1.17 1.86-1.14 2.64-1.11 3.34-.94 4.18-.72 4.21-.38 4.64-.07 5.13.26z" fill="#ff8777"/><path d="M679.26 430.93c-2.1-7.15-3.74-12.26-4.1-13.39-3.15-9.95-6.8-28.03-9.52-63.49.85 9.34 1.03 21.21-1.01 34.69-3.15 20.88-10.31 37.13-16.09 47.77 1.86-40.06.11-73.25-2.01-97.04-7.6-85.19-24.66-101.73-34.69-108.61-11.68-8-24.25-10.04-32.68-10.56a328.724 328.724 0 0 0-67.38 23.13 329.4 329.4 0 0 0-58.33 35.2c3.46-6.3 8.58-14.01 16.09-21.62 14.66-14.85 30.78-21.57 40.23-24.64a685.575 685.575 0 0 0-160.9 84.47c5.01-9.91 11.27-19.94 19.11-29.66 48.23-59.88 124.6-69.36 152.35-71.4-14.24-2.8-27.23-3.49-38.72-3.02-89.77 3.69-149.21 80.99-164.41 102.07 4.37-10.75 11.41-25.51 22.62-41.23 68.68-96.26 216.31-119.7 315.26-82.46 22.46 8.45 78.41 29.51 87.99 73.41 1.85 8.46 1.54 15.8 1.01 20.61-.14 3.89-.12 9.91 1.01 17.1 4.08 26.14 18.63 41.96 26.82 54.3 9.25 13.94 19.13 36.63 18.77 73.75-.7.18-51.51 13.03-52.22 13.2-.7.18-51.52 13.03-52.23 13.2-1.49-6.03-3.8-14.97-6.97-25.78z" fill="#152140"/><path d="m737.35 429.31 3.99 1.69 3.64 2.2 3.32 2.74 3.04 3.29 2.6 3.63 2.27 4.03 1.94 4.48 1.6 4.98 1.14 5.02.75 5.32.36 5.63-.07 5.98-.48 5.87-.93 6.01-1.39 6.18-1.87 6.35-2.33 6.19-2.61 5.77-2.88 5.36-3.15 4.98-3.55 4.81-3.67 4.28-3.8 3.79-3.94 3.33-4.27 3.01-4.25 2.41-4.24 1.85-4.26 1.33-4.41.8-4.3.18-4.23-.43-4.2-1.05-3.99-1.69-3.64-2.21-3.33-2.73-3.03-3.3-2.6-3.62-2.27-4.03-1.94-4.49-1.6-4.97-1.14-5.03-.76-5.31-.35-5.63.06-5.98.48-5.87.93-6.02 1.39-6.17 1.88-6.35 2.32-6.2 2.61-5.76 2.88-5.36 3.15-4.98 3.55-4.82 3.68-4.28 3.8-3.78 3.93-3.33 4.27-3.01 4.25-2.41 4.25-1.85 4.25-1.33 4.41-.81 4.3-.17 4.23.43 4.21 1.05z" fill="#ff9f8e"/><path d="M739.83 486.21c-.73-6.79-3.82-14.37-10-16.79-6.24-2.18-12.24 2.85-17.28 7.15-10.24 8.97-15.52 22.12-17.46 35.34-.06.54-.24 1.03-.49 1.52-.49-6.36-1.15-12.97-2-19.82 4.12-8.06 9.76-15.28 17.15-20.49 2.97-2.12 6-4.12 9.58-5.58 3.39-1.45 7.82-1.94 11.4-.12 7.1 3.82 8.98 11.94 9.1 18.79z" fill="#152140"/><path d="M494.79 955.56c-.05.11-.05.22-.11.34-.39 1.12-.73 2.19-1.01 3.31-2.47 8.01-4.04 16.25-4.76 24.55-1.18 13.34-.11 27.02 3.19 40.36-1.68-.11-3.42-.17-5.1-.28-.22 0-.51 0-.73-.06-3.14-13.4-4.15-27.13-2.97-40.52.9-10.03 2.97-19.9 6.17-29.48l.17.06 3.36 1.12 1.79.6z" fill="#fff"/><path d="m504.99 940.88-16.81 10.65 1.46 2.3 3.59 5.66.45-.28 16.37-10.31-5.06-8.02zm-11.1 15.52-.89-1.46-1.74-2.75 13.06-8.24 2.63 4.2-12.27 7.73-.79.52z" fill="#fff"/><path d="M556.39 688.1a351.242 351.242 0 0 1-58.29 3.81c-22.42-.45-76.67-1.46-80.48-17.77-1.68-7.29 6.78-16.81 17.43-23.71 4.15-2.75 8.63-5.1 12.95-6.73 23.04-8.58 51.23-1.4 78.07 17.49 10.42 7.24 20.67 16.32 30.32 26.91z" fill="#dd5543"/><path d="M526.06 661.2c-1.96.73-4.09 1.01-6.33.84l-74.77-6.39c-4.04-.34-7.57-2.3-9.92-5.21 4.15-2.75 8.63-5.1 12.95-6.73 23.03-8.58 51.23-1.4 78.07 17.49z" fill="#fff"/><path d="M637.98 246.12c-3.69 2.21 7.26 18.85 14.88 64.16 3.31 19.67 4.59 36.47 5.11 48.82 1.14-6.9 3.18-14.79 6.97-15.34 7.07-1.03 15.99 24.01 17.2 27.43 4.01 11.27 8.43 28.74 7.44 52.07 8.72-6.44 19.49-16.61 25.1-31.61 23.71-63.35-67.57-151-76.7-145.53zM584.05 212.18c-8.1-.19-16.12 1.07-29.29 5.58-9.88 3.38-23.31 8.82-38.59 17.67l2.79-10.69c-19.22 2.75-43.86 8.78-69.74 22.32-8.26 4.32-15.69 8.9-22.32 13.48 1.58-4.3 4.7-11.96 10.23-20.46 36.16-55.56 132.26-80.9 178.06-43.24 6.69 5.5 15.1 14.64 21.39 30.22-15.72-7.55-28.97-11.15-38.13-13.02-7.63-1.56-11.86-1.8-14.4-1.86z" fill="#fff" fill-opacity=".05"/><path d="m473.45 609.47-10.7-2.07c-26.84-5.18-44.39-31.14-39.21-57.97l1.74-9.02c3.05-15.77 18.3-26.09 34.07-23.04l11.2 2.16c29.19 5.64 48.28 33.88 42.63 63.07-3.55 18.39-21.34 30.42-39.73 26.87z" fill="url(#b)"/></svg>