<?xml version="1.0" standalone="no"?><!DOCTYPE svg PUBLIC "-//W3C//DTD SVG 1.1//EN" "http://www.w3.org/Graphics/SVG/1.1/DTD/svg11.dtd"><svg height="1024" node-id="1" sillyvg="true" template-height="1024" template-width="1024" version="1.1" viewBox="0 0 1024 1024" width="1024" xmlns="http://www.w3.org/2000/svg" xmlns:xlink="http://www.w3.org/1999/xlink"><defs node-id="44"><linearGradient gradientUnits="userSpaceOnUse" id="SVGID_1_" node-id="22" spreadMethod="pad" x1="486.8729" x2="486.8729" y1="771.6721" y2="622.063"><stop offset="0" stop-color="#e9705e" stop-opacity="0.8"></stop><stop offset="0.6685" stop-color="#ff9f8e" stop-opacity="0"></stop></linearGradient><linearGradient gradientUnits="userSpaceOnUse" id="SVGID_2_" node-id="39" spreadMethod="pad" x1="511.8936" x2="424.6872" y1="589.6462" y2="539.2976"><stop offset="0.2403" stop-color="#dd5543" stop-opacity="0"></stop><stop offset="1" stop-color="#dd5543" stop-opacity="0.6"></stop></linearGradient></defs><g node-id="158"><path d="M 1024.50 512.50 C 1024.50 649.26 970.86 773.57 883.42 865.38 C 870.81 878.66 857.47 891.33 843.46 903.10 C 841.67 904.73 839.82 906.24 837.97 907.75 C 829.45 914.81 820.82 921.43 811.91 927.87 C 727.73 988.68 624.26 1024.50 512.45 1024.50 C 503.93 1024.50 495.35 1024.33 487.00 1023.83 C 484.87 1023.72 482.68 1023.61 480.55 1023.44 C 473.54 1023.05 466.60 1022.54 459.70 1021.76 C 455.16 1021.31 450.62 1020.75 446.14 1020.19 C 445.02 1020.08 443.90 1019.91 442.78 1019.74 C 434.60 1018.68 426.53 1017.39 418.57 1015.87 C 369.69 1006.90 323.34 990.87 280.52 969.01 C 256.20 956.68 232.99 942.39 211.19 926.36 C 206.93 923.28 202.78 920.14 198.63 916.89 C 178.34 901.20 159.28 883.93 141.57 865.38 C 54.14 773.63 0.50 649.37 0.50 512.50 C 0.50 229.74 229.74 0.50 512.45 0.50 C 795.21 0.50 1024.50 229.74 1024.50 512.50 Z" fill="#8cdbf4" fill-rule="nonzero" group-id="1" node-id="61" stroke="none" target-height="1024" target-width="1024" target-x="0.5" target-y="0.5"></path></g><path d="M 843.46 903.10 C 841.67 904.73 839.82 906.24 837.97 907.75 C 829.45 914.81 820.82 921.43 811.91 927.87 C 727.73 988.68 624.26 1024.50 512.45 1024.50 C 503.93 1024.50 495.35 1024.33 487.00 1023.83 C 484.87 1023.72 482.68 1023.61 480.55 1023.44 C 473.54 1023.05 466.60 1022.54 459.70 1021.76 C 455.16 1021.31 450.62 1020.75 446.14 1020.19 C 445.02 1020.08 443.90 1019.91 442.78 1019.74 C 434.60 1018.68 426.53 1017.39 418.57 1015.87 C 369.69 1006.90 323.34 990.87 280.52 969.01 C 256.20 956.68 232.99 942.39 211.19 926.36 C 206.93 923.28 202.78 920.14 198.63 916.89 C 226.71 894.92 250.03 877.04 254.51 873.56 C 282.59 849.46 322.89 820.93 376.08 800.14 C 376.25 800.08 376.41 799.97 376.58 799.92 L 376.63 799.92 C 383.19 797.40 389.69 795.04 396.14 792.91 C 396.19 792.91 396.19 792.91 396.25 792.85 C 396.64 792.74 397.15 792.57 397.54 792.40 C 397.59 792.40 397.59 792.40 397.65 792.34 C 409.76 788.47 421.75 785.17 433.52 782.48 C 504.20 766.39 568.04 771.78 615.34 780.97 C 629.74 783.77 642.58 786.91 653.62 789.94 C 654.41 790.16 655.25 790.39 656.09 790.61 C 658.67 791.34 661.30 792.12 664.05 792.85 C 664.10 792.85 664.22 792.91 664.27 792.91 C 664.61 793.02 664.89 793.08 665.22 793.19 C 671.16 794.93 676.37 796.55 680.80 797.90 C 681.81 798.18 682.87 798.52 684.05 798.91 C 684.22 798.97 684.33 799.02 684.50 799.08 C 706.25 805.92 758.43 824.69 809.04 866.79 C 827.77 882.36 837.52 893.80 843.46 903.10 Z" fill="#274e88" fill-rule="nonzero" node-id="64" stroke="none" target-height="258.11" target-width="644.83" target-x="198.63" target-y="766.39"></path><path d="M 396.40 784.92 C 423.58 775.58 461.59 765.93 507.57 764.46 C 578.20 762.20 634.06 780.32 666.49 793.79 C 611.24 858.81 556.00 923.83 500.75 988.85 C 463.69 980.89 450.66 978.09 413.60 970.14 C 415.87 910.12 394.13 844.94 396.40 784.92 Z" fill="#ffffff" fill-rule="nonzero" node-id="66" stroke="none" target-height="226.64996" target-width="272.36" target-x="394.13" target-y="762.2"></path><path d="M 679.92 776.99 C 674.71 764.55 663.44 751.21 633.96 738.76 C 577.07 714.72 484.43 707.37 410.72 759.67 C 397.75 768.90 384.77 780.24 378.28 786.66 C 377.22 787.70 376.60 789.07 376.56 790.55 C 376.48 793.49 376.50 796.62 376.59 799.92 C 379.06 857.03 415.26 957.58 418.57 1015.87 C 426.53 1017.38 434.60 1018.67 442.78 1019.74 C 443.90 1019.91 445.02 1020.08 446.14 1020.19 C 450.62 1020.75 455.16 1021.31 459.70 1021.76 C 466.59 1022.54 473.54 1023.05 480.55 1023.44 C 531.28 980.78 654.41 874.29 680.37 822.00 C 682.67 817.35 684.74 808.94 684.52 799.08 C 684.40 792.24 683.05 784.56 679.92 776.99 Z M 445.80 1016.32 C 444.62 1004.32 442.10 990.48 438.79 975.52 C 425.39 914.93 399.22 836.24 397.65 792.35 C 397.54 790.95 397.54 789.60 397.54 788.31 C 405.27 784.83 417.88 779.62 433.91 775.14 C 495.79 757.82 551.27 767.41 605.75 777.44 C 618.14 779.68 633.94 784.33 653.61 789.94 C 654.40 790.16 655.24 790.39 656.08 790.61 C 658.88 791.34 661.52 792.12 664.04 792.85 C 664.09 792.85 664.21 792.91 664.26 792.91 C 664.60 793.02 664.88 793.08 665.21 793.19 C 665.16 793.25 665.16 793.25 665.16 793.30 C 619.65 845.82 536.81 921.82 476.56 983.64 C 465.36 995.13 455.00 1006.06 445.80 1016.32 Z" fill="#1467a8" fill-rule="nonzero" node-id="68" stroke="none" target-height="316.07" target-width="308.25998" target-x="376.48" target-y="707.37"></path><path d="M 615.33 676.48 C 615.33 715.36 615.33 754.23 615.33 793.11 C 590.50 820.10 567.13 838.60 550.54 850.40 C 516.06 874.92 491.62 891.80 468.01 883.82 C 452.34 878.53 444.09 864.68 440.05 857.90 C 413.24 812.93 443.06 755.23 446.87 748.09 C 503.03 724.22 559.18 700.35 615.33 676.48 Z" fill="#ff9f8e" fill-rule="nonzero" node-id="70" stroke="none" target-height="215.32" target-width="202.09003" target-x="413.24" target-y="676.48"></path><path d="M 615.35 676.50 L 615.35 793.14 C 590.52 820.10 567.15 838.60 550.56 850.42 C 516.09 874.91 491.65 891.78 468.00 883.82 C 452.36 878.55 444.07 864.71 440.03 857.93 C 422.60 828.67 429.16 793.98 436.89 771.39 C 437.84 768.53 438.85 765.84 439.80 763.43 C 443.00 755.53 445.85 749.98 446.86 748.07 C 503.03 724.19 559.19 700.37 615.35 676.50 Z" fill="#ff9f8e" fill-rule="nonzero" node-id="72" stroke="none" target-height="215.28003" target-width="192.74997" target-x="422.6" target-y="676.5"></path><path d="M 615.35 676.50 L 615.35 732.38 C 594.95 744.37 568.77 756.03 534.13 772.90 C 516.87 781.36 500.00 788.54 481.62 788.48 L 481.11 788.48 C 479.32 788.48 477.52 788.37 475.73 788.20 C 474.72 788.09 473.71 787.98 472.70 787.86 C 471.69 787.69 470.68 787.52 469.62 787.36 C 467.10 786.86 464.58 786.30 462.11 785.51 C 452.75 782.65 444.96 777.94 436.89 771.39 C 437.84 768.53 438.85 765.84 439.80 763.43 C 443.00 755.53 445.85 749.98 446.86 748.07 C 503.03 724.19 559.19 700.37 615.35 676.50 Z" fill="#f5575d" fill-rule="nonzero" node-id="74" stroke="none" target-height="112.03998" target-width="178.45996" target-x="436.89" target-y="676.5"></path><path d="M 684.57 640.12 C 690.27 628.99 703.33 607.21 728.82 589.84 C 749.73 575.58 769.96 570.45 781.78 568.39 C 780.95 565.95 779.40 562.63 776.42 559.68 C 767.62 550.95 754.49 553.34 752.96 553.65 C 763.10 551.01 780.86 544.72 795.86 528.84 C 800.38 524.05 803.88 519.22 806.59 514.76 C 802.12 512.53 797.65 510.29 793.18 508.06 C 802.63 484.36 828.60 410.27 801.90 323.03 C 784.79 267.14 753.45 229.98 734.86 211.07 C 738.95 208.94 745.19 205.05 750.95 198.33 C 755.40 193.14 758.07 188.02 759.66 184.25 C 753.29 182.78 745.86 181.52 737.54 180.90 C 726.49 180.08 716.73 180.60 708.71 181.57 C 710.33 179.23 716.32 169.97 714.74 157.44 C 712.70 141.25 699.71 133.02 697.98 131.96 C 656.15 131.62 595.89 135.74 527.02 156.77 C 457.46 178.01 404.77 208.67 370.15 232.53 C 383.78 231.86 397.41 231.19 411.04 230.52 C 397.57 236.11 377.83 246.18 358.08 264.04 C 336.50 283.56 324.01 304.16 317.19 317.67 C 324.62 309.85 333.07 301.93 342.66 294.21 C 384.29 260.72 428.48 246.44 459.98 239.91 C 440.66 244.60 407.76 255.52 376.85 282.82 C 362.52 295.47 352.12 308.55 344.67 319.69 C 353.05 316.40 365.54 311.15 380.20 303.60 C 402.94 291.88 416.12 282.22 417.07 283.49 C 418.23 285.04 400.24 301.39 381.54 316.34 C 346.85 344.07 325.69 354.18 327.91 361.26 C 328.80 364.10 333.64 367.10 352.72 366.62 C 346.55 368.15 337.18 371.53 333.95 379.36 C 331.12 386.21 334.30 393.35 335.96 397.46 C 340.41 408.44 345.02 424.85 346.02 449.08 C 458.87 512.74 571.72 576.43 684.57 640.12 Z" fill="#152140" fill-rule="nonzero" node-id="76" stroke="none" target-height="508.5" target-width="511.40997" target-x="317.19" target-y="131.62"></path><path d="M 693.28 581.80 C 689.16 617.38 685.82 645.75 665.82 675.63 C 642.67 710.12 607.33 723.15 539.74 756.07 C 518.22 766.62 497.31 775.23 473.36 770.19 C 453.72 766.07 441.60 754.73 423.11 736.67 C 323.16 638.90 315.94 615.80 313.82 601.92 C 310.79 582.22 312.73 564.64 314.49 546.94 C 321.46 476.99 355.41 417.53 355.41 417.53 C 400.39 320.61 413.60 287.08 420.15 272.66 C 422.70 271.27 425.24 269.93 427.79 268.60 C 454.28 254.72 479.50 243.81 502.35 235.08 C 493.07 238.96 480.89 245.57 469.56 257.02 C 462.04 264.60 456.95 272.30 453.44 278.60 C 468.29 267.45 487.69 254.72 511.81 243.44 C 537.15 231.50 560.43 224.53 579.16 220.28 C 587.58 220.83 600.19 222.83 611.83 230.83 C 621.89 237.74 638.93 254.29 646.57 339.45 C 648.69 363.27 650.45 396.43 648.57 436.50 C 654.33 425.89 661.48 409.59 664.63 388.74 C 666.69 375.22 666.51 363.40 665.66 354.07 C 667.84 360.74 669.84 367.77 671.66 375.16 C 674.87 388.13 677.12 400.56 678.51 412.26 C 677.36 414.20 676.27 415.96 675.18 417.53 C 677.12 423.41 678.94 429.17 680.58 434.87 C 680.94 436.20 681.31 437.60 681.67 438.93 C 698.74 501.18 696.80 551.61 693.28 581.80 Z" fill="#ff9f8e" fill-rule="nonzero" node-id="78" stroke="none" target-height="554.94995" target-width="387.94998" target-x="310.79" target-y="220.28"></path><path d="M 437.75 405.51 L 441.78 406.68 L 445.58 408.23 L 449.18 410.17 L 452.60 412.50 L 455.77 415.14 L 458.72 418.10 L 461.46 421.39 L 464.00 425.04 L 466.90 430.17 L 469.37 435.76 L 471.39 441.86 L 472.85 448.12 L 473.80 454.71 L 474.21 461.68 L 474.04 468.65 L 473.28 475.82 L 471.89 483.21 L 469.90 490.46 L 467.44 497.24 L 464.54 503.58 L 461.12 509.66 L 457.38 515.17 L 453.32 520.16 L 448.83 524.75 L 444.16 528.70 L 439.30 532.04 L 435.42 534.20 L 431.52 535.96 L 427.57 537.32 L 423.56 538.31 L 419.47 538.91 L 415.38 539.07 L 411.29 538.80 L 407.15 538.09 L 403.12 536.91 L 399.32 535.36 L 395.72 533.43 L 392.30 531.10 L 389.13 528.45 L 386.18 525.49 L 383.44 522.20 L 380.90 518.56 L 378.00 513.43 L 375.53 507.83 L 373.51 501.74 L 372.05 495.48 L 371.10 488.88 L 370.69 481.92 L 370.86 474.95 L 371.62 467.78 L 373.01 460.39 L 375.00 453.14 L 377.46 446.36 L 380.37 440.02 L 383.79 433.94 L 387.53 428.43 L 391.58 423.44 L 396.07 418.84 L 400.74 414.90 L 405.60 411.56 L 409.48 409.40 L 413.38 407.64 L 417.34 406.27 L 421.34 405.28 L 425.43 404.69 L 429.52 404.53 L 433.62 404.80 L 437.75 405.51 Z" fill="#ffffff" fill-opacity="0.4" fill-rule="nonzero" group-id="2" node-id="82" stroke="#0f0f0f" stroke-linecap="butt" stroke-opacity="0.4" stroke-width="6.000106" target-height="134.54001" target-width="103.51999" target-x="370.69" target-y="404.53"></path><path d="M 448.31 476.01 C 448.31 486.96 439.43 495.84 428.48 495.84 C 417.53 495.84 408.65 486.96 408.65 476.01 C 408.65 465.06 417.53 456.18 428.48 456.18 C 439.43 456.18 448.31 465.06 448.31 476.01 Z" fill="#152140" fill-rule="nonzero" node-id="85" stroke="none" target-height="39.660004" target-width="39.660004" target-x="408.65" target-y="456.18"></path><path d="M 443.00 468.20 C 443.00 471.18 440.58 473.60 437.60 473.60 C 434.62 473.60 432.20 471.18 432.20 468.20 C 432.20 465.22 434.62 462.80 437.60 462.80 C 440.58 462.80 443.00 465.22 443.00 468.20 Z" fill="#ffffff" fill-rule="nonzero" node-id="87" stroke="none" target-height="10.800018" target-width="10.799988" target-x="432.2" target-y="462.8"></path><path d="M 595.84 391.15 L 600.14 393.54 L 604.09 396.31 L 607.71 399.46 L 611.01 403.02 L 613.95 406.88 L 616.56 411.05 L 618.84 415.54 L 620.79 420.39 L 622.33 425.33 L 623.53 430.51 L 624.37 435.94 L 624.85 441.63 L 624.94 447.29 L 624.65 453.09 L 623.97 459.04 L 622.89 465.15 L 621.45 471.13 L 619.60 477.14 L 617.32 483.20 L 614.60 489.31 L 611.50 495.24 L 608.18 500.80 L 604.62 505.99 L 600.84 510.84 L 596.73 515.49 L 592.50 519.72 L 588.14 523.55 L 583.65 527.00 L 578.90 530.17 L 574.13 532.89 L 569.33 535.17 L 564.49 537.04 L 559.48 538.53 L 554.55 539.54 L 549.67 540.09 L 544.82 540.20 L 539.98 539.83 L 535.26 538.96 L 530.63 537.59 L 526.09 535.70 L 521.78 533.31 L 517.83 530.55 L 514.21 527.39 L 510.91 523.83 L 507.97 519.97 L 505.37 515.81 L 503.09 511.32 L 501.14 506.47 L 499.59 501.52 L 498.39 496.34 L 497.55 490.92 L 497.07 485.22 L 496.98 479.56 L 497.27 473.76 L 497.95 467.82 L 499.03 461.71 L 500.48 455.73 L 502.33 449.72 L 504.61 443.66 L 507.32 437.54 L 510.42 431.61 L 513.75 426.06 L 517.30 420.87 L 521.08 416.02 L 525.19 411.37 L 529.42 407.14 L 533.78 403.30 L 538.27 399.85 L 543.02 396.68 L 547.80 393.97 L 552.60 391.68 L 557.43 389.81 L 562.44 388.32 L 567.38 387.31 L 572.26 386.76 L 577.11 386.66 L 581.95 387.03 L 586.67 387.90 L 591.29 389.27 L 595.84 391.15 Z" fill="#ffffff" fill-opacity="0.4" fill-rule="nonzero" group-id="3" node-id="91" stroke="#0f0f0f" stroke-linecap="butt" stroke-opacity="0.4" stroke-width="5.9998727" target-height="153.54001" target-width="127.95999" target-x="496.98" target-y="386.66"></path><path d="M 571.39 449.96 L 574.28 450.86 L 576.90 452.05 L 579.28 453.55 L 581.44 455.35 L 583.93 458.16 L 585.87 461.29 L 587.29 464.78 L 587.96 467.52 L 588.25 470.33 L 588.17 473.22 L 587.70 476.23 L 586.81 479.13 L 585.61 481.77 L 584.12 484.16 L 582.32 486.34 L 579.51 488.85 L 576.40 490.81 L 572.93 492.24 L 570.19 492.92 L 567.40 493.22 L 564.52 493.15 L 561.53 492.68 L 558.64 491.79 L 556.02 490.59 L 553.64 489.10 L 551.48 487.29 L 548.99 484.48 L 547.05 481.36 L 545.63 477.87 L 544.97 475.13 L 544.67 472.32 L 544.75 469.43 L 545.22 466.42 L 546.12 463.51 L 547.31 460.88 L 548.81 458.48 L 550.61 456.31 L 553.41 453.80 L 556.53 451.84 L 560.00 450.41 L 562.73 449.73 L 565.52 449.43 L 568.40 449.50 L 571.39 449.96 Z" fill="#152140" fill-rule="nonzero" group-id="4" node-id="96" stroke="none" target-height="43.79001" target-width="43.580017" target-x="544.67" target-y="449.43"></path><path d="M 579.52 459.35 L 581.03 459.93 L 582.25 460.81 L 583.21 462.00 L 583.85 463.38 L 584.10 464.87 L 583.95 466.50 L 583.37 468.03 L 582.49 469.25 L 581.31 470.22 L 579.93 470.87 L 578.45 471.12 L 576.83 470.98 L 575.32 470.40 L 574.10 469.52 L 573.14 468.34 L 572.50 466.95 L 572.25 465.46 L 572.40 463.83 L 572.98 462.30 L 573.86 461.08 L 575.04 460.11 L 576.42 459.47 L 577.90 459.21 L 579.52 459.35 Z" fill="#ffffff" fill-rule="nonzero" group-id="5" node-id="101" stroke="none" target-height="11.910004" target-width="11.849976" target-x="572.25" target-y="459.21"></path><path d="M 539.33 381.87 C 540.66 383.11 554.33 365.91 574.19 362.60 C 582.22 361.26 588.52 362.65 589.78 362.93 C 595.55 364.26 599.86 366.69 602.52 368.46 C 601.37 366.20 599.45 363.02 596.32 359.91 C 589.70 353.35 581.01 350.42 574.53 350.19 C 552.01 349.38 537.72 380.36 539.33 381.87 Z" fill="#152140" fill-rule="nonzero" node-id="104" stroke="none" target-height="33.72998" target-width="64.80005" target-x="537.72" target-y="349.38"></path><path d="M 455.53 381.37 C 455.00 373.49 444.65 365.41 435.08 364.11 C 423.87 362.58 411.80 370.08 404.91 382.88 C 415.30 374.53 422.29 373.87 426.87 375.00 C 430.38 375.87 434.86 378.38 443.46 383.21 C 448.30 385.93 451.73 388.10 453.85 386.73 C 455.81 385.47 455.57 381.93 455.53 381.37 Z" fill="#152140" fill-rule="nonzero" node-id="106" stroke="none" target-height="25.52002" target-width="50.899994" target-x="404.91" target-y="362.58"></path><path d="M 555.82 696.87 C 555.82 738.18 524.95 771.67 486.87 771.67 C 448.79 771.67 417.92 738.18 417.92 696.87 C 417.92 655.56 448.79 622.07 486.87 622.07 C 524.95 622.07 555.82 655.56 555.82 696.87 Z" fill="url(#SVGID_1_)" fill-opacity="0.6" fill-rule="nonzero" group-id="6" node-id="110" stroke="none" target-height="149.59998" target-width="137.9" target-x="417.92" target-y="622.07"></path><path d="M 625.87 517.45 L 626.29 519.19 L 626.15 521.14 L 625.34 523.43 L 624.10 525.58 L 622.30 527.94 L 619.83 530.54 L 617.16 532.92 L 613.99 535.38 L 610.26 537.91 L 604.35 541.36 L 597.55 544.66 L 590.52 547.44 L 583.98 549.47 L 579.60 550.50 L 575.64 551.18 L 572.09 551.54 L 568.50 551.60 L 565.54 551.33 L 563.12 550.79 L 560.89 549.84 L 559.35 548.62 L 558.35 547.14 L 557.94 545.40 L 558.08 543.45 L 558.89 541.16 L 560.13 539.01 L 561.92 536.65 L 564.40 534.05 L 567.07 531.67 L 570.24 529.21 L 573.96 526.68 L 579.87 523.23 L 586.68 519.93 L 593.70 517.15 L 600.24 515.12 L 604.63 514.09 L 608.58 513.41 L 612.14 513.05 L 615.73 512.99 L 618.68 513.26 L 621.10 513.80 L 623.34 514.75 L 624.88 515.97 L 625.87 517.45 Z" fill="#ff8777" fill-rule="nonzero" group-id="7" node-id="115" stroke="none" target-height="38.609985" target-width="68.349976" target-x="557.94" target-y="512.99"></path><path d="M 394.97 527.47 L 398.88 530.78 L 402.22 534.02 L 405.03 537.17 L 407.59 540.56 L 409.38 543.53 L 410.55 546.14 L 411.12 548.25 L 411.22 549.94 L 410.95 551.32 L 410.34 552.47 L 409.36 553.33 L 408.08 553.92 L 406.41 554.21 L 404.23 554.14 L 401.42 553.61 L 398.11 552.56 L 394.22 550.86 L 390.50 548.86 L 386.59 546.36 L 382.45 543.32 L 378.53 540.00 L 375.20 536.77 L 372.39 533.62 L 369.83 530.23 L 368.04 527.26 L 366.87 524.65 L 366.30 522.54 L 366.19 520.85 L 366.47 519.46 L 367.08 518.31 L 368.05 517.45 L 369.33 516.87 L 371.01 516.58 L 373.19 516.64 L 376.00 517.17 L 379.30 518.23 L 383.19 519.93 L 386.91 521.93 L 390.83 524.43 L 394.97 527.47 Z" fill="#ff8777" fill-rule="nonzero" group-id="8" node-id="120" stroke="none" target-height="37.630005" target-width="45.03" target-x="366.19" target-y="516.58"></path><path d="M 679.26 430.93 C 677.16 423.78 675.52 418.67 675.16 417.54 C 672.01 407.59 668.36 389.51 665.64 354.05 C 666.49 363.39 666.67 375.26 664.63 388.74 C 661.48 409.62 654.32 425.87 648.54 436.51 C 650.40 396.45 648.65 363.26 646.53 339.47 C 638.93 254.28 621.87 237.74 611.84 230.86 C 600.16 222.86 587.59 220.82 579.16 220.30 C 560.42 224.53 537.13 231.52 511.78 243.43 C 487.70 254.75 468.27 267.44 453.45 278.63 C 456.91 272.33 462.03 264.62 469.54 257.01 C 484.20 242.16 500.32 235.44 509.77 232.37 C 484.92 241.46 457.20 253.22 427.81 268.57 C 397.37 284.47 371.07 301.11 348.87 316.84 C 353.88 306.93 360.14 296.90 367.98 287.18 C 416.21 227.30 492.58 217.82 520.33 215.78 C 506.09 212.98 493.10 212.29 481.61 212.76 C 391.84 216.45 332.40 293.75 317.20 314.83 C 321.57 304.08 328.61 289.32 339.82 273.60 C 408.50 177.34 556.13 153.90 655.08 191.14 C 677.54 199.59 733.49 220.65 743.07 264.55 C 744.92 273.01 744.61 280.35 744.08 285.16 C 743.94 289.05 743.96 295.07 745.09 302.26 C 749.17 328.40 763.72 344.22 771.91 356.56 C 781.16 370.50 791.04 393.19 790.68 430.31 C 789.98 430.49 739.17 443.34 738.46 443.51 C 737.76 443.69 686.94 456.54 686.24 456.71 C 684.74 450.68 682.43 441.74 679.26 430.93 Z" fill="#152140" fill-rule="nonzero" node-id="123" stroke="none" target-height="302.81" target-width="473.83997" target-x="317.2" target-y="153.9"></path><path d="M 737.35 429.31 L 741.34 431.00 L 744.98 433.21 L 748.30 435.94 L 751.34 439.23 L 753.94 442.86 L 756.21 446.89 L 758.15 451.37 L 759.75 456.35 L 760.89 461.37 L 761.64 466.69 L 762.00 472.32 L 761.93 478.30 L 761.45 484.17 L 760.52 490.18 L 759.13 496.36 L 757.26 502.71 L 754.93 508.91 L 752.33 514.67 L 749.44 520.03 L 746.29 525.01 L 742.74 529.82 L 739.07 534.10 L 735.27 537.89 L 731.34 541.22 L 727.06 544.23 L 722.81 546.64 L 718.57 548.49 L 714.32 549.82 L 709.90 550.62 L 705.60 550.80 L 701.37 550.37 L 697.17 549.32 L 693.18 547.63 L 689.54 545.42 L 686.21 542.69 L 683.18 539.39 L 680.58 535.77 L 678.31 531.74 L 676.37 527.25 L 674.77 522.28 L 673.63 517.25 L 672.88 511.94 L 672.52 506.31 L 672.58 500.33 L 673.06 494.46 L 673.99 488.44 L 675.38 482.27 L 677.26 475.92 L 679.58 469.72 L 682.19 463.96 L 685.07 458.60 L 688.22 453.62 L 691.77 448.80 L 695.45 444.52 L 699.25 440.74 L 703.18 437.41 L 707.46 434.40 L 711.70 431.99 L 715.95 430.14 L 720.20 428.81 L 724.61 428.00 L 728.91 427.83 L 733.14 428.26 L 737.35 429.31 Z" fill="#ff9f8e" fill-rule="nonzero" group-id="9" node-id="127" stroke="none" target-height="122.97" target-width="89.47998" target-x="672.52" target-y="427.83"></path><path d="M 739.83 486.21 C 739.10 479.42 736.01 471.84 729.83 469.42 C 723.59 467.24 717.59 472.27 712.55 476.57 C 702.31 485.54 697.03 498.69 695.09 511.91 C 695.03 512.45 694.85 512.94 694.60 513.43 C 694.11 507.07 693.45 500.46 692.60 493.61 C 696.72 485.55 702.36 478.33 709.75 473.12 C 712.72 471.00 715.75 469.00 719.33 467.54 C 722.72 466.09 727.15 465.60 730.73 467.42 C 737.83 471.24 739.71 479.36 739.83 486.21 Z" fill="#152140" fill-rule="nonzero" node-id="130" stroke="none" target-height="47.829987" target-width="47.23004" target-x="692.6" target-y="465.6"></path><path d="M 487.86 660.92 C 486.40 660.98 484.93 661.02 483.43 661.03 C 451.16 661.15 426.71 646.94 415.01 638.46 C 413.65 637.48 413.35 635.58 414.33 634.23 C 415.31 632.87 417.21 632.57 418.56 633.55 C 429.67 641.60 452.86 655.08 483.41 654.96 C 535.66 654.94 567.40 615.88 573.26 608.10 C 574.27 606.75 576.17 606.49 577.50 607.50 C 578.84 608.51 579.11 610.40 578.10 611.74 C 572.11 619.71 540.19 658.63 487.86 660.92 Z" fill="#152140" fill-rule="nonzero" group-id="10" node-id="134" stroke="none" target-height="54.660034" target-width="165.75998" target-x="413.35" target-y="606.49"></path><path d="M 584.14 610.57 L 567.32 611.31 C 565.65 611.38 564.23 610.09 564.16 608.41 C 564.09 606.74 565.38 605.32 567.06 605.25 L 583.88 604.51 C 585.55 604.44 586.97 605.73 587.04 607.41 C 587.11 609.08 585.82 610.49 584.14 610.57 Z" fill="#152140" fill-rule="nonzero" group-id="11" node-id="139" stroke="none" target-height="6.9400024" target-width="23.019958" target-x="564.09" target-y="604.44"></path><path d="M 471.40 681.79 C 475.30 682.90 484.94 685.06 496.29 681.54 C 505.28 678.75 511.16 673.69 514.02 670.86 C 514.09 672.96 513.93 676.50 512.26 680.29 C 507.51 691.06 492.59 699.04 481.59 693.86 C 475.55 691.02 472.66 685.15 471.40 681.79 Z" fill="#152140" fill-rule="nonzero" node-id="142" stroke="none" target-height="28.179993" target-width="42.690033" target-x="471.4" target-y="670.86"></path><path d="M 729.51 966.29 L 652.06 970.28 C 651.57 970.31 651.14 969.92 651.12 969.43 L 650.67 960.70 C 650.64 960.20 651.03 959.78 651.52 959.76 L 728.97 955.77 C 729.47 955.74 729.89 956.13 729.91 956.62 L 730.36 965.35 C 730.38 965.84 730.00 966.26 729.51 966.29 Z" fill="#1467a8" fill-rule="nonzero" node-id="144" stroke="none" target-height="14.570007" target-width="79.73999" target-x="650.64" target-y="955.74"></path><path d="M 637.98 246.12 C 634.29 248.33 645.24 264.97 652.86 310.28 C 656.17 329.95 657.45 346.75 657.97 359.10 C 659.11 352.20 661.15 344.31 664.94 343.76 C 672.01 342.73 680.93 367.77 682.14 371.19 C 686.15 382.46 690.57 399.93 689.58 423.26 C 698.30 416.82 709.07 406.65 714.68 391.65 C 738.39 328.30 647.11 240.65 637.98 246.12 Z" fill="#ffffff" fill-opacity="0.05" fill-rule="nonzero" group-id="12" node-id="148" stroke="none" target-height="182.61002" target-width="104.10004" target-x="634.29" target-y="240.65"></path><path d="M 584.05 212.18 C 575.95 211.99 567.93 213.25 554.76 217.76 C 544.88 221.14 531.45 226.58 516.17 235.43 C 517.10 231.87 518.03 228.30 518.96 224.74 C 499.74 227.49 475.10 233.52 449.22 247.06 C 440.96 251.38 433.53 255.96 426.90 260.54 C 428.48 256.24 431.60 248.58 437.13 240.08 C 473.29 184.52 569.39 159.18 615.19 196.84 C 621.88 202.34 630.29 211.48 636.58 227.06 C 620.86 219.51 607.61 215.91 598.45 214.04 C 590.82 212.48 586.59 212.24 584.05 212.18 Z" fill="#ffffff" fill-opacity="0.05" fill-rule="nonzero" group-id="13" node-id="153" stroke="none" target-height="101.360016" target-width="209.68002" target-x="426.9" target-y="159.18"></path><path d="M 473.82 609.88 L 463.12 607.81 C 436.28 602.63 418.73 576.67 423.91 549.84 L 425.65 540.82 C 428.70 525.05 443.95 514.73 459.72 517.78 L 470.92 519.94 C 500.11 525.58 519.20 553.82 513.55 583.01 L 513.55 583.01 C 510.01 601.41 492.22 613.43 473.82 609.88 Z" fill="url(#SVGID_2_)" fill-rule="nonzero" node-id="156" stroke="none" target-height="98.70001" target-width="100.47" target-x="418.73" target-y="514.73"></path></svg>