<svg height="1024" width="1024" xmlns="http://www.w3.org/2000/svg"><defs><linearGradient gradientUnits="userSpaceOnUse" id="a" spreadMethod="pad" x1="552.449" x2="465.243" y1="1444.765" y2="1394.416"><stop offset=".24" stop-color="#dd5543" stop-opacity="0"/><stop offset="1" stop-color="#dd5543" stop-opacity=".6"/></linearGradient></defs><path d="M1024.5 512.5c0 159.14-72.65 301.43-186.54 395.29-8.47 7.01-17.11 13.66-26.04 20.12-84.21 60.81-187.63 96.59-299.43 96.59-8.56 0-17.11-.18-25.49-.64-9.19-.46-18.3-1.09-27.31-2.09-64-6.46-124.45-24.85-179.17-52.71a503.757 503.757 0 0 1-69.37-42.7C83.43 833.32.5 682.65.5 512.5.5 229.73 229.73.5 512.5.5c282.76 0 512 229.23 512 512z" fill="#9ba9de"/><path d="m351.21 465.17.42 7.47-.06 7.15-.53 6.85-1 6.8-1.4 6.33-1.78 5.88-2.24 5.73-2.55 5.1-2.82 4.56-3.28 4.21-3.48 3.51-3.7 2.86-3.02 1.78-3.12 1.36-3.23.94-3.36.54-3.41.07-3.35-.34-3.31-.77-3.29-1.21-4.15-2.15-4.06-2.82-3.99-3.55-3.6-3.97-3.42-4.57-3.24-5.22-2.81-5.47-2.51-5.97-2.21-6.51-1.76-6.64-1.35-7.02-.93-7.42-.42-7.47.06-7.15.53-6.85 1-6.8 1.4-6.32 1.78-5.89 2.24-5.72 2.54-5.11 2.83-4.56 3.28-4.21 3.48-3.51 3.7-2.86 3.02-1.78 3.12-1.36 3.23-.94 3.36-.54 3.41-.07 3.35.34 3.3.77 3.3 1.21 4.15 2.15 4.06 2.82 3.99 3.55 3.6 3.97 3.42 4.57 3.23 5.22 2.81 5.48 2.52 5.96 2.21 6.51 1.76 6.64 1.35 7.02.93 7.42z" fill="#ff9f8e"/><path d="M339.27 486.14c-1.93-11.5-6.9-23.1-16-30.73-2.21-1.85-4.45-3.63-7.15-5.01-2.61-1.38-6.04-2.06-8.96-.88-5.88 2.55-7.89 8.86-8.43 14.23 1.03-5.32 3.95-11.09 8.99-12.56 5.09-1.31 9.45 3.02 13.16 6.79 7.46 7.74 10.75 18.46 11.41 28.99.12 1.94 1.8 3.42 3.74 3.3 1.94-.12 3.42-1.8 3.3-3.74-.02-.12-.04-.27-.06-.39z" fill="#152140"/><path d="m731.76 409.58 3.77.7 3.59 1.29 3.43 1.91 3.33 2.58 2.92 2.96 2.75 3.48 2.57 4.04 2.39 4.67 1.94 4.75 1.68 5.15 1.4 5.61 1.11 6.08.71 6.04.35 6.3-.02 6.58-.42 6.9-.83 6.85-1.17 6.48-1.48 6.14-1.78 5.8-2.19 5.79-2.39 5.26-2.58 4.77-2.77 4.32-3.18 4.16-3.26 3.51-3.33 2.92-3.42 2.39-3.73 1.94-3.72 1.26-3.76.63h-3.84l-3.77-.69-3.59-1.3-3.43-1.91-3.32-2.58-2.93-2.96-2.75-3.48-2.57-4.04-2.38-4.67-1.95-4.74-1.68-5.16-1.4-5.6-1.11-6.09-.71-6.03-.35-6.3.03-6.59.41-6.89.84-6.86 1.16-6.48 1.48-6.14 1.79-5.8 2.18-5.79 2.39-5.26 2.58-4.77 2.77-4.31 3.19-4.17 3.25-3.51 3.34-2.92 3.41-2.39 3.73-1.94 3.73-1.26 3.75-.63h3.84z" fill="#ff9f8e"/><path d="M705.53 491.75c1.93-11.5 6.9-23.1 16-30.73 2.21-1.85 4.45-3.63 7.15-5.01 2.61-1.38 6.04-2.06 8.96-.88 5.88 2.55 7.89 8.86 8.43 14.23-1.03-5.32-3.95-11.09-8.99-12.56-5.09-1.31-9.45 3.02-13.16 6.79-7.46 7.74-10.75 18.46-11.41 28.99a3.532 3.532 0 0 1-3.74 3.3 3.532 3.532 0 0 1-3.3-3.74c.03-.13.04-.28.06-.39z" fill="#152140"/><path d="M444.77 689.06H613.1v184.99H444.77z" fill="#ff9f8e"/><path d="M339.5 430.17c-6.18-23.79-16.18-58.09-31.93-98.53-13.21-33.89-17.3-38.31-16.31-50.28 4.2-50.53 86.77-88.56 149.49-97.85 33.74-5 61.85-1.7 78.82 1.36-.38-5.79-2.1-19.18-12.23-30.58a46.302 46.302 0 0 0-9.52-8.15c5.98-.82 29.98-3.42 52.32 12.23 14.62 10.24 21.58 23.42 24.46 29.9 1.72-10.28 2.66-23.9 0-39.41-.89-5.19-2.08-9.95-3.4-14.27 4.73 2.82 12.7 8.47 19.03 18.35 9.94 15.51 9.31 31.25 8.83 36.69 5.56-6.34 17.05-17.72 35.33-25.14 16.53-6.71 31.18-7.15 39.41-6.79-2.64.3-17.97 2.29-27.18 15.63-4.54 6.57-5.75 13.22-6.11 16.99 8.05-1.51 19.66-2.69 33.3-.68 21.52 3.17 36.92 12.62 44.85 18.35-10.19 2.04-20.38 4.08-30.58 6.12 8.38 2.03 21.05 5.99 34.65 14.27 5.46 3.32 43.44 26.42 40.09 49.6-1.21 8.35-7.04 11.65-13.59 19.03-29.49 33.22-6.65 74-29.9 118.23-5.23 9.96-15.02 24.3-34.65 38.05-115.06-7.72-230.12-15.42-345.18-23.12z" fill="#152140"/><path d="M613.1 689.06v51.89c-47.16 21.21-114.34 25.67-168.33 3.55v-55.44H613.1z" fill="#f5575d"/><path d="M500.88 233.4c-71.35 11.69-128.14 65.73-147.44 135.4-18.26 65.9-28.19 146.32-9.84 231.65 14.32 66.58 36.17 91.11 47.56 101.93 62.15 58.95 175.84 53.42 235.11 14.95 83.05-53.91 112.18-206.85 50.35-381.19-24.41-68.83-92.77-112.74-165.29-104.21-.64.08-1.28.15-1.93.24-2.88.36-5.72.77-8.52 1.23z" fill="#ff9f8e"/><path d="m607.09 314.24 5.08 1.48 4.8 1.96 4.54 2.43 4.3 2.94 4 3.34 3.72 3.73 3.46 4.15 3.2 4.6 2.8 4.8 2.48 5.12 2.18 5.46 1.86 5.83 1.44 5.88 1.08 6.12.71 6.36.32 6.63-.09 6.57-.5 6.71-.94 6.86-1.39 7.01-1.83 6.92-2.16 6.57-2.48 6.25-2.81 5.95-3.19 5.82-3.43 5.41-3.65 5.02-3.87 4.66-4.23 4.42-4.35 3.96-4.48 3.51-4.62 3.09-4.88 2.73-4.93 2.21-4.98 1.73-5.06 1.24-5.16.76-5.14.2-5.17-.34-5.22-.9-5.08-1.48-4.79-1.96-4.54-2.44-4.31-2.93-3.99-3.34-3.73-3.73-3.45-4.15-3.2-4.6-2.8-4.8-2.49-5.12-2.17-5.46-1.86-5.83-1.44-5.88-1.08-6.12-.71-6.36-.32-6.63.08-6.57.51-6.71.94-6.86 1.39-7.01 1.82-6.92 2.16-6.57 2.49-6.26 2.8-5.94 3.2-5.82 3.42-5.41 3.65-5.02 3.88-4.66 4.22-4.42 4.35-3.96 4.48-3.51 4.62-3.09 4.89-2.73 4.93-2.21 4.98-1.73 5.05-1.25 5.16-.75 5.15-.2 5.17.34 5.21.9zM473.53 319.5l4.97 2.73 4.56 3.15 4.19 3.6 3.83 4.05 3.42 4.39 3.04 4.75 2.67 5.1 2.29 5.51 1.83 5.63 1.44 5.89 1.03 6.16.61 6.47.17 6.43-.26 6.58-.71 6.75-1.17 6.94-1.59 6.78-2.05 6.83-2.54 6.87-3.05 6.94-3.48 6.73-3.76 6.29-4.01 5.89-4.29 5.49-4.66 5.27-4.81 4.79-4.95 4.34-5.11 3.91-5.42 3.59-5.44 3.07-5.49 2.58-5.53 2.11-5.72 1.67-5.65 1.14-5.6.61-5.57.1-5.56-.43-5.42-1-5.33-1.58-5.24-2.15-4.97-2.73-4.57-3.15-4.19-3.59-3.83-4.06-3.41-4.39-3.04-4.74-2.67-5.11-2.3-5.51-1.83-5.63-1.43-5.89-1.03-6.16-.62-6.47-.17-6.43.27-6.58.71-6.75 1.17-6.94 1.58-6.78 2.06-6.83 2.54-6.87 3.05-6.94 3.48-6.72 3.75-6.3 4.02-5.89 4.28-5.49 4.66-5.27 4.81-4.79 4.96-4.34 5.11-3.91 5.42-3.59 5.44-3.07 5.48-2.58 5.53-2.11 5.73-1.67 5.65-1.14 5.6-.61 5.57-.1 5.55.43 5.43 1.01 5.32 1.57 5.25 2.15z" fill="#fff" fill-opacity=".4" stroke="#0f0f0f" stroke-opacity=".4" stroke-width="6"/><path d="M542.19 634.65c-.61 9.52-1.84 18.55-3.69 26.66-5.28 23.78-15.18 40.06-25.5 39.44-10.08-.68-17.82-17.14-20.34-40.49-1.04-8.72-1.29-18.43-.67-28.63 2.21-37.29 15.24-66.91 29.12-66.05 13.89.81 23.29 31.78 21.08 69.07z" fill="#fff"/><path d="M472 418.35c0 20.8-16.87 37.67-37.67 37.67s-37.67-16.87-37.67-37.67 16.87-37.67 37.67-37.67S472 397.55 472 418.35z" fill="#152140"/><path d="M450.81 431.43c0 9.1-7.38 16.48-16.48 16.48-9.1 0-16.48-7.38-16.48-16.48 0-9.1 7.38-16.48 16.48-16.48 9.1 0 16.48 7.38 16.48 16.48zM461.91 403.51c0 5.67-4.59 10.26-10.26 10.26s-10.26-4.59-10.26-10.26 4.59-10.26 10.26-10.26 10.26 4.59 10.26 10.26z" fill="#fff"/><path d="M625.47 418.35c0 20.8-16.87 37.67-37.67 37.67s-37.67-16.87-37.67-37.67 16.87-37.67 37.67-37.67 37.67 16.87 37.67 37.67z" fill="#152140"/><path d="M604.28 431.43c0 9.1-7.38 16.48-16.48 16.48-9.1 0-16.48-7.38-16.48-16.48 0-9.1 7.38-16.48 16.48-16.48 9.1 0 16.48 7.38 16.48 16.48zM615.39 403.51c0 5.67-4.59 10.26-10.26 10.26s-10.26-4.59-10.26-10.26 4.59-10.26 10.26-10.26 10.26 4.59 10.26 10.26z" fill="#fff"/><path d="M538.5 661.31c-5.28 23.78-15.18 40.06-25.5 39.44-10.08-.68-17.82-17.14-20.34-40.49 6.7-2.64 14.01-4.12 21.69-4.12 8.61.01 16.78 1.86 24.15 5.17z" fill="#dd5543"/><path d="M701.57 368.5c-16.82-10.93-35.76-25.51-54.36-44.85a309.37 309.37 0 0 1-19.03-21.74c.68 8.82 2.35 19.53 6.12 31.26 1.86 5.78 3.96 11 6.11 15.63-5.98-5.69-17.3-18.04-23.1-37.37-8.38-27.9.44-51.39 3.4-58.44-5.4 9.89-14.85 24.22-30.58 37.37-24.31 20.33-49.96 26.44-62.51 28.54 6.88-8.15 14.77-16.64 23.78-25.14 21.79-20.55 43.73-35.16 62.51-45.53a794.79 794.79 0 0 0-94.45 32.62 793.969 793.969 0 0 0-69.99 33.3c3.7-6.74 9.68-15.75 19.03-24.46 13.98-13.02 28.67-18.98 37.37-21.74-24.61 4.32-58.68 13.32-95.13 33.3-22.11 12.11-39.9 25.42-53.68 37.37-8.15-17.67-16.31-35.33-24.46-53 25.77-9.33 61.29-21.77 103.96-35.33 152.87-48.6 177.36-41.78 190.26-36.01 59.55 26.58 71.76 119.76 74.75 154.22z" fill="#152140"/><path d="M451.6 315.79c.81-2.18-8.27-9.24-19-11.52-14.75-3.14-29.57 3.42-29.28 5.92.14 1.2 3.72 1.02 21.18 3.11 21.02 2.52 26.52 4.06 27.1 2.49zM564.89 316.06c-1.26-1.95 6.1-10.8 16.09-15.33 13.73-6.23 29.62-3 29.87-.5.12 1.2-3.42 1.8-20.02 7.58-19.99 6.97-25.03 9.66-25.94 8.25z" fill="#152140"/><path d="M657.85 830.24c-6.57 21.01-29.18 29.54-35.76 50.55-60.41 36.42-129.97 36.65-174.39 1.51-25.99-20.57-37-48.28-41.8-64.99 2.4-2.27 4.75-4.53 7.15-6.8.71-.67 1.42-1.33 2.13-2 .93-.89 1.87-1.78 2.8-2.67 9.06-8.62 18.17-17.23 27.23-25.85 15.37 19.94 40.6 46.73 78.62 66.54a230.222 230.222 0 0 0 33.27 14.08c4.57-.75 28.74-5.2 44.33-27.72 11.86-17.15 11.86-34.82 11.59-40.82 5.06 4.53 14.66 12.61 23.99 20.39 8.27 6.98 16.35 13.78 20.84 17.78z" fill="#fcffff"/><path d="M641.77 817.8c-5.24 16.75-10.44 33.49-15.68 50.24-23.72 16.44-57.34 26.7-94.66 26.7-43.22 0-81.51-13.77-105.23-35-11.19-15.46-17.1-31.36-20.3-42.42 2.36-2.22 4.71-4.49 7.06-6.75.05 0 .05 0 .09-.04.71-.67 1.42-1.33 2.13-2 .93-.89 1.87-1.78 2.8-2.67 5.29 7.46 14.97 20.97 26.79 31.36 7.64 6.84 16.92 13.46 27.85 19.41 6.71 3.55 24.12 12.93 46.06 17.37 14.12 3.02 30.03 3.91 46.24 0a87.47 87.47 0 0 0 21.23-8c11.19-6.04 19.99-13.86 26.92-21.85 10.39-12.13 16.3-24.79 19.41-32.6.93.18 1.96.44 2.98.62 2.09 1.85 4.22 3.76 6.31 5.63z" fill="#fcffff"/><path d="M417.98 805.85c.17.25.55.79 1.02 1.47 11.03 15.66 20.72 25.02 22.88 27.19.98.98 1.95 1.87 2.89 2.71 7.64 6.84 16.92 13.46 27.85 19.41 6.71 3.55 24.12 12.93 46.06 17.37 14.12 3.02 30.03 3.91 46.24 0a87.47 87.47 0 0 0 21.23-8c11.19-6.04 19.99-13.86 26.92-21.85 10.39-12.13 16.3-24.79 19.41-32.6.98.18 2 .44 3.07.62.49.09.98.22 1.47.31a285.63 285.63 0 0 1 23.99 6.22c30.78 9.24 69.38 26.07 105.23 57.39 23.54 20.66 38.29 40.87 44.33 49.71.44.76.98 1.38 1.33 2.09-84.17 60.85-187.63 96.61-299.43 96.61-8.53 0-17.1-.18-25.45-.62-9.19-.49-18.3-1.11-27.32-2.13-64.01-6.44-124.46-24.83-179.19-52.68a506.456 506.456 0 0 1-69.34-42.69c9.91-16.39 22.65-31.63 38.96-44.24 9.64-7.51 18.39-12.48 29.58-18.79 29.72-16.88 69.96-35.62 121.53-49.71.67-.18 1.38-.36 2.04-.53 3.2-.84 6.44-1.73 9.68-2.53h.04c.02-.01.03-.02.05-.04 1.64-1.58 3.29-3.14 4.93-4.69z" fill="#005097"/><path d="M747.63 967.47c2.31-25.54 1.11-53.97-6.57-84-2.98-11.68-6.89-23.19-11.59-34.38l-.71-.4-5.91-3.51c5.82 12.75 10.44 25.9 13.9 39.36 7.82 30.6 8.8 59.48 6.13 85.33v.04l4.75-2.44zM360.25 1001.45c7.42-33.18 10.08-73.87-1.2-117.98a242.479 242.479 0 0 0-18.57-49.39l-4.13 1.69c7.91 15.64 14.08 31.98 18.39 48.77 11.02 43.18 8.48 83.02 1.2 115.58v.04l4.31 1.29z" fill="#1e66b1"/><path d="M661 818.69c-3.16 19.06-15.81 36.2-34.92 49.35-23.72 16.44-57.34 26.7-94.66 26.7-43.22 0-81.51-13.77-105.23-35-10.79-14.88-19.41-35.27-22.92-46.64 3.2-.84 6.44-1.73 9.68-2.53.05 0 .05 0 .09-.04.89-.27 1.51-1.11 2.13-2 .93-.89 1.87-1.78 2.8-2.67.13.18.49.67 1.02 1.47 3.33 4.49 13.64 18.21 22.88 27.19.98.98 1.95 1.87 2.89 2.71 7.64 6.84 16.92 13.46 27.85 19.41 6.71 3.55 24.12 12.93 46.06 17.37 14.12 3.02 30.03 3.91 46.24 0a87.47 87.47 0 0 0 21.23-8c11.19-6.04 19.99-13.86 26.92-21.85 10.39-12.13 17.28-27.58 20.39-35.4.93.18 1.78 1.78 2.8 1.95 7.6 1.58 15.47 5.13 24.75 7.98z" fill="#034481"/><path d="m514.38 551.07-10.7-2.07c-26.84-5.18-44.39-31.14-39.21-57.97l1.74-9.02c3.05-15.77 18.3-26.09 34.07-23.04l11.2 2.16c29.19 5.64 48.28 33.88 42.63 63.07-3.55 18.4-21.34 30.42-39.73 26.87z" fill="url(#a)"/></svg>