<svg height="1024" width="1024" xmlns="http://www.w3.org/2000/svg"><defs><linearGradient gradientUnits="userSpaceOnUse" id="a" spreadMethod="pad" x1="530.42" x2="530.42" y1="778.885" y2="602.927"><stop offset="0" stop-color="#e9705e" stop-opacity=".8"/><stop offset=".668" stop-color="#ff9f8e" stop-opacity="0"/></linearGradient><linearGradient gradientUnits="userSpaceOnUse" id="b" spreadMethod="pad" x1="568.555" x2="481.349" y1="570.071" y2="519.722"><stop offset=".24" stop-color="#dd5543" stop-opacity="0"/><stop offset="1" stop-color="#dd5543" stop-opacity=".6"/></linearGradient></defs><path d="M1024.5 512.44c0 124.87-44.67 239.44-119.1 328.33-7.01 8.46-14.35 16.65-21.91 24.61-5.94 6.28-12 12.39-18.27 18.22-8.74 8.46-17.82 16.48-27.18 24.16-5.32 4.37-10.7 8.58-16.08 12.72-.84.62-1.63 1.18-2.35 1.79-.79.62-1.63 1.18-2.36 1.74-1.79 1.29-3.59 2.58-5.32 3.87a489.497 489.497 0 0 1-68.43 41.64c-1.85 1.01-3.7 1.91-5.6 2.8-6.73 3.31-13.51 6.45-20.4 9.42-58.46 25.67-122.74 40.63-190.23 42.54-.95.06-2.02.06-3.03.06-1.06.06-2.13.06-3.08.06-1.85.06-3.7.11-5.5.06-.22.06-.45.06-.67.06h-5.6c-1.18 0-2.47 0-3.76-.06-3.25 0-6.61-.11-9.81-.22-1.06 0-2.18-.06-3.25-.11-.96-.06-2.02-.11-3.03-.17-.84 0-1.68-.05-2.47-.11-9.25-.45-18.33-1.07-27.35-2.07-50.89-5.1-99.54-17.82-144.89-36.88-9.36-3.92-18.61-8.13-27.68-12.61-1.85-.84-3.76-1.79-5.6-2.75-.34-.17-.67-.34-.96-.5-24.38-12.33-47.58-26.68-69.33-42.71-1.12-.78-2.13-1.57-3.25-2.41-.84-.56-1.63-1.12-2.35-1.74-.84-.56-1.52-1.18-2.36-1.79-12.55-9.47-24.6-19.5-36.21-30.1-8.8-7.96-17.26-16.25-25.45-24.89a487.166 487.166 0 0 1-23.09-26.01C44.83 750.82.5 636.82.5 512.44.5 229.68 229.74.5 512.5.5c282.82 0 512 229.18 512 511.94z" fill="#756eff"/><path d="M659.79 945.3c-14.01-8.58-36.37-19.79-65.86-24.66-11.55-1.9-34.36-5.44-63.05.79-29.2 6.39-49.99 19.73-61.37 28.3-58.91-42.15-88.78-94.5-75.16-129.3 2.58-6.56 7.4-14.29 16.93-21.8 1.12-14.07 1.4-30.1 0-47.7-.06-.73-.11-1.51-.22-2.24-1.29-15.58-3.76-29.87-6.78-42.82-.11-.39-.17-.84-.28-1.23v-.06c-3.31-13.95-7.34-26.29-11.26-36.88l236.75-24.21a677.627 677.627 0 0 0-13.11 42.93c-1.9 7.06-3.81 14.63-5.72 22.59-.17.79-.39 1.57-.56 2.35-6.56 28.19-8.63 45.12-8.91 55.6-.22 9.08.89 13.34 1.63 15.92 8.52 28.3 34.24 45.4 53.36 54.53 1.15 35.93 2.38 71.91 3.61 107.89z" fill="#ff9f8e"/><path d="M616.36 686.42c-1.9 7.06-3.81 14.63-5.72 22.59-.17.79-.39 1.57-.56 2.35-6.56 28.19-8.63 45.12-8.91 55.6-14.57 6.56-25.22 9.81-27.8 10.59-17.6 5.21-41.08 12.16-71.57 9.3-34.64-3.25-65.47-17.82-90.74-38.17-1.29-15.58-3.76-29.87-6.78-42.82 70.72-6.44 141.4-12.94 212.08-19.44z" fill="#f5575d"/><path d="m278.94 485.98 4.09.83 3.85 1.37 3.66 1.93 3.49 2.52 3.15 2.91 2.92 3.36 2.69 3.84 2.47 4.38 2.04 4.51 1.73 4.85 1.43 5.24 1.09 5.64.68 5.62.29 5.85-.12 6.08-.53 6.34-1 6.28-1.34 5.94-1.67 5.6-2.01 5.3-2.41 5.22-2.63 4.74-2.85 4.3-3.06 3.89-3.44 3.66-3.54 3.09-3.63 2.56-3.75 2.08-4 1.61-4.01.99-4.07.42-4.16-.18-4.09-.82-3.85-1.38-3.66-1.92-3.49-2.52-3.15-2.91-2.91-3.36-2.7-3.85-2.46-4.38-2.05-4.5-1.73-4.86-1.43-5.23-1.09-5.65-.68-5.62-.29-5.84.12-6.08.54-6.34.99-6.29 1.34-5.93 1.68-5.61 2-5.3 2.41-5.21 2.64-4.74 2.84-4.3 3.06-3.89 3.45-3.66 3.53-3.1 3.64-2.56 3.74-2.07 4-1.61 4.02-1 4.06-.41 4.16.17z" fill="#ff9f8e"/><path d="M300.35 565.25c-4.64-13.39-12.93-26.29-25.38-33.6-3.02-1.77-6.07-3.45-9.58-4.56-3.41-1.13-7.65-1.25-10.92.76-6.53 4.24-7.67 12.2-7.24 18.75.16-6.58 2.5-14.09 8.24-16.86 5.83-2.6 11.93 1.72 17.14 5.49 10.5 7.77 16.6 19.95 19.53 32.44a4.288 4.288 0 0 0 8.35-1.96c-.04-.15-.09-.33-.14-.46z" fill="#152140"/><path d="M824.13 539.87c0 35.99-22.12 65.17-49.4 65.17-27.28 0-49.4-29.18-49.4-65.17s22.12-65.17 49.4-65.17c27.28 0 49.4 29.18 49.4 65.17z" fill="#ff9f8e"/><path d="M738.65 562.3c3.73-14.72 11.41-29.24 24.03-38.17 3.06-2.16 6.17-4.23 9.81-5.74 3.54-1.52 8.05-2.03 11.73-.18 7.36 3.93 9.3 12.33 9.43 19.36-.77-7.01-3.95-14.81-10.33-17.25-6.46-2.24-12.58 2.92-17.79 7.41-10.5 9.25-15.91 22.81-17.89 36.41a4.6 4.6 0 0 1-5.21 3.88 4.593 4.593 0 0 1-3.88-5.21c.03-.17.06-.36.1-.51zM728.91 483.64c6.35-5.91 20.19-20.44 26.03-43.7 3.83-15.26 2.73-28.32 1.4-36.26 1.38-.18 5.74-.92 9.3-4.65 4.84-5.07 4.28-11.57 4.18-12.55.78.06 9.27.62 12.09-4.18 3.4-5.8-4.19-14.75-5.11-15.81-8.68-10-18.98-6.84-32.08-14.41-5.57-3.22-12.79-9.04-19.06-20.46 14.23.86 26.25.78 35.33.47 19.11-.67 26.2-2.42 28.82-7.44 1.54-2.96 1.14-6.3.47-8.83-3.4 1.34-8.51 3.08-14.88 4.18-26.29 4.55-44.29-6.93-61.37-10.69-15.41-3.4-38.05-2.29-69.74 17.67 1.48-4.95 4.43-12.23 10.69-18.6 8.44-8.57 19.55-12.09 46.03-14.41 15.21-1.33 35.96-2.31 60.91-.93-5.03-2.48-12.13-5.61-20.92-8.37-12.36-3.87-30.39-9.52-52.07-6.04-17.24 2.76-30.71 10.32-39.98 17.2 4.66-6.87 11.92-15.64 22.78-23.25 26.59-18.62 55.57-16.82 65.09-15.81-4.3-2.89-9.4-5.56-15.34-7.44-28.75-9.1-55.47 7.07-61.83 11.16 6.13-8.38 15.4-18.3 28.83-26.03 8.6-4.96 25.82-14.89 47.88-11.62 12.8 1.89 22.22 7.48 27.43 11.16-2.71-7.62-6.6-12.32-10.23-15.34-21.81-18.15-67.4-3.19-93.45 21.39-11.34 10.7-17.98 22.27-21.85 30.68-.47-17.79-5.95-28.58-9.76-34.4-27.32-41.74-108.18-41.02-155.28-25.57-14.39 4.72-28.86 9.2-43.24 13.95-35.42 11.69-42.43 14.65-53.46 12.09-19.12-4.44-32.59-21.35-36.73-17.67-2.32 2.07 1.14 8.09-1.4 9.76-2.61 1.72-9.94-2.23-13.02-8.37-3.28-6.54-.49-13.05-1.86-13.48-1.57-.49-7.02 7.58-8.83 16.74-.94 4.77-2.49 17.9 9.3 35.33-4.77 2.96-8.13 2.68-9.76 2.32-8.57-1.88-13.19-15.53-12.09-26.04 1.02-9.76 6.87-15.67 6.05-16.27-1.1-.8-13.02 8.83-18.13 22.32-8.43 22.22 5.29 45.11 8.83 50.68-6.98 3.03-11.3 1.47-12.55.93-8.07-3.46-12.59-17.17-7.44-33.01-4.94 7.83-10.72 19.88-7.9 32.55 5.51 24.8 39.15 30.04 38.13 46.49-.68 10.88-16.18 21.49-28.83 19.99-16.76-1.99-24.28-24.76-25.57-37.66-1.13-11.31 2-20.51 4.18-25.57-3.81 3.56-9.11 9.5-12.55 18.13-7.78 19.48-3.14 45.25 11.16 55.79 19.52 14.38 55.22-.99 55.33-.47.09.46-28.24 3.83-50.21 22.32-3.28 2.76-11.52 10.15-9.76 13.95 2.44 5.25 22.54.38 23.25 3.26.63 2.55-15.13 6.62-14.88 12.09.18 3.77 7.78 3.99 13.48 10.23 6.54 7.16 5.34 16.52 6.05 23.25 1.06 10.1 7.44 24.02 31.61 39.98 138.82-3.6 277.67-7.17 416.53-10.73z" fill="#152140"/><path d="M362.56 326.03c-17.58 19.75-27.15 54.66-45.56 123.67-17.56 65.81-26.3 99.24-24.18 125.53.63 7.86 6.52 70.78 50.21 120.88 80.48 92.3 253.63 100.27 343.11 16.74 42.27-39.46 54.58-88.82 59.51-109.72 31.28-132.62-53.13-252.54-96.67-303.76a94.093 94.093 0 0 0-56.34-31.93c-33.81-5.6-77.28-7.4-125.01 4.67-32.6 8.24-73.65 18.62-105.07 53.92z" fill="#ff9f8e"/><path d="M624.25 690.91c0 48.59-42.01 87.98-93.83 87.98s-93.83-39.39-93.83-87.98 42.01-87.98 93.83-87.98 93.83 39.39 93.83 87.98z" fill="url(#a)"/><path d="M707.64 390.19c-7.3-14.07-15.64-23.74-21.65-29.75-7.46-7.47-28.82-28.9-43.75-23.25-4.98 1.88-7.38 6.05-11.98 5.11-5.09-1.04-6.85-7.12-10.59-12.55-3.88-5.64-11.02-12.21-25.33-16.27 1.72.68 10.45 4.34 14.28 13.95 2.21 5.55 1.77 10.55 1.38 13.02-7.44-7.02-18.08-15.34-32.24-21.85-33.82-15.56-65.65-10.71-78.76-7.9 7.9-.04 20.27.92 34.08 6.51a89.719 89.719 0 0 1 21.65 12.55c-5.72-1.06-14.34-2.58-24.87-4.18-23.45-3.56-35.17-5.34-48.82-5.11-9.37.15-23.22 1.26-40.07 6.04 8.36-2.72 28.39-7.83 48.36 1.39a56.51 56.51 0 0 1 10.13 6.04c-28.33-6.06-49.46-3.26-63.56.47-8.17 2.16-23.52 8.91-53.89 22.32-30.54 13.49-40.84 18.65-52.51 14.41-11.71-4.25-18.25-15.6-21.65-23.25 1.41-10.36 4.87-25.93 14.74-41.38 33.75-52.84 110.04-56.52 153.84-58.58 67.34-3.16 122.97 14.59 160.12 31.15 11.86 8.5 29.67 23.46 45.1 46.96 16.62 25.32 23.17 49.41 25.99 64.15z" fill="#152140"/><path d="M905.4 840.77c-7.01 8.46-14.35 16.65-21.91 24.61-5.94 6.28-12 12.39-18.27 18.22-8.74 8.46-17.82 16.48-27.18 24.16-5.32 4.37-10.7 8.58-16.08 12.72-.84.62-1.63 1.18-2.35 1.79-.79.62-1.63 1.18-2.36 1.74-1.79 1.29-3.59 2.58-5.32 3.87a489.497 489.497 0 0 1-68.43 41.64c-1.85 1.01-3.7 1.91-5.6 2.8-6.73 3.31-13.51 6.45-20.4 9.42-58.46 25.67-122.74 40.63-190.23 42.54-.95.06-2.02.06-3.03.06-1.06.06-2.13.06-3.08.06-1.85.06-3.7.11-5.5.06-.22.06-.45.06-.67.06h-5.6c-1.18 0-2.47 0-3.76-.06-3.25 0-6.61-.11-9.81-.22-1.06 0-2.18-.06-3.25-.11-.96-.06-2.02-.11-3.03-.17-.84 0-1.68-.05-2.47-.11-9.25-.45-18.33-1.07-27.35-2.07-50.89-5.1-99.54-17.82-144.89-36.88-9.36-3.92-18.61-8.13-27.68-12.61-1.85-.84-3.76-1.79-5.6-2.75-.34-.17-.67-.34-.96-.5-24.38-12.33-47.58-26.68-69.33-42.71-1.12-.78-2.13-1.57-3.25-2.41-.84-.56-1.63-1.12-2.35-1.74-.84-.56-1.52-1.18-2.36-1.79-12.55-9.47-24.6-19.5-36.21-30.1-8.8-7.96-17.26-16.25-25.45-24.89a487.166 487.166 0 0 1-23.09-26.01c14.74-9.19 30.83-16.53 48.54-22.31 39.85-13.17 88.05-18.78 147.74-21.19 29.37-1.23 61.49-1.68 96.8-1.85h.67c-.22 1.35-.45 2.75-.45 4.15 0 28.42 45.9 51.45 102.51 51.45 44.28 0 81.89-14.12 96.18-33.85 1.96-2.69 4.43-4.88 7.23-6.33 2.8-1.46 5.94-2.13 9.25-1.91 22.59 1.68 50.95 3.42 87.55 5.16 1.01.06 1.96.11 2.91.11 63.5 3.03 110.81 4.2 147.74 13 14.96 3.52 28.24 8.28 40.18 14.95z" fill="#f5b316"/><path d="M314.82 795.88v189c-9.36-3.92-18.61-8.13-27.68-12.61-1.85-.84-3.76-1.79-5.6-2.75-.34-.17-.67-.34-.96-.5-24.38-12.33-47.58-26.68-69.33-42.71-1.12-.78-2.13-1.57-3.25-2.41-.84-.56-1.63-1.12-2.35-1.74-.84-.56-1.52-1.18-2.36-1.79-12.55-9.47-24.6-19.5-36.21-30.1v-73.2c39.84-13.17 88.05-18.78 147.74-21.19zM865.21 825.81v57.79c-8.74 8.46-17.82 16.48-27.18 24.16-5.32 4.37-10.7 8.58-16.08 12.72-.84.62-1.63 1.18-2.35 1.79-.79.62-1.63 1.18-2.36 1.74-1.79 1.29-3.59 2.58-5.32 3.87a489.497 489.497 0 0 1-68.43 41.64c-1.85 1.01-3.7 1.91-5.6 2.8-6.73 3.31-13.51 6.45-20.4 9.42V812.81c63.48 3.02 110.79 4.2 147.72 13z" fill="#005589"/><path d="M510.2 479.66c-13.11 38.67-48.43 61.6-78.92 51.28-30.44-10.37-44.5-50.11-31.33-88.78 8.35-24.55 25.61-42.77 44.95-50.11 7.23-2.8 14.68-4.04 22.08-3.48 2.18 1.18 4.37 2.47 6.61 3.81 5.05 3.14 10.09 6.61 14.96 10.37 5.89 4.6 11.27 9.47 15.92 14.29.05 0 .05.06.05.06 2.13 2.13 4.09 4.26 5.83 6.28 2.07 5.44 3.48 11.27 4.2 17.43 1.48 12.28.14 25.62-4.35 38.85z" fill="#fff" fill-opacity=".4"/><path d="M517.66 442.78c-.45-4.65-1.23-9.19-2.41-13.56-1.12-1.4-2.3-2.86-3.59-4.37-.39-.45-.84-.95-1.29-1.46-1.74-2.02-3.7-4.15-5.83-6.28 1.4 2.63 2.64 5.49 3.7 8.46 1.46 4.2 2.58 8.57 3.25 13.11 1.96 12.84.62 26.62-3.92 40.02-12.61 37.16-46.46 59.41-75.38 49.55-13.9-4.71-24.66-16.09-30.27-32-5.71-16.2-5.49-35.09.67-53.19 6.17-18.1 17.49-33.24 31.84-42.54 4.37-2.86 8.8-5.04 13.34-6.5 5.33-1.91 10.65-2.8 15.97-2.8 3.31 0 6.61.39 9.86 1.18-2.24-1.35-4.43-2.63-6.61-3.81-1.74-1.01-3.53-1.96-5.27-2.91-6.56.22-13.12 1.74-19.62 4.48-3.59 1.51-7.18 3.42-10.71 5.66-15.47 10.03-27.58 26.17-34.13 45.45-6.56 19.28-6.78 39.46-.62 56.83 6.22 17.6 18.22 30.21 33.74 35.48 5.21 1.79 10.54 2.63 15.92 2.63 27.41 0 55.21-22.14 66.58-55.66 4.27-12.55 5.84-25.5 4.78-37.77z" fill="#0f0f0f" fill-opacity=".4"/><path d="m471.86 534.35.11 1.46-.24 1.5-.64 1.59-1.1 1.73-1.79 2.03-2.43 2.13-3.21 2.25-3.37 1.96-3.92 1.94-4.53 1.9-4.61 1.64-5.01 1.49-5.43 1.33-5.49 1.05-5.17.72-4.88.42-4.91.16-4.37-.14-3.88-.38-3.85-.71-3.1-.93-2.47-1.1-1.72-1.12-1.24-1.18-.85-1.27-.5-1.36-.11-1.46.25-1.5.63-1.59 1.1-1.73 1.79-2.03 2.43-2.13 3.21-2.25 3.37-1.96 3.92-1.94 4.53-1.9 4.61-1.64 5.01-1.49 5.43-1.33 5.49-1.05 5.17-.72 4.88-.43 4.91-.15 4.37.14 3.89.38 3.85.71 3.1.93 2.46 1.1 1.72 1.12 1.24 1.18.85 1.27.5 1.36z" fill="#ff8777"/><path d="M522.87 444.63c-.78.45-2.3-.06-5.21-1.85-.9-.56-1.91-1.18-3.08-1.96-.89-.62-1.9-1.29-3.03-2.07 0 0-.05 0-.05-.06-8.57-5.88-23.32-16.65-48.26-33.97-5.83-4.09-10.99-7.62-15.47-10.7-1.01-.67-1.96-1.29-2.86-1.96-.96-.62-1.91-1.29-2.8-1.91-5.66-3.81-10.09-6.84-13.51-9.19l-.06.05c-8.91-6.16-11.38-8.01-11.04-9.14.67-2.24 13.96.28 31.05 7.57a195.7 195.7 0 0 1 13.17 6.22c1.74.95 3.53 1.91 5.27 2.91 2.18 1.18 4.37 2.47 6.61 3.81 5.05 3.14 10.09 6.61 14.96 10.37 5.89 4.6 11.27 9.47 15.92 14.29.05 0 .05.06.05.06 2.13 2.13 4.09 4.26 5.83 6.28.45.5.9 1.01 1.29 1.46 1.29 1.51 2.47 2.97 3.59 4.37 6.34 8.19 9.42 14.41 7.63 15.42zM470.41 459.26c0 7.1-5.75 12.85-12.85 12.85s-12.85-5.75-12.85-12.85 5.75-12.85 12.85-12.85 12.85 5.75 12.85 12.85z" fill="#152140"/><path d="M455.15 454.2c0 1.93-1.57 3.5-3.5 3.5s-3.5-1.57-3.5-3.5 1.57-3.5 3.5-3.5 3.5 1.57 3.5 3.5z" fill="#fff"/><path d="M635.47 477.47c-10.99 39.35-40.47 65.52-65.86 58.4-25.39-7.06-37.1-44.73-26.12-84.02.95-3.36 2.02-6.67 3.25-9.86 2.07-5.49 4.48-10.65 7.23-15.41 1.51-.78 3.03-1.57 4.65-2.3 5.77-2.75 12.11-5.44 18.83-7.62 15.8-5.16 32.06-7.62 45.51-8.41.78-.06 1.63-.11 2.41-.11 1.18-.06 2.3-.11 3.36-.17 2.13 3.03 3.98 6.45 5.44 10.2 6.51 15.86 7.41 37.33 1.3 59.3z" fill="#fff" fill-opacity=".4"/><path d="M638.72 422.54c-.56-1.74-1.12-3.42-1.79-5.04-1.4-3.48-2.97-6.67-4.82-9.59-1.06 0-2.19.06-3.36.06-1.06.06-2.19.11-3.36.17 2.41 3.08 4.43 6.73 6.11 10.76.67 1.68 1.29 3.42 1.85 5.27 4.82 15.41 4.6 34.02-.56 52.57-10.54 37.78-38.56 63.11-62.44 56.44-23.88-6.67-34.69-42.82-24.16-80.6 1.12-3.98 2.41-7.85 3.92-11.55 2.41-6.05 5.27-11.66 8.52-16.76-1.62.73-3.14 1.51-4.65 2.3-1.57.78-3.08 1.63-4.49 2.41-2.3 4.37-4.32 9.02-6.11 13.9-.95 2.64-1.79 5.38-2.58 8.18-11.38 40.75 1.18 80.04 28.02 87.49 3.03.84 6.11 1.29 9.19 1.29 12.22 0 24.72-6.33 35.42-17.26 10.76-10.87 19.67-26.29 24.72-44.34 5.45-19.55 5.67-39.33.57-55.7z" fill="#0f0f0f" fill-opacity=".4"/><path d="m598.36 535.06 5.43 1.33 5.01 1.49 4.62 1.64 4.53 1.9 3.92 1.94 3.37 1.96 3.2 2.25 2.44 2.13 1.78 2.03 1.1 1.73.64 1.59.24 1.5-.11 1.46-.5 1.36-.85 1.27-1.24 1.18-1.72 1.12-2.46 1.1-3.1.93-3.85.71-3.88.38-4.37.14-4.92-.15-4.87-.43-5.18-.72-5.49-1.05-5.43-1.33-5.01-1.49-4.61-1.64-4.53-1.9-3.92-1.94-3.37-1.96-3.21-2.25-2.43-2.13-1.79-2.03-1.1-1.73-.63-1.59-.25-1.5.11-1.46.51-1.36.84-1.27 1.24-1.18 1.72-1.12 2.47-1.1 3.1-.93 3.85-.71 3.88-.38 4.37-.14 4.91.16 4.88.42 5.17.72 5.49 1.05z" fill="#ff8777"/><path d="M654.75 411.61c-.06 1.12-2.97 2.02-13.45 4.82l-.05-.06c-1.29.34-2.75.73-4.32 1.12-.84.22-1.79.45-2.74.67-.9.28-1.74.5-2.69.73-7.68 2.02-17.71 4.65-30.83 8.18-23.93 6.44-40.02 11.04-50.55 13.95-1.23.39-2.35.67-3.36.95-1.12.34-2.13.56-3.08.84-.11 0-.22.06-.28.06-8.24 2.13-11.49 2.69-12.39 1.63-1.51-1.79 5.55-8.13 17.26-14.85.39-.22.78-.45 1.23-.67 1.4-.78 2.91-1.63 4.49-2.41 1.51-.78 3.03-1.57 4.65-2.3 5.77-2.75 12.11-5.44 18.83-7.62 15.8-5.16 32.06-7.62 45.51-8.41.78-.06 1.63-.11 2.41-.11 1.18-.06 2.3-.11 3.36-.17 1.18 0 2.3-.06 3.36-.06 13.62-.04 22.75 1.7 22.64 3.71zM602.21 470.89c0 7.1-5.75 12.85-12.85 12.85s-12.85-5.75-12.85-12.85 5.75-12.85 12.85-12.85 12.85 5.75 12.85 12.85z" fill="#152140"/><path d="M598.78 465.83c0 1.93-1.57 3.5-3.5 3.5s-3.5-1.57-3.5-3.5 1.57-3.5 3.5-3.5 3.5 1.57 3.5 3.5z" fill="#fff"/><path d="M545.32 601.75c22.6 9.46 38.18 27.99 40.67 48.76 2.69 22.47-10.78 39.16-13.47 42.58-18.99 23.66-53.62 30.16-80.1 19.58-2.69-1.05-34.5-14.26-38.7-42.12-2.17-14.46 3.94-26.61 8.87-36.34a91.456 91.456 0 0 1 16.16-22.54" fill="#dd5543"/><path d="M450.09 700.14c-5.02 11.32-6.79 20.55-7.45 27.07-.31 3.08-.55 7.29-2.36 12.9-2.09 6.46-4.26 13.19-9.99 14.9-4.47 1.34-10.1-.69-12.9-4.54-3.82-5.26-1.28-12.43.36-17.08 6.28-17.77 22.98-28.35 32.34-33.25zM595.01 683.8c6.52 5.4 10.42 10.5 12.81 14.29 1.13 1.79 2.56 4.29 5.38 7.17 3.25 3.31 6.63 6.77 10.66 6.07 3.14-.55 5.97-3.5 6.51-6.71.73-4.38-3.01-8-5.43-10.34-9.26-8.96-22.71-10.34-29.93-10.48zM519.94 603.84c-2.35.22-4.35 1.84-4.96 4.11-1.11 4.12-2.11 8.51-2.93 13.15-3.37 19.06-2.6 35.93-.73 49.06a788.273 788.273 0 0 1 12.36-66.68l-3.74.36z" fill="#fff"/><path d="M672.61 939.71h-58.86c-.56 0-1.02-.45-1.02-1.02V927.7c0-.56.45-1.02 1.02-1.02h58.86c.56 0 1.02.45 1.02 1.02v10.99c0 .56-.46 1.02-1.02 1.02zM672.61 973.34h-58.86c-.56 0-1.02-.45-1.02-1.02v-10.99c0-.56.45-1.02 1.02-1.02h58.86c.56 0 1.02.45 1.02 1.02v10.99c0 .56-.46 1.02-1.02 1.02z" fill="#005589"/><path d="M441.07 629.78c-1 0-1.98-.54-2.48-1.49-.72-1.37-.2-3.07 1.17-3.79 26.17-13.81 54.29-21.84 83.55-23.88 23.46-1.6 46.92.7 69.74 6.91a2.8 2.8 0 0 1 1.96 3.44c-.41 1.49-1.91 2.39-3.44 1.96-22.21-6.05-45.04-8.31-67.87-6.73-28.49 1.98-55.85 9.8-81.33 23.24-.41.24-.86.34-1.3.34z" fill="#dd5543"/><path d="m530.49 602.71-10.7-2.07c-26.84-5.18-44.39-31.14-39.21-57.97l1.74-9.02c3.05-15.77 18.3-26.09 34.07-23.04l11.2 2.16c29.19 5.64 48.28 33.88 42.63 63.07-3.55 18.4-21.34 30.43-39.73 26.87z" fill="url(#b)"/></svg>