<?xml version="1.0" standalone="no"?><!DOCTYPE svg PUBLIC "-//W3C//DTD SVG 1.1//EN" "http://www.w3.org/Graphics/SVG/1.1/DTD/svg11.dtd"><svg height="1024" node-id="1" sillyvg="true" template-height="1024" template-width="1024" version="1.1" viewBox="0 0 1024 1024" width="1024" xmlns="http://www.w3.org/2000/svg" xmlns:xlink="http://www.w3.org/1999/xlink"><defs node-id="53"><linearGradient gradientUnits="userSpaceOnUse" id="SVGID_1_" node-id="48" spreadMethod="pad" x1="539.3563" x2="452.1497" y1="1455.2693" y2="1404.9205"><stop offset="0.2403" stop-color="#dd5543" stop-opacity="0"></stop><stop offset="1" stop-color="#dd5543" stop-opacity="0.6"></stop></linearGradient></defs><g node-id="188"><path d="M 1024.50 512.50 C 1024.50 671.62 951.86 813.93 837.97 907.81 C 829.51 914.82 820.88 921.49 811.91 927.93 C 800.87 935.89 789.49 943.46 777.83 950.46 C 700.48 997.48 609.63 1024.50 512.50 1024.50 C 503.92 1024.50 495.40 1024.33 487.00 1023.88 C 477.81 1023.43 468.73 1022.76 459.71 1021.75 C 395.70 1015.30 335.28 996.92 280.52 969.07 C 265.95 961.62 251.77 953.49 238.03 944.74 C 228.84 938.91 219.93 932.74 211.18 926.36 C 83.45 833.32 0.50 682.66 0.50 512.50 C 0.50 229.74 229.74 0.50 512.50 0.50 C 795.26 0.50 1024.50 229.74 1024.50 512.50 Z" fill="#fed685" fill-rule="nonzero" group-id="1" node-id="64" stroke="none" target-height="1024" target-width="1024" target-x="0.5" target-y="0.5"></path></g><g node-id="189"><g node-id="206"><path d="M 336.85 465.19 L 337.27 472.65 L 337.21 479.80 L 336.68 486.65 L 335.68 493.45 L 334.28 499.78 L 332.50 505.66 L 330.26 511.39 L 327.71 516.50 L 324.89 521.05 L 321.61 525.26 L 318.12 528.77 L 314.43 531.63 L 311.41 533.41 L 308.29 534.77 L 305.06 535.71 L 301.70 536.25 L 298.29 536.32 L 294.94 535.98 L 291.63 535.21 L 288.34 534.00 L 284.19 531.85 L 280.13 529.03 L 276.14 525.48 L 272.54 521.51 L 269.12 516.94 L 265.88 511.72 L 263.07 506.25 L 260.56 500.28 L 258.35 493.77 L 256.59 487.13 L 255.24 480.11 L 254.31 472.69 L 253.89 465.22 L 253.95 458.07 L 254.48 451.22 L 255.48 444.42 L 256.88 438.10 L 258.66 432.21 L 260.90 426.49 L 263.44 421.38 L 266.27 416.83 L 269.55 412.61 L 273.03 409.10 L 276.73 406.24 L 279.75 404.46 L 282.87 403.10 L 286.10 402.16 L 289.46 401.62 L 292.87 401.55 L 296.21 401.89 L 299.52 402.66 L 302.82 403.87 L 306.97 406.02 L 311.03 408.84 L 315.02 412.40 L 318.61 416.36 L 322.04 420.93 L 325.27 426.15 L 328.08 431.63 L 330.60 437.59 L 332.81 444.10 L 334.57 450.74 L 335.92 457.76 L 336.85 465.19 Z" fill="#ff9f8e" fill-rule="nonzero" group-id="2,19" node-id="71" stroke="none" target-height="134.77002" target-width="83.37999" target-x="253.89" target-y="401.55"></path></g></g><path d="M 324.91 486.15 C 322.98 474.65 318.01 463.05 308.91 455.42 C 306.70 453.57 304.46 451.79 301.76 450.41 C 299.15 449.03 295.72 448.35 292.80 449.53 C 286.92 452.08 284.91 458.39 284.37 463.76 C 285.40 458.44 288.32 452.67 293.36 451.20 C 298.45 449.89 302.81 454.22 306.52 457.99 C 313.98 465.73 317.27 476.45 317.93 486.98 C 318.05 488.92 319.73 490.40 321.67 490.28 C 323.61 490.16 325.09 488.48 324.97 486.54 C 324.95 486.42 324.93 486.27 324.91 486.15 Z" fill="#152140" fill-rule="nonzero" node-id="75" stroke="none" target-height="42.049988" target-width="40.72" target-x="284.37" target-y="448.35"></path><path d="M 717.40 409.59 L 721.17 410.29 L 724.76 411.58 L 728.19 413.49 L 731.51 416.08 L 734.44 419.04 L 737.19 422.51 L 739.76 426.55 L 742.14 431.22 L 744.09 435.97 L 745.77 441.13 L 747.17 446.73 L 748.28 452.81 L 748.99 458.85 L 749.34 465.15 L 749.31 471.74 L 748.90 478.63 L 748.06 485.48 L 746.90 491.97 L 745.42 498.10 L 743.63 503.91 L 741.45 509.69 L 739.06 514.95 L 736.48 519.72 L 733.71 524.04 L 730.52 528.20 L 727.27 531.72 L 723.94 534.64 L 720.52 537.02 L 716.79 538.97 L 713.07 540.23 L 709.31 540.85 L 705.47 540.85 L 701.70 540.16 L 698.11 538.87 L 694.68 536.96 L 691.36 534.37 L 688.43 531.41 L 685.68 527.94 L 683.11 523.89 L 680.72 519.22 L 678.78 514.48 L 677.10 509.32 L 675.70 503.72 L 674.59 497.63 L 673.88 491.60 L 673.53 485.30 L 673.56 478.71 L 673.97 471.82 L 674.80 464.96 L 675.97 458.48 L 677.45 452.35 L 679.23 446.54 L 681.42 440.75 L 683.81 435.50 L 686.39 430.73 L 689.16 426.41 L 692.35 422.24 L 695.60 418.73 L 698.93 415.81 L 702.35 413.43 L 706.08 411.48 L 709.80 410.22 L 713.56 409.60 L 717.40 409.59 Z" fill="#ff9f8e" fill-rule="nonzero" group-id="3,20" node-id="81" stroke="none" target-height="131.25998" target-width="75.81" target-x="673.53" target-y="409.59"></path><path d="M 691.18 491.76 C 693.11 480.26 698.08 468.66 707.18 461.03 C 709.39 459.18 711.63 457.40 714.33 456.02 C 716.94 454.64 720.37 453.96 723.29 455.14 C 729.17 457.69 731.18 464.00 731.72 469.37 C 730.69 464.05 727.77 458.28 722.73 456.81 C 717.64 455.50 713.28 459.83 709.57 463.60 C 702.11 471.34 698.82 482.06 698.16 492.59 C 698.04 494.53 696.36 496.01 694.42 495.89 C 692.48 495.77 691.00 494.09 691.12 492.15 C 691.14 492.02 691.15 491.87 691.18 491.76 Z" fill="#152140" fill-rule="nonzero" node-id="85" stroke="none" target-height="42.05002" target-width="40.71997" target-x="691" target-y="453.96"></path><path d="M 419.20 689.08 L 587.53 689.08 L 587.53 874.07 L 419.20 874.07 Z" fill="#ff9f8e" fill-rule="nonzero" group-id="4" node-id="89" stroke="none" target-height="184.98999" target-width="168.33002" target-x="419.2" target-y="689.08"></path><path d="M 325.14 430.18 C 318.96 406.39 308.96 372.09 293.21 331.65 C 280.00 297.76 275.91 293.34 276.90 281.37 C 281.10 230.84 363.67 192.81 426.39 183.52 C 460.13 178.52 488.24 181.82 505.21 184.88 C 504.83 179.09 503.11 165.70 492.98 154.30 C 489.80 150.72 486.45 148.08 483.46 146.15 C 489.44 145.33 513.44 142.73 535.78 158.38 C 550.40 168.62 557.36 181.80 560.24 188.28 C 561.96 178.00 562.90 164.38 560.24 148.87 C 559.35 143.68 558.16 138.92 556.84 134.60 C 561.57 137.42 569.54 143.07 575.87 152.95 C 585.81 168.46 585.18 184.20 584.70 189.64 C 590.26 183.30 601.75 171.92 620.03 164.50 C 636.56 157.79 651.21 157.35 659.44 157.71 C 656.80 158.01 641.47 160.00 632.26 173.34 C 627.72 179.91 626.51 186.56 626.15 190.33 C 634.20 188.82 645.81 187.64 659.45 189.65 C 680.97 192.82 696.37 202.27 704.30 208.00 C 694.11 210.04 683.92 212.08 673.72 214.12 C 682.10 216.15 694.77 220.11 708.37 228.39 C 713.83 231.71 751.81 254.81 748.46 277.99 C 747.25 286.34 741.42 289.64 734.87 297.02 C 705.38 330.24 728.22 371.02 704.97 415.25 C 699.74 425.21 689.95 439.55 670.32 453.30 C 555.26 445.58 440.20 437.88 325.14 430.18 Z" fill="#152140" fill-rule="nonzero" group-id="5" node-id="94" stroke="none" target-height="318.69998" target-width="475.9" target-x="275.91" target-y="134.6"></path><path d="M 587.53 689.08 L 587.53 740.97 C 540.37 762.18 473.19 766.64 419.20 744.52 L 419.20 689.08 L 587.53 689.08 Z" fill="#f5575d" fill-rule="nonzero" group-id="6" node-id="99" stroke="none" target-height="77.56" target-width="168.33002" target-x="419.2" target-y="689.08"></path><path d="M 486.52 233.41 C 415.17 245.10 358.38 299.14 339.08 368.81 C 320.82 434.71 310.89 515.13 329.24 600.46 C 343.56 667.04 365.41 691.57 376.80 702.39 C 438.95 761.34 552.64 755.81 611.91 717.34 C 694.96 663.43 724.09 510.49 662.26 336.15 C 637.85 267.32 569.49 223.41 496.97 231.94 C 496.33 232.02 495.69 232.09 495.04 232.18 C 492.16 232.54 489.32 232.96 486.52 233.41 Z" fill="#ff9f8e" fill-rule="nonzero" group-id="7" node-id="104" stroke="none" target-height="537.93005" target-width="413.2" target-x="310.89" target-y="223.41"></path><path d="M 635.79 383.50 L 637.18 390.51 L 638.12 397.37 L 638.62 404.08 L 638.71 410.65 L 638.39 417.28 L 637.68 423.64 L 636.60 429.76 L 635.16 435.64 L 633.30 441.47 L 631.12 446.93 L 628.64 452.05 L 625.84 456.85 L 622.64 461.45 L 619.18 465.60 L 615.46 469.33 L 611.46 472.67 L 607.16 475.61 L 602.62 478.04 L 597.82 480.00 L 592.74 481.48 L 587.53 482.38 L 582.36 482.72 L 577.21 482.52 L 572.05 481.77 L 567.00 480.52 L 562.02 478.79 L 557.09 476.58 L 552.20 473.85 L 547.58 470.76 L 543.10 467.25 L 538.75 463.29 L 534.53 458.87 L 530.65 454.21 L 527.00 449.19 L 523.58 443.78 L 520.38 437.96 L 517.58 432.02 L 515.09 425.76 L 512.93 419.19 L 511.11 412.27 L 509.72 405.26 L 508.78 398.40 L 508.27 391.69 L 508.19 385.12 L 508.51 378.49 L 509.22 372.13 L 510.30 366.01 L 511.74 360.13 L 513.60 354.30 L 515.77 348.84 L 518.26 343.72 L 521.06 338.92 L 524.26 334.32 L 527.72 330.17 L 531.44 326.44 L 535.43 323.10 L 539.74 320.17 L 544.28 317.73 L 549.07 315.77 L 554.15 314.29 L 559.37 313.39 L 564.54 313.05 L 569.68 313.25 L 574.84 314.01 L 579.90 315.25 L 584.88 316.98 L 589.81 319.19 L 594.70 321.92 L 599.31 325.01 L 603.79 328.52 L 608.14 332.48 L 612.37 336.90 L 616.24 341.56 L 619.89 346.58 L 623.32 351.99 L 626.51 357.81 L 629.32 363.76 L 631.80 370.01 L 633.96 376.58 L 635.79 383.50 Z" fill="#ffffff" fill-opacity="0.4" fill-rule="nonzero" group-id="8,21" node-id="111" stroke="#0f0f0f" stroke-linecap="butt" stroke-opacity="0.4" stroke-width="6.000106" target-height="169.67001" target-width="130.52002" target-x="508.19" target-y="313.05"></path><path d="M 459.16 319.52 L 464.14 322.24 L 468.70 325.40 L 472.89 328.99 L 476.72 333.04 L 480.14 337.44 L 483.18 342.18 L 485.85 347.29 L 488.14 352.79 L 489.97 358.42 L 491.41 364.31 L 492.44 370.47 L 493.05 376.94 L 493.22 383.37 L 492.96 389.96 L 492.25 396.71 L 491.08 403.64 L 489.49 410.43 L 487.44 417.25 L 484.89 424.12 L 481.85 431.06 L 478.36 437.79 L 474.61 444.08 L 470.59 449.97 L 466.31 455.47 L 461.65 460.73 L 456.84 465.53 L 451.89 469.87 L 446.77 473.78 L 441.36 477.36 L 435.91 480.43 L 430.43 483.01 L 424.90 485.12 L 419.18 486.80 L 413.52 487.93 L 407.93 488.54 L 402.36 488.65 L 396.80 488.21 L 391.37 487.21 L 386.05 485.64 L 380.81 483.48 L 375.83 480.75 L 371.27 477.60 L 367.08 474.01 L 363.25 469.96 L 359.83 465.56 L 356.79 460.82 L 354.13 455.71 L 351.83 450.20 L 350.00 444.57 L 348.56 438.69 L 347.53 432.52 L 346.92 426.06 L 346.75 419.62 L 347.01 413.04 L 347.72 406.29 L 348.89 399.36 L 350.48 392.57 L 352.54 385.75 L 355.08 378.87 L 358.12 371.94 L 361.61 365.21 L 365.36 358.91 L 369.38 353.03 L 373.66 347.53 L 378.32 342.26 L 383.13 337.47 L 388.09 333.13 L 393.20 329.22 L 398.61 325.64 L 404.06 322.57 L 409.54 319.98 L 415.07 317.87 L 420.80 316.20 L 426.45 315.07 L 432.05 314.45 L 437.61 314.35 L 443.17 314.79 L 448.60 315.79 L 453.92 317.36 L 459.16 319.52 Z" fill="#ffffff" fill-opacity="0.4" fill-rule="nonzero" group-id="9,22" node-id="119" stroke="#0f0f0f" stroke-linecap="butt" stroke-opacity="0.4" stroke-width="6.000236" target-height="174.29999" target-width="146.47" target-x="346.75" target-y="314.35"></path><path d="M 409.03 430.31 C 409.03 440.59 400.70 448.92 390.42 448.92 C 380.14 448.92 371.81 440.59 371.81 430.31 C 371.81 420.03 380.14 411.70 390.42 411.70 C 400.70 411.70 409.03 420.03 409.03 430.31 Z" fill="#152140" fill-rule="nonzero" group-id="10" node-id="125" stroke="none" target-height="37.22" target-width="37.22" target-x="371.81" target-y="411.7"></path><path d="M 404.05 422.98 C 404.05 425.78 401.78 428.05 398.98 428.05 C 396.18 428.05 393.91 425.78 393.91 422.98 C 393.91 420.18 396.18 417.91 398.98 417.91 C 401.78 417.91 404.05 420.18 404.05 422.98 Z" fill="#ffffff" fill-rule="nonzero" group-id="11" node-id="130" stroke="none" target-height="10.139984" target-width="10.139984" target-x="393.91" target-y="417.91"></path><path d="M 571.16 430.31 C 571.16 440.59 562.83 448.92 552.55 448.92 C 542.27 448.92 533.94 440.59 533.94 430.31 C 533.94 420.03 542.27 411.70 552.55 411.70 C 562.83 411.70 571.16 420.03 571.16 430.31 Z" fill="#152140" fill-rule="nonzero" group-id="12,23" node-id="137" stroke="none" target-height="37.22" target-width="37.21997" target-x="533.94" target-y="411.7"></path><path d="M 566.18 422.98 C 566.18 425.78 563.91 428.05 561.11 428.05 C 558.31 428.05 556.04 425.78 556.04 422.98 C 556.04 420.18 558.31 417.91 561.11 417.91 C 563.91 417.91 566.18 420.18 566.18 422.98 Z" fill="#ffffff" fill-rule="nonzero" group-id="12,24" node-id="142" stroke="none" target-height="10.139984" target-width="10.140015" target-x="556.04" target-y="417.91"></path><path d="M 687.21 368.51 C 670.39 357.58 651.45 343.00 632.85 323.66 C 625.77 316.30 619.46 309.00 613.82 301.92 C 614.50 310.74 616.17 321.45 619.94 333.18 C 621.80 338.96 623.90 344.18 626.05 348.81 C 620.07 343.12 608.75 330.77 602.95 311.44 C 594.57 283.54 603.39 260.05 606.35 253.00 C 600.95 262.89 591.50 277.22 575.77 290.37 C 551.46 310.70 525.81 316.81 513.25 318.91 C 520.13 310.76 528.02 302.27 537.03 293.77 C 558.82 273.22 580.76 258.61 599.55 248.24 C 570.73 256.21 538.89 266.75 505.10 280.86 C 479.41 291.58 456.07 302.90 435.11 314.16 C 438.81 307.42 444.79 298.41 454.14 289.70 C 468.12 276.68 482.81 270.72 491.51 267.96 C 466.90 272.28 432.83 281.28 396.38 301.26 C 374.27 313.37 356.48 326.68 342.70 338.63 C 334.55 320.96 326.39 303.30 318.24 285.63 C 344.01 276.30 379.53 263.86 422.20 250.30 C 575.07 201.70 599.56 208.52 612.46 214.29 C 672.01 240.87 684.22 334.05 687.21 368.51 Z" fill="#152140" fill-rule="nonzero" group-id="13" node-id="148" stroke="none" target-height="166.81001" target-width="368.97003" target-x="318.24" target-y="201.7"></path><path d="M 434.33 297.03 C 433.36 294.92 421.94 296.34 412.75 302.32 C 400.10 310.53 394.26 325.65 396.23 327.21 C 397.18 327.96 399.59 325.30 413.41 314.44 C 430.04 301.36 435.02 298.56 434.33 297.03 Z" fill="#152140" fill-rule="nonzero" group-id="14" node-id="153" stroke="none" target-height="33.039978" target-width="40.75998" target-x="394.26" target-y="294.92"></path><path d="M 560.57 297.12 C 561.06 294.85 572.52 293.79 582.79 297.65 C 596.91 302.96 605.85 316.47 604.26 318.42 C 603.50 319.36 600.57 317.27 584.74 309.63 C 565.68 300.42 560.21 298.75 560.57 297.12 Z" fill="#152140" fill-rule="nonzero" group-id="15" node-id="158" stroke="none" target-height="25.569977" target-width="45.639954" target-x="560.21" target-y="293.79"></path><path d="M 624.05 475.91 L 624.11 477.56 L 623.62 479.31 L 622.46 481.23 L 620.95 482.95 L 618.89 484.76 L 616.17 486.67 L 611.71 489.16 L 606.15 491.59 L 600.15 493.63 L 593.39 495.37 L 586.51 496.60 L 580.21 497.23 L 574.14 497.33 L 569.05 496.92 L 565.78 496.32 L 563.16 495.53 L 561.06 494.59 L 559.21 493.32 L 558.04 491.94 L 557.41 490.41 L 557.35 488.76 L 557.84 487.02 L 559.00 485.09 L 560.51 483.37 L 562.57 481.57 L 565.29 479.66 L 569.75 477.17 L 575.31 474.74 L 581.31 472.70 L 588.07 470.96 L 594.96 469.73 L 601.25 469.10 L 607.32 469.00 L 612.41 469.41 L 615.68 470.01 L 618.30 470.80 L 620.40 471.73 L 622.25 473.01 L 623.42 474.39 L 624.05 475.91 Z" fill="#ff8777" fill-rule="nonzero" group-id="16" node-id="163" stroke="none" target-height="28.329987" target-width="66.76001" target-x="557.35" target-y="469"></path><path d="M 393.04 476.47 L 399.81 478.21 L 405.80 480.25 L 411.37 482.68 L 415.82 485.17 L 418.54 487.07 L 420.61 488.88 L 422.12 490.60 L 423.27 492.52 L 423.77 494.27 L 423.71 495.92 L 423.08 497.44 L 421.90 498.83 L 420.05 500.10 L 417.96 501.03 L 415.33 501.82 L 412.07 502.43 L 406.98 502.84 L 400.91 502.74 L 394.61 502.10 L 387.73 500.87 L 380.96 499.13 L 374.97 497.09 L 369.41 494.66 L 364.95 492.17 L 362.23 490.27 L 360.17 488.46 L 358.65 486.74 L 357.50 484.81 L 357.01 483.07 L 357.07 481.42 L 357.70 479.90 L 358.87 478.51 L 360.72 477.24 L 362.81 476.30 L 365.44 475.52 L 368.70 474.91 L 373.79 474.50 L 379.86 474.60 L 386.16 475.24 L 393.04 476.47 Z" fill="#ff8777" fill-rule="nonzero" group-id="17" node-id="168" stroke="none" target-height="28.339996" target-width="66.75998" target-x="357.01" target-y="474.5"></path><path d="M 777.83 950.46 C 700.48 997.48 609.63 1024.50 512.50 1024.50 C 503.92 1024.50 495.40 1024.33 487.00 1023.88 C 477.81 1023.43 468.73 1022.76 459.71 1021.75 C 395.70 1015.30 335.28 996.92 280.52 969.07 C 265.95 961.62 251.77 953.49 238.03 944.74 C 238.37 944.24 238.76 943.79 239.09 943.28 C 242.06 939.30 245.03 935.32 248.23 931.34 C 268.58 905.11 289.65 881.79 310.67 860.89 C 339.76 831.69 368.34 807.53 393.96 788.03 C 401.31 782.71 412.29 782.15 419.85 787.08 C 432.91 795.60 454.38 806.42 483.47 809.44 C 525.79 814.04 558.97 799.41 575.67 789.71 C 582.96 785.56 592.60 785.56 599.43 790.27 C 629.19 810.00 660.30 833.37 691.18 860.89 C 693.70 862.96 696.00 865.09 698.52 867.34 C 726.88 893.01 751.37 918.79 772.90 944.46 C 774.58 946.48 776.21 948.44 777.83 950.46 Z" fill="#ffffff" fill-rule="nonzero" group-id="18" node-id="173" stroke="none" target-height="242.34998" target-width="539.80005" target-x="238.03" target-y="782.15"></path><path d="M 691.21 860.91 L 310.69 860.91 C 339.75 831.68 368.35 807.57 393.98 788.01 C 401.31 782.69 412.28 782.12 419.83 787.06 C 432.88 795.60 454.39 806.42 483.44 809.46 C 525.76 814.02 558.94 799.40 575.64 789.72 C 582.96 785.55 592.58 785.55 599.44 790.29 C 629.20 810.03 660.32 833.38 691.21 860.91 Z" fill="#020202" fill-rule="nonzero" group-id="18" node-id="175" stroke="none" target-height="78.78998" target-width="380.52002" target-x="310.69" target-y="782.12"></path><path d="M 777.83 950.46 C 700.48 997.48 609.63 1024.50 512.50 1024.50 C 503.92 1024.50 495.40 1024.33 487.00 1023.88 C 477.81 1023.43 468.73 1022.76 459.71 1021.75 C 395.70 1015.30 335.28 996.92 280.52 969.07 C 265.95 961.62 251.77 953.49 238.03 944.74 C 238.37 944.24 238.76 943.79 239.09 943.28 L 338.86 975.17 L 677.00 975.17 L 772.90 944.46 C 774.58 946.48 776.21 948.44 777.83 950.46 Z" fill="#020202" fill-rule="nonzero" group-id="18" node-id="177" stroke="none" target-height="81.21997" target-width="539.80005" target-x="238.03" target-y="943.28"></path><path d="M 559.57 645.42 L 559.57 645.49 C 556.87 660.53 531.53 668.58 503.02 663.50 C 494.90 662.05 487.45 659.67 480.91 656.70 C 464.55 649.18 454.38 637.70 456.30 626.94 C 458.02 617.44 468.58 610.77 483.22 608.40 C 492.00 606.88 502.16 606.95 512.85 608.86 C 524.07 610.91 534.16 614.67 542.01 619.42 C 554.16 626.68 561.15 636.25 559.57 645.42 Z" fill="#dd5543" fill-rule="nonzero" node-id="180" stroke="none" target-height="61.700012" target-width="106.77002" target-x="454.38" target-y="606.88"></path><path d="M 542.02 619.42 C 536.61 624.83 526.32 628.46 514.51 628.46 C 497.02 628.46 482.90 620.54 482.90 610.84 C 482.90 609.98 483.03 609.19 483.23 608.40 C 492.01 606.88 502.17 606.95 512.86 608.86 C 524.07 610.91 534.16 614.67 542.02 619.42 Z" fill="#ffffff" fill-rule="nonzero" node-id="182" stroke="none" target-height="21.580017" target-width="59.120026" target-x="482.9" target-y="606.88"></path><path d="M 559.57 645.42 L 559.57 645.49 C 556.87 660.53 531.53 668.58 503.02 663.50 C 494.90 662.05 487.45 659.67 480.91 656.70 C 485.86 648.91 507.04 642.98 532.38 642.98 C 542.35 642.98 551.65 643.90 559.57 645.42 Z" fill="#ffffff" fill-rule="nonzero" node-id="184" stroke="none" target-height="25.600037" target-width="78.66" target-x="480.91" target-y="642.98"></path><path d="M 501.29 561.58 L 490.59 559.51 C 463.75 554.33 446.20 528.37 451.38 501.54 L 453.12 492.52 C 456.17 476.75 471.42 466.43 487.19 469.48 L 498.39 471.64 C 527.58 477.28 546.67 505.52 541.02 534.71 L 541.02 534.71 C 537.47 553.10 519.68 565.13 501.29 561.58 Z" fill="url(#SVGID_1_)" fill-rule="nonzero" node-id="186" stroke="none" target-height="98.70001" target-width="100.46997" target-x="446.2" target-y="466.43"></path></svg>