<svg height="1024" width="1024" xmlns="http://www.w3.org/2000/svg"><defs><linearGradient gradientUnits="userSpaceOnUse" id="a" spreadMethod="pad" x1="560.532" x2="473.325" y1="567.448" y2="517.099"><stop offset=".24" stop-color="#dd5543" stop-opacity="0"/><stop offset="1" stop-color="#dd5543" stop-opacity=".6"/></linearGradient></defs><path d="M1024.5 512.48c0 136.77-53.62 261.1-141.08 352.91a502.217 502.217 0 0 1-45.44 42.38c-8.48 7.02-17.15 13.68-26.07 20.12-84.17 60.81-187.63 96.61-299.43 96.61-8.53 0-17.1-.18-25.45-.67-9.2-.44-18.3-1.07-27.32-2.09-64.01-6.44-124.46-24.83-179.19-52.73-24.3-12.35-47.53-26.65-69.34-42.69a516.83 516.83 0 0 1-69.61-60.94C54.16 773.62.5 649.33.5 512.48.5 229.7 229.75.5 512.48.5c282.77 0 512.02 229.2 512.02 511.98z" fill="#fd835d"/><path d="M883.41 865.39a503.554 503.554 0 0 1-45.44 42.38c-8.48 7.02-17.15 13.68-26.07 20.12-54.77 39.58-117.71 68.54-185.81 83.95a515.078 515.078 0 0 1-113.63 12.66c-8.53 0-17.1-.18-25.45-.67-9.19-.44-18.3-1.07-27.32-2.09a487.886 487.886 0 0 1-60.77-9.91c-41.66-9.37-81.33-23.94-118.42-42.82-24.3-12.35-47.53-26.65-69.34-42.69a516.83 516.83 0 0 1-69.61-60.94c54.9-35.76 137.92-63.03 235.74-76.31 13.55-1.87 27.36-3.42 41.44-4.71 30.21-2.75 61.61-4.22 93.77-4.22 29 0 57.35 1.2 84.8 3.42 17.19 1.42 34.03 3.24 50.42 5.51 97.81 13.29 180.79 40.56 235.69 76.32z" fill="#152140"/><path d="m647.72 789.08-21.63 222.76a515.078 515.078 0 0 1-113.63 12.66c-8.53 0-17.1-.18-25.45-.67-9.19-.44-18.3-1.07-27.32-2.09a487.886 487.886 0 0 1-60.77-9.91L377.3 789.08c13.55-1.87 27.36-3.42 41.44-4.71 30.21-2.75 61.61-4.22 93.77-4.22 29 0 57.35 1.2 84.8 3.42 17.19 1.42 34.02 3.24 50.41 5.51z" fill="#2e416b"/><path d="M703.24 536.39c6.4-25.82 17.83-60.37 39.14-97.56a380.658 380.658 0 0 1 56.66-75.36c-12.46-4.48-24.92-8.96-37.39-13.44 14.6-6.62 29.21-13.24 43.81-19.86-25.82-29.03-60.68-62.11-106.32-92.3a540.025 540.025 0 0 0-54.33-31.55c9.8-9.48 19.76-19.6 29.79-30.38 5.66-6.08 11.11-12.13 16.35-18.11-12.71 3.29-33.32 10.35-54.33 26.29-18.07 13.71-29.52 28.75-36.22 39.14-.84-8.68-2.42-18.54-5.26-29.21-5.35-20.12-13.34-36.19-20.45-47.9 2.96 7.67 8.16 24.46 3.5 44.4a71.91 71.91 0 0 1-7.59 19.28c-6.66-9.31-20.46-25.55-42.64-32.13 0 0-21.79-6.47-49.66 2.34-41.06 12.97-139.18 88.78-258.79 203.88 15.58-1.56 31.16-3.12 46.74-4.67-12.66 13.63-25.32 27.26-37.97 40.89 14.83 2.66 39.83 9.33 64.26 28.04 47.15 36.12 56.05 89.43 57.83 102.23 117.64-4.67 235.25-9.35 352.87-14.02z" fill="#152140"/><path d="M251.1 395.51c-8.17.85-16.34 1.62-24.5 2.47 5.77-5.56 11.55-11.06 17.25-16.48 7.47-.77 14.93-1.48 22.4-2.25-5.01 5.41-10.01 10.83-15.15 16.26zM337.93 506.78c-8.59-15.21-20.77-31.06-38.31-44.51-24.44-18.73-49.44-25.42-64.3-28.03 3.17-3.38 6.34-6.83 9.51-10.21 13.87 4.09 30.91 11.27 47.75 24.16 23.03 17.67 36.91 39.44 45.35 58.59zM595.13 194.09c-2.74-10.35-6.2-19.58-9.86-27.75 6.13 10.99 12.4 25 16.9 41.83.85 3.17 1.62 6.27 2.18 9.3-1.48 2.04-2.82 4.01-3.94 5.78-.84-8.67-2.39-18.53-5.28-29.16zM658.73 213.67c-4.72-2.61-9.37-5-13.94-7.32 7.53-7.25 15.14-14.93 22.75-22.96 11.97-6.06 22.68-9.44 30.5-11.48-5.28 5.99-10.7 12.04-16.34 18.1-7.76 8.23-15.37 16.12-22.97 23.66z" fill="#24365e"/><path d="M251.1 395.51c7.4-.7 14.79-1.48 22.19-2.18-9.44 10.28-18.94 20.49-28.45 30.71-6.27-1.83-11.9-3.03-16.55-3.87 7.6-8.25 15.27-16.42 22.81-24.66zM581.75 160.21c2.96 7.68 8.17 24.51 3.52 44.44-1.83 7.89-4.79 14.37-7.61 19.3-6.69-9.37-20.42-25.56-42.61-32.18 0 0-21.83-6.41-49.72 2.39-39.09 12.32-129.8 81.55-241.49 187.33-8.1.78-16.2 1.62-24.29 2.4C339.13 268.81 437.24 193.03 478.3 180.07c27.89-8.8 49.72-2.39 49.72-2.39 22.18 6.62 35.92 22.82 42.61 32.18 2.82-4.93 5.78-11.41 7.61-19.3 4.65-19.93-.56-36.76-3.52-44.44 3.45 5.7 7.11 12.47 10.56 20.21-1.2-2.17-2.4-4.21-3.53-6.12zM667.53 183.39c-7.61 3.8-15.7 8.59-23.88 14.86-18.03 13.66-29.51 28.73-36.2 39.09-.56-6.06-1.55-12.75-3.1-19.86 6.9-9.72 17.32-21.97 32.26-33.31 21.06-15.99 41.62-23.03 54.37-26.34-5.28 5.99-10.7 12.04-16.34 18.1-2.39 2.52-4.72 4.99-7.11 7.46z" fill="#24365e"/><path d="M597.6 669.96v107.33c0 49.47-40.11 89.58-89.58 89.58s-89.58-40.11-89.58-89.58V669.96H597.6z" fill="#ff9f8e"/><path d="M597.6 674.34v65.78c-58.88 17.18-127.12 9.23-179.16-13.73v-52.05H597.6z" fill="#f5575d"/><path d="m348.02 510.87.38 7.49-.18 7.05-.71 6.65-1.26 6.57-1.69 5.88-2.08 5.27-1.96 3.83-2.11 3.32-2.26 2.85-2.4 2.43-2.73 2.12-2.82 1.57-2.94 1.06-3.1.57h-3.15l-3.08-.51-3.06-1.04-3.06-1.59-2.8-1.96-2.74-2.4-2.67-2.88-2.61-3.42-3-4.8-2.72-5.49-2.43-6.23-1.9-6.42-1.45-6.9-.97-7.43-.38-7.49.18-7.05.71-6.65 1.26-6.57 1.69-5.88 2.08-5.27 1.96-3.83 2.11-3.32 2.26-2.85 2.4-2.43 2.72-2.12 2.83-1.57 2.94-1.06 3.09-.57h3.15l3.09.51 3.06 1.04 3.06 1.59 2.8 1.96 2.74 2.4 2.67 2.88 2.61 3.42 3 4.8 2.72 5.49 2.43 6.23 1.9 6.42 1.45 6.9.97 7.43z" fill="#ff9f8e"/><path d="M336 541.08c-.67-11.64-4.34-23.72-12.55-32.3-1.99-2.08-4.03-4.09-6.56-5.76-2.45-1.66-5.78-2.71-8.82-1.85-6.12 1.89-8.81 7.94-9.94 13.22 1.6-5.18 5.14-10.59 10.31-11.5 5.2-.75 9.06 4.04 12.34 8.19 6.57 8.51 8.66 19.52 8.18 30.07a3.523 3.523 0 0 0 3.36 3.68c1.95.09 3.6-1.42 3.69-3.36 0-.12 0-.27-.01-.39z" fill="#152140"/><path d="m716.56 445.72 3.1.57 2.94 1.06 2.82 1.57 2.72 2.12 2.41 2.43 2.25 2.85 2.11 3.32 1.96 3.84 2.08 5.26 1.69 5.89 1.27 6.57.71 6.65.18 7.05-.38 7.48-.98 7.44-1.45 6.9-1.9 6.41-2.42 6.24-2.72 5.48-3 4.81-2.62 3.41-2.67 2.89-2.73 2.4-2.81 1.95-3.06 1.6-3.06 1.03-3.08.51-3.15.01-3.1-.57-2.94-1.06-2.82-1.57-2.73-2.12-2.4-2.43-2.26-2.85-2.11-3.32-1.95-3.84-2.09-5.26-1.68-5.89-1.27-6.57-.71-6.65-.18-7.05.38-7.49.98-7.43 1.44-6.9 1.9-6.41 2.43-6.24 2.72-5.48 3-4.81 2.61-3.42 2.68-2.88 2.73-2.4 2.8-1.95 3.07-1.6 3.05-1.03 3.09-.52h3.15z" fill="#ff9f8e"/><path d="M693.58 527.71c.21-11.66 3.4-23.87 11.28-32.76 1.91-2.15 3.87-4.25 6.33-6.02 2.38-1.75 5.66-2.93 8.74-2.19 6.19 1.65 9.11 7.59 10.45 12.82-1.8-5.11-5.55-10.38-10.75-11.09-5.23-.54-8.9 4.39-12.01 8.66-6.23 8.76-7.89 19.85-7 30.36a3.515 3.515 0 0 1-3.21 3.81 3.515 3.515 0 0 1-3.81-3.21c-.02-.11-.03-.26-.02-.38z" fill="#152140"/><path d="M710.07 584.04c-.07 2.32-.28 4.65-.7 7.18v.07c0 .21 0 .49-.07.77-.5 3.03-1.06 5.99-1.91 9.01-.35 1.83-.84 3.66-1.41 5.42l-2.82 8.24v.07c-.28.85-.64 1.69-1.06 2.54-.91 2.54-2.04 5-3.24 7.54-.28.56-.56 1.13-.91 1.76l-3.52 6.69c-.7 1.34-1.55 2.75-2.39 4.09-1.2 1.97-2.47 4.01-3.73 5.99-1.41 2.04-2.82 4.08-4.36 6.13-1.2 1.69-2.4 3.31-3.73 4.86-.84 1.2-1.76 2.32-2.75 3.38-1.2 1.62-2.53 3.17-3.94 4.65-.64.77-1.27 1.55-2.04 2.25-1.41 1.69-2.96 3.31-4.58 4.93-1.97 2.04-4.01 4.01-6.06 5.92l-5.14 4.72c-.91.85-1.83 1.62-2.74 2.39l-5.43 4.44c-2.04 1.69-4.15 3.38-6.41 5-1.83 1.34-3.73 2.68-5.64 4.01-1.97 1.41-4.01 2.75-6.06 4.08-1.69 1.13-3.45 2.18-5.21 3.24-2.61 1.62-5.28 3.24-8.03 4.72-1.69.99-3.45 1.9-5.21 2.75-3.73 2.04-7.6 3.94-11.48 5.7-1.83.84-3.59 1.62-5.42 2.32-3.03 1.34-6.13 2.61-9.29 3.73-2.11.85-4.23 1.55-6.34 2.25-1.48.49-2.89.99-4.37 1.48-2.18.7-4.44 1.34-6.62 1.97-2.82.78-5.7 1.55-8.59 2.25-2.18.49-4.44.99-6.69 1.41-.98.28-1.97.42-3.03.63-2.18.42-4.3.77-6.48 1.13-2.04.35-4.15.63-6.2.85-2.04.28-4.09.49-6.13.63v.07c-3.38.28-6.76.56-10.21.63-2.11.14-4.23.21-6.34.21h-.35c-1.41 0-2.89 0-4.3-.07-2.25 0-4.51-.07-6.76-.21-2.89-.07-5.77-.28-8.66-.56-2.18-.21-4.37-.42-6.55-.7-1.06-.14-2.04-.28-3.1-.42-2.11-.28-4.15-.56-6.2-.92-3.31-.56-6.55-1.2-9.79-1.9-1.97-.42-3.88-.85-5.85-1.34-2.68-.63-5.42-1.34-8.1-2.11-2.25-.63-4.5-1.27-6.69-2.04-1.34-.35-2.68-.77-4.01-1.34-2.19-.63-4.44-1.41-6.55-2.25-2.75-.99-5.5-2.04-8.17-3.17-2.18-.85-4.3-1.76-6.41-2.75l-2.68-1.27h-.07c-2.04-.92-4.09-1.9-6.06-2.89-3.38-1.69-6.69-3.38-9.86-5.21-2.04-1.13-4.01-2.25-5.91-3.45-2.39-1.41-4.65-2.82-6.9-4.37l-5.85-3.87c-1.06-.7-1.97-1.41-2.96-2.11-1.9-1.41-3.73-2.82-5.56-4.23-2.25-1.69-4.44-3.52-6.55-5.35-1.69-1.41-3.45-2.96-5.07-4.44-.78-.7-1.48-1.34-2.18-2.11-1.55-1.34-3.03-2.82-4.44-4.3-1.06-.99-2.04-2.04-2.96-3.1-1.41-1.48-2.82-3.03-4.08-4.51-1.69-1.97-3.38-3.94-4.86-5.92a74.71 74.71 0 0 1-4.23-5.7c-.99-1.27-1.83-2.61-2.61-3.87v-.07c-1.48-2.11-2.75-4.23-3.94-6.41-.42-.63-.77-1.2-1.13-1.9v-.07c-1.34-2.39-2.6-4.93-3.66-7.39-.5-.92-.85-1.83-1.2-2.75-1.2-2.89-2.25-5.77-3.1-8.73-.7-2.04-1.27-4.01-1.69-6.06v-.07a74.02 74.02 0 0 1-1.06-5.42c-.28-1.9-.56-3.8-.7-5.78-.28-2.96-.42-5.99-.5-9.09v-.07c-.07-4.51.14-9.09.42-13.8.35-5 .85-10 1.48-14.93 1.27-9.37 2.89-18.31 4.58-25.99v-.14c1.41-6.62 2.82-12.32 3.87-16.41.85-3.17 1.48-5.42 1.76-6.48 1.13-3.94 2.25-7.61 3.38-11.13 1.97-6.06 3.94-11.55 5.77-16.62 6.62-18.31 11.62-32.25 9.51-52.54-2.96-29.02-17.18-38.88-20.21-54.51-4.44-22.75 15.14-56.48 99.58-108.25 47.68-29.16 108.74-24.51 151.42 11.69 15.56 13.24 31.13 26.41 46.76 39.65a139.676 139.676 0 0 1 47.26 83.67c2.25 13.66 4.86 28.73 7.82 44.93.85 4.65 1.69 9.08 2.47 13.31 3.03 16.2 5.77 29.72 8.24 41.27 1.41 6.9 2.75 13.1 3.94 18.66.63 2.82 1.27 5.56 1.83 8.1 1.41 6.55 2.68 12.11 3.73 16.97v.07c1.48 6.69 2.53 12.04 3.24 16.69v.07c.73 5.18 1.01 9.47.73 13.91z" fill="#ff9f8e"/><path d="m592.09 374.22 4.16 1.22 3.94 1.6 3.72 2 3.54 2.41 3.27 2.74 3.06 3.06 2.83 3.41 2.63 3.77 3 5.31 2.55 5.78 2.09 6.31 1.52 6.48.98 6.82.42 7.2-.17 7.22-.79 7.41-1.44 7.65-2.06 7.5-2.54 7.01-3.01 6.56-3.53 6.29-3.87 5.7-4.2 5.16-4.64 4.76-4.83 4.08-5.03 3.45-4.01 2.24-4.04 1.82-4.09 1.41-4.15 1.03-4.23.61-4.22.17-4.24-.28-4.28-.74-4.17-1.21-3.93-1.61-3.73-2-3.53-2.41-3.28-2.73-3.05-3.07-2.84-3.4-2.62-3.77-3.01-5.31-2.55-5.79-2.09-6.3-1.51-6.48-.98-6.82-.42-7.2.17-7.22.79-7.42 1.43-7.64 2.06-7.5 2.54-7.02 3.01-6.56 3.54-6.28 3.87-5.71 4.2-5.16 4.64-4.75 4.83-4.08 5.03-3.46 4.01-2.23 4.04-1.82 4.09-1.42 4.14-1.02 4.24-.62 4.22-.16 4.24.28 4.28.73z" fill="#fff" fill-opacity=".4" stroke="#0f0f0f" stroke-opacity=".4" stroke-width="6"/><path d="M579.88 441.76c0 7.49-6.08 13.57-13.57 13.57s-13.57-6.08-13.57-13.57 6.08-13.57 13.57-13.57 13.57 6.08 13.57 13.57z" fill="#152140"/><path d="M576.24 436.41c0 2.04-1.65 3.69-3.69 3.69s-3.69-1.65-3.69-3.69 1.65-3.69 3.69-3.69 3.69 1.65 3.69 3.69z" fill="#fff"/><path d="m459.44 376.17 4.17 1.22 3.93 1.6 3.73 2 3.53 2.41 3.28 2.74 3.05 3.06 2.84 3.41 2.62 3.77 3.01 5.3 2.55 5.79 2.09 6.31 1.51 6.47.98 6.83.42 7.2-.17 7.21-.79 7.42-1.43 7.65-2.06 7.5-2.54 7.01-3.01 6.56-3.54 6.29-3.87 5.7-4.2 5.16-4.64 4.75-4.83 4.08-5.03 3.46-4.01 2.24-4.04 1.81-4.09 1.42-4.14 1.02-4.24.62-4.22.17-4.24-.29-4.28-.73-4.16-1.21-3.94-1.61-3.72-2-3.54-2.41-3.27-2.74-3.06-3.06-2.83-3.4-2.63-3.78-3-5.3-2.55-5.79-2.09-6.31-1.52-6.47-.98-6.82-.42-7.21.17-7.21.79-7.42 1.44-7.64 2.06-7.51 2.54-7.01 3.01-6.56 3.53-6.29 3.87-5.7 4.2-5.16 4.64-4.75 4.83-4.08 5.03-3.46 4.01-2.24 4.04-1.81 4.09-1.42 4.15-1.02 4.23-.62 4.22-.17 4.24.29 4.28.73z" fill="#fff" fill-opacity=".4" stroke="#0f0f0f" stroke-opacity=".4" stroke-width="6"/><path d="M463.42 433.54c0 7.49-6.08 13.57-13.57 13.57s-13.57-6.08-13.57-13.57 6.08-13.57 13.57-13.57 13.57 6.08 13.57 13.57z" fill="#152140"/><path d="M459.79 428.19c0 2.04-1.65 3.69-3.69 3.69s-3.69-1.65-3.69-3.69 1.65-3.69 3.69-3.69 3.69 1.65 3.69 3.69z" fill="#fff"/><path d="m618.24 693.41-6.34-6.76c-2.61-2.75-10-10.07-21.34-17.61-16.55-10.92-41.69-22.32-73.25-20.99-35.21 1.62-60.78 18.31-75.14 30.78-5.21 4.51-9.01 8.52-11.13 10.99l-6.62 7.46.42-10c.63-14.86 5.42-52.05 35.57-75.36 2.68-2.11 5.56-4.01 8.45-5.7.21-.14.35-.21.56-.28 18.31-10.7 40.92-14.37 64.72-10.49 8.94 1.48 17.54 3.94 25.64 7.25 1.9.77 3.8 1.62 5.63 2.54 16.06 7.68 29.58 18.87 38.52 32.4 8.8 13.17 13.52 28.88 14.01 46.55l.3 9.22z" fill="#dd5543"/><path d="M590.56 669.04c-16.55-10.92-41.69-22.32-73.25-20.99-35.21 1.62-60.78 18.31-75.14 30.78 1.76-13.95 7.32-22.11 10.28-25.92 17.54-22.25 50.08-20.78 78.03-19.44 17.96.85 30.85 1.62 43.03 11.27 9.23 7.33 14.3 16.62 17.05 24.3z" fill="#fff"/><path d="M695.64 404.4c-3.77 3.12-28.41-17.39-77.7-58.42-29.19-24.3-52.91-45.22-69.51-60.17a481.214 481.214 0 0 0-52.57 70.1c-1.37-7.83-3.47-26.29 5.26-46.73 5.89-13.8 14.36-22.97 19.86-28.04-41.87 18.54-93.57 47.04-145.46 91.13a593.434 593.434 0 0 0-60.17 59c-12.77-13.6-22.85-29.98-22.79-48.49.26-76.2 172.5-180.14 293.26-125.02 82.56 37.69 118.5 139.43 109.82 146.64z" fill="#152140"/><path d="M633.68 385.08c-.77.4-2.78-1.22-9.56-7.13l.02-.03c-5.3-4.65-13.49-11.91-26.25-22.95-19.13-16.53-30.8-26.22-37.33-31.9-5.45-4.77-7.38-6.79-7.1-7.74.47-1.73 7.98.6 17.95 5.83 6.78 3.59 14.75 8.55 22.36 14.5 10.89 8.53 20.2 18.4 27.09 27.04 9.47 11.88 14.43 21.54 12.82 22.38zM477.98 310.66c-1.4-3.31-19.37-1.04-34.11 8.34-20.26 12.9-30.22 36.59-27.21 39.03 1.45 1.17 5.36-3 27.6-20.06 26.78-20.53 34.73-24.93 33.72-27.31z" fill="#152140"/><path d="M654.16 385.09c3.13 17.47 5.61 30.13 7.3 38.56 1.23 6.11 3.82 18.8-.87 30.96-1.23 3.18-2.75 5.81-4.97 6.13-3.8.56-7.86-5.95-9.64-9.93-3.99-8.94-1.98-17.48.29-27.75 1.85-8.35 4.6-21.14 7.89-37.97zM372.49 351.2c2.66 14.83 4.76 25.58 6.2 32.74 1.05 5.19 3.25 15.96-.74 26.29-1.04 2.7-2.34 4.93-4.22 5.21-3.23.47-6.67-5.05-8.18-8.43-3.39-7.59-1.68-14.84.25-23.56 1.56-7.09 3.9-17.95 6.69-32.25z" fill="#fff" fill-opacity=".4"/><path d="M565.42 605.23c-11.62 3.94-29.29 6.48-49.09 6.48-18.59 0-35.29-2.25-46.9-5.78 18.31-10.7 40.92-14.37 64.72-10.49 8.94 1.48 17.54 3.94 25.64 7.25 1.89.78 3.8 1.63 5.63 2.54z" fill="#fff"/><path d="M322.51 595.94s-.07-.07 0-.07c.85-1.55 1.69-3.1 2.61-4.65 5.21-8.87 11.62-16.83 18.94-25.14-8.45 2.96-15.63 8.87-21.13 15.99l-.42 13.87zM347.52 584.11c-7.32 8.31-13.67 16.27-18.88 25.14-1.41 2.25-2.68 4.58-3.87 6.97a74.02 74.02 0 0 1-1.06-5.42c-.28-1.9-.56-3.8-.7-5.78 5.77-9.29 14.22-17.25 24.51-20.91zM350.9 601.65c-7.32 8.31-13.73 16.27-18.94 25.14-.85 1.41-1.69 2.82-2.4 4.3-1.2-2.89-2.25-5.77-3.1-8.73 5.77-9.23 14.15-17.12 24.44-20.71zM354.42 614.25c-7.32 8.31-13.73 16.27-18.94 25.14-.35.56-.7 1.2-1.06 1.83-1.34-2.39-2.6-4.93-3.66-7.39 5.7-8.73 13.8-16.13 23.66-19.58zM357.16 626.44c-6.76 7.68-12.75 15.07-17.68 23.17-1.48-2.11-2.75-4.23-3.94-6.41 5.5-7.47 12.89-13.67 21.62-16.76zM362.23 638.9c-5.99 6.76-11.34 13.31-15.91 20.35a74.71 74.71 0 0 1-4.23-5.7c5.43-6.55 12.19-11.83 20.14-14.65zM367.45 654.61c-4.44 5.07-8.52 10-12.19 15.07-1.41-1.48-2.82-3.03-4.08-4.51 4.64-4.72 10.14-8.38 16.27-10.56zM374.98 661.86c-4.51 5.07-8.66 10.07-12.32 15.21-1.55-1.34-3.03-2.82-4.44-4.3 4.79-4.78 10.42-8.66 16.76-10.91zM385.19 664.25c-5.7 6.48-10.85 12.68-15.28 19.37-1.69-1.41-3.45-2.96-5.07-4.44 5.42-6.61 12.32-12.11 20.35-14.93zM399.56 670.24c-6.69 7.68-12.68 14.93-17.53 22.96-1.9-1.41-3.73-2.82-5.56-4.23 5.69-8.38 13.65-15.35 23.09-18.73zM390.83 699.19c4.86-8.03 10.85-15.28 17.54-22.89-9.65 3.38-17.61 10.49-23.38 19.02l5.84 3.87zM419.63 686.44c-6.06 6.83-11.41 13.45-15.99 20.56-2.04-1.13-4.01-2.25-5.91-3.45 5.56-7.67 13.1-13.94 21.9-17.11zM434 697.07c-5.35 6.06-10.14 11.9-14.37 18.03h-.07c-2.04-.92-4.09-1.9-6.06-2.89 5.36-6.76 12.4-12.25 20.5-15.14zM444.21 699.4c-5.78 6.62-11.06 12.89-15.5 19.72-2.18-.85-4.3-1.76-6.41-2.75 5.57-7.61 13.03-13.87 21.91-16.97zM458.58 705.45c-5.64 6.41-10.7 12.54-15.14 19.09-2.19-.63-4.44-1.41-6.55-2.25 5.49-7.54 12.88-13.74 21.69-16.84zM467.38 711.44c-4.86 5.49-9.3 10.85-13.24 16.48-2.25-.63-4.5-1.27-6.69-2.04 5.28-6.48 12.11-11.69 19.93-14.44zM474.98 715.67c-2.53 5.35-4.93 10.49-6.9 15.71-1.97-.42-3.88-.85-5.85-1.34 3.18-5.64 7.47-10.64 12.75-14.37zM489.49 716.09c-2.11 6.2-4.01 12.18-5.42 18.1-2.11-.28-4.15-.56-6.2-.92 2.61-6.55 6.41-12.53 11.62-17.18zM499.85 714.33c-2.47 7.18-4.58 14.09-6.13 20.99-2.18-.21-4.37-.42-6.55-.7 2.46-7.76 6.69-14.94 12.68-20.29zM515.48 714.47c-2.53 7.47-4.79 14.51-6.34 21.62-2.25 0-4.51-.07-6.76-.21 2.53-8.17 6.83-15.78 13.1-21.41zM525.83 716.65c-2.25 6.62-4.23 12.96-5.7 19.3-2.11.14-4.23.21-6.34.21h-.35c2.46-7.47 6.62-14.3 12.39-19.51zM538.3 717.57c-.85 5.85-1.48 11.48-1.83 17.04-2.04.28-4.09.49-6.13.63 1.41-6.4 4.01-12.46 7.96-17.67zM550.48 711.86c-.85 7.25-1.27 14.09-1.34 20.78-2.18.42-4.3.77-6.48 1.13.78-7.89 3.31-15.57 7.82-21.91zM560.2 707.85c-.84 7.89-1.41 15.35-1.34 22.75-2.18.49-4.44.99-6.69 1.41.56-8.6 3.1-17.19 8.03-24.16zM575.49 704.54c-.85 7.6-1.41 14.72-1.41 21.83-2.18.7-4.44 1.34-6.62 1.97.56-8.52 3.09-16.9 8.03-23.8zM586.12 704.4c-.7 6.34-1.2 12.32-1.34 18.24-2.11.85-4.23 1.55-6.34 2.25.92-7.39 3.38-14.51 7.68-20.49zM599.5 716.58c-1.83.84-3.59 1.62-5.42 2.32.28-5.92 1.62-11.76 4.23-17.11.27 5.14.62 10 1.19 14.79zM710.07 584.04c-2.11-3.59-4.3-6.97-6.76-10.28-5.99-8.45-13.1-15.7-21.13-23.38 10.84 2.82 20.21 10.21 26.83 19.23.14.14.21.35.35.49v.07c.71 5.14.99 9.43.71 13.87zM709.36 591.22c.07 0 0 .07 0 .07 0 .21 0 .49-.07.77-.5 3.03-1.06 5.99-1.91 9.01-1.83-3.1-3.8-6.13-5.91-9.09-5.99-8.38-13.1-15.7-21.13-23.31 10.85 2.75 20.14 10.14 26.83 19.16.78 1.14 1.56 2.27 2.19 3.39zM703.17 614.82v-.07c-1.13-1.69-2.25-3.38-3.45-5-5.99-8.38-13.1-15.71-21.13-23.31 10.85 2.75 20.21 10.14 26.83 19.23.21.28.42.56.56.85l-2.81 8.3zM702.11 617.35c-.91 2.54-2.04 5-3.24 7.54-.49-.78-.98-1.48-1.55-2.25-5.99-8.38-13.03-15.7-21.13-23.31 10.35 2.6 19.44 9.5 25.92 18.02zM697.95 626.65c-6.27-7.04-14.3-12.61-23.38-14.93 7.47 7.11 14.16 13.94 19.86 21.62l3.52-6.69zM692.04 637.42c-1.2 1.97-2.47 4.01-3.73 5.99-5.14-6.55-11.06-12.61-17.61-18.8 8.1 2.04 15.42 6.76 21.34 12.81zM683.94 649.54c-1.2 1.69-2.4 3.31-3.73 4.86-4.01-4.65-8.45-9.16-13.31-13.73 6.26 1.61 12.04 4.71 17.04 8.87zM677.46 657.78c-1.2 1.62-2.53 3.17-3.94 4.65-4.09-4.72-8.59-9.23-13.45-13.8 6.41 1.61 12.32 4.85 17.39 9.15zM671.48 664.68c-1.41 1.69-2.96 3.31-4.58 4.93-5-6.13-10.63-11.9-16.83-17.75 8.17 2.04 15.42 6.76 21.41 12.82zM660.84 675.52c-6.34-7.75-14.79-13.87-24.51-16.34 7.32 6.9 13.8 13.59 19.37 21.06l5.14-4.72zM652.95 682.64c-6.41-7.89-15-14.23-24.86-16.69 7.39 6.9 13.87 13.59 19.44 21.13l5.42-4.44zM641.12 692.07c-1.83 1.34-3.73 2.68-5.64 4.01-5.14-6.62-11.06-12.68-17.68-18.95 9.02 2.34 17.05 7.9 23.32 14.94zM629.43 700.17c-1.69 1.13-3.45 2.18-5.21 3.24-3.38-5.21-7.18-10.28-11.34-15.56.07.07.21.07.28.14 1.76.7 3.38 1.62 5 2.61 4.23 2.53 8.03 5.84 11.27 9.57zM616.19 708.13c-1.69.99-3.45 1.9-5.21 2.75-3.03-4.51-6.34-8.87-9.93-13.45 5.77 2.39 10.85 6.12 15.14 10.7z" fill="#152140"/><path d="m522.46 587.68-10.7-2.07c-26.84-5.18-44.39-31.14-39.21-57.97l1.74-9.02c3.05-15.77 18.3-26.09 34.07-23.04l11.2 2.16c29.19 5.64 48.28 33.88 42.63 63.07-3.55 18.4-21.34 30.43-39.73 26.87z" fill="url(#a)"/></svg>