<svg height="1024" width="1024" xmlns="http://www.w3.org/2000/svg"><defs><linearGradient gradientUnits="userSpaceOnUse" id="a" spreadMethod="pad" x1="486.873" x2="486.873" y1="771.672" y2="622.063"><stop offset="0" stop-color="#e9705e" stop-opacity=".8"/><stop offset=".668" stop-color="#ff9f8e" stop-opacity="0"/></linearGradient><linearGradient gradientUnits="userSpaceOnUse" id="b" spreadMethod="pad" x1="511.894" x2="424.687" y1="589.646" y2="539.298"><stop offset=".24" stop-color="#dd5543" stop-opacity="0"/><stop offset="1" stop-color="#dd5543" stop-opacity=".6"/></linearGradient></defs><path d="M1024.5 512.5c0 136.76-53.64 261.07-141.08 352.88-12.61 13.28-25.95 25.95-39.96 37.72-1.79 1.63-3.64 3.14-5.49 4.65-8.52 7.06-17.15 13.68-26.06 20.12-84.18 60.81-187.65 96.63-299.46 96.63-8.52 0-17.1-.17-25.45-.67-2.13-.11-4.32-.22-6.45-.39-7.01-.39-13.95-.9-20.85-1.68-4.54-.45-9.08-1.01-13.56-1.57-1.12-.11-2.24-.28-3.36-.45-8.18-1.06-16.25-2.35-24.21-3.87-48.88-8.97-95.23-25-138.05-46.86a494.719 494.719 0 0 1-69.33-42.65c-4.26-3.08-8.41-6.22-12.56-9.47-20.29-15.69-39.35-32.96-57.06-51.51C54.14 773.63.5 649.37.5 512.5.5 229.74 229.74.5 512.45.5c282.76 0 512.05 229.24 512.05 512z" fill="#8cdbf4"/><path d="M843.46 903.1c-1.79 1.63-3.64 3.14-5.49 4.65-8.52 7.06-17.15 13.68-26.06 20.12-84.18 60.81-187.65 96.63-299.46 96.63-8.52 0-17.1-.17-25.45-.67-2.13-.11-4.32-.22-6.45-.39-7.01-.39-13.95-.9-20.85-1.68-4.54-.45-9.08-1.01-13.56-1.57-1.12-.11-2.24-.28-3.36-.45-8.18-1.06-16.25-2.35-24.21-3.87-48.88-8.97-95.23-25-138.05-46.86a494.719 494.719 0 0 1-69.33-42.65c-4.26-3.08-8.41-6.22-12.56-9.47 28.08-21.97 51.4-39.85 55.88-43.33 28.08-24.1 68.38-52.63 121.57-73.42.17-.06.33-.17.5-.22h.05c6.56-2.52 13.06-4.88 19.51-7.01.05 0 .05 0 .11-.06.39-.11.9-.28 1.29-.45.05 0 .05 0 .11-.06 12.11-3.87 24.1-7.17 35.87-9.86 70.68-16.09 134.52-10.7 181.82-1.51 14.4 2.8 27.24 5.94 38.28 8.97.79.22 1.63.45 2.47.67 2.58.73 5.21 1.51 7.96 2.24.05 0 .17.06.22.06.34.11.62.17.95.28 5.94 1.74 11.15 3.36 15.58 4.71 1.01.28 2.07.62 3.25 1.01.17.06.28.11.45.17 21.75 6.84 73.93 25.61 124.54 67.71 18.73 15.57 28.48 27.01 34.42 36.31z" fill="#274e88"/><path d="M396.4 784.92c27.18-9.34 65.19-18.99 111.17-20.46 70.63-2.26 126.49 15.86 158.92 29.33C611.24 858.81 556 923.83 500.75 988.85c-37.06-7.96-50.09-10.76-87.15-18.71 2.27-60.02-19.47-125.2-17.2-185.22z" fill="#fff"/><path d="M679.92 776.99c-5.21-12.44-16.48-25.78-45.96-38.23-56.89-24.04-149.53-31.39-223.24 20.91-12.97 9.23-25.95 20.57-32.44 26.99-1.06 1.04-1.68 2.41-1.72 3.89-.08 2.94-.06 6.07.03 9.37 2.47 57.11 38.67 157.66 41.98 215.95 7.96 1.51 16.03 2.8 24.21 3.87 1.12.17 2.24.34 3.36.45 4.48.56 9.02 1.12 13.56 1.57 6.89.78 13.84 1.29 20.85 1.68C531.28 980.78 654.41 874.29 680.37 822c2.3-4.65 4.37-13.06 4.15-22.92a61.063 61.063 0 0 0-4.6-22.09zM445.8 1016.32c-1.18-12-3.7-25.84-7.01-40.8-13.4-60.59-39.57-139.28-41.14-183.17-.11-1.4-.11-2.75-.11-4.04 7.73-3.48 20.34-8.69 36.37-13.17 61.88-17.32 117.36-7.73 171.84 2.3 12.39 2.24 28.19 6.89 47.86 12.5.79.22 1.63.45 2.47.67 2.8.73 5.44 1.51 7.96 2.24.05 0 .17.06.22.06.34.11.62.17.95.28-.05.06-.05.06-.05.11-45.51 52.52-128.35 128.52-188.6 190.34-11.2 11.49-21.56 22.42-30.76 32.68z" fill="#1467a8"/><path d="M615.33 676.48v116.63c-24.83 26.99-48.2 45.49-64.79 57.29-34.48 24.52-58.92 41.4-82.53 33.42-15.67-5.29-23.92-19.14-27.96-25.92-26.81-44.97 3.01-102.67 6.82-109.81 56.16-23.87 112.31-47.74 168.46-71.61z" fill="#ff9f8e"/><path d="M615.35 676.5v116.64c-24.83 26.96-48.2 45.46-64.79 57.28-34.47 24.49-58.91 41.36-82.56 33.4-15.64-5.27-23.93-19.11-27.97-25.89-17.43-29.26-10.87-63.95-3.14-86.54.95-2.86 1.96-5.55 2.91-7.96 3.2-7.9 6.05-13.45 7.06-15.36 56.17-23.88 112.33-47.7 168.49-71.57z" fill="#ff9f8e"/><path d="M615.35 676.5v55.88c-20.4 11.99-46.58 23.65-81.22 40.52-17.26 8.46-34.13 15.64-52.51 15.58h-.51c-1.79 0-3.59-.11-5.38-.28-1.01-.11-2.02-.22-3.03-.34-1.01-.17-2.02-.34-3.08-.5-2.52-.5-5.04-1.06-7.51-1.85-9.36-2.86-17.15-7.57-25.22-14.12.95-2.86 1.96-5.55 2.91-7.96 3.2-7.9 6.05-13.45 7.06-15.36 56.17-23.88 112.33-47.7 168.49-71.57z" fill="#f5575d"/><path d="M684.57 640.12c5.7-11.13 18.76-32.91 44.25-50.28 20.91-14.26 41.14-19.39 52.96-21.45-.83-2.44-2.38-5.76-5.36-8.71-8.8-8.73-21.93-6.34-23.46-6.03 10.14-2.64 27.9-8.93 42.9-24.81 4.52-4.79 8.02-9.62 10.73-14.08-4.47-2.23-8.94-4.47-13.41-6.7 9.45-23.7 35.42-97.79 8.72-185.03-17.11-55.89-48.45-93.05-67.04-111.96 4.09-2.13 10.33-6.02 16.09-12.74a53.726 53.726 0 0 0 8.71-14.08c-6.37-1.47-13.8-2.73-22.12-3.35-11.05-.82-20.81-.3-28.83.67 1.62-2.34 7.61-11.6 6.03-24.13-2.04-16.19-15.03-24.42-16.76-25.48a569.855 569.855 0 0 0-170.96 24.81 569.85 569.85 0 0 0-156.87 75.76l40.89-2.01a184.418 184.418 0 0 0-52.96 33.52 184.54 184.54 0 0 0-40.89 53.63 260.07 260.07 0 0 1 25.47-23.46c41.63-33.49 85.82-47.77 117.32-54.3-19.32 4.69-52.22 15.61-83.13 42.91-14.33 12.65-24.73 25.73-32.18 36.87a385.23 385.23 0 0 0 35.53-16.09c22.74-11.72 35.92-21.38 36.87-20.11 1.16 1.55-16.83 17.9-35.53 32.85-34.69 27.73-55.85 37.84-53.63 44.92.89 2.84 5.73 5.84 24.81 5.36-6.17 1.53-15.54 4.91-18.77 12.74-2.83 6.85.35 13.99 2.01 18.1 4.45 10.98 9.06 27.39 10.06 51.62 112.85 63.66 225.7 127.35 338.55 191.04z" fill="#152140"/><path d="M693.28 581.8c-4.12 35.58-7.46 63.95-27.46 93.83-23.15 34.49-58.49 47.52-126.08 80.44-21.52 10.55-42.43 19.16-66.38 14.12-19.64-4.12-31.76-15.46-50.25-33.52-99.95-97.77-107.17-120.87-109.29-134.75-3.03-19.7-1.09-37.28.67-54.98 6.97-69.95 40.92-129.41 40.92-129.41 44.98-96.92 58.19-130.45 64.74-144.87 2.55-1.39 5.09-2.73 7.64-4.06 26.49-13.88 51.71-24.79 74.56-33.52-9.28 3.88-21.46 10.49-32.79 21.94-7.52 7.58-12.61 15.28-16.12 21.58 14.85-11.15 34.25-23.88 58.37-35.16 25.34-11.94 48.62-18.91 67.35-23.16 8.42.55 21.03 2.55 32.67 10.55 10.06 6.91 27.1 23.46 34.74 108.62 2.12 23.82 3.88 56.98 2 97.05 5.76-10.61 12.91-26.91 16.06-47.76 2.06-13.52 1.88-25.34 1.03-34.67 2.18 6.67 4.18 13.7 6 21.09 3.21 12.97 5.46 25.4 6.85 37.1-1.15 1.94-2.24 3.7-3.33 5.27 1.94 5.88 3.76 11.64 5.4 17.34.36 1.33.73 2.73 1.09 4.06 17.07 62.25 15.13 112.68 11.61 142.87z" fill="#ff9f8e"/><path d="m437.75 405.51 4.03 1.17 3.8 1.55 3.6 1.94 3.42 2.33 3.17 2.64 2.95 2.96 2.74 3.29 2.54 3.65 2.9 5.13 2.47 5.59 2.02 6.1 1.46 6.26.95 6.59.41 6.97-.17 6.97-.76 7.17-1.39 7.39-1.99 7.25-2.46 6.78-2.9 6.34-3.42 6.08-3.74 5.51-4.06 4.99-4.49 4.59-4.67 3.95-4.86 3.34-3.88 2.16-3.9 1.76-3.95 1.36-4.01.99-4.09.6-4.09.16-4.09-.27-4.14-.71-4.03-1.18-3.8-1.55-3.6-1.93-3.42-2.33-3.17-2.65-2.95-2.96-2.74-3.29-2.54-3.64-2.9-5.13-2.47-5.6-2.02-6.09-1.46-6.26-.95-6.6-.41-6.96.17-6.97.76-7.17 1.39-7.39 1.99-7.25 2.46-6.78 2.91-6.34 3.42-6.08 3.74-5.51 4.05-4.99 4.49-4.6 4.67-3.94 4.86-3.34 3.88-2.16 3.9-1.76 3.96-1.37 4-.99 4.09-.59 4.09-.16 4.1.27 4.13.71z" fill="#fff" fill-opacity=".4" stroke="#0f0f0f" stroke-opacity=".4" stroke-width="6"/><path d="M448.31 476.01c0 10.95-8.88 19.83-19.83 19.83-10.95 0-19.83-8.88-19.83-19.83 0-10.95 8.88-19.83 19.83-19.83 10.95 0 19.83 8.88 19.83 19.83z" fill="#152140"/><path d="M443 468.2c0 2.98-2.42 5.4-5.4 5.4-2.98 0-5.4-2.42-5.4-5.4 0-2.98 2.42-5.4 5.4-5.4 2.98 0 5.4 2.42 5.4 5.4z" fill="#fff"/><path d="m595.84 391.15 4.3 2.39 3.95 2.77 3.62 3.15 3.3 3.56 2.94 3.86 2.61 4.17 2.28 4.49 1.95 4.85 1.54 4.94 1.2 5.18.84 5.43.48 5.69.09 5.66-.29 5.8-.68 5.95-1.08 6.11-1.44 5.98-1.85 6.01-2.28 6.06-2.72 6.11-3.1 5.93-3.32 5.56-3.56 5.19-3.78 4.85-4.11 4.65-4.23 4.23-4.36 3.83-4.49 3.45-4.75 3.17-4.77 2.72-4.8 2.28-4.84 1.87-5.01 1.49-4.93 1.01-4.88.55-4.85.11-4.84-.37-4.72-.87-4.63-1.37-4.54-1.89-4.31-2.39-3.95-2.76-3.62-3.16-3.3-3.56-2.94-3.86-2.6-4.16-2.28-4.49-1.95-4.85-1.55-4.95-1.2-5.18-.84-5.42-.48-5.7-.09-5.66.29-5.8.68-5.94 1.08-6.11 1.45-5.98 1.85-6.01 2.28-6.06 2.71-6.12 3.1-5.93 3.33-5.55 3.55-5.19 3.78-4.85 4.11-4.65 4.23-4.23 4.36-3.84 4.49-3.45 4.75-3.17 4.78-2.71 4.8-2.29 4.83-1.87 5.01-1.49 4.94-1.01 4.88-.55 4.85-.1 4.84.37 4.72.87 4.62 1.37 4.55 1.88z" fill="#fff" fill-opacity=".4" stroke="#0f0f0f" stroke-opacity=".4" stroke-width="6"/><path d="m571.39 449.96 2.89.9 2.62 1.19 2.38 1.5 2.16 1.8 2.49 2.81 1.94 3.13 1.42 3.49.67 2.74.29 2.81-.08 2.89-.47 3.01-.89 2.9-1.2 2.64-1.49 2.39-1.8 2.18-2.81 2.51-3.11 1.96-3.47 1.43-2.74.68-2.79.3-2.88-.07-2.99-.47-2.89-.89-2.62-1.2-2.38-1.49-2.16-1.81-2.49-2.81-1.94-3.12-1.42-3.49-.66-2.74-.3-2.81.08-2.89.47-3.01.9-2.91 1.19-2.63 1.5-2.4 1.8-2.17 2.8-2.51 3.12-1.96 3.47-1.43 2.73-.68 2.79-.3 2.88.07 2.99.46z" fill="#152140"/><path d="m579.52 459.35 1.51.58 1.22.88.96 1.19.64 1.38.25 1.49-.15 1.63-.58 1.53-.88 1.22-1.18.97-1.38.65-1.48.25-1.62-.14-1.51-.58-1.22-.88-.96-1.18-.64-1.39-.25-1.49.15-1.63.58-1.53.88-1.22 1.18-.97 1.38-.64 1.48-.26 1.62.14z" fill="#fff"/><path d="M539.33 381.87c1.33 1.24 15-15.96 34.86-19.27 8.03-1.34 14.33.05 15.59.33 5.77 1.33 10.08 3.76 12.74 5.53a33.313 33.313 0 0 0-6.2-8.55c-6.62-6.56-15.31-9.49-21.79-9.72-22.52-.81-36.81 30.17-35.2 31.68zM455.53 381.37c-.53-7.88-10.88-15.96-20.45-17.26-11.21-1.53-23.28 5.97-30.17 18.77 10.39-8.35 17.38-9.01 21.96-7.88 3.51.87 7.99 3.38 16.59 8.21 4.84 2.72 8.27 4.89 10.39 3.52 1.96-1.26 1.72-4.8 1.68-5.36z" fill="#152140"/><path d="M555.82 696.87c0 41.31-30.87 74.8-68.95 74.8s-68.95-33.49-68.95-74.8c0-41.31 30.87-74.8 68.95-74.8s68.95 33.49 68.95 74.8z" fill="url(#a)" fill-opacity=".6"/><path d="m625.87 517.45.42 1.74-.14 1.95-.81 2.29-1.24 2.15-1.8 2.36-2.47 2.6-2.67 2.38-3.17 2.46-3.73 2.53-5.91 3.45-6.8 3.3-7.03 2.78-6.54 2.03-4.38 1.03-3.96.68-3.55.36-3.59.06-2.96-.27-2.42-.54-2.23-.95-1.54-1.22-1-1.48-.41-1.74.14-1.95.81-2.29 1.24-2.15 1.79-2.36 2.48-2.6 2.67-2.38 3.17-2.46 3.72-2.53 5.91-3.45 6.81-3.3 7.02-2.78 6.54-2.03 4.39-1.03 3.95-.68 3.56-.36 3.59-.06 2.95.27 2.42.54 2.24.95 1.54 1.22.99 1.48zM394.97 527.47l3.91 3.31 3.34 3.24 2.81 3.15 2.56 3.39 1.79 2.97 1.17 2.61.57 2.11.1 1.69-.27 1.38-.61 1.15-.98.86-1.28.59-1.67.29-2.18-.07-2.81-.53-3.31-1.05-3.89-1.7-3.72-2-3.91-2.5-4.14-3.04-3.92-3.32-3.33-3.23-2.81-3.15-2.56-3.39-1.79-2.97-1.17-2.61-.57-2.11-.11-1.69.28-1.39.61-1.15.97-.86 1.28-.58 1.68-.29 2.18.06 2.81.53 3.3 1.06 3.89 1.7 3.72 2 3.92 2.5 4.14 3.04z" fill="#ff8777"/><path d="M679.26 430.93c-2.1-7.15-3.74-12.26-4.1-13.39-3.15-9.95-6.8-28.03-9.52-63.49.85 9.34 1.03 21.21-1.01 34.69-3.15 20.88-10.31 37.13-16.09 47.77 1.86-40.06.11-73.25-2.01-97.04-7.6-85.19-24.66-101.73-34.69-108.61-11.68-8-24.25-10.04-32.68-10.56a328.724 328.724 0 0 0-67.38 23.13 329.4 329.4 0 0 0-58.33 35.2c3.46-6.3 8.58-14.01 16.09-21.62 14.66-14.85 30.78-21.57 40.23-24.64a685.575 685.575 0 0 0-160.9 84.47c5.01-9.91 11.27-19.94 19.11-29.66 48.23-59.88 124.6-69.36 152.35-71.4-14.24-2.8-27.23-3.49-38.72-3.02-89.77 3.69-149.21 80.99-164.41 102.07 4.37-10.75 11.41-25.51 22.62-41.23 68.68-96.26 216.31-119.7 315.26-82.46 22.46 8.45 78.41 29.51 87.99 73.41 1.85 8.46 1.54 15.8 1.01 20.61-.14 3.89-.12 9.91 1.01 17.1 4.08 26.14 18.63 41.96 26.82 54.3 9.25 13.94 19.13 36.63 18.77 73.75-.7.18-51.51 13.03-52.22 13.2-.7.18-51.52 13.03-52.22 13.2-1.5-6.03-3.81-14.97-6.98-25.78z" fill="#152140"/><path d="m737.35 429.31 3.99 1.69 3.64 2.21 3.32 2.73 3.04 3.29 2.6 3.63 2.27 4.03 1.94 4.48 1.6 4.98 1.14 5.02.75 5.32.36 5.63-.07 5.98-.48 5.87-.93 6.01-1.39 6.18-1.87 6.35-2.33 6.2-2.6 5.76-2.89 5.36-3.15 4.98-3.55 4.81-3.67 4.28-3.8 3.79-3.93 3.33-4.28 3.01-4.25 2.41-4.24 1.85-4.25 1.33-4.42.8-4.3.18-4.23-.43-4.2-1.05-3.99-1.69-3.64-2.21-3.33-2.73-3.03-3.3-2.6-3.62-2.27-4.03-1.94-4.49-1.6-4.97-1.14-5.03-.75-5.31-.36-5.63.06-5.98.48-5.87.93-6.02 1.39-6.17 1.88-6.35 2.32-6.2 2.61-5.76 2.88-5.36 3.15-4.98 3.55-4.82 3.68-4.28 3.8-3.78 3.93-3.33 4.28-3.01 4.24-2.41 4.25-1.85 4.25-1.33 4.41-.81 4.3-.17 4.23.43 4.21 1.05z" fill="#ff9f8e"/><path d="M739.83 486.21c-.73-6.79-3.82-14.37-10-16.79-6.24-2.18-12.24 2.85-17.28 7.15-10.24 8.97-15.52 22.12-17.46 35.34-.06.54-.24 1.03-.49 1.52-.49-6.36-1.15-12.97-2-19.82 4.12-8.06 9.76-15.28 17.15-20.49 2.97-2.12 6-4.12 9.58-5.58 3.39-1.45 7.82-1.94 11.4-.12 7.1 3.82 8.98 11.94 9.1 18.79zM487.86 660.92c-1.46.06-2.93.1-4.43.11-32.27.12-56.72-14.09-68.42-22.57a3.027 3.027 0 0 1-.68-4.23 3.027 3.027 0 0 1 4.23-.68c11.11 8.05 34.3 21.53 64.85 21.41 52.25-.02 83.99-39.08 89.85-46.86a3.013 3.013 0 0 1 4.24-.6 3.02 3.02 0 0 1 .6 4.24c-5.99 7.97-37.91 46.89-90.24 49.18z" fill="#152140"/><path d="m584.14 610.57-16.82.74a3.03 3.03 0 0 1-3.16-2.9 3.03 3.03 0 0 1 2.9-3.16l16.82-.74a3.03 3.03 0 0 1 3.16 2.9 3.037 3.037 0 0 1-2.9 3.16zM471.4 681.79c3.9 1.11 13.54 3.27 24.89-.25 8.99-2.79 14.87-7.85 17.73-10.68.07 2.1-.09 5.64-1.76 9.43-4.75 10.77-19.67 18.75-30.67 13.57-6.04-2.84-8.93-8.71-10.19-12.07z" fill="#152140"/><path d="m729.51 966.29-77.45 3.99a.895.895 0 0 1-.94-.85l-.45-8.73a.89.89 0 0 1 .85-.94l77.45-3.99c.5-.03.92.36.94.85l.45 8.73c.02.49-.36.91-.85.94z" fill="#1467a8"/><path d="M637.98 246.12c-3.69 2.21 7.26 18.85 14.88 64.16 3.31 19.67 4.59 36.47 5.11 48.82 1.14-6.9 3.18-14.79 6.97-15.34 7.07-1.03 15.99 24.01 17.2 27.43 4.01 11.27 8.43 28.74 7.44 52.07 8.72-6.44 19.49-16.61 25.1-31.61 23.71-63.35-67.57-151-76.7-145.53zM584.05 212.18c-8.1-.19-16.12 1.07-29.29 5.58-9.88 3.38-23.31 8.82-38.59 17.67l2.79-10.69c-19.22 2.75-43.86 8.78-69.74 22.32-8.26 4.32-15.69 8.9-22.32 13.48 1.58-4.3 4.7-11.96 10.23-20.46 36.16-55.56 132.26-80.9 178.06-43.24 6.69 5.5 15.1 14.64 21.39 30.22-15.72-7.55-28.97-11.15-38.13-13.02-7.63-1.56-11.86-1.8-14.4-1.86z" fill="#fff" fill-opacity=".05"/><path d="m473.82 609.88-10.7-2.07c-26.84-5.18-44.39-31.14-39.21-57.97l1.74-9.02c3.05-15.77 18.3-26.09 34.07-23.04l11.2 2.16c29.19 5.64 48.28 33.88 42.63 63.07-3.54 18.4-21.33 30.42-39.73 26.87z" fill="url(#b)"/></svg>